<svg xmlns="http://www.w3.org/2000/svg" width="89.999" height="90" viewBox="0 0 89.999 90">
  <g id="Group_7578" data-name="Group 7578" transform="translate(-109 -114)">
    <g id="Group_7577" data-name="Group 7577">
      <path id="Path_4271" data-name="Path 4271" d="M138.15,143.56a.659.659,0,0,1-.47-.17.672.672,0,0,1-.17-.48v-5.85a.608.608,0,0,1,.16-.45.643.643,0,0,1,.46-.16h2.46a2.53,2.53,0,0,1,1.76.57,2,2,0,0,1,.63,1.58,2.035,2.035,0,0,1-.63,1.59,2.53,2.53,0,0,1-1.76.57H138.8v2.15a.649.649,0,0,1-.18.48A.636.636,0,0,1,138.15,143.56Zm2.28-3.79q1.331,0,1.33-1.16t-1.33-1.16H138.8v2.32Zm4.292,3.79a.679.679,0,0,1-.45-.15.587.587,0,0,1-.17-.45v-5.97a.554.554,0,0,1,.17-.44.75.75,0,0,1,.9,0,.54.54,0,0,1,.18.44v5.97a.572.572,0,0,1-.18.45A.679.679,0,0,1,144.722,143.56Zm4.139-5.07a2.008,2.008,0,0,1,1.51.51,2.083,2.083,0,0,1,.5,1.53v2.44a.584.584,0,0,1-.16.43.619.619,0,0,1-.44.15.6.6,0,0,1-.43-.16.568.568,0,0,1-.16-.42v-.22a1.306,1.306,0,0,1-.54.61,1.576,1.576,0,0,1-.84.22,1.964,1.964,0,0,1-.89-.2,1.579,1.579,0,0,1-.63-.55,1.383,1.383,0,0,1-.23-.78,1.251,1.251,0,0,1,.27-.85,1.673,1.673,0,0,1,.9-.45,8.169,8.169,0,0,1,1.71-.14h.25v-.23a1,1,0,0,0-.21-.71.884.884,0,0,0-.68-.23,2.043,2.043,0,0,0-.59.09,6.692,6.692,0,0,0-.71.24,1,1,0,0,1-.38.13.39.39,0,0,1-.3-.13.574.574,0,0,1-.03-.63.818.818,0,0,1,.29-.24,3.237,3.237,0,0,1,.83-.3A4.385,4.385,0,0,1,148.861,138.49Zm-.31,4.19a1.061,1.061,0,0,0,.81-.33,1.221,1.221,0,0,0,.32-.87v-.21h-.18a6.888,6.888,0,0,0-1.04.06,1.006,1.006,0,0,0-.53.21.534.534,0,0,0-.16.41.7.7,0,0,0,.22.53A.825.825,0,0,0,148.551,142.68Zm6.53-4.19a1.635,1.635,0,0,1,1.31.5,2.266,2.266,0,0,1,.43,1.51v2.46a.576.576,0,0,1-.17.44.608.608,0,0,1-.45.16.643.643,0,0,1-.46-.16.576.576,0,0,1-.17-.44v-2.39a1.272,1.272,0,0,0-.22-.83.812.812,0,0,0-.67-.26,1.156,1.156,0,0,0-.87.34,1.276,1.276,0,0,0-.32.91v2.23a.576.576,0,0,1-.17.44.741.741,0,0,1-.92,0,.593.593,0,0,1-.16-.44v-3.87a.552.552,0,0,1,.17-.42.643.643,0,0,1,.46-.16.568.568,0,0,1,.42.16.508.508,0,0,1,.17.4v.27a1.7,1.7,0,0,1,.67-.63A2.013,2.013,0,0,1,155.081,138.49ZM141.85,153.86a1.678,1.678,0,0,1,.94.62,1.771,1.771,0,0,1,.34,1.1,1.694,1.694,0,0,1-.65,1.41,2.77,2.77,0,0,1-1.77.51h-2.58a.643.643,0,0,1-.46-.16.608.608,0,0,1-.16-.45v-5.83a.608.608,0,0,1,.16-.45.643.643,0,0,1,.46-.16h2.48a2.706,2.706,0,0,1,1.72.49,1.744,1.744,0,0,1,.33,2.32A1.659,1.659,0,0,1,141.85,153.86Zm-3.08-.44h1.63q1.331,0,1.33-.99a.854.854,0,0,0-.33-.74,1.7,1.7,0,0,0-1-.24h-1.63Zm1.8,3.08a1.658,1.658,0,0,0,1.02-.25.93.93,0,0,0,.32-.78.944.944,0,0,0-.33-.79,1.6,1.6,0,0,0-1.01-.26h-1.8v2.08Zm7.616-3.99a.641.641,0,0,1,.46.16.56.56,0,0,1,.17.43v3.88a.536.536,0,0,1-.18.42.627.627,0,0,1-.45.16.6.6,0,0,1-.43-.15.538.538,0,0,1-.16-.41v-.25a1.626,1.626,0,0,1-.62.62,1.825,1.825,0,0,1-.88.21q-1.8,0-1.8-2.02V153.1a.564.564,0,0,1,.17-.43.631.631,0,0,1,.45-.16.641.641,0,0,1,.46.16.56.56,0,0,1,.17.43v2.47a1.18,1.18,0,0,0,.21.77.813.813,0,0,0,.66.25,1.066,1.066,0,0,0,.83-.34,1.307,1.307,0,0,0,.32-.92V153.1a.564.564,0,0,1,.17-.43A.631.631,0,0,1,148.186,152.51Zm2.651,5.05a.679.679,0,0,1-.45-.15.59.59,0,0,1-.17-.45V153.1a.557.557,0,0,1,.17-.44.75.75,0,0,1,.9,0,.541.541,0,0,1,.18.44v3.86a.572.572,0,0,1-.18.45A.679.679,0,0,1,150.837,157.56Zm0-5.94a.779.779,0,0,1-.54-.18.647.647,0,0,1-.2-.49.615.615,0,0,1,.2-.48.779.779,0,0,1,.54-.18.762.762,0,0,1,.53.18.6.6,0,0,1,.21.48.644.644,0,0,1-.2.49A.776.776,0,0,1,150.837,151.62Zm2.639,5.94a.679.679,0,0,1-.45-.15.59.59,0,0,1-.17-.45v-5.97a.557.557,0,0,1,.17-.44.75.75,0,0,1,.9,0,.54.54,0,0,1,.18.44v5.97a.572.572,0,0,1-.18.45A.679.679,0,0,1,153.476,157.56Zm6.1-7.16a.664.664,0,0,1,.46.16.536.536,0,0,1,.18.42v5.98a.56.56,0,0,1-.17.43.713.713,0,0,1-.9,0,.564.564,0,0,1-.17-.43v-.25a1.554,1.554,0,0,1-.64.64,1.889,1.889,0,0,1-.94.23,2.055,2.055,0,0,1-1.13-.32,2.178,2.178,0,0,1-.77-.9,3.209,3.209,0,0,1-.27-1.35,3.075,3.075,0,0,1,.27-1.33,2.125,2.125,0,0,1,.77-.88,2.068,2.068,0,0,1,1.13-.31,1.951,1.951,0,0,1,.94.22,1.518,1.518,0,0,1,.63.62v-2.37a.524.524,0,0,1,.16-.4A.631.631,0,0,1,159.575,150.4Zm-1.85,6.21a1.1,1.1,0,0,0,.92-.41,1.824,1.824,0,0,0,.33-1.17,1.782,1.782,0,0,0-.33-1.16,1.086,1.086,0,0,0-.91-.41,1.137,1.137,0,0,0-.93.4,1.765,1.765,0,0,0-.33,1.15,1.868,1.868,0,0,0,.33,1.18A1.1,1.1,0,0,0,157.725,156.61ZM143.77,163.4a.589.589,0,0,1,.45.18.623.623,0,0,1,.17.46v5.92a.593.593,0,0,1-.16.44.568.568,0,0,1-.42.16.534.534,0,0,1-.41-.16.618.618,0,0,1-.15-.44v-4.12l-1.7,3.22a1.053,1.053,0,0,1-.26.33.594.594,0,0,1-.66,0,.929.929,0,0,1-.26-.33l-1.71-3.17v4.07a.614.614,0,0,1-.16.44.605.605,0,0,1-.82,0,.618.618,0,0,1-.15-.44v-5.92a.642.642,0,0,1,.16-.46.589.589,0,0,1,.45-.18.673.673,0,0,1,.61.43l2.22,4.23,2.21-4.23A.661.661,0,0,1,143.77,163.4Zm6.008,5.76a.32.32,0,0,1,.27.13.521.521,0,0,1,.11.35.605.605,0,0,1-.37.52,3.468,3.468,0,0,1-.77.31,3.322,3.322,0,0,1-.82.11,2.55,2.55,0,0,1-1.87-.68,2.492,2.492,0,0,1-.69-1.86,2.855,2.855,0,0,1,.3-1.33,2.187,2.187,0,0,1,.84-.9,2.424,2.424,0,0,1,1.24-.32,2.218,2.218,0,0,1,1.15.29,1.964,1.964,0,0,1,.76.82,2.72,2.72,0,0,1,.27,1.25c0,.287-.126.43-.38.43h-2.95a1.6,1.6,0,0,0,.39,1.02,1.327,1.327,0,0,0,.96.32,1.779,1.779,0,0,0,.56-.08,5.236,5.236,0,0,0,.56-.22A1.1,1.1,0,0,1,149.778,169.16Zm-1.73-2.79a1.091,1.091,0,0,0-.82.32,1.528,1.528,0,0,0-.36.92h2.26a1.4,1.4,0,0,0-.3-.92A.981.981,0,0,0,148.048,166.37Zm5.393-.88a2.008,2.008,0,0,1,1.51.51,2.083,2.083,0,0,1,.5,1.53v2.44a.584.584,0,0,1-.16.43.619.619,0,0,1-.44.15.6.6,0,0,1-.43-.16.568.568,0,0,1-.16-.42v-.22a1.306,1.306,0,0,1-.54.61,1.576,1.576,0,0,1-.84.22,1.964,1.964,0,0,1-.89-.2,1.579,1.579,0,0,1-.63-.55,1.383,1.383,0,0,1-.23-.78,1.251,1.251,0,0,1,.27-.85,1.673,1.673,0,0,1,.9-.45,8.169,8.169,0,0,1,1.71-.14h.25v-.23a1,1,0,0,0-.21-.71.884.884,0,0,0-.68-.23,2.043,2.043,0,0,0-.59.09,6.69,6.69,0,0,0-.71.24,1,1,0,0,1-.38.13.39.39,0,0,1-.3-.13.574.574,0,0,1-.03-.63.819.819,0,0,1,.29-.24,3.237,3.237,0,0,1,.83-.3A4.385,4.385,0,0,1,153.441,165.49Zm-.31,4.19a1.061,1.061,0,0,0,.81-.33,1.221,1.221,0,0,0,.32-.87v-.21h-.18a6.888,6.888,0,0,0-1.04.06,1.006,1.006,0,0,0-.53.21.534.534,0,0,0-.16.41.7.7,0,0,0,.22.53A.825.825,0,0,0,153.131,169.68Zm5.46.9a3.212,3.212,0,0,1-1.76-.43.6.6,0,0,1-.32-.54.457.457,0,0,1,.11-.32.339.339,0,0,1,.27-.13,1.1,1.1,0,0,1,.47.16,4.473,4.473,0,0,0,.58.23,2.451,2.451,0,0,0,.68.08,1.258,1.258,0,0,0,.65-.14.432.432,0,0,0,.24-.39.365.365,0,0,0-.1-.27.779.779,0,0,0-.34-.18,5.85,5.85,0,0,0-.74-.2,2.906,2.906,0,0,1-1.28-.51,1.143,1.143,0,0,1-.38-.91,1.294,1.294,0,0,1,.26-.79,1.639,1.639,0,0,1,.71-.55,2.59,2.59,0,0,1,1.04-.2,2.982,2.982,0,0,1,.81.11,2.385,2.385,0,0,1,.7.3.6.6,0,0,1,.32.53.535.535,0,0,1-.11.34.339.339,0,0,1-.27.13.632.632,0,0,1-.22-.04c-.067-.033-.153-.08-.26-.14a3.632,3.632,0,0,0-.5-.22,1.476,1.476,0,0,0-.52-.08,1.031,1.031,0,0,0-.59.15.478.478,0,0,0-.21.41.416.416,0,0,0,.22.38,3.154,3.154,0,0,0,.85.26,4.82,4.82,0,0,1,1.05.32,1.2,1.2,0,0,1,.54.45,1.378,1.378,0,0,1-.4,1.78A2.486,2.486,0,0,1,158.591,170.58Zm7.044-5.07a.644.644,0,0,1,.46.16.564.564,0,0,1,.17.43v3.88a.536.536,0,0,1-.18.42.631.631,0,0,1-.45.16.6.6,0,0,1-.43-.15.534.534,0,0,1-.16-.41v-.25a1.633,1.633,0,0,1-.62.62,1.828,1.828,0,0,1-.88.21q-1.8,0-1.8-2.02V166.1a.56.56,0,0,1,.17-.43.627.627,0,0,1,.45-.16.644.644,0,0,1,.46.16.564.564,0,0,1,.17.43v2.47a1.18,1.18,0,0,0,.21.77.813.813,0,0,0,.66.25,1.069,1.069,0,0,0,.83-.34,1.311,1.311,0,0,0,.32-.92V166.1a.56.56,0,0,1,.17-.43A.627.627,0,0,1,165.635,165.51Zm4.761,0a.539.539,0,0,1,.41.11.489.489,0,0,1,.15.39.548.548,0,0,1-.13.4.8.8,0,0,1-.47.17l-.3.03a1.23,1.23,0,0,0-.87.4,1.325,1.325,0,0,0-.27.85v2.1a.572.572,0,0,1-.18.45.75.75,0,0,1-.9,0,.587.587,0,0,1-.17-.45v-3.87a.54.54,0,0,1,.17-.43.663.663,0,0,1,.44-.15.59.59,0,0,1,.42.15.517.517,0,0,1,.16.41v.4a1.486,1.486,0,0,1,.56-.68,1.76,1.76,0,0,1,.84-.27Zm4.97,3.65a.323.323,0,0,1,.27.13.526.526,0,0,1,.11.35.605.605,0,0,1-.37.52,3.488,3.488,0,0,1-.77.31,3.328,3.328,0,0,1-.82.11,2.549,2.549,0,0,1-1.87-.68,2.492,2.492,0,0,1-.69-1.86,2.855,2.855,0,0,1,.3-1.33,2.187,2.187,0,0,1,.84-.9,2.424,2.424,0,0,1,1.24-.32,2.22,2.22,0,0,1,1.15.29,1.964,1.964,0,0,1,.76.82,2.72,2.72,0,0,1,.27,1.25q0,.43-.38.43h-2.95a1.6,1.6,0,0,0,.39,1.02,1.327,1.327,0,0,0,.96.32,1.784,1.784,0,0,0,.56-.08,5.321,5.321,0,0,0,.56-.22A1.1,1.1,0,0,1,175.366,169.16Zm-1.73-2.79a1.091,1.091,0,0,0-.82.32,1.528,1.528,0,0,0-.36.92h2.26a1.4,1.4,0,0,0-.3-.92A.984.984,0,0,0,173.636,166.37ZM138.12,184.5a.608.608,0,0,1-.45-.16.593.593,0,0,1-.16-.44v-5.86a.623.623,0,0,1,.17-.46.636.636,0,0,1,.47-.18.615.615,0,0,1,.47.18.6.6,0,0,1,.18.46v5.4h2.81q.6,0,.6.53t-.6.53Zm8.768-1.34a.323.323,0,0,1,.27.13.526.526,0,0,1,.11.35.607.607,0,0,1-.37.52,3.508,3.508,0,0,1-.77.31,3.328,3.328,0,0,1-.82.11,2.549,2.549,0,0,1-1.87-.68,2.492,2.492,0,0,1-.69-1.86,2.855,2.855,0,0,1,.3-1.33,2.187,2.187,0,0,1,.84-.9,2.422,2.422,0,0,1,1.24-.32,2.22,2.22,0,0,1,1.15.29,1.971,1.971,0,0,1,.76.82,2.72,2.72,0,0,1,.27,1.25q0,.43-.38.43h-2.95a1.6,1.6,0,0,0,.39,1.02,1.327,1.327,0,0,0,.96.32,1.784,1.784,0,0,0,.56-.08,5.408,5.408,0,0,0,.56-.22A1.1,1.1,0,0,1,146.888,183.16Zm-1.73-2.79a1.09,1.09,0,0,0-.82.32,1.528,1.528,0,0,0-.36.92h2.26a1.412,1.412,0,0,0-.3-.92A.984.984,0,0,0,145.158,180.37Zm5.392-.88a2.008,2.008,0,0,1,1.51.51,2.083,2.083,0,0,1,.5,1.53v2.44a.58.58,0,0,1-.16.43.618.618,0,0,1-.44.15.6.6,0,0,1-.43-.16.568.568,0,0,1-.16-.42v-.22a1.3,1.3,0,0,1-.54.61,1.576,1.576,0,0,1-.84.22,1.966,1.966,0,0,1-.89-.2,1.579,1.579,0,0,1-.63-.55,1.391,1.391,0,0,1-.23-.78,1.251,1.251,0,0,1,.27-.85,1.68,1.68,0,0,1,.9-.45,8.169,8.169,0,0,1,1.71-.14h.25v-.23a1,1,0,0,0-.21-.71.884.884,0,0,0-.68-.23,2.048,2.048,0,0,0-.59.09,6.692,6.692,0,0,0-.71.24.992.992,0,0,1-.38.13.39.39,0,0,1-.3-.13.574.574,0,0,1-.03-.63.828.828,0,0,1,.29-.24,3.237,3.237,0,0,1,.83-.3A4.4,4.4,0,0,1,150.55,179.49Zm-.31,4.19a1.061,1.061,0,0,0,.81-.33,1.221,1.221,0,0,0,.32-.87v-.21h-.18a6.9,6.9,0,0,0-1.04.06,1.01,1.01,0,0,0-.53.21.534.534,0,0,0-.16.41.7.7,0,0,0,.22.53A.825.825,0,0,0,150.24,183.68Zm6.42-4.17a.538.538,0,0,1,.41.11.489.489,0,0,1,.15.39.544.544,0,0,1-.13.4.8.8,0,0,1-.47.17l-.3.03a1.234,1.234,0,0,0-.87.4,1.325,1.325,0,0,0-.27.85v2.1a.572.572,0,0,1-.18.45.75.75,0,0,1-.9,0,.59.59,0,0,1-.17-.45v-3.87a.544.544,0,0,1,.17-.43.665.665,0,0,1,.44-.15.587.587,0,0,1,.42.15.514.514,0,0,1,.16.41v.4a1.5,1.5,0,0,1,.56-.68,1.767,1.767,0,0,1,.84-.27Zm4.039-.02a1.637,1.637,0,0,1,1.31.5,2.271,2.271,0,0,1,.43,1.51v2.46a.576.576,0,0,1-.17.44.608.608,0,0,1-.45.16.641.641,0,0,1-.46-.16.573.573,0,0,1-.17-.44v-2.39a1.278,1.278,0,0,0-.22-.83.813.813,0,0,0-.67-.26,1.156,1.156,0,0,0-.87.34,1.271,1.271,0,0,0-.32.91v2.23a.576.576,0,0,1-.17.44.741.741,0,0,1-.92,0,.593.593,0,0,1-.16-.44v-3.87a.549.549,0,0,1,.17-.42.641.641,0,0,1,.46-.16.568.568,0,0,1,.42.16.508.508,0,0,1,.17.4v.27a1.691,1.691,0,0,1,.67-.63A2.011,2.011,0,0,1,160.7,179.49Z" fill="#334d6e"/>
      <path id="Path_4272" data-name="Path 4272" d="M115.38,154.243a37.4,37.4,0,0,1,23.866-28.688l-.577,1.011a2.968,2.968,0,0,0,1.064,4.025,2.869,2.869,0,0,0,1.452.4,2.9,2.9,0,0,0,2.521-1.473l4.011-7.032a2.976,2.976,0,0,0,.291-2.235,2.945,2.945,0,0,0-1.355-1.79l-6.945-4.062a2.888,2.888,0,0,0-3.973,1.078A2.967,2.967,0,0,0,136.8,119.5l.724.423a43.3,43.3,0,0,0-27.872,33.3,43.777,43.777,0,0,0,1.921,22.314,2.91,2.91,0,0,0,2.733,1.937,2.876,2.876,0,0,0,1-.179,2.956,2.956,0,0,0,1.736-3.777A37.814,37.814,0,0,1,115.38,154.243Z" fill="#334d6e"/>
      <path id="Path_4273" data-name="Path 4273" d="M184.1,184.4a2.883,2.883,0,0,0-4.1.359,36.574,36.574,0,0,1-51.7,4.851h.936a2.946,2.946,0,0,0,0-5.892H121.5a2.877,2.877,0,0,0-2.142.675,2.948,2.948,0,0,0-1.023,1.961s0,.005,0,.008v0c-.008.084-.012.169-.013.254,0,.015,0,.029,0,.044l0,8.119a2.927,2.927,0,0,0,2.907,2.947h0a2.928,2.928,0,0,0,2.909-2.945v-1.026a42.557,42.557,0,0,0,20.178,9.586,41.9,41.9,0,0,0,7.367.653,42.7,42.7,0,0,0,32.783-15.447A2.971,2.971,0,0,0,184.1,184.4Z" fill="#334d6e"/>
      <path id="Path_4274" data-name="Path 4274" d="M198.609,169.389a2.889,2.889,0,0,0-3.973-1.078l-.957.56c.039-.209.086-.416.122-.624a43.429,43.429,0,0,0-7.078-32.336,42.388,42.388,0,0,0-27.579-17.793,2.912,2.912,0,0,0-3.369,2.391,2.942,2.942,0,0,0,2.36,3.412,36.614,36.614,0,0,1,23.823,15.37,37.516,37.516,0,0,1,6.124,27.873l-.426-.748a2.889,2.889,0,0,0-3.973-1.079,2.967,2.967,0,0,0-1.066,4.025l4.009,7.034a2.912,2.912,0,0,0,1.767,1.373,2.868,2.868,0,0,0,2.207-.294l6.944-4.061A2.968,2.968,0,0,0,198.609,169.389Z" fill="#334d6e"/>
    </g>
  </g>
</svg>
