<svg xmlns="http://www.w3.org/2000/svg" width="381.857" height="494.726" viewBox="0 0 381.857 494.726">
  <g id="startup_1_" data-name="startup (1)" transform="translate(-56.964 247.259) rotate(-45)">
    <path id="Path_4614" data-name="Path 4614" d="M247.674,246.665l-95.238-95.358,77.777-77.875A252.421,252.421,0,0,1,366.722,2.707L381.007.323h2.381a14.235,14.235,0,0,1,14.286,14.3h0v2.384l-1.587,15.1a252.1,252.1,0,0,1-69.841,135.885Z" transform="translate(-48.468)" fill="#d5e3ef"/>
    <path id="Path_4615" data-name="Path 4615" d="M364.837,107.8,251.345,221.435l27.778,27.813L356.9,171.372A249.521,249.521,0,0,0,426.741,35.486l3.175-15.1V18a13.168,13.168,0,0,0-3.968-9.536A250.344,250.344,0,0,1,364.837,107.8Z" transform="translate(-79.917 -2.583)" fill="#b0c4d9"/>
    <g id="Group_7612" data-name="Group 7612" transform="translate(0 143.757)">
      <path id="Path_4616" data-name="Path 4616" d="M284.571,469.936a12.444,12.444,0,0,0-17.46,0c-6.349,6.357-10.317,26.223-11.111,27.018v.795s.794.795.794,0c.794,0,19.841-3.973,26.984-11.125C290.127,481.856,290.127,474.7,284.571,469.936Z" transform="translate(-81.397 -291.536)" fill="#fedb59"/>
      <path id="Path_4617" data-name="Path 4617" d="M28.942,213.936a12.445,12.445,0,0,0-17.46,0c-6.349,6.357-10.317,25.429-10.317,26.223v.795s.794.795.794,0c.794,0,19.841-3.973,26.984-11.125C34.5,225.856,34.5,218.7,28.942,213.936Z" transform="translate(-0.37 -210.359)" fill="#fedb59"/>
      <path id="Path_4618" data-name="Path 4618" d="M84.921,384a37.335,37.335,0,0,0-52.381,0C12.7,403.863.794,461.872,0,464.256c0,1.589,0,2.384.794,3.179a10.053,10.053,0,0,0,4.762.795c2.381-.795,60.317-11.92,80.158-32.581A35.8,35.8,0,0,0,84.921,384Z" transform="translate(0 -262.018)" fill="#fedb59"/>
    </g>
    <path id="Path_4619" data-name="Path 4619" d="M101.409,387.65a18.667,18.667,0,0,0-26.19,0c-10.317,10.33-15.873,38.938-15.873,39.733s0,1.589.794,1.589c.794.795.794.795,1.587.795,1.587,0,30.159-6.357,39.683-15.893A18.724,18.724,0,0,0,101.409,387.65Z" transform="translate(-18.869 -121.12)" fill="#ffea9a"/>
    <path id="Path_4620" data-name="Path 4620" d="M292.609,386.023,268.8,362.184l47.619-47.679v47.679Z" transform="translate(-85.467 -99.626)" fill="#99b4cd"/>
    <path id="Path_4621" data-name="Path 4621" d="M290.228,356.622l15.079-15.1a37.865,37.865,0,0,0,11.111-27.018h0L268.8,362.184l23.809,23.839,7.936-7.946-10.317-10.33A7.689,7.689,0,0,1,290.228,356.622Z" transform="translate(-85.467 -99.626)" fill="#6c9abb"/>
    <path id="Path_4622" data-name="Path 4622" d="M312.183,444.773l-31.746-31.786,57.143-57.215a22.146,22.146,0,0,1,15.873-6.357h0a22.2,22.2,0,0,1,22.222,22.25h0a22.2,22.2,0,0,1-6.349,15.893Z" transform="translate(-89.167 -110.696)" fill="#d5e3ef"/>
    <path id="Path_4623" data-name="Path 4623" d="M369.326,378.306l-57.143,57.215-23.809-23.839-7.936,7.946,31.746,31.786L369.326,394.2a22.2,22.2,0,0,0,6.349-15.893,23.544,23.544,0,0,0-1.587-7.946A16.494,16.494,0,0,1,369.326,378.306Z" transform="translate(-89.167 -117.338)" fill="#b0c4d9"/>
    <path id="Path_4624" data-name="Path 4624" d="M94.255,318.761h0c5.555-5.562,11.905-9.536,18.254-11.125L126,302.868l47.619,47.679-4.762,13.509a47.173,47.173,0,0,1-11.111,18.277h0Z" transform="translate(-29.969 -95.936)" fill="#99b4cd"/>
    <path id="Path_4625" data-name="Path 4625" d="M135.25,302.869l-11.905,3.973,26.19,26.223a22.8,22.8,0,0,1,5.555,23.045h0a26.872,26.872,0,0,1-4.762,9.536L167,382.334c5.555-5.562,9.524-11.92,11.111-18.277l4.762-13.509Z" transform="translate(-39.218 -95.937)" fill="#6c9abb"/>
    <path id="Path_4626" data-name="Path 4626" d="M94.255,198.708l23.809,23.839,47.619-47.679H118.064Z" transform="translate(-29.969 -55.348)" fill="#99b4cd"/>
    <path id="Path_4627" data-name="Path 4627" d="M115.683,204.27a7.688,7.688,0,0,1,0-11.125l18.254-18.277H118.064L94.255,198.707l23.809,23.839h0c4.762-4.768,4.762-11.125,0-15.893Z" transform="translate(-29.969 -55.348)" fill="#6c9abb"/>
    <path id="Path_4628" data-name="Path 4628" d="M24.436,156.986l31.746,31.786,57.143-57.215a22.2,22.2,0,0,0,6.349-15.893h0c0-11.92-10.317-22.25-22.222-22.25h0A22.146,22.146,0,0,0,81.578,99.77Z" transform="translate(-7.77 -29.519)" fill="#d5e3ef"/>
    <ellipse id="Ellipse_608" data-name="Ellipse 608" cx="31.746" cy="31.786" rx="31.746" ry="31.786" transform="translate(191.27 95.681)" fill="#70b7e5"/>
    <path id="Path_4629" data-name="Path 4629" d="M308.483,207.788a39.733,39.733,0,1,1,39.683-39.733A39.322,39.322,0,0,1,308.483,207.788Zm0-63.572a23.839,23.839,0,1,0,23.809,23.839A23.4,23.4,0,0,0,308.483,144.216Z" transform="translate(-85.467 -40.588)" fill="#ff4f19"/>
    <path id="Path_4630" data-name="Path 4630" d="M303.184,196.1a24.489,24.489,0,0,1,20.635-36.554c4.762,0,8.73,1.589,12.7,3.179-4.762-6.357-11.905-11.125-20.635-11.125a23.4,23.4,0,0,0-23.809,23.839C292.073,184.177,296.835,191.329,303.184,196.1Z" transform="translate(-92.866 -47.969)" fill="#4c9cd6"/>
    <path id="Path_4631" data-name="Path 4631" d="M234.355,316.772,208.164,343a7.665,7.665,0,0,1-11.111,0l-84.127-84.233a7.688,7.688,0,0,1,0-11.125l26.19-26.223Z" transform="translate(-35.148 -70.107)" fill="#ff4f19"/>
    <path id="Path_4632" data-name="Path 4632" d="M175.625,308.77l-50-50.063c-3.175-3.179-8.73-3.179-12.7,0h0a7.688,7.688,0,0,0,0,11.125l84.127,84.233a7.665,7.665,0,0,0,11.111,0l26.19-26.223-27.778-27.813-8.73,8.741A15.331,15.331,0,0,1,175.625,308.77Z" transform="translate(-35.149 -81.177)" fill="#db343f"/>
    <path id="Path_4645" data-name="Path 4645" d="M10.1,8.21l33.354-.021L43.43,53.455l-33.354.021Z" transform="translate(260.049 309.42) rotate(135)" fill="#ff4f19"/>
    <path id="Path_4633" data-name="Path 4633" d="M328.056,440.291l-11.111,11.125c-4.762,4.768-11.111,4.768-15.873,0L285.2,435.523l-4.762,4.768,31.746,31.786,23.809-23.839Z" transform="translate(-89.167 -138.001)" fill="#db343f"/>
    <g id="Group_7613" data-name="Group 7613" transform="translate(131.349 68.265)">
      <path id="Path_4634" data-name="Path 4634" d="M196.947,193.641c-.794,0-2.381,0-3.175-.795a3.844,3.844,0,0,1,0-5.562l39.683-39.733a3.931,3.931,0,0,1,5.555,5.562l-39.683,39.733C199.328,193.641,197.74,193.641,196.947,193.641Z" transform="translate(-192.582 -114.573)" fill="#ecf0f9"/>
      <path id="Path_4635" data-name="Path 4635" d="M278.4,123.256c-.794,0-2.381,0-3.175-.795a3.844,3.844,0,0,1,0-5.562L291.1,101.006a3.931,3.931,0,0,1,5.555,5.562l-15.873,15.893C280.782,123.256,279.195,123.256,278.4,123.256Z" transform="translate(-218.481 -99.814)" fill="#ecf0f9"/>
    </g>
    <path id="Path_4636" data-name="Path 4636" d="M451.52.323h-2.381L434.059,2.707c-24.6,3.973-47.619,11.92-69.841,23.045l38.1,38.144,38.1,38.144c11.111-22.25,18.254-45.295,23.016-69.929l2.381-14.3V15.422C465.806,6.68,459.456.323,451.52.323Z" transform="translate(-115.806 0)" fill="#ff4f19"/>
    <g id="Group_7614" data-name="Group 7614" transform="translate(183.333 12.242)">
      <path id="Path_4637" data-name="Path 4637" d="M406.447,38.438a4.364,4.364,0,0,1-3.968-2.384q-1.191-3.576,2.381-4.768c15.873-6.357,31.746-10.33,48.413-13.509,2.381,0,3.968.795,4.762,3.179,0,2.384-.794,3.973-3.175,4.768-15.873,2.384-31.746,7.152-46.826,12.714Z" transform="translate(-311.21 -17.777)" fill="#f26a56"/>
      <path id="Path_4638" data-name="Path 4638" d="M308.483,129.118v-.795A39.322,39.322,0,0,0,268.8,168.056h.794a7.73,7.73,0,0,0,7.936-6.357c.794-5.562,3.968-10.33,7.143-14.3,4.762-4.768,10.317-8.741,17.46-10.33A7.737,7.737,0,0,0,308.483,129.118Z" transform="translate(-268.8 -52.831)" fill="#f26a56"/>
    </g>
    <path id="Path_4639" data-name="Path 4639" d="M326.982,225.443v.795a39.322,39.322,0,0,0,39.683-39.733h-.794a7.73,7.73,0,0,0-7.936,6.357c-.794,5.562-3.968,10.33-7.143,14.3-4.762,4.768-10.317,8.741-17.46,10.33A7.737,7.737,0,0,0,326.982,225.443Z" transform="translate(-103.966 -59.038)" fill="#db343f"/>
    <path id="Path_4640" data-name="Path 4640" d="M348.22,390.893c-.794,0-2.381,0-3.175-.795a3.844,3.844,0,0,1,0-5.562l15.873-15.893a3.931,3.931,0,0,1,5.555,5.562L350.6,390.1C350.6,390.893,349.013,390.893,348.22,390.893Z" transform="translate(-109.331 -116.415)" fill="#ecf0f9"/>
    <path id="Path_4641" data-name="Path 4641" d="M113.326,122.306,56.183,179.521,32.373,155.681l-7.936,7.946,31.746,31.786L113.326,138.2a22.2,22.2,0,0,0,6.349-15.893,23.543,23.543,0,0,0-1.587-7.946A16.494,16.494,0,0,1,113.326,122.306Z" transform="translate(-7.77 -36.161)" fill="#b0c4d9"/>
    <path id="Path_4642" data-name="Path 4642" d="M92.22,134.893c-.794,0-2.381,0-3.175-.795a3.844,3.844,0,0,1,0-5.562l15.873-15.893a3.931,3.931,0,1,1,5.555,5.562L94.6,134.1C94.6,134.893,93.013,134.893,92.22,134.893Z" transform="translate(-27.934 -35.238)" fill="#ecf0f9"/>
    <path id="Path_4646" data-name="Path 4646" d="M10.1,8.21l33.354-.021L43.43,53.455l-33.354.021Z" transform="translate(85.425 134.597) rotate(135)" fill="#ff4f19"/>
    <g id="Group_7615" data-name="Group 7615" transform="translate(16.666 5.886)">
      <path id="Path_4643" data-name="Path 4643" d="M72.056,184.291,60.944,195.416c-4.762,4.768-11.111,4.768-15.873,0L29.2,179.523l-4.762,4.768,31.746,31.786,23.809-23.839Z" transform="translate(-24.436 -62.71)" fill="#db343f"/>
      <path id="Path_4644" data-name="Path 4644" d="M446.836,84.755l19.841,19.866c11.111-22.25,18.254-45.295,23.016-69.929l2.381-14.3V18.005a13.168,13.168,0,0,0-3.968-9.536A246.145,246.145,0,0,1,446.836,84.755Z" transform="translate(-158.741 -8.469)" fill="#db343f"/>
    </g>
  </g>
</svg>
