<svg xmlns="http://www.w3.org/2000/svg" width="847.94" height="1060" viewBox="0 0 847.94 1060">
  <g id="_14_Isometric_Teamwork" data-name="14_Isometric Teamwork" transform="translate(-253.3 -140.3)">
    <g id="Group_515" data-name="Group 515" transform="translate(991.64 804.95)">
      <g id="Group_512" data-name="Group 512" transform="translate(0.6)">
        <path id="Path_1605" data-name="Path 1605" d="M1159.8,857.6l-54.3,31.6-54.7-31.6,54.3-31.6Z" transform="translate(-1050.8 -826)" fill="#77d9dc"/>
      </g>
      <g id="Group_513" data-name="Group 513" transform="translate(54.7 31.6)">
        <path id="Path_1606" data-name="Path 1606" d="M1159.8,857.6l-.5,32-54.4,31.6.6-32Z" transform="translate(-1104.9 -857.6)" fill="#4eafac"/>
      </g>
      <g id="Group_514" data-name="Group 514" transform="translate(0 31.6)">
        <path id="Path_1607" data-name="Path 1607" d="M1105.5,889.2l-.6,32-54.7-31.6.6-32Z" transform="translate(-1050.2 -857.6)" fill="#58bfbf"/>
      </g>
    </g>
    <g id="Group_519" data-name="Group 519" transform="translate(302.4 720.456)">
      <g id="Group_516" data-name="Group 516" transform="translate(0.5)">
        <path id="Path_1608" data-name="Path 1608" d="M411.9,771.7l-54.3,31.6-54.7-31.6,54.4-31.6Z" transform="translate(-302.9 -740.1)" fill="#fa6b5c"/>
      </g>
      <g id="Group_517" data-name="Group 517" transform="translate(54.7 31.6)">
        <path id="Path_1609" data-name="Path 1609" d="M411.9,771.7l-.5,94.4-54.3,31.6.5-94.4Z" transform="translate(-357.1 -771.7)" fill="#d75d4c"/>
      </g>
      <g id="Group_518" data-name="Group 518" transform="translate(0 31.6)">
        <path id="Path_1610" data-name="Path 1610" d="M357.6,803.3l-.5,94.4-54.7-31.6.5-94.4Z" transform="translate(-302.4 -771.7)" fill="#bb5140"/>
      </g>
    </g>
    <g id="Group_523" data-name="Group 523" transform="translate(253.3 1002.545)">
      <g id="Group_520" data-name="Group 520" transform="translate(0.8)">
        <path id="Path_1611" data-name="Path 1611" d="M417.5,1080.4,336,1127.7l-81.9-47.3,81.4-47.3Z" transform="translate(-254.1 -1033.1)" fill="#fedb59"/>
      </g>
      <g id="Group_521" data-name="Group 521" transform="translate(81.9 47.3)">
        <path id="Path_1612" data-name="Path 1612" d="M417.5,1080.4l-.8,23.7-81.5,47.3.8-23.7Z" transform="translate(-335.2 -1080.4)" fill="#b89030"/>
      </g>
      <g id="Group_522" data-name="Group 522" transform="translate(0 47.3)">
        <path id="Path_1613" data-name="Path 1613" d="M336,1127.7l-.8,23.7-81.9-47.3.8-23.7Z" transform="translate(-253.3 -1080.4)" fill="#cbaf46"/>
      </g>
    </g>
    <g id="Group_654" data-name="Group 654" transform="translate(357.209 140.3)">
      <g id="Group_536" data-name="Group 536" transform="translate(46.791 841.245)">
        <g id="Group_528" data-name="Group 528">
          <g id="Group_527" data-name="Group 527">
            <g id="Group_524" data-name="Group 524">
              <path id="Path_1614" data-name="Path 1614" d="M663.2,1109.9l-89.9,52.2L404,1064.4l89.9-52.3Z" transform="translate(-404 -1012.1)" fill="#f7f8f8"/>
            </g>
            <g id="Group_525" data-name="Group 525" transform="translate(169.3 97.8)">
              <path id="Path_1615" data-name="Path 1615" d="M663.2,1109.9v10.2l-89.9,52.2v-10.2Z" transform="translate(-573.3 -1109.9)" fill="#5678b5"/>
            </g>
            <g id="Group_526" data-name="Group 526" transform="translate(0 52.3)">
              <path id="Path_1616" data-name="Path 1616" d="M573.3,1162.1v10.2L404,1074.6v-10.2Z" transform="translate(-404 -1064.4)" fill="#91b9ff"/>
            </g>
          </g>
        </g>
        <g id="Group_535" data-name="Group 535" transform="translate(51.4 11.3)">
          <g id="Group_529" data-name="Group 529" transform="translate(26.7 4.1)">
            <path id="Path_1617" data-name="Path 1617" d="M599.9,1093.5l-3.5,2-114.3-66,3.6-2Z" transform="translate(-482.1 -1027.5)" fill="#91b9ff"/>
          </g>
          <g id="Group_534" data-name="Group 534">
            <g id="Group_530" data-name="Group 530" transform="translate(7 15.6)">
              <path id="Path_1618" data-name="Path 1618" d="M546.3,1085.4l-3.5,2L462.4,1041l3.5-2Z" transform="translate(-462.4 -1039)" fill="#91b9ff"/>
            </g>
            <g id="Group_531" data-name="Group 531" transform="translate(33.8)">
              <path id="Path_1619" data-name="Path 1619" d="M607,1089.3l-3.5,2.1-114.3-66,3.5-2Z" transform="translate(-489.2 -1023.4)" fill="#91b9ff"/>
            </g>
            <g id="Group_532" data-name="Group 532" transform="translate(0 19.6)">
              <path id="Path_1620" data-name="Path 1620" d="M539.3,1089.5l-3.5,2-80.4-46.4,3.5-2.1Z" transform="translate(-455.4 -1043)" fill="#91b9ff"/>
            </g>
            <g id="Group_533" data-name="Group 533" transform="translate(19.6 8.2)">
              <path id="Path_1621" data-name="Path 1621" d="M592.8,1097.6l-3.5,2L475,1033.7l3.6-2.1Z" transform="translate(-475 -1031.6)" fill="#91b9ff"/>
            </g>
          </g>
        </g>
      </g>
      <g id="Group_541" data-name="Group 541" transform="translate(120.3 108.9)">
        <g id="Group_540" data-name="Group 540">
          <g id="Group_537" data-name="Group 537" transform="translate(6.8 4)">
            <path id="Path_1622" data-name="Path 1622" d="M724.4,253.2l.1,62.3L499.9,445.3l-.2-62.3Z" transform="translate(-499.7 -253.2)" fill="#f7f8f8"/>
          </g>
          <g id="Group_538" data-name="Group 538" transform="translate(0 129.9)">
            <path id="Path_1623" data-name="Path 1623" d="M499.9,445.3l-6.8-3.9-.2-62.3,6.8,3.9Z" transform="translate(-492.9 -379.1)" fill="#fa6b5c"/>
          </g>
          <g id="Group_539" data-name="Group 539">
            <path id="Path_1624" data-name="Path 1624" d="M499.7,383l-6.8-3.9L717.6,249.2l6.8,4Z" transform="translate(-492.9 -249.2)" fill="#fa6b5c"/>
          </g>
        </g>
      </g>
      <g id="Group_545" data-name="Group 545" transform="translate(143.678 135.1)">
        <g id="Group_542" data-name="Group 542" transform="translate(0 22.4)">
          <path id="Path_1625" data-name="Path 1625" d="M706.6,297.8v5.4l-188.9,109v-5.4Z" transform="translate(-517.7 -297.8)" fill="#fa6b5c"/>
        </g>
        <g id="Group_543" data-name="Group 543" transform="translate(0.1 35.4)">
          <path id="Path_1626" data-name="Path 1626" d="M706.6,310.8v5.4l-188.8,109v-5.4Z" transform="translate(-517.8 -310.8)" fill="#fa6b5c"/>
        </g>
        <g id="Group_544" data-name="Group 544">
          <path id="Path_1627" data-name="Path 1627" d="M706.5,275.4v9.4l-188.8,109v-9.4Z" transform="translate(-517.7 -275.4)" fill="#fa6b5c"/>
        </g>
      </g>
      <g id="Group_550" data-name="Group 550" transform="translate(120.3 17.3)">
        <g id="Group_549" data-name="Group 549">
          <g id="Group_546" data-name="Group 546" transform="translate(6.8 3.9)">
            <path id="Path_1628" data-name="Path 1628" d="M724.4,161.5l.1,62.3L499.9,353.7l-.2-62.3Z" transform="translate(-499.7 -161.5)" fill="#f7f8f8"/>
          </g>
          <g id="Group_547" data-name="Group 547" transform="translate(0 129.8)">
            <path id="Path_1629" data-name="Path 1629" d="M499.9,353.7l-6.8-4-.2-62.3,6.8,4Z" transform="translate(-492.9 -287.4)" fill="#fa6b5c"/>
          </g>
          <g id="Group_548" data-name="Group 548">
            <path id="Path_1630" data-name="Path 1630" d="M499.7,291.4l-6.8-4L717.6,157.6l6.8,3.9Z" transform="translate(-492.9 -157.6)" fill="#fa6b5c"/>
          </g>
        </g>
      </g>
      <g id="Group_554" data-name="Group 554" transform="translate(143.678 43.4)">
        <g id="Group_551" data-name="Group 551" transform="translate(0 22.4)">
          <path id="Path_1631" data-name="Path 1631" d="M706.6,206.1v5.4l-188.9,109v-5.4Z" transform="translate(-517.7 -206.1)" fill="#fa6b5c"/>
        </g>
        <g id="Group_552" data-name="Group 552" transform="translate(0.1 35.5)">
          <path id="Path_1632" data-name="Path 1632" d="M706.6,219.2v5.4l-188.8,109v-5.4Z" transform="translate(-517.8 -219.2)" fill="#fa6b5c"/>
        </g>
        <g id="Group_553" data-name="Group 553">
          <path id="Path_1633" data-name="Path 1633" d="M706.5,183.7v9.4l-188.8,109v-9.3Z" transform="translate(-517.7 -183.7)" fill="#fa6b5c"/>
        </g>
      </g>
      <path id="Path_1634" data-name="Path 1634" d="M431.7,597.6a59.927,59.927,0,0,1-11.8-2.5c-5-1.8-10.3-1.4-11.4,0s5,11.1,14.3,13.2l9.3,2.1v2.9a18.363,18.363,0,0,0,8.4,0,8.736,8.736,0,0,0,5.8-5.4l1.2-5Z" transform="translate(-357.209 -153.245)" fill="#325863"/>
      <g id="Group_555" data-name="Group 555" transform="translate(195.537 338.647)">
        <path id="Path_1635" data-name="Path 1635" d="M656.9,542l-.8,285.2-84.4-48.7.8-285.3Z" transform="translate(-571.7 -493.2)" fill="#bb5140"/>
      </g>
      <g id="Group_556" data-name="Group 556" transform="translate(272.131 333.462)">
        <path id="Path_1636" data-name="Path 1636" d="M749.9,487.9l-.8,285.3-93,54,.8-285.2Z" transform="translate(-656.1 -487.9)" fill="#d75d4c"/>
      </g>
      <g id="Group_557" data-name="Group 557" transform="translate(355.756 333.26)">
        <path id="Path_1637" data-name="Path 1637" d="M861.9,552.6l-.8,285.2-112-64.6.8-285.3Z" transform="translate(-749.1 -487.9)" fill="#bb5140"/>
      </g>
      <path id="Path_1638" data-name="Path 1638" d="M937.2,606.6l-83.9,48.8-.8,285.2,83.9-48.7,93-54.1.8-285.2Z" transform="translate(-415.769 -158.232)" fill="#d75d4c"/>
      <path id="Path_1639" data-name="Path 1639" d="M609.7,679.7,608.9,965,785.8,862.2l.8-285.2Z" transform="translate(-383.059 -159.293)" fill="#b89030"/>
      <g id="Group_558" data-name="Group 558" transform="translate(156.731 240.941)">
        <path id="Path_1640" data-name="Path 1640" d="M1030.2,552.6l-93,54-83.9,48.8-84.4-48.8,93-54-112-64.7-93,54.1-84.4-48.8,83.9-48.7,93-54,93.6,54,93.6,54.1Z" transform="translate(-572.5 -390.5)" fill="#fa6b5c"/>
      </g>
      <g id="Group_559" data-name="Group 559" transform="translate(374.582 447.467)">
        <path id="Path_1641" data-name="Path 1641" d="M853.3,655.4l-.8,285.2-84.4-48.7.8-285.3Z" transform="translate(-768.1 -606.6)" fill="#ed1c24"/>
      </g>
      <g id="Group_560" data-name="Group 560" transform="translate(74.491 375.278)">
        <path id="Path_1642" data-name="Path 1642" d="M786.6,577,609.7,679.7,525.3,631l-93.6-54,83.9-48.8,102.8,59.4,93-54.1Z" transform="translate(-431.7 -528.2)" fill="#fedb59"/>
      </g>
      <path id="Path_1643" data-name="Path 1643" d="M525.3,631l-93.6-54-.8,285.2,93.6,54L608.9,965l.8-285.3Z" transform="translate(-357.209 -159.293)" fill="#cbaf46"/>
      <g id="Group_561" data-name="Group 561" transform="translate(294.767 451.952)">
        <path id="Path_1644" data-name="Path 1644" d="M853.3,655.4l-83.8,48.7-84.4-48.7,83.8-48.8Z" transform="translate(-685.1 -606.6)" fill="#91b9ff"/>
      </g>
      <g id="Group_562" data-name="Group 562" transform="translate(375.161 494.299)">
        <path id="Path_1645" data-name="Path 1645" d="M853.3,655.4l-.8,285.2-83.8,48.7.8-285.2Z" transform="translate(-768.7 -655.4)" fill="#5678b5"/>
      </g>
      <g id="Group_563" data-name="Group 563" transform="translate(298.187 494.299)">
        <path id="Path_1646" data-name="Path 1646" d="M769.5,704.1l-.8,285.2-84.4-48.7.8-285.2Z" transform="translate(-684.3 -655.4)" fill="#668ed6"/>
      </g>
      <g id="Group_564" data-name="Group 564" transform="translate(0 614.885)">
        <path id="Path_1647" data-name="Path 1647" d="M501,808.7a64.219,64.219,0,0,0,4.9-7.7c1.7-3.4,2.7-5.1,3.4-4.8s.7,2.4.7,2.4a40.621,40.621,0,0,0,3.4-3.3l2.4-2.8s1.9-.5,3.9,3.9,1,9.1,0,10-10.2,8.7-15.5,8.9S501,808.7,501,808.7Z" transform="translate(-357.209 -777.429)" fill="#f0c7ad"/>
        <path id="Path_1648" data-name="Path 1648" d="M475.7,798.5a61.155,61.155,0,0,1,8.2-4c3.6-1.3,5.4-2.1,5.1-2.8s-2.3-1-2.3-1a41.475,41.475,0,0,1,3.7-3c1.5-1,3.1-2,3.1-2s.7-1.8-3.4-4.4-8.9-2.1-9.9-1.2-9.9,9.1-10.7,14.3S475.7,798.5,475.7,798.5Z" transform="translate(-357.209 -777.429)" fill="#f0c7ad"/>
        <path id="Path_1649" data-name="Path 1649" d="M437.9,976s2.2.7,6.8-1,6.8-2.7,9.7-2.2,1.2,3.6,0,5.1c0,0-8,8.7-19.7,10.9,0,0,.5,1-.9,2.4s-14.1,3.7-14.8-2.6C420.1,988.8,436.7,981,437.9,976Z" transform="translate(-357.209 -777.429)" fill="#7a4b20"/>
        <path id="Path_1650" data-name="Path 1650" d="M378.9,964.5s2.6-1.9,4.6-1.7,1.4,3.9,1.4,7.1-4.9,9-7.7,11.1-6.1,7.3-6.1,7.3-5.4,6.8-10.5,2.9C360.5,991.2,378.5,971.8,378.9,964.5Z" transform="translate(-357.209 -777.429)" fill="#7a4b20"/>
        <path id="Path_1651" data-name="Path 1651" d="M440.1,926.4c-8.5-10.7-20.7-20.2-20.7-20.2l-4.3-1.2s-12.7-1.8-16.5,2.4c-3.8-6.4-11.9-13.1-17.8-8.8,0,0-6.8,26.7-9.9,34.7s-11.1,39.5-11.7,41.8c-.7,2.4-2.4,8.3-1.9,11.6a6.337,6.337,0,0,0,3.2,4.6s4.4-.2,9.2-5.4c4.8-5.3,9.2-13.9,9.2-13.9s2.6-12.8,4.8-17.9c2-4.6,13.4-28,16.3-37.2,6.9,11.3,25.3,28.7,25.3,28.7-5.1,17-6.3,43.2-6.3,43.2,13.6,3.1,20.9-7.8,20.9-7.8s1-13.6,2.7-20.1,5.6-19.7,5.6-19.7S448.6,937.1,440.1,926.4Z" transform="translate(-357.209 -777.429)" fill="#4b4b4b"/>
        <path id="Path_1652" data-name="Path 1652" d="M454.2,809.7l23.2-11-5.8-11.2-18.9,7.8C452.7,795.2,445.3,802.2,454.2,809.7Z" transform="translate(-357.209 -777.429)" fill="#6e6e6e"/>
        <path id="Path_1653" data-name="Path 1653" d="M429.2,803.9a17.077,17.077,0,0,0-8.5,2.5c-4.2,2.6-24.3,17.9-33.7,51.9s-6.3,40.1-6.3,40.1,7,6.1,13.3,11.1c6.3,4.9,8.8,5.6,8.8,5.6s11.1-4.4,16.5-9c0,0-.7-22.6,1.9-29.4s9.9-16.5,15-29.1a51.794,51.794,0,0,0,3.7-23.6S429.5,811.6,429.2,803.9Z" transform="translate(-357.209 -777.429)" fill="#4b4b4b"/>
        <path id="Path_1654" data-name="Path 1654" d="M436.7,828.9s-5.4.2-8,6.8,1,10.9,5.4,11.9,27-5.3,45.7-14.3S507.2,816,507.2,816l-5.6-10.9S463.2,826.6,436.7,828.9Z" transform="translate(-357.209 -777.429)" fill="#6e6e6e"/>
        <path id="Path_1655" data-name="Path 1655" d="M459.1,791.6v16.5s-1.4,9.4-12.5,9.1l-6.7,6.8s-9-4.7-9.8-12.5,10.3-19.4,10.3-19.4S455,785.1,459.1,791.6Z" transform="translate(-357.209 -777.429)" fill="#f0c7ad"/>
        <path id="Path_1656" data-name="Path 1656" d="M430.1,811.6c-3.4-3.8-4.4-11.5-4-16.8s3.7-14.4,13.3-16.8a16.237,16.237,0,0,1,17.2,5.7c1.7,2.4,5.3,3,5.3,3,.3,1.1.3,4.2-2.9,4.8s-7.8,4-7.8,4-1.6,1.4-2.8,2.7a7.6,7.6,0,0,0-1.3,4.9S441.2,812,430.1,811.6Z" transform="translate(-357.209 -777.429)" fill="#4c3829"/>
      </g>
      <g id="Group_567" data-name="Group 567" transform="translate(498.731 417.687)">
        <path id="Path_1657" data-name="Path 1657" d="M1074.1,914.5,1026,941.9v-9.8l49-27.4Z" transform="translate(-914.5 -578)" fill="#eda76a"/>
        <path id="Path_1658" data-name="Path 1658" d="M1031.9,783.9l-48.1,27.4v-9.7l49-27.5Z" transform="translate(-914.5 -578)" fill="#eda76a"/>
        <path id="Path_1659" data-name="Path 1659" d="M1047.5,827.4l-48.1,27.4v-9.7l49-27.5Z" transform="translate(-914.5 -578)" fill="#eda76a"/>
        <path id="Path_1660" data-name="Path 1660" d="M1086.9,950.5l-48,27.4v-9.8l49-27.5Z" transform="translate(-914.5 -578)" fill="#eda76a"/>
        <path id="Path_1661" data-name="Path 1661" d="M997.5,665.4l-48.1,27.4v-9.7l49-27.5Z" transform="translate(-914.5 -578)" fill="#eda76a"/>
        <path id="Path_1662" data-name="Path 1662" d="M1009.4,705.2l-48,27.4v-9.7l49-27.5Z" transform="translate(-914.5 -578)" fill="#eda76a"/>
        <path id="Path_1663" data-name="Path 1663" d="M1063.5,873.3l-48.1,27.5V891l49-27.5Z" transform="translate(-914.5 -578)" fill="#eda76a"/>
        <g id="Group_565" data-name="Group 565" transform="translate(53)">
          <path id="Path_1664" data-name="Path 1664" d="M982.9,582.5l-6.4-4.5-9,5.3,6.4,4.4Z" transform="translate(-967.5 -578)" fill="#f7b07c"/>
          <path id="Path_1665" data-name="Path 1665" d="M967.5,583.3l120.6,385.6,6.1,2.1L989.1,620.6l-15.2-32.9Z" transform="translate(-967.5 -578)" fill="#eda76a"/>
          <path id="Path_1666" data-name="Path 1666" d="M1094.2,971,973.9,587.7l9-5.2,120.3,383.3Z" transform="translate(-967.5 -578)" fill="#af7c44"/>
        </g>
        <path id="Path_1667" data-name="Path 1667" d="M1004.7,663.7l-55.3,31.6v-9.7l49-27.5Z" transform="translate(-914.5 -578)" fill="#af7c44"/>
        <path id="Path_1668" data-name="Path 1668" d="M1016.7,703.5l-55.3,31.6v-9.7l49-27.5Z" transform="translate(-914.5 -578)" fill="#af7c44"/>
        <path id="Path_1669" data-name="Path 1669" d="M1019.8,742.4l-48,27.5v-9.8l49-27.5Z" transform="translate(-914.5 -578)" fill="#eda76a"/>
        <path id="Path_1670" data-name="Path 1670" d="M1027.1,740.8l-55.3,31.6v-9.8l49-27.5Z" transform="translate(-914.5 -578)" fill="#af7c44"/>
        <path id="Path_1671" data-name="Path 1671" d="M1039.1,782.3l-55.3,31.6v-9.8l49-27.5Z" transform="translate(-914.5 -578)" fill="#af7c44"/>
        <path id="Path_1672" data-name="Path 1672" d="M1054.8,825.8l-55.4,31.6v-9.8l49-27.5Z" transform="translate(-914.5 -578)" fill="#af7c44"/>
        <path id="Path_1673" data-name="Path 1673" d="M1070.8,871.7l-55.4,31.6v-9.8l49-27.5Z" transform="translate(-914.5 -578)" fill="#af7c44"/>
        <path id="Path_1674" data-name="Path 1674" d="M1081.3,912.8,1026,944.4v-9.7l49-27.5Z" transform="translate(-914.5 -578)" fill="#af7c44"/>
        <path id="Path_1675" data-name="Path 1675" d="M1094.2,948.8l-55.3,31.6v-9.7l49-27.5Z" transform="translate(-914.5 -578)" fill="#af7c44"/>
        <g id="Group_566" data-name="Group 566" transform="translate(0 29.2)">
          <path id="Path_1676" data-name="Path 1676" d="M929.9,611.7l-6.4-4.5-9,5.3,6.4,4.4Z" transform="translate(-914.5 -607.2)" fill="#f7b07c"/>
          <path id="Path_1677" data-name="Path 1677" d="M914.5,612.5,1035,998.1l6.2,2.2L936.1,649.8l-15.2-32.9Z" transform="translate(-914.5 -607.2)" fill="#eda76a"/>
          <path id="Path_1678" data-name="Path 1678" d="M1041.2,1000.3,920.9,616.9l9-5.2,120.3,383.4Z" transform="translate(-914.5 -607.2)" fill="#af7c44"/>
        </g>
        <path id="Path_1679" data-name="Path 1679" d="M1042.4,863.8s5.3,2.3,6.3,5.3.5,6.8-1.5,8.3-7.3,2-11.3,4.5-7.5,7.3-10.8,8c-3.3.8-9.8-1.8-8.3-5,1.5-3.3,10-10,10-10Z" transform="translate(-914.5 -578)" fill="#de600c"/>
        <path id="Path_1680" data-name="Path 1680" d="M1073.3,920a52.569,52.569,0,0,1,0,7.5c-.3,4-2.8,5-8,3.8-5.3-1.3-5-6.5-10.8-8.8s-9-.5-10.8-2.5.8-4.5,5.5-6.3,13.5,0,13.5,0Z" transform="translate(-914.5 -578)" fill="#de600c"/>
        <path id="Path_1681" data-name="Path 1681" d="M1011,796.1c11.5,0,34.6,4,34.6,4l16.8,10.5,21.1-3.5s-1.3,15.6-5,27.3c-3.8,11.8-2.5,30.4-2,35.1.5,4.8.3,37.9-3.3,50.4,0,0-6.3,3-11,0s-5.5-5-5.5-5,.8-28.4,0-36.9c-.6-6.6-4.7-27.9-5.9-42.6-12.6.2-25.3-9.6-25.3-9.6s11.1,22.3,13.5,26.8c2.3,4.5,5.4,11.5,5.4,11.5s-9,9.6-18.8,10.9c0,0-10.8-24.6-16.8-35.4S994.5,814,994.7,807C995,800.1,999.5,796.1,1011,796.1Z" transform="translate(-914.5 -578)" fill="#0f5b78"/>
        <path id="Path_1682" data-name="Path 1682" d="M1031.1,731.8l-2.4-2.5s-8.2-.7-11.1,0-11.8,3.4-12,7.9,2.4,2.4,6.9,0,5.5-.7,5.9,0c.3.7,2.1,4.3,0,6.1s-2.8,1.1-3.7,3.6,2.7.8,6.2-2.7a75.648,75.648,0,0,1,7.8-6.3Z" transform="translate(-914.5 -578)" fill="#f0c6ad"/>
        <path id="Path_1683" data-name="Path 1683" d="M1048,724.3s-16.6,2.3-19.6,4.5v9.8s15.4.8,19.6,3c4.2,2.3,7.2-8.7,7.2-8.7Z" transform="translate(-914.5 -578)" fill="#3cde7a"/>
        <path id="Path_1684" data-name="Path 1684" d="M1049.7,702.4s-7.2,4.1-8.7,7.2c-1.5,3,0,13.2,2.3,14.7s1.7,7.9,1.8,12.4c0,0,7.7,2.3,13.3,0,5.7-2.3,6.8-9.8,6.8-9.8Z" transform="translate(-914.5 -578)" fill="#f0c6ad"/>
        <path id="Path_1685" data-name="Path 1685" d="M1068.3,723.3s9,2,13.8,6.5,3.8,19.3,1.5,24.6-1.3,47.9,0,52.7c0,0-4,10-12.8,13.3s-18.8,4-26.3,0-8.3-10-8.3-10,1.8-17.1,1-27.9-8.3-30.6.8-39.4c9-8.8,15.8-11.5,15.8-11.5S1063.7,731,1068.3,723.3Z" transform="translate(-914.5 -578)" fill="#3cde7a"/>
        <path id="Path_1686" data-name="Path 1686" d="M980.2,758.7l-1.5-5.5s-1.5-5-4-6.8-1.5.4-4.8,2.4c-3.3,1.9-8.3,2.9-11.5,1.4s-4.3,0-2.8,4,2.8,14.1,23.1,9Z" transform="translate(-914.5 -578)" fill="#f0c6ad"/>
        <path id="Path_1687" data-name="Path 1687" d="M1036.9,750.4s-2-3.8-9.3,0-13,15.1-24.6,13.3c-11.5-1.8-24.3-10.5-24.3-10.5s-7.3,5.8-2.3,12.5a40.568,40.568,0,0,0,29.4,15.8C1025.1,782.8,1045.9,763.2,1036.9,750.4Z" transform="translate(-914.5 -578)" fill="#3cde7a"/>
        <path id="Path_1688" data-name="Path 1688" d="M1048.2,708.7a9.227,9.227,0,0,1,4.6-10c6.2-3.5,12.7,5.3,16.2,8,3.5,2.8,5.3,12.8,2.8,17.3s-5.3,7-11.3,7.5-9.5-6.3-9.3-10.3C1051.4,717.3,1048.2,708.7,1048.2,708.7Z" transform="translate(-914.5 -578)" fill="#4c3829"/>
      </g>
      <g id="Group_568" data-name="Group 568" transform="translate(69.591 277.578)">
        <path id="Path_1689" data-name="Path 1689" d="M479.8,454.4l-3-4.6s-2.3,3.7-4.6-2c-2.3-5.6,1.9-7.9,4.6-11,2.7-3,17.5-12.2,24-8.8s10.3,10.7,9.9,16.4-1.5,17.1-1.5,17.1l-7.6,5.7-5.7-1.5Z" transform="translate(-426.8 -427.257)" fill="#4c3829"/>
        <path id="Path_1690" data-name="Path 1690" d="M426.8,526.5l38.7,11.3,18.9-18.3-4.2-10.3,4.2-5.3-18.9-4.2Z" transform="translate(-426.8 -427.257)" fill="#4b4b4b"/>
        <path id="Path_1691" data-name="Path 1691" d="M465.5,461.6l-38.7,27v37.9l38.7-26.8Z" transform="translate(-426.8 -427.257)" fill="#4b4b4b"/>
        <path id="Path_1692" data-name="Path 1692" d="M461.9,467.7l-31.4,22v30.7l31.4-21.8Z" transform="translate(-426.8 -427.257)" fill="#4382e9"/>
        <path id="Path_1693" data-name="Path 1693" d="M490.5,528.3s-26.7,10.3-37,6.9a17.478,17.478,0,0,0-14.1,8.4c-5,8.4-7.2,24.8-7.2,30.1,0,.7,0,1.8-.1,3.1l21.5-12.5c.2-4.7,1.5-4.7,1.5-4.7s22.5,16.9,39.8,21.8l5.9-49.2Z" transform="translate(-426.8 -427.257)" fill="#325863"/>
        <path id="Path_1694" data-name="Path 1694" d="M476.8,449.8s3,16,7.2,21.7,13.3,1.5,13.3,1.5v6.1l11.8-4.6v-13s-9.1,3-12.6-1.5c-3.4-4.6-5.3-14.5-8.4-11.8-3,2.7-2.3,5-2.3,5S479.8,454.4,476.8,449.8Z" transform="translate(-426.8 -427.257)" fill="#f0c7ad"/>
        <path id="Path_1695" data-name="Path 1695" d="M480.2,506.5l-5-2.7s-7.2-2.3-9.7-1.5-8.6,2.3-5.9,4.2,3.8,0,5.9,0,1.4,4.2,4.1,5.1,4.9,2.5,7.2,0A18.2,18.2,0,0,0,480.2,506.5Z" transform="translate(-426.8 -427.257)" fill="#f0c7ad"/>
        <path id="Path_1696" data-name="Path 1696" d="M449.8,530.2h0c-2.9,0-4.7-3.5-5.8-4.9a4.671,4.671,0,0,0-1.7-.3,2.922,2.922,0,0,0-1.1,2.2c.2,1-.2,2.5-.7,2.5a20.69,20.69,0,0,1-2.3-.4,18.512,18.512,0,0,1-4.3-1.8,2.53,2.53,0,0,0-3.4.6c.5,7.9,4.7,8.9,4.7,8.9h0a19.954,19.954,0,0,0,3.7,1.5c7.6,2.4,15.6-1.6,15.6-1.6v-5.3C454.5,531.8,452,531.2,449.8,530.2Z" transform="translate(-426.8 -427.257)" fill="#f0c7ad"/>
        <path id="Path_1697" data-name="Path 1697" d="M484.4,503.9h-9.2v10.6l4.6,5Z" transform="translate(-426.8 -427.257)" fill="#4382e9"/>
        <path id="Path_1698" data-name="Path 1698" d="M501.9,474.5s-9.9,4.2-14.5,12.2-7.2,19.8-7.2,19.8l-8.7,20.6s-18.4.4-22.6,0l-1.5,13.7s10.7,2.3,19,3.8,17.1-1.1,18.3-5c1.1-3.8,3-4.6,3-4.6s1.1,11.8-2.7,19-3.8,12.2-3.8,12.2,4.2,13.7,18.3,16.4,32.4-10.3,32.4-10.3,1.1-34.3,1.5-47.2c.4-13-.8-41.9-5-48.4s-13-6.9-14.9-6.9C511.8,470,504.9,473,501.9,474.5Z" transform="translate(-426.8 -427.257)" fill="#4382e9"/>
      </g>
      <g id="Group_569" data-name="Group 569" transform="translate(624.454 795.545)">
        <path id="Path_1699" data-name="Path 1699" d="M1045.4,1080.2a7.145,7.145,0,0,0-4.9,4.6c-1.1,3.7,1.4,6.5,1.9,7.6.6,1.1,2.6,1.4,3,2a5.483,5.483,0,0,0,4.1,1.4c1.4-.3,3.4-6.8,2-11S1045.4,1080.2,1045.4,1080.2Z" transform="translate(-1040.223 -966.4)" fill="#fcb794"/>
        <path id="Path_1700" data-name="Path 1700" d="M1102.2,1103.2c2.1-9.5.6-30,.6-30s-12.9-2.5-18.3,10c-6.6-3.5-28.2-1.4-28.2-1.4s-7,23.5-8.1,33.9c-1.2,10.4,2.3,23.8,6.4,33.6,4,9.8,7.9,38.6,8.2,40.4a25.814,25.814,0,0,1,0,5l10.7-12.8s-.9-19.6-2.1-30.6-2.5-22.3-2.5-22.3,6-19,10.3-25l2-3.3s.3-.4.7-1c-.8,20.5,2.3,41.5,2.6,46.8.3,5.9,0,35.9,0,35.9l8.3,3s0-4.8,2.7-18.1,4.2-46.6,4.5-52.6C1100.1,1108.8,1100.1,1112.7,1102.2,1103.2Z" transform="translate(-1040.223 -966.4)" fill="#4b4b4b"/>
        <path id="Path_1701" data-name="Path 1701" d="M1064.4,984.2l.2-2.1s-2.4-4.7-4.7-6.7c-2.2-2.1-9.6-6.4-11.1-7.1s-3.6-1.9-5.5-1.9-.6,3,2.9,5.2a43.951,43.951,0,0,1,5.2,3.7s.6,2.5-.7,2.5-1.9,1.5-1.9,1.5.6,3.7,1.9,4.9,4.7,4.2,4.7,4.2l11.1,5.6Z" transform="translate(-1040.223 -966.4)" fill="#fcb794"/>
        <path id="Path_1702" data-name="Path 1702" d="M1068.3,1018.1s-9.6-19.6-10.8-22.6c-1.2-3.1-3.1-7.5-3.1-7.5l10-6.9s13,14.5,13.7,14.9c.6.4,7.5,14.7,7.5,15.5s-3.2,10.4-3.2,10.4Z" transform="translate(-1040.223 -966.4)" fill="#fedb59"/>
        <path id="Path_1703" data-name="Path 1703" d="M1070.4,1011.8v-6.6c-5-4.6-3.9-11.2-3.9-11.2l-.1-3.2s3.5,5.1,5.8,7,3,8.6,10.3,9.6c0,0,3.3,9.6-4,8.2C1071.3,1014.2,1070.4,1011.8,1070.4,1011.8Z" transform="translate(-1040.223 -966.4)" fill="#fcb794"/>
        <path id="Path_1704" data-name="Path 1704" d="M1068.5,996.9c-.3-.6-2.1-6.1-2.1-6.1s-1.2-2.3,0-7.5c1.2-5.1,6.8-8.9,12.8-8.4,6.1.5,16.6,4.7,15.7,15.9,0,0,3.7,2.3,5.4,11,1.6,8.6-2.1,13.8-5.8,17.3s-4.4,9.1-4.4,9.1-8.9-6.3-7.5-20.8C1082.6,1007.4,1073.9,1008.8,1068.5,996.9Z" transform="translate(-1040.223 -966.4)" fill="#432312"/>
        <path id="Path_1705" data-name="Path 1705" d="M1098.7,1009.5c12.9,8.4,2.6,22-.2,30.4s-1.9,19.2,2.3,23.4,4.3,10.8,4.3,10.8c-1.2,3-12.4,20.3-31.6,18s-20.3-12.4-20.3-12.4a46.8,46.8,0,0,1,4.3-15.4c3.8-7.9,1.4-15.9.4-25a105.651,105.651,0,0,1,0-18.2c11.9-11.5,27.3-14.3,27.3-14.3Z" transform="translate(-1040.223 -966.4)" fill="#fedb59"/>
        <path id="Path_1706" data-name="Path 1706" d="M1053.1,1026.4s2.9-6.8,7.3-4.6,7.6,4,8.2,8.1-2.7,20.6-2.2,24.7c.4,4.1-2.8,11.8-4.8,15.6-2.1,3.8-9.7,18.2-9.7,18.2l-8.2-6.2s5.9-18.7,6.4-22.3c.6-3.5,3-19.1,3-19.1v-14.4Z" transform="translate(-1040.223 -966.4)" fill="#fedb59"/>
        <path id="Path_1707" data-name="Path 1707" d="M1090,1028.2s.7-5.6,4.4-9.1,7.5-8.6,5.8-17.3c-1.6-8.6-5.4-11-5.4-11s-9.1-.2-12.4,16.6C1081.2,1021.9,1090,1028.2,1090,1028.2Z" transform="translate(-1040.223 -966.4)" fill="#35190d"/>
        <path id="Path_1708" data-name="Path 1708" d="M1086.5,1191.9s2.1-.3,4,2.7c1.9,3.1,1.6,5,1.6,5h3.1s1-7.5-.7-10.2S1087,1188.7,1086.5,1191.9Z" transform="translate(-1040.223 -966.4)" fill="#343254"/>
        <path id="Path_1709" data-name="Path 1709" d="M1087.8,1181.9a3.515,3.515,0,0,0-3.5.6c-1.4,1.4-1,7.3-6.1,8.6s-1.4,8.1-1.4,8.1,4.2,1.1,6.6,0,2.8-10.3,11.2-9.7C1094.6,1189.5,1096.4,1180.3,1087.8,1181.9Z" transform="translate(-1040.223 -966.4)" fill="#6e6e6e"/>
        <path id="Path_1710" data-name="Path 1710" d="M1070.2,1195.6s3.4,2.4,3.1,5.8a30.232,30.232,0,0,0,0,5.8h4.8s.6-10.7-1-14.9C1075.4,1188.2,1070.2,1195.6,1070.2,1195.6Z" transform="translate(-1040.223 -966.4)" fill="#343254"/>
        <path id="Path_1711" data-name="Path 1711" d="M1071.2,1182.6a11.87,11.87,0,0,0-5.4,6c-2.1,4.6-3.9,7.3-6.6,7.6s-5.2.6-7,2.1c0,0-1.2,3.4.6,6a8.011,8.011,0,0,0,8.7,2.5c2.8-1,5.9-8.7,9.7-11.2s6.1-2.1,6.6-1.9c.4.1,1.6-9.4-4.5-11.8Z" transform="translate(-1040.223 -966.4)" fill="#6e6e6e"/>
      </g>
      <g id="Group_570" data-name="Group 570" transform="translate(2.932 782.731)">
        <path id="Path_1712" data-name="Path 1712" d="M445.4,993.3l32.4,17.6-36,27.7L409.3,1021Z" transform="translate(-360.142 -953.586)" fill="#e5e5e5"/>
        <path id="Path_1713" data-name="Path 1713" d="M447.2,1041.5a68.939,68.939,0,0,0,7.9-1.9c2.8-1.1,7.5-5.1,8.1-6.7.5-1.6,1.2-8.1,0-9.5s-5.8,3.5-7.6,5.1l-1.8,1.6s1.4-4.2,1.1-5.3c-.4-1.1-2.5-1.2-4.9,1.4-2.5,2.6-8.9,8.4-8.9,8.4Z" transform="translate(-360.142 -953.586)" fill="#e9b488"/>
        <path id="Path_1714" data-name="Path 1714" d="M404.5,1211.2l1.7,1.1a23.272,23.272,0,0,0,8.5-.6c4.6-1.1,9.7-.9,8.8,3.4s-8.2,7.7-11.4,9.1c-3.1,1.4-9.4,3.4-10.2,4.6-.9,1.1-2.3,2.8-7.1,1.7s-5-3.1-5-3.1v-17.6Z" transform="translate(-360.142 -953.586)" fill="#031e6c"/>
        <path id="Path_1715" data-name="Path 1715" d="M376.6,1197.8s5.7-2.8,7.7-2.6c2,.3,4.3,3.4,0,8s-6,6.5-7.7,10c-1.7,3.4-2.8,6-6.8,5.7a11.4,11.4,0,0,1-3.3-.8,6.523,6.523,0,0,1-4.1-6.1v-9.1l12.2-5.7Z" transform="translate(-360.142 -953.586)" fill="#031e6c"/>
        <path id="Path_1716" data-name="Path 1716" d="M415.9,1101.7l1.3,4.3s-.5,25.3-4.4,43.5c-4,18.2-6.5,62.9-6.5,62.9s-.9,4.3-6.3,4.6-10.8-3.1-10.8-3.1-.9-26.5,0-42.1,1.8-25-.4-33c0,0-1.9,17.4-4.7,27.9s-5.4,29-6.5,37c0,0-1.1,5.1-5.4,5.1s-5.7-.9-8.5-4.3c0,0-1.4-25.3-1.1-36.4s6.3-26.5,6.3-26.5-1.4-40.1-.9-50.9c.6-10.8,19.6-18.5,19.6-18.5Z" transform="translate(-360.142 -953.586)" fill="#a78264"/>
        <path id="Path_1717" data-name="Path 1717" d="M410.5,963.5v20.8s.3,7.1-2.6,8.2c-2.8,1.1-6.3,0-6.3,0v6.3s-8.2,1.7-14.8-3.1v-6.5l10.2-21C397.1,968,407.6,961.5,410.5,963.5Z" transform="translate(-360.142 -953.586)" fill="#e9b488"/>
        <path id="Path_1718" data-name="Path 1718" d="M401.6,998.7s9.1,3.4,14.5,8.5,4.8,14.8,5.4,22.5a106.154,106.154,0,0,0,1.7,12.8s14.8-8.8,16.5-9.4c0,0,9.4,2,7.1,11.1,0,0-11.4,8-17.6,12.2-6.3,4.3-11.9,8-15.9,8,0,0,1.4,8,4,17.6,2.6,9.7,1.7,23,1.7,23s-10.2,5.7-19.3,4.8-12.8-3.7-12.8-3.7l-4.3-17.1v14.2s-10.5-5.1-14.8-12.8c0,0,.6-15.9,1.7-21.3s-6.5-25.6-8.8-33.6,3.1-33.3,5.4-38.4,11.4-10,20.8-5.4Z" transform="translate(-360.142 -953.586)" fill="#656356"/>
        <path id="Path_1719" data-name="Path 1719" d="M410.5,963.5a8.34,8.34,0,0,0-4-7.7c-4.6-2.8-12.8-3.1-18.5,0s-10,7.7-9.4,17.4,8.2,17.4,8.2,17.4,3.1.9,9.7-6c6.5-6.8,8.1-15.7,9.7-18.5A4.594,4.594,0,0,1,410.5,963.5Z" transform="translate(-360.142 -953.586)" fill="#713d23"/>
      </g>
      <g id="Group_607" data-name="Group 607" transform="translate(239.391 769.47)">
        <g id="Group_574" data-name="Group 574" transform="translate(13 56.2)">
          <g id="Group_573" data-name="Group 573">
            <path id="Path_1720" data-name="Path 1720" d="M689.2,1012.7v.8a.6.6,0,0,1-.1.4.756.756,0,0,1-.1.4c0,.1-.1.3-.1.4s-.1.2-.1.4c0,.1-.1.3-.1.4s-.1.2-.1.3c-.1.1-.1.3-.2.4s-.1.2-.2.3-.1.3-.2.4-.1.2-.2.3c-.1.2-.2.3-.3.5-.1.1-.1.2-.2.3a1.755,1.755,0,0,1-.4.5c-.1.1-.1.2-.2.2-.2.3-.5.5-.7.8l-.2.2-.6.6-.3.3c-.1.1-.3.2-.4.3a1.38,1.38,0,0,1-.4.3c-.1.1-.3.2-.4.3s-.3.2-.4.3a2.185,2.185,0,0,1-.5.3c-.1.1-.3.2-.4.3-.2.1-.3.2-.5.3s-.4.3-.6.4c-.6.3-1.2.7-1.8,1-.2.1-.3.2-.5.2a12.184,12.184,0,0,1-1.7.7.349.349,0,0,0-.2.1c-.6.2-1.3.5-1.9.7-.5.1-.9.3-1.4.4-.4.1-.7.2-1.1.3l-1.5.3a4.254,4.254,0,0,1-1.1.2.9.9,0,0,0-.5.1c-.6.1-1.2.2-1.9.3a1.268,1.268,0,0,0-.6.1c-.4,0-.7.1-1.1.1a10.871,10.871,0,0,1-1.8.1h-3.9a6.6,6.6,0,0,1-1.4-.1c-.4,0-.8-.1-1.3-.1a5.067,5.067,0,0,1-1.3-.2c-.4-.1-.8-.1-1.2-.2a7.846,7.846,0,0,0-1.4-.2c-.4-.1-.8-.1-1.1-.2-.6-.1-1.1-.3-1.7-.4-.4-.1-.7-.2-1.1-.3-.2-.1-.4-.1-.6-.2-.6-.2-1.1-.4-1.6-.6-.2-.1-.3-.1-.5-.2-.5-.2-1-.4-1.4-.6-.2-.1-.5-.2-.7-.3-.7-.3-1.3-.7-2-1-3.7-2.1-6.1-4.7-7.2-7.4a9.954,9.954,0,0,1-.8-3.8v7.6c0,4,2.7,8.1,8,11.2a12.445,12.445,0,0,0,2,1c.2.1.5.2.7.3a6.119,6.119,0,0,0,1.2.5c.1,0,.1.1.2.1.2.1.3.1.5.2.5.2,1.1.4,1.6.6.2.1.4.1.6.2.1,0,.3.1.4.1.2.1.5.1.7.2.6.1,1.1.3,1.7.4.2,0,.3.1.4.1.2,0,.5.1.7.1a7.846,7.846,0,0,0,1.4.2c.2,0,.4.1.6.1a1.268,1.268,0,0,1,.6.1c.4.1.9.1,1.3.2.2,0,.4.1.6.1h.6c.5,0,.9.1,1.4.1h3.9c.6,0,1.2-.1,1.8-.1H667a.749.749,0,0,0,.5-.1c.6-.1,1.3-.2,1.9-.3a.9.9,0,0,0,.5-.1h.2c.3-.1.6-.1.9-.2l1.5-.3c.4-.1.7-.2,1.1-.3.5-.1.9-.3,1.4-.4.1,0,.2-.1.3-.1.6-.2,1.1-.4,1.6-.6a.349.349,0,0,0,.2-.1c.6-.2,1.2-.5,1.7-.7.2-.1.3-.2.5-.2a16.183,16.183,0,0,0,1.8-1c.1-.1.2-.1.3-.2s.2-.1.3-.2c.2-.1.3-.2.5-.3.1-.1.3-.2.4-.3.2-.1.3-.2.5-.3.1-.1.3-.2.4-.3s.3-.2.4-.3.3-.2.4-.3.3-.2.4-.3c.1,0,.1-.1.2-.1l.1-.1.6-.6.2-.2c.2-.3.5-.5.7-.8h0c.1-.1.1-.1.1-.2.1-.2.3-.3.4-.5.1-.1.1-.2.2-.3.1-.2.2-.3.3-.5l.1-.1c0-.1.1-.1.1-.2.1-.1.1-.3.2-.4s.1-.2.2-.3.1-.3.2-.4c0-.1.1-.1.1-.2s0-.1.1-.2c0-.1.1-.3.1-.4s.1-.2.1-.4c0-.1.1-.3.1-.4s0-.1.1-.2v-.1a.6.6,0,0,1,.1-.4v-8.8C689.3,1012.4,689.2,1012.6,689.2,1012.7Z" transform="translate(-635 -996.525)" fill="#efc100"/>
            <g id="Group_571" data-name="Group 571" transform="translate(0.1)">
              <path id="Path_1721" data-name="Path 1721" d="M681.3,1001.1c10.6,6.1,10.6,16,.1,22.2-10.5,6.1-27.7,6.1-38.3,0s-10.7-16-.1-22.2C653.5,995,670.7,995,681.3,1001.1Z" transform="translate(-635.1 -996.525)" fill="#fdd400"/>
            </g>
            <g id="Group_572" data-name="Group 572" transform="translate(15 8.475)">
              <path id="Path_1722" data-name="Path 1722" d="M671,1010.6c2.3,1.3,2.7,3.4.2,5.5l2.7,1.5-2.6,1.5-2.5-1.4a17.188,17.188,0,0,1-5.5,1.9l-2.3-2.2a19.07,19.07,0,0,0,5.4-1.8c1.5-.9,1.9-1.8.9-2.4s-2.5-.5-5,.3c-3.7,1.1-6.9,1.4-9.5,0-2.3-1.3-2.5-3.3-.3-5.2l-2.5-1.4,2.6-1.5,2.3,1.3a17.686,17.686,0,0,1,4.6-1.7l2.2,2.2a13.88,13.88,0,0,0-4.6,1.7c-1.7,1-1.5,1.7-.8,2.1.9.5,2.3.3,5.4-.5C666,1009.1,668.7,1009.2,671,1010.6Z" transform="translate(-650 -1005)" fill="#ec8659"/>
            </g>
          </g>
        </g>
        <g id="Group_578" data-name="Group 578" transform="translate(13 43.9)">
          <g id="Group_577" data-name="Group 577">
            <path id="Path_1723" data-name="Path 1723" d="M689.2,1000.4v.8a.6.6,0,0,1-.1.4.756.756,0,0,1-.1.4c0,.1-.1.3-.1.4s-.1.2-.1.4c0,.1-.1.3-.1.4s-.1.2-.1.3c-.1.1-.1.3-.2.4s-.1.2-.2.3-.1.3-.2.4-.1.2-.2.3c-.1.2-.2.3-.3.5-.1.1-.1.2-.2.3a1.755,1.755,0,0,1-.4.5c-.1.1-.1.2-.2.2-.2.3-.5.5-.7.8l-.2.2-.6.6-.3.3c-.1.1-.3.2-.4.3a1.38,1.38,0,0,1-.4.3c-.1.1-.3.2-.4.3s-.3.2-.4.3a2.185,2.185,0,0,1-.5.3c-.1.1-.3.2-.4.3-.2.1-.3.2-.5.3s-.4.3-.6.4c-.6.3-1.2.7-1.8,1-.2.1-.3.2-.5.2a12.2,12.2,0,0,1-1.7.7.349.349,0,0,0-.2.1c-.6.2-1.3.5-1.9.7-.5.1-.9.3-1.4.4-.4.1-.7.2-1.1.3l-1.5.3a4.254,4.254,0,0,1-1.1.2.9.9,0,0,0-.5.1c-.6.1-1.2.2-1.9.3a1.268,1.268,0,0,0-.6.1c-.4,0-.7.1-1.1.1a10.871,10.871,0,0,1-1.8.1h-3.9a6.6,6.6,0,0,1-1.4-.1c-.4,0-.8-.1-1.3-.1a5.065,5.065,0,0,1-1.3-.2c-.4-.1-.8-.1-1.2-.2a7.847,7.847,0,0,0-1.4-.2c-.4-.1-.8-.1-1.1-.2-.6-.1-1.1-.3-1.7-.4-.4-.1-.7-.2-1.1-.3-.2-.1-.4-.1-.6-.2-.6-.2-1.1-.4-1.6-.6-.2-.1-.3-.1-.5-.2-.5-.2-1-.4-1.4-.6-.2-.1-.5-.2-.7-.3-.7-.3-1.3-.7-2-1-3.7-2.1-6.1-4.7-7.2-7.4a9.954,9.954,0,0,1-.8-3.8v7.6c0,4,2.7,8.1,8,11.2a12.44,12.44,0,0,0,2,1c.2.1.5.2.7.3a6.115,6.115,0,0,0,1.2.5c.1,0,.1.1.2.1.2.1.3.1.5.2.5.2,1.1.4,1.6.6.2.1.4.1.6.2.1,0,.3.1.4.1.2.1.5.1.7.2.6.1,1.1.3,1.7.4.2,0,.3.1.4.1.2,0,.5.1.7.1a7.847,7.847,0,0,0,1.4.2c.2,0,.4.1.6.1a1.268,1.268,0,0,1,.6.1c.4.1.9.1,1.3.2.2,0,.4.1.6.1h.6c.5,0,.9.1,1.4.1h3.9c.6,0,1.2-.1,1.8-.1H667a.749.749,0,0,0,.5-.1c.6-.1,1.3-.2,1.9-.3a.9.9,0,0,0,.5-.1h.2c.3-.1.6-.1.9-.2l1.5-.3c.4-.1.7-.2,1.1-.3.5-.1.9-.3,1.4-.4.1,0,.2-.1.3-.1.6-.2,1.1-.4,1.6-.6a.349.349,0,0,0,.2-.1c.6-.2,1.2-.5,1.7-.7.2-.1.3-.2.5-.2a16.173,16.173,0,0,0,1.8-1c.1-.1.2-.1.3-.2s.2-.1.3-.2c.2-.1.3-.2.5-.3.1-.1.3-.2.4-.3.2-.1.3-.2.5-.3.1-.1.3-.2.4-.3s.3-.2.4-.3.3-.2.4-.3.3-.2.4-.3c.1,0,.1-.1.2-.1l.1-.1.6-.6.2-.2c.2-.3.5-.5.7-.8h0c.1-.1.1-.1.1-.2.1-.2.3-.3.4-.5.1-.1.1-.2.2-.3.1-.2.2-.3.3-.5l.1-.1c0-.1.1-.1.1-.2.1-.1.1-.3.2-.4s.1-.2.2-.3.1-.3.2-.4c0-.1.1-.1.1-.2s0-.1.1-.2c0-.1.1-.3.1-.4s.1-.2.1-.4c0-.1.1-.3.1-.4s0-.1.1-.2v-.1a.6.6,0,0,1,.1-.4v-8.8C689.3,1000.1,689.2,1000.3,689.2,1000.4Z" transform="translate(-635 -984.225)" fill="#efc100"/>
            <g id="Group_575" data-name="Group 575" transform="translate(0.1)">
              <path id="Path_1724" data-name="Path 1724" d="M681.3,988.8c10.6,6.1,10.6,16,.1,22.2-10.5,6.1-27.7,6.1-38.3,0s-10.7-16-.1-22.2C653.5,982.7,670.7,982.7,681.3,988.8Z" transform="translate(-635.1 -984.225)" fill="#fdd400"/>
            </g>
            <g id="Group_576" data-name="Group 576" transform="translate(15 8.475)">
              <path id="Path_1725" data-name="Path 1725" d="M671,998.3c2.3,1.3,2.7,3.4.2,5.5l2.7,1.5-2.6,1.5-2.5-1.4a17.188,17.188,0,0,1-5.5,1.9l-2.3-2.2a19.07,19.07,0,0,0,5.4-1.8c1.5-.9,1.9-1.8.9-2.4s-2.5-.5-5,.3c-3.7,1.1-6.9,1.4-9.5,0-2.3-1.3-2.5-3.3-.3-5.2l-2.5-1.4,2.6-1.5,2.3,1.3a17.686,17.686,0,0,1,4.6-1.7l2.2,2.2a13.88,13.88,0,0,0-4.6,1.7c-1.7,1-1.5,1.7-.8,2.1.9.5,2.3.3,5.4-.5C666,996.8,668.7,996.9,671,998.3Z" transform="translate(-650 -992.7)" fill="#ec8659"/>
            </g>
          </g>
        </g>
        <g id="Group_582" data-name="Group 582" transform="translate(7.3 32.7)">
          <g id="Group_581" data-name="Group 581">
            <path id="Path_1726" data-name="Path 1726" d="M683.5,989.3v.8a.6.6,0,0,1-.1.4.756.756,0,0,1-.1.4c0,.1-.1.3-.1.4s-.1.2-.1.4c0,.1-.1.3-.1.4s-.1.2-.1.3c-.1.1-.1.3-.2.4s-.1.2-.2.3-.1.3-.2.4-.1.2-.2.3c-.1.2-.2.3-.3.5-.1.1-.1.2-.2.3a1.755,1.755,0,0,1-.4.5c-.1.1-.1.2-.2.2-.2.3-.5.5-.7.8l-.2.2-.6.6-.3.3c-.1.1-.3.2-.4.3a1.38,1.38,0,0,1-.4.3c-.1.1-.3.2-.4.3s-.3.2-.4.3a2.185,2.185,0,0,1-.5.3c-.1.1-.3.2-.4.3-.2.1-.3.2-.5.3s-.4.3-.6.4c-.6.3-1.2.7-1.8,1-.2.1-.3.2-.5.2a12.2,12.2,0,0,1-1.7.7.349.349,0,0,0-.2.1c-.6.2-1.3.5-1.9.7-.5.1-.9.3-1.4.4-.4.1-.7.2-1.1.3l-1.5.3a4.254,4.254,0,0,1-1.1.2.9.9,0,0,0-.5.1c-.6.1-1.2.2-1.9.3a1.268,1.268,0,0,0-.6.1c-.4,0-.7.1-1.1.1a10.871,10.871,0,0,1-1.8.1h-3.9a6.6,6.6,0,0,1-1.4-.1c-.4,0-.8-.1-1.3-.1a5.065,5.065,0,0,1-1.3-.2c-.4-.1-.8-.1-1.2-.2a7.847,7.847,0,0,0-1.4-.2c-.4-.1-.8-.1-1.1-.2-.6-.1-1.1-.3-1.7-.4-.4-.1-.7-.2-1.1-.3-.2-.1-.4-.1-.6-.2-.6-.2-1.1-.4-1.6-.6-.2-.1-.3-.1-.5-.2-.5-.2-1-.4-1.4-.6-.2-.1-.5-.2-.7-.3-.7-.3-1.3-.7-2-1-3.7-2.1-6.1-4.7-7.2-7.4a9.954,9.954,0,0,1-.8-3.8v7.6c0,4,2.7,8.1,8,11.2a12.44,12.44,0,0,0,2,1c.2.1.5.2.7.3a6.115,6.115,0,0,0,1.2.5c.1,0,.1.1.2.1.2.1.3.1.5.2.5.2,1.1.4,1.6.6.2.1.4.1.6.2.1,0,.3.1.4.1.2.1.5.1.7.2.6.1,1.1.3,1.7.4.2,0,.3.1.4.1.2,0,.5.1.7.1a7.847,7.847,0,0,0,1.4.2c.2,0,.4.1.6.1a1.268,1.268,0,0,1,.6.1c.4.1.9.1,1.3.2.2,0,.4.1.6.1h.6c.5,0,.9.1,1.4.1h3.9c.6,0,1.2-.1,1.8-.1h1.1a.749.749,0,0,0,.5-.1c.6-.1,1.3-.2,1.9-.3a.9.9,0,0,0,.5-.1h.2c.3-.1.6-.1.9-.2l1.5-.3c.4-.1.7-.2,1.1-.3.5-.1.9-.3,1.4-.4.1,0,.2-.1.3-.1.6-.2,1.1-.4,1.6-.6a.349.349,0,0,0,.2-.1c.6-.2,1.2-.5,1.7-.7.2-.1.3-.2.5-.2a16.173,16.173,0,0,0,1.8-1c.1-.1.2-.1.3-.2s.2-.1.3-.2c.2-.1.3-.2.5-.3.1-.1.3-.2.4-.3.2-.1.3-.2.5-.3.1-.1.3-.2.4-.3s.3-.2.4-.3.3-.2.4-.3.3-.2.4-.3c.1,0,.1-.1.2-.1l.1-.1.6-.6.2-.2c.2-.3.5-.5.7-.8h0c.1-.1.1-.1.1-.2.1-.2.3-.3.4-.5.1-.1.1-.2.2-.3.1-.2.2-.3.3-.5l.1-.1c0-.1.1-.1.1-.2.1-.1.1-.3.2-.4s.1-.2.2-.3.1-.3.2-.4c0-.1.1-.1.1-.2s0-.1.1-.2c0-.1.1-.3.1-.4s.1-.2.1-.4c0-.1.1-.3.1-.4s0-.1.1-.2v-.1a.6.6,0,0,1,.1-.4v-8.8C683.6,989,683.5,989.1,683.5,989.3Z" transform="translate(-629.3 -973.025)" fill="#efc100"/>
            <g id="Group_579" data-name="Group 579" transform="translate(0.1)">
              <path id="Path_1727" data-name="Path 1727" d="M675.6,977.6c10.6,6.1,10.6,16,.1,22.2-10.5,6.1-27.7,6.1-38.3,0s-10.7-16-.1-22.2C647.8,971.5,665,971.5,675.6,977.6Z" transform="translate(-629.4 -973.025)" fill="#fdd400"/>
            </g>
            <g id="Group_580" data-name="Group 580" transform="translate(15 8.475)">
              <path id="Path_1728" data-name="Path 1728" d="M665.3,987.1c2.3,1.3,2.7,3.4.2,5.5l2.7,1.5-2.6,1.5-2.5-1.4a17.188,17.188,0,0,1-5.5,1.9l-2.3-2.2a19.07,19.07,0,0,0,5.4-1.8c1.5-.9,1.9-1.8.9-2.4s-2.5-.5-5,.3c-3.7,1.1-6.9,1.4-9.5,0-2.3-1.3-2.5-3.3-.3-5.2l-2.5-1.4,2.6-1.5,2.3,1.3a17.686,17.686,0,0,1,4.6-1.7l2.2,2.2a13.88,13.88,0,0,0-4.6,1.7c-1.7,1-1.5,1.7-.8,2.1.9.5,2.3.3,5.4-.5C660.3,985.6,663,985.7,665.3,987.1Z" transform="translate(-644.3 -981.5)" fill="#ec8659"/>
            </g>
          </g>
        </g>
        <g id="Group_586" data-name="Group 586" transform="translate(0 18.825)">
          <g id="Group_585" data-name="Group 585">
            <path id="Path_1729" data-name="Path 1729" d="M676.2,975.4v.8a.6.6,0,0,1-.1.4.756.756,0,0,1-.1.4c0,.1-.1.3-.1.4s-.1.2-.1.4c0,.1-.1.3-.1.4s-.1.2-.1.3c-.1.1-.1.3-.2.4s-.1.2-.2.3-.1.3-.2.4-.1.2-.2.3c-.1.2-.2.3-.3.5-.1.1-.1.2-.2.3a1.755,1.755,0,0,1-.4.5c-.1.1-.1.2-.2.2-.2.3-.5.5-.7.8l-.2.2-.6.6-.3.3c-.1.1-.3.2-.4.3a1.38,1.38,0,0,1-.4.3c-.1.1-.3.2-.4.3s-.3.2-.4.3a2.185,2.185,0,0,1-.5.3c-.1.1-.3.2-.4.3-.2.1-.3.2-.5.3s-.4.3-.6.4c-.6.3-1.2.7-1.8,1-.2.1-.3.2-.5.2a12.2,12.2,0,0,1-1.7.7.349.349,0,0,0-.2.1c-.6.2-1.3.5-1.9.7-.5.1-.9.3-1.4.4-.4.1-.7.2-1.1.3l-1.5.3a4.254,4.254,0,0,1-1.1.2.9.9,0,0,0-.5.1c-.6.1-1.2.2-1.9.3a1.268,1.268,0,0,0-.6.1c-.4,0-.7.1-1.1.1a10.871,10.871,0,0,1-1.8.1h-3.9a6.6,6.6,0,0,1-1.4-.1c-.4,0-.8-.1-1.3-.1a5.065,5.065,0,0,1-1.3-.2c-.4-.1-.8-.1-1.2-.2a7.847,7.847,0,0,0-1.4-.2c-.4-.1-.8-.1-1.1-.2-.6-.1-1.1-.3-1.7-.4-.4-.1-.7-.2-1.1-.3-.2-.1-.4-.1-.6-.2-.6-.2-1.1-.4-1.6-.6-.2-.1-.3-.1-.5-.2-.5-.2-1-.4-1.4-.6-.2-.1-.5-.2-.7-.3-.7-.3-1.3-.7-2-1-3.7-2.1-6.1-4.7-7.2-7.4a9.954,9.954,0,0,1-.8-3.8v7.6c0,4,2.7,8.1,8,11.2a12.44,12.44,0,0,0,2,1c.2.1.5.2.7.3a6.115,6.115,0,0,0,1.2.5c.1,0,.1.1.2.1.2.1.3.1.5.2.5.2,1.1.4,1.6.6.2.1.4.1.6.2.1,0,.3.1.4.1.2.1.5.1.7.2.6.1,1.1.3,1.7.4.2,0,.3.1.4.1.2,0,.5.1.7.1a7.847,7.847,0,0,0,1.4.2c.2,0,.4.1.6.1a1.268,1.268,0,0,1,.6.1c.4.1.9.1,1.3.2.2,0,.4.1.6.1h.6c.5,0,.9.1,1.4.1h3.9c.6,0,1.2-.1,1.8-.1H654a.749.749,0,0,0,.5-.1c.6-.1,1.3-.2,1.9-.3a.9.9,0,0,0,.5-.1h.2c.3-.1.6-.1.9-.2l1.5-.3c.4-.1.7-.2,1.1-.3.5-.1.9-.3,1.4-.4.1,0,.2-.1.3-.1.6-.2,1.1-.4,1.6-.6a.349.349,0,0,0,.2-.1c.6-.2,1.2-.5,1.7-.7.2-.1.3-.2.5-.2a16.173,16.173,0,0,0,1.8-1c.1-.1.2-.1.3-.2s.2-.1.3-.2c.2-.1.3-.2.5-.3.1-.1.3-.2.4-.3.2-.1.3-.2.5-.3.1-.1.3-.2.4-.3s.3-.2.4-.3.3-.2.4-.3.3-.2.4-.3c.1,0,.1-.1.2-.1l.1-.1.6-.6.2-.2c.2-.3.5-.5.7-.8h0c.1-.1.1-.1.1-.2.1-.2.3-.3.4-.5.1-.1.1-.2.2-.3.1-.2.2-.3.3-.5l.1-.1c0-.1.1-.1.1-.2.1-.1.1-.3.2-.4s.1-.2.2-.3.1-.3.2-.4c0-.1.1-.1.1-.2s0-.1.1-.2c0-.1.1-.3.1-.4s.1-.2.1-.4c0-.1.1-.3.1-.4s0-.1.1-.2v-.1a.6.6,0,0,1,.1-.4v-8.8C676.2,975.1,676.2,975.2,676.2,975.4Z" transform="translate(-622 -959.15)" fill="#efc100"/>
            <g id="Group_583" data-name="Group 583">
              <path id="Path_1730" data-name="Path 1730" d="M668.2,963.8c10.6,6.1,10.6,16,.1,22.2-10.5,6.1-27.7,6.1-38.3,0s-10.7-16-.1-22.2S657.6,957.6,668.2,963.8Z" transform="translate(-622 -959.15)" fill="#fdd400"/>
            </g>
            <g id="Group_584" data-name="Group 584" transform="translate(15 8.45)">
              <path id="Path_1731" data-name="Path 1731" d="M658,973.2c2.3,1.3,2.7,3.4.2,5.5l2.7,1.5-2.6,1.5-2.5-1.4a17.188,17.188,0,0,1-5.5,1.9L648,980a19.07,19.07,0,0,0,5.4-1.8c1.5-.9,1.9-1.8.9-2.4s-2.5-.5-5,.3c-3.7,1.1-6.9,1.4-9.5,0-2.3-1.3-2.5-3.3-.3-5.2l-2.5-1.4,2.6-1.5,2.3,1.3a17.686,17.686,0,0,1,4.6-1.7l2.2,2.2a13.88,13.88,0,0,0-4.6,1.7c-1.7,1-1.5,1.7-.8,2.1.9.5,2.3.3,5.4-.5C653,971.8,655.6,971.9,658,973.2Z" transform="translate(-637 -967.6)" fill="#ec8659"/>
            </g>
          </g>
        </g>
        <g id="Group_590" data-name="Group 590" transform="translate(15 10.6)">
          <g id="Group_589" data-name="Group 589">
            <path id="Path_1732" data-name="Path 1732" d="M691.2,967.1v.8a.6.6,0,0,1-.1.4.756.756,0,0,1-.1.4c0,.1-.1.3-.1.4s-.1.2-.1.4c0,.1-.1.3-.1.4s-.1.2-.1.3c-.1.1-.1.3-.2.4s-.1.2-.2.3-.1.3-.2.4-.1.2-.2.3c-.1.2-.2.3-.3.5-.1.1-.1.2-.2.3a1.755,1.755,0,0,1-.4.5c-.1.1-.1.2-.2.2-.2.3-.5.5-.7.8l-.2.2-.6.6-.3.3c-.1.1-.3.2-.4.3a1.38,1.38,0,0,1-.4.3c-.1.1-.3.2-.4.3s-.3.2-.4.3a2.185,2.185,0,0,1-.5.3c-.1.1-.3.2-.4.3-.2.1-.3.2-.5.3s-.4.3-.6.4c-.6.3-1.2.7-1.8,1-.2.1-.3.2-.5.2a12.2,12.2,0,0,1-1.7.7.349.349,0,0,0-.2.1c-.6.2-1.3.5-1.9.7-.5.1-.9.3-1.4.4-.4.1-.7.2-1.1.3l-1.5.3a4.254,4.254,0,0,1-1.1.2.9.9,0,0,0-.5.1c-.6.1-1.2.2-1.9.3a1.268,1.268,0,0,0-.6.1c-.4,0-.7.1-1.1.1a10.871,10.871,0,0,1-1.8.1h-3.9a6.6,6.6,0,0,1-1.4-.1c-.4,0-.8-.1-1.3-.1a5.065,5.065,0,0,1-1.3-.2c-.4-.1-.8-.1-1.2-.2a7.847,7.847,0,0,0-1.4-.2c-.4-.1-.8-.1-1.1-.2-.6-.1-1.1-.3-1.7-.4-.4-.1-.7-.2-1.1-.3-.2-.1-.4-.1-.6-.2-.6-.2-1.1-.4-1.6-.6-.2-.1-.3-.1-.5-.2-.5-.2-1-.4-1.4-.6-.2-.1-.5-.2-.7-.3-.7-.3-1.3-.7-2-1-3.7-2.1-6.1-4.7-7.2-7.4a9.954,9.954,0,0,1-.8-3.8v7.6c0,4,2.7,8.1,8,11.2a12.44,12.44,0,0,0,2,1c.2.1.5.2.7.3a6.115,6.115,0,0,0,1.2.5c.1,0,.1.1.2.1.2.1.3.1.5.2.5.2,1.1.4,1.6.6.2.1.4.1.6.2.1,0,.3.1.4.1.2.1.5.1.7.2.6.1,1.1.3,1.7.4.2,0,.3.1.4.1.2,0,.5.1.7.1a7.847,7.847,0,0,0,1.4.2c.2,0,.4.1.6.1a1.268,1.268,0,0,1,.6.1c.4.1.9.1,1.3.2.2,0,.4.1.6.1h.6c.5,0,.9.1,1.4.1h3.9c.6,0,1.2-.1,1.8-.1H669a.749.749,0,0,0,.5-.1c.6-.1,1.3-.2,1.9-.3a.9.9,0,0,0,.5-.1h.2c.3-.1.6-.1.9-.2l1.5-.3c.4-.1.7-.2,1.1-.3.5-.1.9-.3,1.4-.4.1,0,.2-.1.3-.1.6-.2,1.1-.4,1.6-.6a.349.349,0,0,0,.2-.1c.6-.2,1.2-.5,1.7-.7.2-.1.3-.2.5-.2a16.173,16.173,0,0,0,1.8-1c.1-.1.2-.1.3-.2s.2-.1.3-.2c.2-.1.3-.2.5-.3.1-.1.3-.2.4-.3.2-.1.3-.2.5-.3.1-.1.3-.2.4-.3s.3-.2.4-.3.3-.2.4-.3.3-.2.4-.3c.1,0,.1-.1.2-.1l.1-.1.6-.6.2-.2c.2-.3.5-.5.7-.8h0c.1-.1.1-.1.1-.2.1-.2.3-.3.4-.5.1-.1.1-.2.2-.3.1-.2.2-.3.3-.5l.1-.1c0-.1.1-.1.1-.2.1-.1.1-.3.2-.4s.1-.2.2-.3.1-.3.2-.4c0-.1.1-.1.1-.2s0-.1.1-.2c0-.1.1-.3.1-.4s.1-.2.1-.4c0-.1.1-.3.1-.4s0-.1.1-.2v-.1a.6.6,0,0,1,.1-.4v-8.8C691.2,966.8,691.2,966.9,691.2,967.1Z" transform="translate(-637 -950.925)" fill="#efc100"/>
            <g id="Group_587" data-name="Group 587" transform="translate(0.1)">
              <path id="Path_1733" data-name="Path 1733" d="M683.3,955.5c10.6,6.1,10.6,16,.1,22.2-10.5,6.1-27.7,6.1-38.3,0s-10.7-16-.1-22.2C655.5,949.4,672.7,949.4,683.3,955.5Z" transform="translate(-637.1 -950.925)" fill="#fdd400"/>
            </g>
            <g id="Group_588" data-name="Group 588" transform="translate(15 8.375)">
              <path id="Path_1734" data-name="Path 1734" d="M673,964.9c2.3,1.3,2.7,3.4.2,5.5l2.7,1.5-2.6,1.5-2.5-1.4a17.188,17.188,0,0,1-5.5,1.9l-2.3-2.2a19.07,19.07,0,0,0,5.4-1.8c1.5-.9,1.9-1.8.9-2.4s-2.5-.5-5,.3c-3.7,1.1-6.9,1.4-9.5,0-2.3-1.3-2.5-3.3-.3-5.2l-2.5-1.4,2.6-1.5,2.3,1.3a17.686,17.686,0,0,1,4.6-1.7l2.2,2.2a13.88,13.88,0,0,0-4.6,1.7c-1.7,1-1.5,1.7-.8,2.1.9.5,2.3.3,5.4-.5C668,963.5,670.7,963.6,673,964.9Z" transform="translate(-652 -959.3)" fill="#ec8659"/>
            </g>
          </g>
        </g>
        <g id="Group_594" data-name="Group 594" transform="translate(7.4)">
          <g id="Group_593" data-name="Group 593">
            <path id="Path_1735" data-name="Path 1735" d="M683.6,956.6v.8a.6.6,0,0,1-.1.4.756.756,0,0,1-.1.4c0,.1-.1.3-.1.4s-.1.2-.1.4c0,.1-.1.3-.1.4s-.1.2-.1.3c-.1.1-.1.3-.2.4s-.1.2-.2.3-.1.3-.2.4-.1.2-.2.3c-.1.2-.2.3-.3.5-.1.1-.1.2-.2.3a1.755,1.755,0,0,1-.4.5c-.1.1-.1.2-.2.2-.2.3-.5.5-.7.8l-.2.2-.6.6-.3.3c-.1.1-.3.2-.4.3a1.38,1.38,0,0,1-.4.3c-.1.1-.3.2-.4.3s-.3.2-.4.3a2.185,2.185,0,0,1-.5.3c-.1.1-.3.2-.4.3-.2.1-.3.2-.5.3s-.4.3-.6.4c-.6.3-1.2.7-1.8,1-.2.1-.3.2-.5.2a12.2,12.2,0,0,1-1.7.7.349.349,0,0,0-.2.1c-.6.2-1.3.5-1.9.7-.5.1-.9.3-1.4.4-.4.1-.7.2-1.1.3l-1.5.3a4.254,4.254,0,0,1-1.1.2.9.9,0,0,0-.5.1c-.6.1-1.2.2-1.9.3a1.268,1.268,0,0,0-.6.1c-.4,0-.7.1-1.1.1a10.871,10.871,0,0,1-1.8.1h-3.9a6.6,6.6,0,0,1-1.4-.1c-.4,0-.8-.1-1.3-.1a5.065,5.065,0,0,1-1.3-.2c-.4-.1-.8-.1-1.2-.2a7.847,7.847,0,0,0-1.4-.2c-.4-.1-.8-.1-1.1-.2-.6-.1-1.1-.3-1.7-.4-.4-.1-.7-.2-1.1-.3-.2-.1-.4-.1-.6-.2-.6-.2-1.1-.4-1.6-.6-.2-.1-.3-.1-.5-.2-.5-.2-1-.4-1.4-.6-.2-.1-.5-.2-.7-.3-.7-.3-1.3-.7-2-1-3.7-2.1-6.1-4.7-7.2-7.4a9.954,9.954,0,0,1-.8-3.8v7.6c0,4,2.7,8.1,8,11.2a12.44,12.44,0,0,0,2,1c.2.1.5.2.7.3a6.115,6.115,0,0,0,1.2.5c.1,0,.1.1.2.1.2.1.3.1.5.2.5.2,1.1.4,1.6.6.2.1.4.1.6.2.1,0,.3.1.4.1.2.1.5.1.7.2.6.1,1.1.3,1.7.4.2,0,.3.1.4.1.2,0,.5.1.7.1a7.847,7.847,0,0,0,1.4.2c.2,0,.4.1.6.1a1.268,1.268,0,0,1,.6.1c.4.1.9.1,1.3.2.2,0,.4.1.6.1h.6c.5,0,.9.1,1.4.1h3.9c.6,0,1.2-.1,1.8-.1h1.1a.749.749,0,0,0,.5-.1c.6-.1,1.3-.2,1.9-.3a.9.9,0,0,0,.5-.1h.2c.3-.1.6-.1.9-.2l1.5-.3c.4-.1.7-.2,1.1-.3.5-.1.9-.3,1.4-.4.1,0,.2-.1.3-.1.6-.2,1.1-.4,1.6-.6a.349.349,0,0,0,.2-.1c.6-.2,1.2-.5,1.7-.7.2-.1.3-.2.5-.2a16.173,16.173,0,0,0,1.8-1c.1-.1.2-.1.3-.2s.2-.1.3-.2c.2-.1.3-.2.5-.3.1-.1.3-.2.4-.3.2-.1.3-.2.5-.3.1-.1.3-.2.4-.3s.3-.2.4-.3.3-.2.4-.3.3-.2.4-.3c.1,0,.1-.1.2-.1l.1-.1.6-.6.2-.2c.2-.3.5-.5.7-.8h0c.1-.1.1-.1.1-.2.1-.2.3-.3.4-.5.1-.1.1-.2.2-.3.1-.2.2-.3.3-.5l.1-.1c0-.1.1-.1.1-.2.1-.1.1-.3.2-.4s.1-.2.2-.3.1-.3.2-.4c0-.1.1-.1.1-.2s0-.1.1-.2c0-.1.1-.3.1-.4s.1-.2.1-.4c0-.1.1-.3.1-.4s0-.1.1-.2v-.1a.6.6,0,0,1,.1-.4v-8.8C683.6,956.3,683.6,956.4,683.6,956.6Z" transform="translate(-629.4 -940.325)" fill="#efc100"/>
            <g id="Group_591" data-name="Group 591">
              <path id="Path_1736" data-name="Path 1736" d="M675.6,944.9c10.6,6.1,10.6,16,.1,22.2-10.5,6.1-27.7,6.1-38.3,0s-10.7-16-.1-22.2C647.9,938.8,665,938.8,675.6,944.9Z" transform="translate(-629.4 -940.325)" fill="#fdd400"/>
            </g>
            <g id="Group_592" data-name="Group 592" transform="translate(15 8.475)">
              <path id="Path_1737" data-name="Path 1737" d="M665.4,954.4c2.3,1.3,2.7,3.4.2,5.5l2.7,1.5-2.6,1.5-2.5-1.4a17.188,17.188,0,0,1-5.5,1.9l-2.3-2.2a19.07,19.07,0,0,0,5.4-1.8c1.5-.9,1.9-1.8.9-2.4s-2.5-.5-5,.3c-3.7,1.1-6.9,1.4-9.5,0-2.3-1.3-2.5-3.3-.3-5.2l-2.5-1.4,2.6-1.5,2.3,1.3a17.686,17.686,0,0,1,4.6-1.7l2.2,2.2a13.88,13.88,0,0,0-4.6,1.7c-1.7,1-1.5,1.7-.8,2.1.9.5,2.3.3,5.4-.5C660.3,952.9,663,953,665.4,954.4Z" transform="translate(-644.4 -948.8)" fill="#ec8659"/>
            </g>
          </g>
        </g>
        <g id="Group_598" data-name="Group 598" transform="translate(76.7 63.4)">
          <g id="Group_597" data-name="Group 597">
            <path id="Path_1738" data-name="Path 1738" d="M752.9,1019.9v.8a.6.6,0,0,1-.1.4.756.756,0,0,1-.1.4c0,.1-.1.3-.1.4s-.1.2-.1.4c0,.1-.1.3-.1.4s-.1.2-.1.3c-.1.1-.1.3-.2.4s-.1.2-.2.3-.1.3-.2.4-.1.2-.2.3c-.1.2-.2.3-.3.5-.1.1-.1.2-.2.3a1.755,1.755,0,0,1-.4.5c-.1.1-.1.2-.2.2-.2.3-.5.5-.7.8l-.2.2-.6.6-.3.3c-.1.1-.3.2-.4.3a1.382,1.382,0,0,1-.4.3c-.1.1-.3.2-.4.3s-.3.2-.4.3a2.189,2.189,0,0,1-.5.3c-.1.1-.3.2-.4.3-.2.1-.3.2-.5.3s-.4.3-.6.4c-.6.3-1.2.7-1.8,1-.2.1-.3.2-.5.2a12.184,12.184,0,0,1-1.7.7.349.349,0,0,0-.2.1c-.6.2-1.3.5-1.9.7-.5.1-.9.3-1.4.4-.4.1-.7.2-1.1.3l-1.5.3a4.254,4.254,0,0,1-1.1.2.9.9,0,0,0-.5.1c-.6.1-1.2.2-1.9.3a1.268,1.268,0,0,0-.6.1c-.4,0-.7.1-1.1.1a10.871,10.871,0,0,1-1.8.1H724a6.6,6.6,0,0,1-1.4-.1c-.4,0-.8-.1-1.3-.1a5.067,5.067,0,0,1-1.3-.2c-.4-.1-.8-.1-1.2-.2a7.846,7.846,0,0,0-1.4-.2c-.4-.1-.8-.1-1.1-.2-.6-.1-1.1-.3-1.7-.4-.4-.1-.7-.2-1.1-.3-.2-.1-.4-.1-.6-.2-.6-.2-1.1-.4-1.6-.6-.2-.1-.3-.1-.5-.2-.5-.2-1-.4-1.4-.6-.2-.1-.5-.2-.7-.3-.7-.3-1.3-.7-2-1-3.7-2.1-6.1-4.7-7.2-7.4a9.954,9.954,0,0,1-.8-3.8v7.6c0,4,2.7,8.1,8,11.2a12.445,12.445,0,0,0,2,1c.2.1.5.2.7.3a6.119,6.119,0,0,0,1.2.5c.1,0,.1.1.2.1.2.1.3.1.5.2.5.2,1.1.4,1.6.6.2.1.4.1.6.2.1,0,.3.1.4.1.2.1.5.1.7.2.6.1,1.1.3,1.7.4.2,0,.3.1.4.1.2,0,.5.1.7.1a7.846,7.846,0,0,0,1.4.2c.2,0,.4.1.6.1a1.268,1.268,0,0,1,.6.1c.4.1.9.1,1.3.2.2,0,.4.1.6.1h.6c.5,0,.9.1,1.4.1h3.9c.6,0,1.2-.1,1.8-.1h1.1a.749.749,0,0,0,.5-.1c.6-.1,1.3-.2,1.9-.3a.9.9,0,0,0,.5-.1h.2c.3-.1.6-.1.9-.2l1.5-.3c.4-.1.7-.2,1.1-.3.5-.1.9-.3,1.4-.4.1,0,.2-.1.3-.1.6-.2,1.1-.4,1.6-.6a.349.349,0,0,0,.2-.1c.6-.2,1.2-.5,1.7-.7.2-.1.3-.2.5-.2a16.183,16.183,0,0,0,1.8-1c.1-.1.2-.1.3-.2s.2-.1.3-.2c.2-.1.3-.2.5-.3.1-.1.3-.2.4-.3.2-.1.3-.2.5-.3.1-.1.3-.2.4-.3s.3-.2.4-.3.3-.2.4-.3.3-.2.4-.3c.1,0,.1-.1.2-.1l.1-.1.6-.6.2-.2c.2-.3.5-.5.7-.8h0c.1-.1.1-.1.1-.2.1-.2.3-.3.4-.5.1-.1.1-.2.2-.3.1-.2.2-.3.3-.5l.1-.1c0-.1.1-.1.1-.2.1-.1.1-.3.2-.4s.1-.2.2-.3.1-.3.2-.4c0-.1.1-.1.1-.2s0-.1.1-.2c0-.1.1-.3.1-.4s.1-.2.1-.4c0-.1.1-.3.1-.4s0-.1.1-.2v-.1a.6.6,0,0,1,.1-.4v-8.8C752.9,1019.6,752.9,1019.7,752.9,1019.9Z" transform="translate(-698.7 -1003.725)" fill="#efc100"/>
            <g id="Group_595" data-name="Group 595">
              <path id="Path_1739" data-name="Path 1739" d="M744.9,1008.3c10.6,6.1,10.6,16,.1,22.2s-27.7,6.1-38.3,0-10.7-16-.1-22.2C717.2,1002.2,734.3,1002.2,744.9,1008.3Z" transform="translate(-698.7 -1003.725)" fill="#fdd400"/>
            </g>
            <g id="Group_596" data-name="Group 596" transform="translate(15 8.375)">
              <path id="Path_1740" data-name="Path 1740" d="M734.7,1017.7c2.3,1.3,2.7,3.4.2,5.5l2.7,1.5-2.6,1.5-2.5-1.4a17.19,17.19,0,0,1-5.5,1.9l-2.3-2.2a19.071,19.071,0,0,0,5.4-1.8c1.5-.9,1.9-1.8.9-2.4s-2.5-.5-5,.3c-3.7,1.1-6.9,1.4-9.5,0-2.3-1.3-2.5-3.3-.3-5.2l-2.5-1.4,2.6-1.5,2.3,1.3a17.686,17.686,0,0,1,4.6-1.7l2.2,2.2a13.88,13.88,0,0,0-4.6,1.7c-1.7,1-1.5,1.7-.8,2.1.9.5,2.3.3,5.4-.5C729.6,1016.3,732.3,1016.4,734.7,1017.7Z" transform="translate(-713.7 -1012.1)" fill="#ec8659"/>
            </g>
          </g>
        </g>
        <g id="Group_602" data-name="Group 602" transform="translate(34.4 95.1)">
          <g id="Group_601" data-name="Group 601">
            <path id="Path_1741" data-name="Path 1741" d="M710.6,1051.7v.8a.6.6,0,0,1-.1.4.756.756,0,0,1-.1.4c0,.1-.1.3-.1.4s-.1.2-.1.4c0,.1-.1.3-.1.4s-.1.2-.1.3c-.1.1-.1.3-.2.4s-.1.2-.2.3-.1.3-.2.4-.1.2-.2.3c-.1.2-.2.3-.3.5-.1.1-.1.2-.2.3a1.755,1.755,0,0,1-.4.5c-.1.1-.1.2-.2.2-.2.3-.5.5-.7.8l-.2.2-.6.6-.3.3c-.1.1-.3.2-.4.3a1.382,1.382,0,0,1-.4.3c-.1.1-.3.2-.4.3s-.3.2-.4.3a2.189,2.189,0,0,1-.5.3c-.1.1-.3.2-.4.3-.2.1-.3.2-.5.3s-.4.3-.6.4c-.6.3-1.2.7-1.8,1-.2.1-.3.2-.5.2a12.184,12.184,0,0,1-1.7.7.349.349,0,0,0-.2.1c-.6.2-1.3.5-1.9.7-.5.1-.9.3-1.4.4-.4.1-.7.2-1.1.3l-1.5.3a4.254,4.254,0,0,1-1.1.2.9.9,0,0,0-.5.1c-.6.1-1.2.2-1.9.3a1.268,1.268,0,0,0-.6.1c-.4,0-.7.1-1.1.1a10.871,10.871,0,0,1-1.8.1h-3.9a6.6,6.6,0,0,1-1.4-.1c-.4,0-.8-.1-1.3-.1a5.067,5.067,0,0,1-1.3-.2c-.4-.1-.8-.1-1.2-.2a7.846,7.846,0,0,0-1.4-.2c-.4-.1-.8-.1-1.1-.2-.6-.1-1.1-.3-1.7-.4-.4-.1-.7-.2-1.1-.3-.2-.1-.4-.1-.6-.2-.6-.2-1.1-.4-1.6-.6-.2-.1-.3-.1-.5-.2-.5-.2-1-.4-1.4-.6-.2-.1-.5-.2-.7-.3-.7-.3-1.3-.7-2-1-3.7-2.1-6.1-4.7-7.2-7.4a9.954,9.954,0,0,1-.8-3.8v7.6c0,4,2.7,8.1,8,11.2a12.445,12.445,0,0,0,2,1c.2.1.5.2.7.3a6.119,6.119,0,0,0,1.2.5c.1,0,.1.1.2.1.2.1.3.1.5.2.5.2,1.1.4,1.6.6.2.1.4.1.6.2.1,0,.3.1.4.1.2.1.5.1.7.2.6.1,1.1.3,1.7.4.2,0,.3.1.4.1.2,0,.5.1.7.1a7.846,7.846,0,0,0,1.4.2c.2,0,.4.1.6.1a1.268,1.268,0,0,1,.6.1c.4.1.9.1,1.3.2.2,0,.4.1.6.1h.6c.5,0,.9.1,1.4.1h3.9c.6,0,1.2-.1,1.8-.1h1.1a.749.749,0,0,0,.5-.1c.6-.1,1.3-.2,1.9-.3a.9.9,0,0,0,.5-.1h.2c.3-.1.6-.1.9-.2l1.5-.3c.4-.1.7-.2,1.1-.3.5-.1.9-.3,1.4-.4.1,0,.2-.1.3-.1.6-.2,1.1-.4,1.6-.6a.349.349,0,0,0,.2-.1c.6-.2,1.2-.5,1.7-.7.2-.1.3-.2.5-.2a16.183,16.183,0,0,0,1.8-1c.1-.1.2-.1.3-.2s.2-.1.3-.2c.2-.1.3-.2.5-.3.1-.1.3-.2.4-.3.2-.1.3-.2.5-.3.1-.1.3-.2.4-.3s.3-.2.4-.3.3-.2.4-.3.3-.2.4-.3c.1,0,.1-.1.2-.1l.1-.1.6-.6.2-.2c.2-.3.5-.5.7-.8h0c.1-.1.1-.1.1-.2.1-.2.3-.3.4-.5.1-.1.1-.2.2-.3.1-.2.2-.3.3-.5l.1-.1c0-.1.1-.1.1-.2.1-.1.1-.3.2-.4s.1-.2.2-.3.1-.3.2-.4c0-.1.1-.1.1-.2s0-.1.1-.2c0-.1.1-.3.1-.4s.1-.2.1-.4c0-.1.1-.3.1-.4s0-.1.1-.2v-.1a.6.6,0,0,1,.1-.4v-8.8C710.6,1051.4,710.6,1051.5,710.6,1051.7Z" transform="translate(-656.4 -1035.425)" fill="#efc100"/>
            <g id="Group_599" data-name="Group 599">
              <path id="Path_1742" data-name="Path 1742" d="M702.6,1040c10.6,6.1,10.6,16,.1,22.2s-27.7,6.1-38.3,0-10.7-16-.1-22.2C674.9,1033.9,692,1033.9,702.6,1040Z" transform="translate(-656.4 -1035.425)" fill="#fdd400"/>
            </g>
            <g id="Group_600" data-name="Group 600" transform="translate(15 8.475)">
              <path id="Path_1743" data-name="Path 1743" d="M692.4,1049.5c2.3,1.3,2.7,3.4.2,5.5l2.7,1.5-2.6,1.5-2.5-1.4a17.19,17.19,0,0,1-5.5,1.9l-2.3-2.2a19.07,19.07,0,0,0,5.4-1.8c1.5-.9,1.9-1.8.9-2.4s-2.5-.5-5,.3c-3.7,1.1-6.9,1.4-9.5,0-2.3-1.3-2.5-3.3-.3-5.2l-2.5-1.4,2.6-1.5,2.3,1.3a17.683,17.683,0,0,1,4.6-1.7l2.2,2.2a13.879,13.879,0,0,0-4.6,1.7c-1.7,1-1.5,1.7-.8,2.1.9.5,2.3.3,5.4-.5C687.4,1048,690.1,1048.1,692.4,1049.5Z" transform="translate(-671.4 -1043.9)" fill="#ec8659"/>
            </g>
          </g>
        </g>
        <g id="Group_606" data-name="Group 606" transform="translate(83.2 55.525)">
          <g id="Group_605" data-name="Group 605">
            <path id="Path_1744" data-name="Path 1744" d="M759.4,1012.1v.8a.6.6,0,0,1-.1.4.756.756,0,0,1-.1.4c0,.1-.1.3-.1.4s-.1.2-.1.4c0,.1-.1.3-.1.4s-.1.2-.1.3c-.1.1-.1.3-.2.4s-.1.2-.2.3-.1.3-.2.4-.1.2-.2.3c-.1.2-.2.3-.3.5-.1.1-.1.2-.2.3a1.755,1.755,0,0,1-.4.5c-.1.1-.1.2-.2.2-.2.3-.5.5-.7.8l-.2.2-.6.6-.3.3c-.1.1-.3.2-.4.3a1.38,1.38,0,0,1-.4.3c-.1.1-.3.2-.4.3s-.3.2-.4.3a2.185,2.185,0,0,1-.5.3c-.1.1-.3.2-.4.3-.2.1-.3.2-.5.3s-.4.3-.6.4c-.6.3-1.2.7-1.8,1-.2.1-.3.2-.5.2a12.184,12.184,0,0,1-1.7.7.349.349,0,0,0-.2.1c-.6.2-1.3.5-1.9.7-.5.1-.9.3-1.4.4-.4.1-.7.2-1.1.3l-1.5.3a4.254,4.254,0,0,1-1.1.2.9.9,0,0,0-.5.1c-.6.1-1.2.2-1.9.3a1.268,1.268,0,0,0-.6.1c-.4,0-.7.1-1.1.1a10.871,10.871,0,0,1-1.8.1h-3.9a6.6,6.6,0,0,1-1.4-.1c-.4,0-.8-.1-1.3-.1a5.067,5.067,0,0,1-1.3-.2c-.4-.1-.8-.1-1.2-.2a7.846,7.846,0,0,0-1.4-.2c-.4-.1-.8-.1-1.1-.2-.6-.1-1.1-.3-1.7-.4-.4-.1-.7-.2-1.1-.3-.2-.1-.4-.1-.6-.2-.6-.2-1.1-.4-1.6-.6-.2-.1-.3-.1-.5-.2-.5-.2-1-.4-1.4-.6-.2-.1-.5-.2-.7-.3-.7-.3-1.3-.7-2-1-3.7-2.1-6.1-4.7-7.2-7.4a9.954,9.954,0,0,1-.8-3.8v7.6c0,4,2.7,8.1,8,11.2a12.445,12.445,0,0,0,2,1c.2.1.5.2.7.3a6.119,6.119,0,0,0,1.2.5c.1,0,.1.1.2.1.2.1.3.1.5.2.5.2,1.1.4,1.6.6.2.1.4.1.6.2.1,0,.3.1.4.1.2.1.5.1.7.2.6.1,1.1.3,1.7.4.2,0,.3.1.4.1.2,0,.5.1.7.1a7.846,7.846,0,0,0,1.4.2c.2,0,.4.1.6.1a1.268,1.268,0,0,1,.6.1c.4.1.9.1,1.3.2.2,0,.4.1.6.1h.6c.5,0,.9.1,1.4.1h3.9c.6,0,1.2-.1,1.8-.1h1.1a.749.749,0,0,0,.5-.1c.6-.1,1.3-.2,1.9-.3a.9.9,0,0,0,.5-.1h.2c.3-.1.6-.1.9-.2l1.5-.3c.4-.1.7-.2,1.1-.3.5-.1.9-.3,1.4-.4.1,0,.2-.1.3-.1.6-.2,1.1-.4,1.6-.6a.349.349,0,0,0,.2-.1c.6-.2,1.2-.5,1.7-.7.2-.1.3-.2.5-.2a16.183,16.183,0,0,0,1.8-1c.1-.1.2-.1.3-.2s.2-.1.3-.2c.2-.1.3-.2.5-.3.1-.1.3-.2.4-.3.2-.1.3-.2.5-.3.1-.1.3-.2.4-.3s.3-.2.4-.3.3-.2.4-.3.3-.2.4-.3c.1,0,.1-.1.2-.1l.1-.1.6-.6.2-.2c.2-.3.5-.5.7-.8h0c.1-.1.1-.1.1-.2.1-.2.3-.3.4-.5.1-.1.1-.2.2-.3.1-.2.2-.3.3-.5l.1-.1c0-.1.1-.1.1-.2.1-.1.1-.3.2-.4s.1-.2.2-.3.1-.3.2-.4c0-.1.1-.1.1-.2s0-.1.1-.2c0-.1.1-.3.1-.4s.1-.2.1-.4c0-.1.1-.3.1-.4s0-.1.1-.2v-.1a.6.6,0,0,1,.1-.4v-8.8C759.4,1011.8,759.4,1011.9,759.4,1012.1Z" transform="translate(-705.2 -995.85)" fill="#efc100"/>
            <g id="Group_603" data-name="Group 603">
              <path id="Path_1745" data-name="Path 1745" d="M751.4,1000.5c10.6,6.1,10.6,16,.1,22.2-10.5,6.1-27.7,6.1-38.3,0s-10.7-16-.1-22.2S740.8,994.3,751.4,1000.5Z" transform="translate(-705.2 -995.85)" fill="#fdd400"/>
            </g>
            <g id="Group_604" data-name="Group 604" transform="translate(15 8.45)">
              <path id="Path_1746" data-name="Path 1746" d="M741.2,1009.9c2.3,1.3,2.7,3.4.2,5.5l2.7,1.5-2.6,1.5L739,1017a17.188,17.188,0,0,1-5.5,1.9l-2.3-2.2a19.07,19.07,0,0,0,5.4-1.8c1.5-.9,1.9-1.8.9-2.4s-2.5-.5-5,.3c-3.7,1.1-6.9,1.4-9.5,0-2.3-1.3-2.5-3.3-.3-5.2l-2.5-1.4,2.6-1.5,2.3,1.3a17.686,17.686,0,0,1,4.6-1.7l2.2,2.2a13.88,13.88,0,0,0-4.6,1.7c-1.7,1-1.5,1.7-.8,2.1.9.5,2.3.3,5.4-.5C736.2,1008.5,738.8,1008.6,741.2,1009.9Z" transform="translate(-720.2 -1004.3)" fill="#ec8659"/>
            </g>
          </g>
        </g>
      </g>
      <g id="Group_609" data-name="Group 609" transform="translate(422.896 778.112)">
        <g id="Group_608" data-name="Group 608" transform="translate(0.1)">
          <path id="Path_1747" data-name="Path 1747" d="M970.3,963.1l-9.6,5.6-.1,28.7,9.7-5.6Z" transform="translate(-826.7 -943.7)" fill="#58bfbf"/>
          <path id="Path_1748" data-name="Path 1748" d="M849,968.7l-9.7-5.6-.1,28.7,9.8,5.6Z" transform="translate(-826.7 -943.7)" fill="#58bfbf"/>
          <path id="Path_1749" data-name="Path 1749" d="M877,1017v-.4a.6.6,0,0,1,.1-.4.756.756,0,0,1,.1-.4c0-.1.1-.3.1-.4s.1-.2.1-.4c0-.1.1-.3.1-.4s.1-.2.1-.4c.1-.1.1-.3.2-.4s.1-.2.2-.4c.1-.1.1-.3.2-.4s.1-.2.2-.3c.1-.2.2-.3.3-.5.1-.1.1-.2.2-.3a2.179,2.179,0,0,1,.4-.5c.1-.1.1-.2.2-.2a5.718,5.718,0,0,1,.7-.8l.2-.2.6-.6.3-.3c.1-.1.3-.2.4-.4.1-.1.3-.2.4-.3s.3-.2.4-.3.3-.2.4-.3c.2-.1.3-.2.5-.3.1-.1.3-.2.4-.3.2-.1.3-.2.5-.3s.4-.3.6-.4c.4-.2.8-.5,1.3-.7.1-.1.3-.1.4-.2.3-.2.7-.3,1-.5.1-.1.2-.1.4-.2.5-.2.9-.4,1.4-.6.1,0,.2-.1.3-.1.4-.1.8-.3,1.2-.4.2-.1.3-.1.5-.2s.5-.1.7-.2.4-.1.6-.2.5-.1.7-.2a1.269,1.269,0,0,1,.6-.1c.2-.1.5-.1.7-.2.2,0,.4-.1.6-.1a1.7,1.7,0,0,1,.7-.1c.2,0,.4-.1.6-.1.5-.1,1.1-.2,1.6-.3h.2c.5-.1.9-.1,1.4-.2a.749.749,0,0,0,.5-.1c.3,0,.6-.1.9-.1H906c.9,0,1.8.1,2.7.1h.1l2.7.3h.2c.4.1.8.1,1.1.2.2,0,.3.1.5.1.3.1.6.1.9.2.2,0,.3.1.4.1.3.1.6.1.9.2.2,0,.3.1.5.1.3.1.6.1.8.2.2,0,.3.1.5.1.4.1.9.3,1.3.4.1,0,.2,0,.2.1a8.8,8.8,0,0,0,1.5.5c.1,0,.2.1.3.1.6.3,1.3.5,1.9.8.1,0,.1.1.2.1a16.173,16.173,0,0,1,1.8,1c5.5,3.2,8.3,7.4,8.3,11.5l.1-28.7c0-4.2-2.7-8.4-8.3-11.5-.6-.3-1.2-.7-1.8-1-.1,0-.1-.1-.2-.1a10.838,10.838,0,0,0-1.9-.8c-.1,0-.1,0-.2-.1a.1.1,0,0,1-.1-.1,8.8,8.8,0,0,0-1.5-.5c-.1,0-.2,0-.2-.1-.4-.1-.9-.3-1.3-.4-.1,0-.1,0-.2-.1a.367.367,0,0,1-.3-.1,3.092,3.092,0,0,0-.8-.2c-.2,0-.3-.1-.5-.1-.3-.1-.6-.1-.9-.2-.1,0-.2-.1-.4-.1h-.1c-.3-.1-.6-.1-.9-.2-.2,0-.3-.1-.5-.1-.4-.1-.7-.1-1.1-.2h-.2l-2.7-.3h0a24.375,24.375,0,0,0-2.7-.1h-4.8a2.77,2.77,0,0,0-.9.1h-.5a6.75,6.75,0,0,0-1.4.2h-.2c-.5.1-1.1.2-1.6.3h-.1c-.1,0-.3.1-.4.1-.2,0-.5.1-.7.1s-.4.1-.6.1c-.2.1-.5.1-.7.2-.2,0-.4.1-.6.1-.2.1-.5.1-.7.2s-.4.1-.6.2-.5.1-.7.2c-.1,0-.2.1-.3.1s-.1,0-.2.1a1.854,1.854,0,0,1-.7.2l.1-23.6v-7.9l-.1,28.7v2.8c-.2.1-.3.1-.5.2-.1,0-.2.1-.3.1-.5.2-.9.4-1.4.6-.1.1-.2.1-.4.2a9.288,9.288,0,0,0-1,.5c-.1.1-.3.1-.4.2-.4.2-.9.5-1.3.7-.1.1-.2.1-.3.2s-.2.1-.3.2c-.2.1-.3.2-.5.3a1.381,1.381,0,0,0-.4.3c-.2.1-.3.2-.5.3-.1.1-.3.2-.4.3s-.3.2-.4.3-.3.2-.4.3-.3.2-.4.4c-.1,0-.1.1-.2.1l-.1.1-.6.6-.2.2c-.3.3-.5.6-.7.8h0c-.1.1-.1.1-.1.2a2.179,2.179,0,0,1-.4.5c-.1.1-.1.2-.2.3-.1.2-.2.3-.3.5l-.1.1c0,.1-.1.1-.1.2-.1.1-.1.3-.2.4s-.1.2-.2.4c-.1.1-.1.3-.2.4,0,.1-.1.1-.1.2s0,.1-.1.2c0,.1-.1.3-.1.4s-.1.2-.1.4c0,.1-.1.3-.1.4s0,.1-.1.2v.1a.6.6,0,0,1-.1.4v1.2l-.1,28.7v-.5C876.9,1017.3,877,1017.2,877,1017Z" transform="translate(-826.7 -943.7)" fill="#58bfbf"/>
          <path id="Path_1750" data-name="Path 1750" d="M983.3,997.6H969.6l-.6,1.5a.349.349,0,0,1-.1.2,9.146,9.146,0,0,1-.7,1.4c0,.1-.1.2-.1.3-.3.5-.5.9-.8,1.4v.1a14.61,14.61,0,0,1-.9,1.3c-.1.1-.1.2-.2.3a11.309,11.309,0,0,1-1,1.3c-.1.1-.2.2-.2.3-.3.4-.6.7-.9,1.1-.1.1-.2.3-.4.4-.3.4-.7.7-1,1.1l-.3.3L961,1010v11.3l-10.5,6.1-9.7-5.6c-1,.4-2.1.7-3.2,1.1-.3.1-.7.2-1,.3a10.921,10.921,0,0,1-1.7.5c-.4.1-.7.2-1.1.3-.6.2-1.2.3-1.8.5-.4.1-.7.2-1.1.3-.7.2-1.4.3-2.1.5-.3.1-.5.1-.8.2-1,.2-2,.4-2.9.6l-1.8.3a2.921,2.921,0,0,0-.9.2c-.9.1-1.8.3-2.7.4v7.9H891.1V1027c-.7-.1-1.4-.2-2-.3-.7-.1-1.3-.2-2-.3-.4-.1-.7-.1-1.1-.2-.8-.1-1.5-.3-2.3-.4-.2,0-.5-.1-.7-.1-1.1-.2-2.1-.5-3.2-.7-.3-.1-.6-.1-.8-.2-.8-.2-1.5-.4-2.3-.6-.3-.1-.7-.2-1-.3l-2.1-.6-.9-.3c-1-.3-1.9-.6-2.9-1l-9.6,5.6-10.7-6.2v-11.2a36.133,36.133,0,0,1-7.4-9.1,23.019,23.019,0,0,1-1.5-3.2H826.9l-.1-16.6-.1,28.7.1,16.6h13l-.1,17.9,20.3,11.7,9.6-5.6c.9.3,1.9.7,2.9,1l.9.3c.7.2,1.4.4,2,.6.2,0,.3.1.5.2.2,0,.3.1.5.1.8.2,1.5.4,2.3.6.3.1.6.1.8.2a30.028,30.028,0,0,0,3.2.7h.1c.2,0,.4.1.6.1a18.462,18.462,0,0,0,2.3.4c.4.1.7.1,1.1.2.7.1,1.3.2,2,.3a4.33,4.33,0,0,1,.5.1c.5.1,1,.1,1.5.2v7.9h28.7v-7.9a25.1,25.1,0,0,0,2.7-.4,2.921,2.921,0,0,0,.9-.2c.6-.1,1.2-.2,1.7-.3h.1c1-.2,2-.4,2.9-.6.3-.1.5-.1.8-.2.7-.2,1.4-.3,2.1-.5.4-.1.7-.2,1.1-.3.6-.2,1.2-.3,1.8-.5.4-.1.7-.2,1.1-.3.6-.2,1.2-.3,1.7-.5.2-.1.4-.1.6-.2.1,0,.3-.1.4-.1,1.1-.4,2.1-.7,3.2-1.1l9.7,5.6,20.2-11.7.1-17.9h12.7Z" transform="translate(-826.7 -943.7)" fill="#58bfbf"/>
        </g>
        <path id="Path_1751" data-name="Path 1751" d="M969.6,997.6h13.7l-.1-16.6H969.5a32.375,32.375,0,0,0-8.9-12.3l9.6-5.6L950,951.4l-9.6,5.6a102.034,102.034,0,0,0-21.3-5.1V944H890.4v7.9a91.25,91.25,0,0,0-21.2,5.1l-9.7-5.6-20.2,11.7,9.7,5.6a31.738,31.738,0,0,0-8.7,12.3H826.6l.1,16.6h13.7a32.375,32.375,0,0,0,8.9,12.3l-9.6,5.6,20.3,11.7,9.6-5.6a102.034,102.034,0,0,0,21.3,5.1v7.9h28.7v-7.9a91.25,91.25,0,0,0,21.2-5.1l9.7,5.6,20.2-11.7-9.7-5.6A32.506,32.506,0,0,0,969.6,997.6Zm-44.8,3.2c-10.9,6.3-28.6,6.3-39.6,0s-11-16.6-.1-22.9,28.6-6.3,39.6,0S935.7,994.5,924.8,1000.8Z" transform="translate(-826.6 -943.7)" fill="#77d9dc"/>
      </g>
      <g id="Group_610" data-name="Group 610" transform="translate(299.603 504.82)">
        <path id="Path_1752" data-name="Path 1752" d="M691.9,773.3l.5,146.8L881.2,811l-.4-146.7Z" transform="translate(-691.9 -664.3)" fill="#e8f9ff"/>
      </g>
      <path id="Path_1753" data-name="Path 1753" d="M880.9,705,692.1,814.1l-.2-40.8,188.9-109Z" transform="translate(-392.278 -157.319)" fill="#73d9fe"/>
      <g id="Group_611" data-name="Group 611" transform="translate(324.385 624.639)">
        <path id="Path_1754" data-name="Path 1754" d="M793.4,783.9v6.8l-80.6,46.6v-6.8Z" transform="translate(-712.8 -783.9)" fill="#dcdcdb"/>
      </g>
      <g id="Group_612" data-name="Group 612" transform="translate(324.385 639.585)">
        <path id="Path_1755" data-name="Path 1755" d="M793.4,799.3v6.9l-80.6,46.5v-6.8Z" transform="translate(-712.8 -799.3)" fill="#dcdcdb"/>
      </g>
      <g id="Group_613" data-name="Group 613" transform="translate(324.385 654.532)">
        <path id="Path_1756" data-name="Path 1756" d="M793.4,814.7v6.9l-80.6,46.5v-6.8Z" transform="translate(-712.8 -814.7)" fill="#dcdcdb"/>
      </g>
      <g id="Group_614" data-name="Group 614" transform="translate(324.385 669.577)">
        <path id="Path_1757" data-name="Path 1757" d="M793.4,830.2V837l-80.6,46.5v-6.8Z" transform="translate(-712.8 -830.2)" fill="#dcdcdb"/>
      </g>
      <g id="Group_619" data-name="Group 619" transform="translate(426.625 586.328)">
        <g id="Group_615" data-name="Group 615" transform="translate(0 33.7)">
          <path id="Path_1758" data-name="Path 1758" d="M829.2,778.5l.2,36.6-6.7,3.8-.2-36.6Z" transform="translate(-822.5 -778.5)" fill="#fa6b5c"/>
        </g>
        <g id="Group_616" data-name="Group 616" transform="translate(11.8)">
          <path id="Path_1759" data-name="Path 1759" d="M840.6,744.8l.2,63.6-6.3,3.7-.2-63.7Z" transform="translate(-834.3 -744.8)" fill="#fed22c"/>
        </g>
        <g id="Group_617" data-name="Group 617" transform="translate(24.7 1.6)">
          <path id="Path_1760" data-name="Path 1760" d="M854.6,746.4l.2,54-7.4,4.2-.2-53.9Z" transform="translate(-847.2 -746.4)" fill="#efa6ff"/>
        </g>
        <g id="Group_618" data-name="Group 618" transform="translate(36.5 29.5)">
          <path id="Path_1761" data-name="Path 1761" d="M865.7,774.3V794l-6.7,3.9V778.1Z" transform="translate(-859 -774.3)" fill="#4367c7"/>
        </g>
      </g>
      <g id="Group_624" data-name="Group 624" transform="translate(343.031)">
        <g id="Group_623" data-name="Group 623">
          <g id="Group_620" data-name="Group 620" transform="translate(0 5.9)">
            <path id="Path_1762" data-name="Path 1762" d="M1054.1,316.3l-.7,215.6L758.8,361.8l.6-215.6Z" transform="translate(-758.8 -146.2)" fill="#f7f8f8"/>
          </g>
          <g id="Group_621" data-name="Group 621" transform="translate(294.6 170.1)">
            <path id="Path_1763" data-name="Path 1763" d="M1054.1,316.3l10.1-5.9-.6,215.6-10.2,5.9Z" transform="translate(-1053.4 -310.4)" fill="#fedb59"/>
          </g>
          <g id="Group_622" data-name="Group 622" transform="translate(0.6)">
            <path id="Path_1764" data-name="Path 1764" d="M759.4,146.2l10.2-5.9,294.6,170.1-10.1,5.9Z" transform="translate(-759.4 -140.3)" fill="#fedb59"/>
          </g>
        </g>
      </g>
      <g id="Group_649" data-name="Group 649" transform="translate(377.931 50.9)">
        <g id="Group_644" data-name="Group 644" transform="translate(0 44)">
          <g id="Group_625" data-name="Group 625" transform="translate(26.4 107.9)">
            <path id="Path_1765" data-name="Path 1765" d="M838.3,353.5l-.1,26.5-18.1-10.5V343.1Z" transform="translate(-820.1 -343.1)" fill="#91b9ff"/>
          </g>
          <g id="Group_626" data-name="Group 626" transform="translate(52.1 112.1)">
            <path id="Path_1766" data-name="Path 1766" d="M845.8,384.4l.1-37.1L864,357.7l-.1,37.2Z" transform="translate(-845.8 -347.3)" fill="#91b9ff"/>
          </g>
          <g id="Group_627" data-name="Group 627" transform="translate(52.2 92.2)">
            <path id="Path_1767" data-name="Path 1767" d="M845.9,327.4l18.2,10.5-.1,17.3-18.1-10.5Z" transform="translate(-845.9 -327.4)" fill="#91b9ff"/>
          </g>
          <g id="Group_628" data-name="Group 628" transform="translate(77.8 146.5)">
            <path id="Path_1768" data-name="Path 1768" d="M889.7,392.2l-.1,17.5-18.1-10.5.1-17.5Z" transform="translate(-871.5 -381.7)" fill="#91b9ff"/>
          </g>
          <g id="Group_629" data-name="Group 629" transform="translate(103.5 141.7)">
            <path id="Path_1769" data-name="Path 1769" d="M897.2,414.1l.1-37.2,18.1,10.5-.1,37.1Z" transform="translate(-897.2 -376.9)" fill="#91b9ff"/>
          </g>
          <g id="Group_630" data-name="Group 630" transform="translate(103.6 112.8)">
            <path id="Path_1770" data-name="Path 1770" d="M897.4,348l18.1,10.5-.1,26.3-18.1-10.4Z" transform="translate(-897.3 -348)" fill="#91b9ff"/>
          </g>
          <g id="Group_631" data-name="Group 631" transform="translate(129.2 156.6)">
            <path id="Path_1771" data-name="Path 1771" d="M922.9,428.9l.1-37.1,18.1,10.5-.1,37.1Z" transform="translate(-922.9 -391.8)" fill="#91b9ff"/>
          </g>
          <g id="Group_632" data-name="Group 632" transform="translate(154.9 171.4)">
            <path id="Path_1772" data-name="Path 1772" d="M948.6,443.8l.1-37.2,18.2,10.5-.2,37.1Z" transform="translate(-948.6 -406.6)" fill="#91b9ff"/>
          </g>
          <g id="Group_633" data-name="Group 633" transform="translate(129.3 116.9)">
            <path id="Path_1773" data-name="Path 1773" d="M923,389.2l.1-37.1,18.2,10.4-.1,37.2Z" transform="translate(-923 -352.1)" fill="#91b9ff"/>
          </g>
          <g id="Group_634" data-name="Group 634" transform="translate(0 119.1)">
            <path id="Path_1774" data-name="Path 1774" d="M1018.8,484.3v2.6l-225.1-130v-2.6l26.4,15.2L838.2,380l7.6,4.4,18.1,10.5,7.6,4.3,18.1,10.5,7.6,4.4,18.1,10.4,7.6,4.4L941,439.4l7.6,4.4,18.1,10.4,7.6,4.4,18.2,10.5Z" transform="translate(-793.7 -354.3)" fill="#91b9ff"/>
          </g>
          <g id="Group_635" data-name="Group 635" transform="translate(155 148.7)">
            <path id="Path_1775" data-name="Path 1775" d="M948.8,383.9l18.1,10.5v20.1L948.7,404Z" transform="translate(-948.7 -383.9)" fill="#91b9ff"/>
          </g>
          <g id="Group_636" data-name="Group 636" transform="translate(129.4 99.4)">
            <path id="Path_1776" data-name="Path 1776" d="M923.2,334.6l18.1,10.5V360l-18.2-10.5Z" transform="translate(-923.1 -334.6)" fill="#91b9ff"/>
          </g>
          <g id="Group_637" data-name="Group 637" transform="translate(180.6 186.3)">
            <path id="Path_1777" data-name="Path 1777" d="M974.3,458.6l.1-37.1,18.2,10.4-.1,37.2Z" transform="translate(-974.3 -421.5)" fill="#91b9ff"/>
          </g>
          <g id="Group_638" data-name="Group 638" transform="translate(180.7 158.8)">
            <path id="Path_1778" data-name="Path 1778" d="M974.4,394l18.2,10.5v24.9l-18.2-10.5Z" transform="translate(-974.4 -394)" fill="#91b9ff"/>
          </g>
          <g id="Group_639" data-name="Group 639" transform="translate(0.1 79.4)">
            <path id="Path_1779" data-name="Path 1779" d="M1018.9,444.6v2.5l-26.3-15.2-18.2-10.4-7.5-4.4-18.2-10.5-7.6-4.3L923,391.8l-7.6-4.4-18.1-10.5L864,357.7l-18.1-10.4-52.1-30.1.1-2.6,52,30.1L864,355.2l33.3,19.2,18.1,10.4,7.6,4.4,18.2,10.5,7.5,4.3,18.2,10.5,7.5,4.4,18.2,10.5Z" transform="translate(-793.8 -314.6)" fill="#91b9ff"/>
          </g>
          <g id="Group_640" data-name="Group 640" transform="translate(88.8 17.5)">
            <path id="Path_1780" data-name="Path 1780" d="M933.4,282.1v5.1l-50.9-29.4v-5.1Z" transform="translate(-882.5 -252.7)" fill="#91b9ff"/>
          </g>
          <g id="Group_641" data-name="Group 641" transform="translate(88.7 28.2)">
            <path id="Path_1781" data-name="Path 1781" d="M949,301.8v5.1l-66.6-38.4.1-5.1Z" transform="translate(-882.4 -263.4)" fill="#91b9ff"/>
          </g>
          <g id="Group_642" data-name="Group 642" transform="translate(0.3 39.7)">
            <path id="Path_1782" data-name="Path 1782" d="M1019,404.8v2.6l-77.7-44.9-18.2-10.4L794,277.5v-2.6l129.1,74.6L941.3,360Z" transform="translate(-794 -274.9)" fill="#91b9ff"/>
          </g>
          <g id="Group_643" data-name="Group 643" transform="translate(0.4)">
            <path id="Path_1783" data-name="Path 1783" d="M1019.1,365.1v2.6l-225-129.9v-2.6Z" transform="translate(-794.1 -235.2)" fill="#91b9ff"/>
          </g>
        </g>
        <g id="Group_645" data-name="Group 645" transform="translate(0.5 10.5)">
          <path id="Path_1784" data-name="Path 1784" d="M845.1,231.1v5.1l-50.9-29.4v-5.1Z" transform="translate(-794.2 -201.7)" fill="#91b9ff"/>
        </g>
        <g id="Group_646" data-name="Group 646" transform="translate(0.4 21.2)">
          <path id="Path_1785" data-name="Path 1785" d="M860.7,250.9v5l-66.6-38.4v-5.1Z" transform="translate(-794.1 -212.4)" fill="#91b9ff"/>
        </g>
        <g id="Group_647" data-name="Group 647" transform="translate(0.5)">
          <path id="Path_1786" data-name="Path 1786" d="M823.8,208.3v5.2l-29.6-17v-5.3Z" transform="translate(-794.2 -191.2)" fill="#91b9ff"/>
        </g>
        <g id="Group_648" data-name="Group 648" transform="translate(88.8 51)">
          <path id="Path_1787" data-name="Path 1787" d="M912.1,259.3v5.2l-29.6-17.1v-5.2Z" transform="translate(-882.5 -242.2)" fill="#91b9ff"/>
        </g>
      </g>
      <g id="Group_650" data-name="Group 650" transform="translate(214.987 86.9)">
        <path id="Path_1788" data-name="Path 1788" d="M645.5,325.3a155.771,155.771,0,0,1-24.2-20.7s-7.6-.5-12.3-3.9c-4.6-3.5-4.6-3.7-5.3-5.3s-1.9-5.8-1.9-5.8-5.6-1.9-7.2-4.4,3-2.3,6.5-.9,11.6,5.6,11.6,5.6,9.3,3.7,12,5.6c2.8,1.9,26.4,14.8,26.4,14.8Z" transform="translate(-594.273 -227.2)" fill="#f0c7ad"/>
        <path id="Path_1789" data-name="Path 1789" d="M677.9,470.6s-10.1-1-16.1-1.6c0,0-5-.8-5.4,3.8-.3,4.7,2.6,8.1,10.7,12.2l10.7,4.7s4.1,2.8,7.8,2.8c3.8,0,6.6-1.3,6.9-4.1V464.2Z" transform="translate(-594.273 -227.2)" fill="#fefbf0"/>
        <path id="Path_1790" data-name="Path 1790" d="M698.2,456.4s-10.1-1-16.1-1.6c0,0-5-.8-5.4,3.8-.3,4.7,2.6,8.1,10.7,12.2l10.7,4.7s4.1,2.8,7.8,2.8,6.6-1.3,6.9-4.1V450Z" transform="translate(-594.273 -227.2)" fill="#fefbf0"/>
        <path id="Path_1791" data-name="Path 1791" d="M667.2,355.1l-3.1-.6s-.9,21.4,1.6,37.1,4.1,30.2,7.9,48.2a110.266,110.266,0,0,1,1.9,33,8.083,8.083,0,0,0,6,7.9c6.3,1.9,11.3-4.1,11.3-4.1s-.9-49.4-1.3-55.7c-.3-6.3-3.5-17-3.5-17a74.426,74.426,0,0,1,6,18.3v39.7s.6,5,8.5,6c7.9.9,10.5-6.3,10.5-6.3V427.9s-1.2-10.8-2.5-20.6a89.572,89.572,0,0,1,.1-24.8c1.6-11.2,3.5-27.2,2.4-36.4C711.3,345.6,667.2,355.1,667.2,355.1Z" transform="translate(-594.273 -227.2)" fill="#fedb59"/>
        <path id="Path_1792" data-name="Path 1792" d="M670.7,240.8v12s-1.3,11,5.7,11v9.4h17.3V262.8l-14.8-24.5-8.3-2.2Z" transform="translate(-594.273 -227.2)" fill="#f0c7ad"/>
        <path id="Path_1793" data-name="Path 1793" d="M670.7,240.8s.9,0,2.2,1.9a21.873,21.873,0,0,1,2.2,5.7s1.9-.3,2.8,2.5l.9,2.8s5.4,1.6,6.9,5c1.6,3.5,4.1,4.7,7.9,4.1,0,0,3.8-.6,6.3-6.6s4.1-14.8-1.6-21.4-9.1-7.6-18.3-7.6C671,227.3,667.5,237.1,670.7,240.8Z" transform="translate(-594.273 -227.2)" fill="#713d22"/>
        <path id="Path_1794" data-name="Path 1794" d="M682.1,270.7s-7.4,1.9-17.7,10.7C654,290.2,645.5,310,645.5,310s-4.1,7.9-1.9,12.6c0,0,2.5,4.7,6,4.7s10.8-8.2,12.9-11c2.2-2.8,3.7-4.7,3.7-4.7a124.676,124.676,0,0,1,0,15.7c-.6,6.3-2.2,27.1-2.2,27.1s.1,14.2,6.5,20.1c6.4,6,16.8.3,25-3.1,8.2-3.5,13.8-9.1,15.7-12.3,1.9-3.1,2.5-18.9,0-27.7s-4.4-19.5-2.5-29.3,6.3-21.4,1.9-31.5S694.1,264.5,682.1,270.7Z" transform="translate(-594.273 -227.2)" fill="#4b4b4b"/>
      </g>
      <g id="Group_651" data-name="Group 651" transform="translate(294.767 416.672)">
        <path id="Path_1795" data-name="Path 1795" d="M853.3,618.9l-83.8,48.8-84.4-48.8,83.8-48.7Z" transform="translate(-685.1 -570.2)" fill="#cbaf46"/>
      </g>
      <g id="Group_652" data-name="Group 652" transform="translate(375.161 464.24)">
        <path id="Path_1796" data-name="Path 1796" d="M853.3,618.9l-.8,23.4-83.8,48.8.8-23.4Z" transform="translate(-768.7 -618.9)" fill="#fedb59"/>
      </g>
      <g id="Group_653" data-name="Group 653" transform="translate(298.187 464.24)">
        <path id="Path_1797" data-name="Path 1797" d="M769.5,667.7l-.8,23.4-84.4-48.8.8-23.4Z" transform="translate(-684.3 -618.9)" fill="#b89030"/>
      </g>
      <path id="Path_1798" data-name="Path 1798" d="M774,610.3a14,14,0,0,0,12.9,0c3.5-2.1,3.5-5.4,0-7.5a14,14,0,0,0-12.9,0C770.4,604.9,770.4,608.2,774,610.3Z" transform="translate(-390.443 -153.342)" fill="#e8f9ff"/>
      <path id="Path_1799" data-name="Path 1799" d="M791.2,644.9l14-8.2-1.7-16.8H758.6l.3-18.3-28.7-.4-29.7,17.2,68.4,39.4Z" transform="translate(-388.465 -153.92)" fill="#e8f9ff"/>
    </g>
    <g id="Group_655" data-name="Group 655" transform="translate(670.693 1054.945)">
      <path id="Path_1800" data-name="Path 1800" d="M838.3,1124.1l-66.5,38.7-66.9-38.7,66.5-38.6Z" transform="translate(-704.9 -1085.5)" fill="#91b9ff"/>
    </g>
    <g id="Group_656" data-name="Group 656" transform="translate(735.069 1093.545)">
      <path id="Path_1801" data-name="Path 1801" d="M838.3,1124.1l-.6,19.3-66.5,38.7.6-19.3Z" transform="translate(-771.2 -1124.1)" fill="#5678b5"/>
    </g>
    <g id="Group_657" data-name="Group 657" transform="translate(672.821 1093.545)">
      <path id="Path_1802" data-name="Path 1802" d="M771.8,1162.8l-.6,19.3-66.9-38.7.6-19.3Z" transform="translate(-704.3 -1124.1)" fill="#668ed6"/>
    </g>
    <g id="Group_658" data-name="Group 658" transform="translate(729.018 1039.545)">
      <path id="Path_1803" data-name="Path 1803" d="M901.3,1108.7l-66.4,38.6L768,1108.7l66.4-38.6Z" transform="translate(-768 -1070.1)" fill="#fedb59"/>
    </g>
    <g id="Group_659" data-name="Group 659" transform="translate(793.674 1078.145)">
      <path id="Path_1804" data-name="Path 1804" d="M901.3,1108.7l-.6,19.3-66.5,38.6.7-19.3Z" transform="translate(-834.2 -1108.7)" fill="#b89030"/>
    </g>
    <g id="Group_660" data-name="Group 660" transform="translate(731.42 1078.145)">
      <path id="Path_1805" data-name="Path 1805" d="M834.9,1147.3l-.7,19.3L767.3,1128l.7-19.3Z" transform="translate(-767.3 -1108.7)" fill="#cbaf46"/>
    </g>
  </g>
</svg>
