<svg id="team_1_" data-name="team (1)" xmlns="http://www.w3.org/2000/svg" width="350" height="350" viewBox="0 0 350 350">
  <path id="Path_4517" data-name="Path 4517" d="M331.667,193.833A145.833,145.833,0,1,1,185.833,48,145.833,145.833,0,0,1,331.667,193.833Zm0,0" transform="translate(-10.833 -13)" fill="#ff4f19"/>
  <path id="Path_4518" data-name="Path 4518" d="M302.333,211.167A99.167,99.167,0,1,1,203.167,112,99.168,99.168,0,0,1,302.333,211.167Zm0,0" transform="translate(-28.167 -30.333)" fill="#fff"/>
  <path id="Path_4519" data-name="Path 4519" d="M280.333,224.167A64.167,64.167,0,1,1,216.167,160,64.166,64.166,0,0,1,280.333,224.167Zm0,0" transform="translate(-41.167 -43.333)" fill="#ff4f19"/>
  <path id="Path_4520" data-name="Path 4520" d="M251,241.5A17.5,17.5,0,1,1,233.5,224,17.5,17.5,0,0,1,251,241.5Zm0,0" transform="translate(-58.5 -60.667)" fill="#fff"/>
  <path id="Path_4521" data-name="Path 4521" d="M81.667,126.667H0V115A35,35,0,0,1,35,80H46.667a35,35,0,0,1,35,35Zm0,0" transform="translate(0 -21.667)" fill="#7a6ac3"/>
  <path id="Path_4522" data-name="Path 4522" d="M32.083,80.2A34.987,34.987,0,0,0,0,115.054v11.667H64.167V115.054A34.987,34.987,0,0,0,32.083,80.2Zm0,0" transform="translate(0 -21.721)" fill="#a795e6"/>
  <path id="Path_4523" data-name="Path 4523" d="M32,32V49.5a17.5,17.5,0,0,0,35,0V32" transform="translate(-8.667 -8.667)" fill="#dcb29c"/>
  <path id="Path_4524" data-name="Path 4524" d="M43.667,65.926A17.441,17.441,0,0,0,55.333,49.5V32H32V49.5A17.441,17.441,0,0,0,43.667,65.926Zm0,0" transform="translate(-8.667 -8.667)" fill="#f3c6b0"/>
  <path id="Path_4525" data-name="Path 4525" d="M67,23.333H32V11.667A11.664,11.664,0,0,1,43.667,0h35V11.667A11.664,11.664,0,0,1,67,23.333Zm0,0" transform="translate(-8.667)" fill="#7e4e4d"/>
  <path id="Path_4526" data-name="Path 4526" d="M67,11.667V0H43.667A11.664,11.664,0,0,0,32,11.667V23.333H55.333A11.664,11.664,0,0,0,67,11.667Zm0,0" transform="translate(-8.667)" fill="#8d5655"/>
  <path id="Path_4527" data-name="Path 4527" d="M449.667,126.667H368V115a35,35,0,0,1,35-35h11.667a35,35,0,0,1,35,35Zm0,0" transform="translate(-99.667 -21.667)" fill="#7a6ac3"/>
  <path id="Path_4528" data-name="Path 4528" d="M400.083,80.2A34.987,34.987,0,0,0,368,115.054v11.667h64.167V115.054A34.987,34.987,0,0,0,400.083,80.2Zm0,0" transform="translate(-99.667 -21.721)" fill="#a795e6"/>
  <path id="Path_4529" data-name="Path 4529" d="M400,32V49.5a17.5,17.5,0,0,0,35,0V32" transform="translate(-108.333 -8.667)" fill="#dcb29c"/>
  <path id="Path_4530" data-name="Path 4530" d="M411.667,65.926A17.441,17.441,0,0,0,423.333,49.5V32H400V49.5A17.441,17.441,0,0,0,411.667,65.926Zm0,0" transform="translate(-108.333 -8.667)" fill="#f3c6b0"/>
  <path id="Path_4531" data-name="Path 4531" d="M435,23.333H400V11.667A11.664,11.664,0,0,1,411.667,0h35V11.667A11.664,11.664,0,0,1,435,23.333Zm0,0" transform="translate(-108.333)" fill="#7e4e4d"/>
  <path id="Path_4532" data-name="Path 4532" d="M435,11.667V0H411.667A11.664,11.664,0,0,0,400,11.667V23.333h23.333A11.664,11.664,0,0,0,435,11.667Zm0,0" transform="translate(-108.333)" fill="#8d5655"/>
  <path id="Path_4533" data-name="Path 4533" d="M81.667,462.667H0V451a35,35,0,0,1,35-35H46.667a35,35,0,0,1,35,35Zm0,0" transform="translate(0 -112.667)" fill="#7a6ac3"/>
  <path id="Path_4534" data-name="Path 4534" d="M32.083,416.2A34.987,34.987,0,0,0,0,451.054v11.667H64.167V451.054A34.987,34.987,0,0,0,32.083,416.2Zm0,0" transform="translate(0 -112.721)" fill="#a795e6"/>
  <path id="Path_4535" data-name="Path 4535" d="M32,368v17.5a17.5,17.5,0,1,0,35,0V368" transform="translate(-8.667 -99.667)" fill="#dcb29c"/>
  <path id="Path_4536" data-name="Path 4536" d="M43.667,401.926A17.441,17.441,0,0,0,55.333,385.5V368H32v17.5A17.441,17.441,0,0,0,43.667,401.926Zm0,0" transform="translate(-8.667 -99.667)" fill="#f3c6b0"/>
  <path id="Path_4537" data-name="Path 4537" d="M67,359.333H32V347.667A11.664,11.664,0,0,1,43.667,336h35v11.667A11.664,11.664,0,0,1,67,359.333Zm0,0" transform="translate(-8.667 -91)" fill="#7e4e4d"/>
  <path id="Path_4538" data-name="Path 4538" d="M67,347.667V336H43.667A11.664,11.664,0,0,0,32,347.667v11.667H55.333A11.664,11.664,0,0,0,67,347.667Zm0,0" transform="translate(-8.667 -91)" fill="#8d5655"/>
  <path id="Path_4539" data-name="Path 4539" d="M449.667,462.667H368V451a35,35,0,0,1,35-35h11.667a35,35,0,0,1,35,35Zm0,0" transform="translate(-99.667 -112.667)" fill="#7a6ac3"/>
  <path id="Path_4540" data-name="Path 4540" d="M400.083,416.2A34.987,34.987,0,0,0,368,451.054v11.667h64.167V451.054A34.987,34.987,0,0,0,400.083,416.2Zm0,0" transform="translate(-99.667 -112.721)" fill="#a795e6"/>
  <path id="Path_4541" data-name="Path 4541" d="M400,368v17.5a17.5,17.5,0,0,0,35,0V368" transform="translate(-108.333 -99.667)" fill="#dcb29c"/>
  <path id="Path_4542" data-name="Path 4542" d="M411.667,401.926A17.441,17.441,0,0,0,423.333,385.5V368H400v17.5A17.441,17.441,0,0,0,411.667,401.926Zm0,0" transform="translate(-108.333 -99.667)" fill="#f3c6b0"/>
  <path id="Path_4543" data-name="Path 4543" d="M435,359.333H400V347.667A11.664,11.664,0,0,1,411.667,336h35v11.667A11.664,11.664,0,0,1,435,359.333Zm0,0" transform="translate(-108.333 -91)" fill="#7e4e4d"/>
  <path id="Path_4544" data-name="Path 4544" d="M435,347.667V336H411.667A11.664,11.664,0,0,0,400,347.667v11.667h23.333A11.664,11.664,0,0,0,435,347.667Zm0,0" transform="translate(-108.333 -91)" fill="#8d5655"/>
  <g id="Group_7606" data-name="Group 7606" transform="translate(93.333 99.167)">
    <path id="Path_4545" data-name="Path 4545" d="M232,136h11.667v35H232Zm0,0" transform="translate(-156.167 -136)" fill="#5c546a"/>
    <path id="Path_4546" data-name="Path 4546" d="M128,240h35v11.667H128Zm0,0" transform="translate(-128 -164.167)" fill="#5c546a"/>
    <path id="Path_4547" data-name="Path 4547" d="M304,240h35v11.667H304Zm0,0" transform="translate(-175.667 -164.167)" fill="#5c546a"/>
    <path id="Path_4548" data-name="Path 4548" d="M232,312h11.667v35H232Zm0,0" transform="translate(-156.167 -183.667)" fill="#5c546a"/>
  </g>
  <path id="Path_4583" data-name="Path 4583" d="M435,23.333H400V11.667A11.664,11.664,0,0,1,411.667,0h35V11.667A11.664,11.664,0,0,1,435,23.333Zm0,0" transform="translate(-108.333)" fill="#7e4e4d"/>
</svg>
