<svg xmlns="http://www.w3.org/2000/svg" width="350" height="350" viewBox="0 0 350 350">
  <g id="rating" transform="translate(0 -5.5)">
    <path id="Path_4593" data-name="Path 4593" d="M311.882,281.109a12.789,12.789,0,0,1-1.179,14.937c-31.727,36.871-78.387,59.981-130.315,59.445C86.1,354.516,10.8,276.53,11,180.12,11.2,83.646,87.754,5.5,182.158,5.5A168,168,0,0,1,286.3,41.628a6.072,6.072,0,0,1,1.988,6.656,291.012,291.012,0,0,0-14.15,90.55C274.141,192.7,288.275,242.174,311.882,281.109Z" transform="translate(-3.315)" fill="#a795e6"/>
    <path id="Path_4594" data-name="Path 4594" d="M48.9,311.642H6.986A7.066,7.066,0,0,1,0,304.5V61.643A7.066,7.066,0,0,1,6.986,54.5H48.9a7.066,7.066,0,0,1,6.986,7.143V304.5A7.066,7.066,0,0,1,48.9,311.642Z" transform="translate(0 -14)" fill="#4b4b4b"/>
    <path id="Path_4595" data-name="Path 4595" d="M356.028,194.5a176.558,176.558,0,0,1-44.01,117.143H26.986A7.066,7.066,0,0,1,20,304.5V61.643A7.066,7.066,0,0,1,26.986,54.5H287.575a173.888,173.888,0,0,1,29.273,28.571c3.7,4.574.316,9.343,3.551,14.29,3.015,4.611,12.68,9.377,15.264,14.283A177.31,177.31,0,0,1,356.028,194.5Z" transform="translate(-6.028 -14)" fill="#6e6e6e"/>
    <path id="Path_4596" data-name="Path 4596" d="M341.8,131.856V295.928a7.282,7.282,0,0,1-.167,1.538q-.947,1.795-1.935,3.564a6.882,6.882,0,0,1-4.884,2.04H46.986A7.066,7.066,0,0,1,40,295.927V131.642a7.066,7.066,0,0,1,6.986-7.143H322.879C330.072,133.4,336.416,121.608,341.8,131.856Z" transform="translate(-12.056 -34)" fill="#fff5f5"/>
    <path id="Path_4597" data-name="Path 4597" d="M66.547,303.071H46.986A7.066,7.066,0,0,1,40,295.928V131.643a7.066,7.066,0,0,1,6.986-7.143H66.547a7.066,7.066,0,0,0-6.986,7.143V295.928A7.066,7.066,0,0,0,66.547,303.071Z" transform="translate(-12.056 -34)" fill="#fedb59"/>
    <path id="Path_4598" data-name="Path 4598" d="M341.686,123.071H40V101.643A7.066,7.066,0,0,1,46.986,94.5H322.879A175.616,175.616,0,0,1,341.686,123.071Z" transform="translate(-12.056 -25.429)" fill="#fedb59"/>
    <path id="Path_4599" data-name="Path 4599" d="M423.333,171.148a1.131,1.131,0,0,0-.609-1.917l-12.548-1.864a1.1,1.1,0,0,1-.828-.615l-5.611-11.625a1.089,1.089,0,0,0-1.971,0l-5.611,11.625a1.1,1.1,0,0,1-.828.615l-12.548,1.864a1.131,1.131,0,0,0-.609,1.917l9.08,9.049a1.14,1.14,0,0,1,.316,1l-2.143,12.777a1.1,1.1,0,0,0,1.595,1.185l11.223-6.033a1.077,1.077,0,0,1,1.023,0l11.223,6.033a1.1,1.1,0,0,0,1.595-1.185l-2.143-12.777a1.141,1.141,0,0,1,.316-1Z" transform="translate(-115.085 -42.572)" fill="#fedb59"/>
    <path id="Path_4600" data-name="Path 4600" d="M321.018,253.786H83.493A3.533,3.533,0,0,1,80,250.214v-7.143a3.533,3.533,0,0,1,3.493-3.571H321.018a3.533,3.533,0,0,1,3.493,3.571v7.143A3.533,3.533,0,0,1,321.018,253.786Zm3.493,28.571v-7.143a3.533,3.533,0,0,0-3.493-3.571H146.367a3.533,3.533,0,0,0-3.493,3.571v7.143a3.533,3.533,0,0,0,3.493,3.571H321.018A3.533,3.533,0,0,0,324.511,282.357Zm0,32.143v-7.143a3.533,3.533,0,0,0-3.493-3.571H146.367a3.533,3.533,0,0,0-3.493,3.571V314.5a3.533,3.533,0,0,0,3.493,3.571H321.018A3.533,3.533,0,0,0,324.511,314.5Z" transform="translate(-24.112 -66.857)" fill="#5678b5"/>
    <path id="Path_4601" data-name="Path 4601" d="M214.393,156.862l-9.08,9.049a1.138,1.138,0,0,0-.316,1l2.143,12.777a1.1,1.1,0,0,1-1.595,1.185l-11.223-6.033a1.077,1.077,0,0,0-1.023,0l-11.223,6.033a1.1,1.1,0,0,1-1.595-1.185l2.143-12.777a1.139,1.139,0,0,0-.316-1l-9.08-9.049a1.131,1.131,0,0,1,.609-1.917l12.548-1.864a1.1,1.1,0,0,0,.828-.615l5.611-11.625a1.089,1.089,0,0,1,1.971,0l5.611,11.625a1.1,1.1,0,0,0,.828.615l12.548,1.864A1.131,1.131,0,0,1,214.393,156.862Zm-55.072-1.917-12.548-1.864a1.1,1.1,0,0,1-.828-.615l-5.611-11.625a1.089,1.089,0,0,0-1.971,0l-5.611,11.625a1.1,1.1,0,0,1-.828.615l-12.548,1.864a1.131,1.131,0,0,0-.609,1.917l9.08,9.049a1.14,1.14,0,0,1,.316,1l-2.143,12.777a1.1,1.1,0,0,0,1.595,1.185l11.223-6.033a1.077,1.077,0,0,1,1.023,0l11.223,6.033a1.1,1.1,0,0,0,1.595-1.185l-2.143-12.777a1.139,1.139,0,0,1,.316-1l9.08-9.049A1.131,1.131,0,0,0,159.322,154.945ZM73.7,166.906l-2.143,12.777a1.1,1.1,0,0,0,1.595,1.185l11.223-6.033a1.077,1.077,0,0,1,1.023,0l11.223,6.033a1.1,1.1,0,0,0,1.595-1.185l-2.143-12.777a1.139,1.139,0,0,1,.316-.995l9.08-9.049a1.131,1.131,0,0,0-.609-1.917L92.312,153.08a1.1,1.1,0,0,1-.828-.615L85.873,140.84a1.089,1.089,0,0,0-1.971,0l-5.611,11.625a1.1,1.1,0,0,1-.828.615l-12.548,1.864a1.131,1.131,0,0,0-.609,1.917l9.08,9.049A1.142,1.142,0,0,1,73.7,166.906Zm195.155-10.044a1.131,1.131,0,0,0-.609-1.917L255.7,153.081a1.1,1.1,0,0,1-.828-.615l-5.611-11.625a1.089,1.089,0,0,0-1.971,0l-5.611,11.625a1.1,1.1,0,0,1-.828.615L228.3,154.945a1.131,1.131,0,0,0-.609,1.917l9.08,9.049a1.14,1.14,0,0,1,.316,1l-2.143,12.777a1.1,1.1,0,0,0,1.595,1.185l11.223-6.033a1.077,1.077,0,0,1,1.023,0l11.223,6.033a1.1,1.1,0,0,0,1.595-1.185l-2.143-12.777a1.141,1.141,0,0,1,.316-1ZM116.367,233.071H74.451a3.533,3.533,0,0,0-3.493,3.571v7.143a3.533,3.533,0,0,0,3.493,3.571h41.916a3.533,3.533,0,0,0,3.493-3.571v-7.143A3.533,3.533,0,0,0,116.367,233.071Zm-6.986,32.143H74.451a3.533,3.533,0,0,0-3.493,3.571v7.143a3.533,3.533,0,0,0,3.493,3.571h34.93a3.533,3.533,0,0,0,3.493-3.571v-7.143A3.533,3.533,0,0,0,109.381,265.214Zm87.325-3.571a7.066,7.066,0,0,0-6.986,7.143v7.143a6.988,6.988,0,1,0,13.972,0v-7.143A7.066,7.066,0,0,0,196.707,261.643ZM168.762,229.5a7.066,7.066,0,0,0-6.986,7.143v7.143a6.988,6.988,0,1,0,13.972,0v-7.143A7.066,7.066,0,0,0,168.762,229.5Zm83.832-32.143a7.066,7.066,0,0,0-6.986,7.143v7.143a6.988,6.988,0,1,0,13.972,0V204.5A7.066,7.066,0,0,0,252.595,197.357ZM77.944,118.786a7.145,7.145,0,1,0-6.986-7.143A7.066,7.066,0,0,0,77.944,118.786Zm20.958,0a7.145,7.145,0,1,0-6.986-7.143A7.066,7.066,0,0,0,98.9,118.786ZM56.986,104.5a7.145,7.145,0,1,0,6.986,7.143A7.066,7.066,0,0,0,56.986,104.5Z" transform="translate(-15.07 -28.286)" fill="#fedb59"/>
  </g>
</svg>
