<svg xmlns="http://www.w3.org/2000/svg" width="350" height="350" viewBox="0 0 350 350">
  <g id="Group_7608" data-name="Group 7608" transform="translate(-8441 -323)">
    <path id="Path_4588" data-name="Path 4588" d="M512.894,168.8H368V146.6c0-36.783,27.8-66.6,62.1-66.6h20.7c34.3,0,62.1,29.814,62.1,66.6Zm0,0" transform="translate(8175.554 504.204)" fill="#7a6ac3"/>
    <path id="Path_4586" data-name="Path 4586" d="M400,32V65.3c0,18.394,13.9,33.3,31.049,33.3S462.1,83.693,462.1,65.3V32" transform="translate(8179.629 485.606)" fill="#dcb29c"/>
    <path id="Path_4584" data-name="Path 4584" d="M462.1,44.4H400V22.2C400,9.934,409.263,0,420.7,0h62.1V22.2C482.8,34.464,473.534,44.4,462.1,44.4Zm0,0" transform="translate(8181.403 475.111)" fill="#7e4e4d"/>
    <g id="problem_1_" data-name="problem (1)" transform="translate(8441 323)">
      <path id="Path_4549" data-name="Path 4549" d="M382.581,260.114l-16.935-.006a6.069,6.069,0,0,1,0-12.108l16.935.006a6.069,6.069,0,0,1,0,12.108Zm0,0" transform="translate(-105.968 -60.321)" fill="#da4453"/>
      <path id="Path_4550" data-name="Path 4550" d="M336.156,165.471a5.446,5.446,0,0,1-3.991-1.774,6.36,6.36,0,0,1,0-8.561L344.144,142.3a5.373,5.373,0,0,1,7.983,0,6.36,6.36,0,0,1,0,8.561L340.147,163.7A5.446,5.446,0,0,1,336.156,165.471Zm0,0" transform="translate(-97.287 -34.18)" fill="#da4453"/>
      <path id="Path_4551" data-name="Path 4551" d="M245.661,126.255a5.857,5.857,0,0,1-5.645-6.054V102.039a5.659,5.659,0,1,1,11.29,0V120.2A5.855,5.855,0,0,1,245.661,126.255Zm0,0" transform="translate(-70.65 -23.346)" fill="#da4453"/>
      <path id="Path_4552" data-name="Path 4552" d="M150.154,165.453a5.446,5.446,0,0,1-3.991-1.774l-11.974-12.841a6.366,6.366,0,0,1,0-8.561,5.373,5.373,0,0,1,7.983,0l11.974,12.841a6.36,6.36,0,0,1,0,8.561A5.464,5.464,0,0,1,150.154,165.453Zm0,0" transform="translate(-39.012 -34.174)" fill="#da4453"/>
      <path id="Path_4553" data-name="Path 4553" d="M118.583,260.108h-16.93a6.069,6.069,0,0,1,0-12.108h16.93a6.069,6.069,0,0,1,0,12.108Zm0,0" transform="translate(-28.26 -60.321)" fill="#da4453"/>
      <path id="Path_4561" data-name="Path 4561" d="M423.516,200c21.864,0,39.516,19.017,39.516,42.379,0,23.448-17.652,42.379-39.516,42.379-21.79,0-39.516-18.931-39.516-42.379C384,219.017,401.727,200,423.516,200Zm0,0" transform="translate(-113.032 -48.646)" fill="#ff4f19"/>
      <path id="Path_4562" data-name="Path 4562" d="M435.295,200a36.975,36.975,0,0,0-11.279,1.78c16.337,5.218,28.215,21.438,28.215,40.6,0,19.233-11.877,35.406-28.215,40.605a36.971,36.971,0,0,0,11.279,1.774c21.864,0,39.516-18.931,39.516-42.379C474.811,219.017,457.159,200,435.295,200Zm0,0" transform="translate(-124.811 -48.646)" fill="#e5001e"/>
      <path id="Path_4563" data-name="Path 4563" d="M372.958,58.559c21.8,0,39.516,18.993,39.516,42.379,0,23.448-17.721,42.379-39.516,42.441a37.836,37.836,0,0,1-27.923-12.431,43.837,43.837,0,0,1-11.594-30.011C333.441,77.552,351.16,58.559,372.958,58.559Zm0,0" transform="translate(-98.15 -14.243)" fill="#ff4f19"/>
      <path id="Path_4564" data-name="Path 4564" d="M384.705,58.559a36.755,36.755,0,0,0-11.29,1.788c16.307,5.212,28.226,21.411,28.226,40.591,0,19.253-11.952,35.435-28.289,40.656a37.363,37.363,0,0,0,11.354,1.785c21.8-.062,39.516-18.993,39.516-42.441C424.221,77.552,406.5,58.559,384.705,58.559Zm0,0" transform="translate(-109.898 -14.243)" fill="#e5001e"/>
      <path id="Path_4565" data-name="Path 4565" d="M231.516,0c21.864,0,39.516,19.017,39.516,42.379s-17.727,42.379-39.516,42.379S192,65.753,192,42.379,209.727,0,231.516,0Zm0,0" transform="translate(-56.516)" fill="#ff4f19"/>
      <path id="Path_4566" data-name="Path 4566" d="M243.29,0a36.975,36.975,0,0,0-11.279,1.78c16.337,5.218,28.215,21.438,28.215,40.6S248.3,77.752,232,82.973a37.035,37.035,0,0,0,11.29,1.786c21.79,0,39.516-19.005,39.516-42.379S265.154,0,243.29,0Zm0,0" transform="translate(-68.29)" fill="#e5001e"/>
      <path id="Path_4567" data-name="Path 4567" d="M39.516,200c21.79,0,39.516,19.017,39.516,42.379,0,23.448-17.727,42.379-39.516,42.379S0,265.827,0,242.379C0,219.017,17.727,200,39.516,200Zm0,0" transform="translate(0 -48.646)" fill="#ff4f19"/>
      <path id="Path_4568" data-name="Path 4568" d="M51.29,200A36.856,36.856,0,0,0,40,201.786c16.3,5.226,28.226,21.438,28.226,40.594,0,19.227-11.922,35.394-28.226,40.6a36.853,36.853,0,0,0,11.29,1.78c21.79,0,39.516-18.931,39.516-42.379C90.806,219.017,73.08,200,51.29,200Zm0,0" transform="translate(-11.774 -48.646)" fill="#e5001e"/>
      <path id="Path_4569" data-name="Path 4569" d="M90.087,58.52c21.875,0,39.546,19.005,39.546,42.409,0,23.481-17.671,42.412-39.546,42.412-21.823,0-39.555-18.931-39.486-42.412C50.6,77.525,68.265,58.52,90.087,58.52Zm0,0" transform="translate(-14.895 -14.234)" fill="#ff4f19"/>
      <path id="Path_4570" data-name="Path 4570" d="M101.854,58.52A36.769,36.769,0,0,0,90.574,60.3c16.348,5.215,28.245,21.432,28.245,40.629,0,19.259-11.9,35.441-28.245,40.638a37.153,37.153,0,0,0,11.279,1.774c21.875,0,39.546-18.931,39.546-42.412C141.4,77.525,123.729,58.52,101.854,58.52Zm0,0" transform="translate(-26.661 -14.234)" fill="#e5001e"/>
      <g id="Group_7607" data-name="Group 7607" transform="translate(33.871 18.139)">
        <path id="Path_4572" data-name="Path 4572" d="M53.872,284.085a6.069,6.069,0,0,1-.061-12.108h.061a6.069,6.069,0,0,1,0,12.108Zm0,0" transform="translate(-48.059 -84.291)" fill="#f5f7fa"/>
        <path id="Path_4573" data-name="Path 4573" d="M53.645,254.259A5.855,5.855,0,0,1,48,248.205V230.031a5.659,5.659,0,1,1,11.29,0v18.174A5.855,5.855,0,0,1,53.645,254.259Zm0,0" transform="translate(-48 -72.616)" fill="#f5f7fa"/>
        <path id="Path_4574" data-name="Path 4574" d="M437.88,284.1a6.069,6.069,0,0,1-.061-12.108h.061a6.069,6.069,0,0,1,0,12.108Zm0,0" transform="translate(-161.093 -84.295)" fill="#f5f7fa"/>
        <path id="Path_4575" data-name="Path 4575" d="M437.651,254.269a5.859,5.859,0,0,1-5.645-6.054L432,230.046a5.659,5.659,0,1,1,11.29,0l.006,18.168A5.859,5.859,0,0,1,437.651,254.269Zm0,0" transform="translate(-161.032 -72.62)" fill="#f5f7fa"/>
        <path id="Path_4576" data-name="Path 4576" d="M387.313,142.675a6.069,6.069,0,0,1-.061-12.108h.061a6.069,6.069,0,0,1,0,12.108Zm0,0" transform="translate(-146.209 -49.896)" fill="#f5f7fa"/>
        <path id="Path_4577" data-name="Path 4577" d="M387.082,112.843a5.855,5.855,0,0,1-5.645-6.045l-.011-18.171a5.859,5.859,0,0,1,5.637-6.06h.008a5.859,5.859,0,0,1,5.645,6.048l.011,18.168A5.864,5.864,0,0,1,387.082,112.843Zm0,0" transform="translate(-146.145 -38.221)" fill="#f5f7fa"/>
        <path id="Path_4578" data-name="Path 4578" d="M245.89,84.077a6.069,6.069,0,0,1-.063-12.108h.063a6.069,6.069,0,0,1,0,12.108Zm0,0" transform="translate(-104.579 -35.644)" fill="#f5f7fa"/>
        <path id="Path_4579" data-name="Path 4579" d="M245.645,54.251A5.855,5.855,0,0,1,240,48.2V30.023a5.659,5.659,0,1,1,11.29,0V48.2A5.855,5.855,0,0,1,245.645,54.251Zm0,0" transform="translate(-104.516 -23.969)" fill="#f5f7fa"/>
        <path id="Path_4580" data-name="Path 4580" d="M104.481,142.643a6.069,6.069,0,0,1-.061-12.108h.061a6.069,6.069,0,0,1,0,12.108Zm0,0" transform="translate(-62.956 -49.889)" fill="#f5f7fa"/>
        <path id="Path_4581" data-name="Path 4581" d="M104.231,112.82a5.853,5.853,0,0,1-5.645-6.054V88.6a5.659,5.659,0,1,1,11.29,0v18.168A5.855,5.855,0,0,1,104.231,112.82Zm0,0" transform="translate(-62.89 -38.216)" fill="#f5f7fa"/>
      </g>
    </g>
    <path id="Path_4585" data-name="Path 4585" d="M420.7,96.554c12.038-4.585,20.7-16.779,20.7-31.255V32H400V65.3C400,79.775,408.662,91.969,420.7,96.554Zm0,0" transform="translate(8177.855 485.606)" fill="#f3c6b0"/>
    <path id="Path_4587" data-name="Path 4587" d="M424.923,80.2C393.055,83.028,368,111.612,368,146.52v22.2H481.846v-22.2C481.846,111.612,456.79,83.028,424.923,80.2Zm0,0" transform="translate(8175.554 504.281)" fill="#a795e6"/>
    <path id="Path_4582" data-name="Path 4582" d="M462.1,22.2V0H420.7C409.263,0,400,9.934,400,22.2V44.4h41.4C452.835,44.4,462.1,34.464,462.1,22.2Zm0,0" transform="translate(8177.855 475.111)" fill="#8d5655"/>
  </g>
</svg>
