<?xml version="1.0" encoding="iso-8859-1"?>
<!-- Generator: Adobe Illustrator 21.0.0, SVG Export Plug-In . SVG Version: 6.00 Build 0)  -->
<svg xmlns="http://www.w3.org/2000/svg" xmlns:xlink="http://www.w3.org/1999/xlink" version="1.1" id="Capa_1" x="0px" y="0px" viewBox="0 0 508.955 508.955" style="enable-background:new 0 0 508.955 508.955;" xml:space="preserve" width="512" height="512">
<g>
	<g>
		<g>
			<path style="fill:#4CB0E8;" d="M64.405,339.56c-8.494-24.42-13.18-51.093-13.18-79.039c0-116.824,81.712-211.529,182.508-211.529     c1.995,0,3.98,0.051,5.959,0.124V339.56H64.405z"/>
		</g>
	</g>
	<g>
		<g>
			<path style="fill:#74CAEA;" d="M391.451,264.352c-10.684,18.505-34.346,24.845-52.851,14.161l-64.114-37.016     c-7.804,2.283-16.051,3.53-24.593,3.53c-0.019,0-0.037-0.001-0.056-0.001c4.756,22.172,15.795,52.42,41.342,78.747     c7.048,4.835,13.426,10.452,19.058,16.686c12.632,13.983,21.471,31.094,25.549,49.561H109.489     c-19.025-82.261-31.787-230.676,94.292-306.741c1.039-0.647,2.088-1.28,3.156-1.883c-0.667-3.663-1.034-7.43-1.034-11.285     c0-34.579,28.032-62.61,62.61-62.61c1.219,0,2.428,0.044,3.629,0.112v65.37c28.998,7.61,52.118,29.724,61.125,58.131     l67.826,39.159c18.505,10.684,24.845,34.346,14.161,52.85L391.451,264.352z"/>
		</g>
	</g>
	<g>
		<g>
			<g>
				<path style="fill:#4CB0E8;" d="M291.179,323.772c-25.547-26.327-36.586-56.575-41.342-78.747c0.019,0,0.037,0.001,0.055,0.001      c0.23,0,0.457-0.011,0.687-0.013l-6.093-3.518c-7.804,2.283-16.051,3.53-24.594,3.53c-0.019,0-0.037-0.001-0.055-0.001      c4.756,22.171,15.795,52.42,41.342,78.747c7.048,4.835,13.426,10.452,19.058,16.687c12.632,13.983,21.471,31.094,25.549,49.561      h30c-4.078-18.467-12.917-35.577-25.549-49.561C304.605,334.225,298.227,328.607,291.179,323.772z"/>
			</g>
		</g>
		<g>
			<g>
				<path style="fill:#4CB0E8;" d="M401.093,170.273l-67.826-39.159c-9.006-28.407-32.126-50.521-61.125-58.131V7.612      c-1.202-0.068-2.41-0.112-3.63-0.112c-9.424,0-18.354,2.095-26.37,5.824v59.657c28.998,7.61,52.118,29.725,61.125,58.131      l67.826,39.159c18.505,10.684,24.845,34.345,14.161,52.85l-23.803,41.229c-4.392,7.608-10.981,13.154-18.5,16.312      c17.716,7.475,38.637,0.771,48.5-16.312l23.803-41.229C425.938,204.618,419.598,180.957,401.093,170.273z"/>
			</g>
		</g>
	</g>
	<g>
		<g>
			<path style="fill:#74CAEA;" d="M67.405,448.067v-28.605c0-16.505,13.504-30.009,30.009-30.009h252.232     c16.505,0,30.009,13.504,30.009,30.009v28.605H67.405z"/>
		</g>
	</g>
	<g>
		<g>
			<path style="fill:#4CB0E8;" d="M349.647,389.453h-30c16.505,0,30.009,13.504,30.009,30.009v28.604h30v-28.604     C379.656,402.957,366.152,389.453,349.647,389.453z"/>
		</g>
	</g>
	<g>
		<g>
			<path style="fill:#74CAEA;" d="M34.75,501.455v-34.587c0-19.957,16.329-36.286,36.286-36.286h304.99     c19.957,0,36.286,16.329,36.286,36.286v34.587H34.75z"/>
		</g>
	</g>
	<g>
		<g>
			<path style="fill:#4CB0E8;" d="M376.025,430.581h-30c19.958,0,36.286,16.329,36.286,36.286v34.588h30v-34.588     C412.312,446.91,395.983,430.581,376.025,430.581z"/>
		</g>
	</g>
	<g>
		<g>
			<polygon style="fill:#ED6C8E;" points="474.205,54.802 423.734,16.3 423.734,38.445 346.183,38.445 346.183,71.158      423.734,71.158 423.734,93.304    "/>
		</g>
	</g>
	<g>
		<path d="M404.843,163.777l-65.366-37.74c-9.726-27.573-32.152-49.483-59.834-58.65V7.612c0-3.977-3.104-7.262-7.074-7.488    C271.097,0.041,269.77,0,268.513,0c-29.54,0-54.852,18.372-65.159,44.283c-40.737,7.565-78.692,30.606-107.29,65.247    c-2.637,3.194-2.185,7.921,1.01,10.559c1.397,1.154,3.089,1.716,4.771,1.716c2.16,0,4.305-0.929,5.788-2.725    c24.691-29.91,56.829-50.414,91.445-58.574c-0.433,3.143-0.675,6.346-0.675,9.605c0,2.453,0.135,4.932,0.401,7.416    c-56.71,34.611-91.684,86.913-103.965,155.477c-6.113,34.123-5.782,68.465-2.646,99.057H69.804    c-7.354-22.854-11.078-46.893-11.078-71.539c0-42.422,11.068-83.094,32.009-117.619c2.147-3.542,1.018-8.154-2.523-10.302    s-8.153-1.019-10.303,2.523c-22.362,36.871-34.183,80.233-34.183,125.398c0,28.144,4.574,55.565,13.596,81.502    c1.049,3.015,3.892,5.036,7.084,5.036h29.577c1.707,12.553,3.817,24.287,6.05,34.893h-2.618    c-20.683,0-37.509,16.827-37.509,37.509v5.057c-18.77,4.938-32.655,22.05-32.655,42.348v34.587c0,4.142,3.357,7.5,7.5,7.5h78.709    c4.143,0,7.5-3.358,7.5-7.5s-3.357-7.5-7.5-7.5H42.25v-27.087c0-15.873,12.913-28.786,28.786-28.786h304.989    c15.873,0,28.786,12.914,28.786,28.786v27.087H145.459c-4.143,0-7.5,3.358-7.5,7.5s3.357,7.5,7.5,7.5h266.853    c4.143,0,7.5-3.358,7.5-7.5v-34.587c0-20.298-13.885-37.41-32.655-42.348v-5.057c0-20.683-16.827-37.509-37.51-37.509h-8.168    c-4.857-17.233-13.648-33.208-25.676-46.521c-5.913-6.546-12.554-12.398-19.746-17.405    c-21.049-21.911-31.554-46.686-36.794-65.964c4.777-0.475,9.518-1.312,14.185-2.505l61.402,35.451    c22.054,12.733,50.36,5.15,63.096-16.906l23.804-41.229C434.483,204.816,426.899,176.512,404.843,163.777z M372.156,419.462v3.619    H74.905v-3.619c0-12.412,10.098-22.509,22.509-22.509h9.268c0.875,0.355,1.818,0.566,2.807,0.566h226.297    c0.984,0,1.94-0.204,2.829-0.566h11.031C362.059,396.953,372.156,407.051,372.156,419.462z M408.759,219.373l-23.804,41.229    c-8.599,14.893-27.713,20.015-42.605,11.416l-64.113-37.016c-1.774-1.024-3.889-1.278-5.855-0.703    c-7.009,2.05-14.241,3.122-21.51,3.212c-0.06-0.002-0.119-0.01-0.18-0.01c-25.863-0.057-46.859-21.144-46.803-47.007    c0.009-4.142-3.342-7.507-7.483-7.516c-0.006,0-0.011,0-0.017,0c-4.135,0-7.491,3.347-7.5,7.484    c-0.069,31.807,23.991,58.131,54.89,61.633c5.394,21.764,17.008,51.126,42.018,76.901c0.348,0.357,0.729,0.68,1.14,0.961    c6.47,4.438,12.437,9.663,17.736,15.529c9.527,10.546,16.725,23.007,21.135,36.467H115.369    c-8.309-38.235-15.363-92.728-5.765-146.305C121.17,171.08,154.159,121.976,207.655,89.7c0.029-0.018,0.059-0.036,0.088-0.054    c1.104-0.687,2.02-1.234,2.882-1.721c2.781-1.571,4.263-4.731,3.69-7.874c-0.606-3.326-0.913-6.671-0.913-9.941    c0-29.088,22.65-52.984,51.24-54.976v57.848c0,3.409,2.299,6.389,5.597,7.254c26.259,6.891,47.671,27.254,55.879,53.144    c0.565,1.784,1.778,3.292,3.399,4.229l67.825,39.159C412.236,185.367,417.357,204.479,408.759,219.373z"/>
		<path d="M478.754,48.839l-50.471-38.502c-2.267-1.729-5.319-2.024-7.875-0.759c-2.557,1.265-4.174,3.87-4.174,6.722v14.646    h-70.051c-4.143,0-7.5,3.358-7.5,7.5v32.713c0,4.142,3.357,7.5,7.5,7.5h70.051v14.646c0,2.852,1.617,5.457,4.174,6.722    c1.054,0.522,2.192,0.778,3.325,0.778c1.614,0,3.218-0.521,4.55-1.537l50.471-38.502c1.859-1.418,2.951-3.624,2.951-5.963    S480.613,50.257,478.754,48.839z M431.234,78.149v-6.991c0-4.142-3.357-7.5-7.5-7.5h-70.051V45.945h70.051    c4.143,0,7.5-3.358,7.5-7.5v-6.991l30.605,23.347L431.234,78.149z"/>
	</g>
</g>















</svg>
