<svg width="18" height="17" viewBox="0 0 18 17" fill="none" xmlns="http://www.w3.org/2000/svg">
<path d="M4.25 9.37891H0.85C0.380658 9.37891 0 9.77269 0 10.2582V16.1203C0 16.6058 0.380658 16.9996 0.85 16.9996H4.25C4.71934 16.9996 5.1 16.6058 5.1 16.1203V10.2582C5.1 9.77269 4.71934 9.37891 4.25 9.37891ZM4.53333 16.1203C4.53333 16.2822 4.40654 16.4134 4.25 16.4134H0.85C0.693458 16.4134 0.566667 16.2822 0.566667 16.1203V10.2582C0.566667 10.0963 0.693458 9.96511 0.85 9.96511H4.25C4.40654 9.96511 4.53333 10.0963 4.53333 10.2582V16.1203Z" fill="#334D6E"/>
<path d="M16.1524 6.44824H12.7523C12.283 6.44824 11.9023 6.84203 11.9023 7.32755V16.1207C11.9023 16.6062 12.283 17 12.7523 17H16.1524C16.6217 17 17.0024 16.6062 17.0024 16.1207V7.32755C17.0024 6.84203 16.6217 6.44824 16.1524 6.44824ZM16.4357 16.1207C16.4357 16.2826 16.3089 16.4138 16.1524 16.4138H12.7523C12.5958 16.4138 12.469 16.2826 12.469 16.1207V7.32755C12.469 7.16561 12.5958 7.03445 12.7523 7.03445H16.1524C16.3089 7.03445 16.4357 7.16561 16.4357 7.32755V16.1207Z" fill="#334D6E"/>
<path d="M10.1992 7.91406H6.79921C6.32987 7.91406 5.94922 8.30785 5.94922 8.79337V16.121C5.94922 16.6065 6.32987 17.0003 6.79921 17.0003H10.1992C10.6685 17.0003 11.0492 16.6065 11.0492 16.121V8.79337C11.0492 8.30785 10.6685 7.91406 10.1992 7.91406ZM10.4825 16.121C10.4825 16.2829 10.3557 16.4141 10.1992 16.4141H6.79921C6.64267 16.4141 6.51588 16.2829 6.51588 16.121V8.79337C6.51588 8.63143 6.64267 8.50027 6.79921 8.50027H10.1992C10.3557 8.50027 10.4825 8.63143 10.4825 8.79337V16.121Z" fill="#334D6E"/>
<path d="M10.5657 6.06929C10.6764 6.18368 10.8556 6.18368 10.9663 6.06929L15.866 1.00066V1.46552C15.866 1.62746 15.9928 1.75862 16.1493 1.75862C16.3059 1.75862 16.4327 1.62746 16.4327 1.46552V0.293103C16.432 0.258078 16.4254 0.223418 16.4128 0.190664C16.4089 0.180845 16.4045 0.171099 16.3997 0.161353C16.3891 0.139591 16.3759 0.119073 16.3601 0.100534C16.3348 0.0681465 16.3025 0.0425733 16.2655 0.0260862C16.2628 0.0260862 16.261 0.0227155 16.2583 0.0218362C16.2269 0.00893965 16.1936 0.00205172 16.1599 0.00139225C16.1556 0.00205172 16.1528 0 16.1493 0H15.016C14.8595 0 14.7327 0.131164 14.7327 0.293103C14.7327 0.455043 14.8595 0.586207 15.016 0.586207H15.4654L10.766 5.44762L8.27465 2.87036C8.16394 2.75598 7.98473 2.75598 7.87402 2.87036L4.95767 5.88728L3.59965 4.48243C3.48894 4.36805 3.30973 4.36805 3.19902 4.48243L0.649018 7.12036C0.575351 7.19386 0.545814 7.30297 0.571739 7.40541C0.597735 7.50792 0.675014 7.58786 0.77411 7.61476C0.873135 7.64157 0.978605 7.61102 1.04965 7.53481L3.39933 5.1041L4.75735 6.50895C4.86806 6.62333 5.04727 6.62333 5.15798 6.50895L8.07433 3.49203L10.5657 6.06929Z" fill="#334D6E"/>
</svg>
