<svg width="17" height="17" viewBox="0 0 17 17" fill="none" xmlns="http://www.w3.org/2000/svg">
<path d="M1.92295 0C0.90569 0 0.078125 0.827565 0.078125 1.84477C0.078125 2.03579 0.233052 2.19072 0.424073 2.19072C0.615094 2.19072 0.770021 2.03579 0.770021 1.84477C0.770021 1.20909 1.28721 0.691896 1.92295 0.691896C2.55869 0.691896 3.07588 1.20909 3.07588 1.84477C3.07588 2.48045 2.55869 2.9977 1.92295 2.9977C1.73193 2.9977 1.577 3.15262 1.577 3.34364C1.577 3.53467 1.73193 3.68959 1.92295 3.68959C2.94021 3.68959 3.76778 2.86197 3.76778 1.84477C3.76778 0.827565 2.94015 0 1.92295 0Z" fill="#334D6E"/>
<path d="M8.50108 0C7.48382 0 6.65625 0.827565 6.65625 1.84477C6.65625 2.86197 7.48387 3.68959 8.50108 3.68959C9.51828 3.68959 10.3459 2.86197 10.3459 1.84477C10.3459 0.827565 9.51828 0 8.50108 0ZM8.50108 2.9977C7.86534 2.9977 7.34815 2.4805 7.34815 1.84477C7.34815 1.20909 7.86534 0.691896 8.50108 0.691896C9.13681 0.691896 9.654 1.20909 9.654 1.84477C9.654 2.4805 9.13681 2.9977 8.50108 2.9977Z" fill="#334D6E"/>
<path d="M15.0792 3.68959C16.0965 3.68959 16.924 2.86197 16.924 1.84477C16.924 0.827565 16.0965 0 15.0792 0C14.0619 0 13.2344 0.827565 13.2344 1.84477C13.2344 2.86197 14.0619 3.68959 15.0792 3.68959ZM15.0792 0.691896C15.7149 0.691896 16.2321 1.20909 16.2321 1.84477C16.2321 2.4805 15.7149 2.9977 15.0792 2.9977C14.4435 2.9977 13.9263 2.4805 13.9263 1.84477C13.9263 1.20909 14.4435 0.691896 15.0792 0.691896Z" fill="#334D6E"/>
<path d="M1.92295 6.65527C0.90569 6.65527 0.078125 7.4829 0.078125 8.5001C0.078125 9.5173 0.90569 10.3449 1.92295 10.3449C2.94021 10.3449 3.76778 9.5173 3.76778 8.5001C3.76778 7.4829 2.94015 6.65527 1.92295 6.65527ZM1.92295 9.65303C1.28727 9.65303 0.770021 9.13584 0.770021 8.5001C0.770021 7.86436 1.28721 7.34717 1.92295 7.34717C2.55869 7.34717 3.07588 7.86436 3.07588 8.5001C3.07588 9.13584 2.55869 9.65303 1.92295 9.65303Z" fill="#334D6E"/>
<path d="M9.99995 8.15415C9.80893 8.15415 9.654 8.30908 9.654 8.5001C9.654 9.13578 9.13681 9.65303 8.50108 9.65303C7.86534 9.65303 7.34815 9.13578 7.34815 8.5001C7.34815 7.86442 7.86534 7.34717 8.50108 7.34717C8.6921 7.34717 8.84702 7.19224 8.84702 7.00122C8.84702 6.8102 8.6921 6.65527 8.50108 6.65527C7.48382 6.65527 6.65625 7.4829 6.65625 8.5001C6.65625 9.5173 7.48387 10.3449 8.50108 10.3449C9.51828 10.3449 10.3459 9.5173 10.3459 8.5001C10.3459 8.30902 10.191 8.15415 9.99995 8.15415Z" fill="#334D6E"/>
<path d="M15.0792 6.65527C14.0619 6.65527 13.2344 7.4829 13.2344 8.5001C13.2344 9.5173 14.062 10.3449 15.0792 10.3449C16.0964 10.3449 16.924 9.5173 16.924 8.5001C16.924 7.4829 16.0965 6.65527 15.0792 6.65527ZM15.0792 9.65303C14.4435 9.65303 13.9263 9.13584 13.9263 8.5001C13.9263 7.86436 14.4435 7.34717 15.0792 7.34717C15.7149 7.34717 16.2321 7.86436 16.2321 8.5001C16.2321 9.13584 15.7149 9.65303 15.0792 9.65303Z" fill="#334D6E"/>
<path d="M1.92295 13.3103C0.90569 13.3103 0.078125 14.1379 0.078125 15.1551C0.078125 16.1723 0.90569 16.9999 1.92295 16.9999C2.94021 16.9999 3.76778 16.1723 3.76778 15.1551C3.76778 14.1379 2.94015 13.3103 1.92295 13.3103ZM1.92295 16.308C1.28727 16.308 0.770021 15.7908 0.770021 15.1551C0.770021 14.5194 1.28721 14.0022 1.92295 14.0022C2.55869 14.0022 3.07588 14.5194 3.07588 15.1551C3.07588 15.7908 2.55869 16.308 1.92295 16.308Z" fill="#334D6E"/>
<path d="M8.50108 13.3103C7.48382 13.3103 6.65625 14.1379 6.65625 15.1551C6.65625 16.1723 7.48387 16.9999 8.50108 16.9999C9.51828 16.9999 10.3459 16.1723 10.3459 15.1551C10.3459 14.1379 9.51828 13.3103 8.50108 13.3103ZM8.50108 16.308C7.86534 16.308 7.34815 15.7908 7.34815 15.1551C7.34815 14.5194 7.86534 14.0022 8.50108 14.0022C9.13681 14.0022 9.654 14.5194 9.654 15.1551C9.654 15.7908 9.13681 16.308 8.50108 16.308Z" fill="#334D6E"/>
<path d="M15.0792 13.3103C14.0619 13.3103 13.2344 14.1379 13.2344 15.1551C13.2344 16.1723 14.062 16.9999 15.0792 16.9999C16.0964 16.9999 16.924 16.1723 16.924 15.1551C16.924 14.1379 16.0965 13.3103 15.0792 13.3103ZM15.0792 16.308C14.4435 16.308 13.9263 15.7908 13.9263 15.1551C13.9263 14.5194 14.4435 14.0022 15.0792 14.0022C15.7149 14.0022 16.2321 14.5194 16.2321 15.1551C16.2321 15.7908 15.7149 16.308 15.0792 16.308Z" fill="#334D6E"/>
</svg>
