<svg width="17" height="17" viewBox="0 0 17 17" fill="none" xmlns="http://www.w3.org/2000/svg">
<path d="M11.5317 12.1084C10.1831 12.1084 9.08594 13.2056 9.08594 14.5541C9.08594 15.9027 10.1831 16.9999 11.5317 16.9999C12.8803 16.9999 13.9775 15.9027 13.9775 14.5541C13.9775 13.2055 12.8803 12.1084 11.5317 12.1084ZM11.5317 16.3081C10.5646 16.3081 9.77783 15.5213 9.77783 14.5542C9.77783 13.5871 10.5646 12.8003 11.5317 12.8003C12.4988 12.8003 13.2856 13.5871 13.2856 14.5542C13.2856 15.5212 12.4988 16.3081 11.5317 16.3081Z" fill="#334D6E"/>
<path d="M7.47095 6.31739C7.55946 6.31739 7.64802 6.28361 7.71554 6.21609L9.77859 4.15309C10.223 4.60824 10.8426 4.89157 11.5275 4.89157C12.8761 4.89157 13.9733 3.7944 13.9733 2.44584C13.9733 1.09729 12.8761 0 11.5275 0C10.1789 0 9.08174 1.09717 9.08174 2.44579C9.08174 2.85804 9.18466 3.24654 9.36559 3.58764L7.22637 5.7268C7.09122 5.8619 7.09122 6.08094 7.22631 6.21603C7.29389 6.28361 7.38239 6.31739 7.47095 6.31739ZM11.5275 0.691894C12.4946 0.691894 13.2814 1.47869 13.2814 2.44579C13.2814 3.41288 12.4946 4.19962 11.5275 4.19962C10.5604 4.19962 9.77364 3.41282 9.77364 2.44579C9.77364 1.47875 10.5604 0.691894 11.5275 0.691894Z" fill="#334D6E"/>
<path d="M9.10879 12.3927L7.06978 10.3537C7.59146 9.90488 7.92277 9.2406 7.92277 8.49999C7.92277 7.15137 6.82565 6.0542 5.47704 6.0542C4.12842 6.0542 3.03125 7.15137 3.03125 8.49999C3.03125 9.8486 4.12848 10.9458 5.47704 10.9458C5.831 10.9458 6.16732 10.8696 6.47129 10.7337L8.61956 12.8819C8.68708 12.9494 8.77564 12.9832 8.86414 12.9832C8.95265 12.9832 9.04121 12.9494 9.10873 12.8819C9.24388 12.7468 9.24388 12.5278 9.10879 12.3927ZM3.72314 8.49999C3.72314 7.53289 4.50994 6.74609 5.47704 6.74609C6.44407 6.74609 7.23087 7.53289 7.23087 8.49999C7.23087 9.46708 6.44413 10.2539 5.47704 10.2539C4.50994 10.2539 3.72314 9.46708 3.72314 8.49999Z" fill="#334D6E"/>
</svg>
