<svg width="17" height="17" viewBox="0 0 17 17" fill="none" xmlns="http://www.w3.org/2000/svg">
<path d="M8.49997 0C3.81308 0 0 3.81308 0 8.49997C0 13.1869 3.81308 16.9999 8.49997 16.9999C11.1348 16.9999 13.5774 15.8078 15.2015 13.7292C15.3192 13.5786 15.2925 13.3612 15.1419 13.2436C14.9913 13.1259 14.7739 13.1526 14.6563 13.3032C13.1642 15.2128 10.9203 16.3081 8.49997 16.3081C4.19461 16.3081 0.691894 12.8054 0.691894 8.49997C0.691894 4.19455 4.19461 0.691894 8.49997 0.691894C12.8053 0.691894 16.3081 4.19461 16.3081 8.49997C16.3081 8.69099 16.463 8.84592 16.654 8.84592C16.845 8.84592 16.9999 8.69099 16.9999 8.49997C17 3.81308 13.1869 0 8.49997 0Z" fill="#334D6E"/>
<path d="M8.3645 13.7745C8.38716 13.779 8.40976 13.7812 8.43213 13.7812C8.5697 13.7812 8.69724 13.6988 8.75161 13.5676L12.3977 4.7652C12.4512 4.63593 12.4216 4.48711 12.3226 4.38817C12.2237 4.28923 12.075 4.25971 11.9456 4.31316L3.1433 7.95927C2.99079 8.02246 2.90419 8.18454 2.93636 8.34638C2.96859 8.50829 3.1106 8.62487 3.27568 8.62487H8.08607V13.4353C8.08607 13.6002 8.20265 13.7423 8.3645 13.7745ZM5.01487 7.93292L11.4388 5.27201L8.7779 11.696V8.27887C8.7779 8.08784 8.62298 7.93292 8.43196 7.93292H5.01487Z" fill="#334D6E"/>
</svg>
