<svg id="Group_7424" data-name="Group 7424" xmlns="http://www.w3.org/2000/svg" xmlns:xlink="http://www.w3.org/1999/xlink" width="547" height="424" viewBox="0 0 547 424">
  <defs>
    <clipPath id="clip-path">
      <rect id="Rectangle_4084" data-name="Rectangle 4084" width="290" height="0.775" transform="translate(235.285 34.881)" fill="#fff"/>
    </clipPath>
  </defs>
  <rect id="Rectangle_4082" data-name="Rectangle 4082" width="547" height="424" rx="10" fill="#fff"/>
  <g id="Group_7420" data-name="Group 7420">
    <rect id="Rectangle_4083" data-name="Rectangle 4083" width="51.988" height="39.599" transform="translate(21.6 58.136)" fill="rgba(51,77,110,0.33)"/>
  </g>
  <path id="Path_4165" data-name="Path 4165" d="M29.928,127.844a.3.3,0,0,1-.3-.3v-4.46a.3.3,0,0,1,.3-.3h3.143a.3.3,0,0,1,.3.3v4.46a.3.3,0,0,1-.3.3Zm0,5.167a.3.3,0,0,1-.3-.3v-1.875a.3.3,0,0,1,.3-.3h3.143a.3.3,0,0,1,.3.3v1.875a.3.3,0,0,1-.3.3Zm6.429,0a.3.3,0,0,1-.3-.3v-4.459a.3.3,0,0,1,.3-.3H39.5a.3.3,0,0,1,.3.3v4.459a.3.3,0,0,1-.3.3Zm-.3-9.927a.3.3,0,0,1,.3-.3H39.5a.3.3,0,0,1,.3.3v1.876a.3.3,0,0,1-.3.3H36.356a.3.3,0,0,1-.3-.3Z" fill="none" stroke="#334d6e" stroke-width="1.4"/>
  <path id="Path_4166" data-name="Path 4166" d="M29.928,152.648a.3.3,0,0,1-.3-.3v-4.459a.3.3,0,0,1,.3-.3h3.143a.3.3,0,0,1,.3.3v4.459a.3.3,0,0,1-.3.3Zm0,5.168a.3.3,0,0,1-.3-.3V155.64a.3.3,0,0,1,.3-.3h3.143a.3.3,0,0,1,.3.3v1.876a.3.3,0,0,1-.3.3Zm6.429,0a.3.3,0,0,1-.3-.3v-4.46a.3.3,0,0,1,.3-.3H39.5a.3.3,0,0,1,.3.3v4.46a.3.3,0,0,1-.3.3Zm-.3-9.927a.3.3,0,0,1,.3-.3H39.5a.3.3,0,0,1,.3.3v1.875a.3.3,0,0,1-.3.3H36.356a.3.3,0,0,1-.3-.3Z" fill="none" stroke="#334d6e" stroke-width="1.4"/>
  <path id="Path_4167" data-name="Path 4167" d="M29.928,177.453a.3.3,0,0,1-.3-.3v-4.46a.3.3,0,0,1,.3-.3h3.143a.3.3,0,0,1,.3.3v4.46a.3.3,0,0,1-.3.3Zm0,5.167a.3.3,0,0,1-.3-.3v-1.876a.3.3,0,0,1,.3-.3h3.143a.3.3,0,0,1,.3.3v1.876a.3.3,0,0,1-.3.3Zm6.429,0a.3.3,0,0,1-.3-.3v-4.459a.3.3,0,0,1,.3-.3H39.5a.3.3,0,0,1,.3.3v4.459a.3.3,0,0,1-.3.3Zm-.3-9.927a.3.3,0,0,1,.3-.3H39.5a.3.3,0,0,1,.3.3v1.876a.3.3,0,0,1-.3.3H36.356a.3.3,0,0,1-.3-.3Z" fill="none" stroke="#334d6e" stroke-width="1.4"/>
  <path id="Path_4168" data-name="Path 4168" d="M29.928,202.257a.3.3,0,0,1-.3-.3V197.5a.3.3,0,0,1,.3-.3h3.143a.3.3,0,0,1,.3.3v4.46a.3.3,0,0,1-.3.3Zm0,5.167a.3.3,0,0,1-.3-.3v-1.875a.3.3,0,0,1,.3-.3h3.143a.3.3,0,0,1,.3.3v1.875a.3.3,0,0,1-.3.3Zm6.429,0a.3.3,0,0,1-.3-.3v-4.459a.3.3,0,0,1,.3-.3H39.5a.3.3,0,0,1,.3.3v4.459a.3.3,0,0,1-.3.3Zm-.3-9.927a.3.3,0,0,1,.3-.3H39.5a.3.3,0,0,1,.3.3v1.876a.3.3,0,0,1-.3.3H36.356a.3.3,0,0,1-.3-.3Z" fill="none" stroke="#334d6e" stroke-width="1.4"/>
  <path id="Path_4169" data-name="Path 4169" d="M29.928,227.061a.3.3,0,0,1-.3-.3V222.3a.3.3,0,0,1,.3-.3h3.143a.3.3,0,0,1,.3.3v4.459a.3.3,0,0,1-.3.3Zm0,5.168a.3.3,0,0,1-.3-.3v-1.876a.3.3,0,0,1,.3-.3h3.143a.3.3,0,0,1,.3.3v1.876a.3.3,0,0,1-.3.3Zm6.429,0a.3.3,0,0,1-.3-.3v-4.46a.3.3,0,0,1,.3-.3H39.5a.3.3,0,0,1,.3.3v4.46a.3.3,0,0,1-.3.3Zm-.3-9.927a.3.3,0,0,1,.3-.3H39.5a.3.3,0,0,1,.3.3v1.875a.3.3,0,0,1-.3.3H36.356a.3.3,0,0,1-.3-.3Z" fill="none" stroke="#334d6e" stroke-width="1.4"/>
  <path id="Path_4170" data-name="Path 4170" d="M190.771,173.631H66.116c-2.857,0-5.172,1.119-5.172,2.5v2.751c0,1.381,2.316,2.5,5.172,2.5H190.771c2.857,0,5.172-1.119,5.172-2.5v-2.751C195.943,174.75,193.628,173.631,190.771,173.631Z" fill="rgba(51,77,110,0.2)"/>
  <path id="Path_4171" data-name="Path 4171" d="M190.771,148.827H66.116c-2.857,0-5.172,1.053-5.172,2.353v2.589c0,1.3,2.316,2.353,5.172,2.353H190.771c2.857,0,5.172-1.054,5.172-2.353V151.18C195.943,149.88,193.628,148.827,190.771,148.827Z" fill="rgba(51,77,110,0.2)"/>
  <path id="Path_4172" data-name="Path 4172" d="M190.771,198.435H66.116c-2.857,0-5.172,1.12-5.172,2.5v2.75c0,1.381,2.316,2.5,5.172,2.5H190.771c2.857,0,5.172-1.12,5.172-2.5v-2.75C195.943,199.555,193.628,198.435,190.771,198.435Z" fill="rgba(51,77,110,0.2)"/>
  <path id="Path_4173" data-name="Path 4173" d="M190.771,223.24H66.116c-2.857,0-5.172,1.119-5.172,2.5v2.751c0,1.381,2.316,2.5,5.172,2.5H190.771c2.857,0,5.172-1.119,5.172-2.5V225.74C195.943,224.359,193.628,223.24,190.771,223.24Z" fill="rgba(51,77,110,0.2)"/>
  <path id="Path_4174" data-name="Path 4174" d="M190.771,122.472H66.116c-2.857,0-5.172,1.119-5.172,2.5v2.751c0,1.381,2.316,2.5,5.172,2.5H190.771c2.857,0,5.172-1.119,5.172-2.5v-2.751C195.943,123.591,193.628,122.472,190.771,122.472Z" fill="rgba(51,77,110,0.2)"/>
  <g id="Group_7421" data-name="Group 7421" clip-path="url(#clip-path)">
    <path id="Path_4175" data-name="Path 4175" d="M513.9,35H246.385c-6.13,0-11.1.095-11.1.212v.233c0,.117,4.97.212,11.1.212H513.9c6.13,0,11.1-.095,11.1-.212v-.233C525,35.095,520.03,35,513.9,35Z" fill="rgba(51,77,110,0.2)"/>
  </g>
  <path id="Path_4176" data-name="Path 4176" d="M433.49,163H318.51c-9.671,0-17.51,4.6-17.51,10.28v56.953c0,5.678,7.839,10.281,17.51,10.281H433.49c9.671,0,17.51-4.6,17.51-10.281V173.28C451,167.6,443.161,163,433.49,163Z" fill="#f7fafe"/>
  <path id="Path_4177" data-name="Path 4177" d="M433.491,163.171H318.511c-9.509,0-17.218,4.526-17.218,10.109v56.953c0,5.583,7.709,10.109,17.218,10.109h114.98c9.509,0,17.218-4.526,17.218-10.109V173.28C450.709,167.7,443,163.171,433.491,163.171Z" fill="none" stroke="#6bc1ff" stroke-width="0.25"/>
  <path id="Path_4178" data-name="Path 4178" d="M434.211,178H318.789c-2.645,0-4.789.722-4.789,1.613v1.774c0,.891,2.144,1.613,4.789,1.613H434.211c2.645,0,4.789-.722,4.789-1.613v-1.774C439,178.722,436.856,178,434.211,178Z" fill="rgba(51,77,110,0.15)"/>
  <path id="Path_4179" data-name="Path 4179" d="M0,10A10,10,0,0,1,10,0H202.914a10,10,0,0,1,10,10V413.225a10,10,0,0,1-10,10H10a10,10,0,0,1-10-10Z" fill="rgba(175,204,242,0.1)"/>
  <path id="Path_4180" data-name="Path 4180" d="M0,10A10,10,0,0,1,10,0H202.914a10,10,0,0,1,10,10V413.225a10,10,0,0,1-10,10H10a10,10,0,0,1-10-10Z" fill="none"/>
  <path id="Path_4182" data-name="Path 4182" d="M434.211,198H318.789c-2.645,0-4.789.722-4.789,1.613v1.774c0,.891,2.144,1.613,4.789,1.613H434.211c2.645,0,4.789-.722,4.789-1.613v-1.774C439,198.722,436.856,198,434.211,198Z" fill="rgba(51,77,110,0.15)"/>
  <path id="Path_4183" data-name="Path 4183" d="M434.211,221H318.789c-2.645,0-4.789.722-4.789,1.613v1.774c0,.891,2.144,1.613,4.789,1.613H434.211c2.645,0,4.789-.722,4.789-1.613v-1.774C439,221.722,436.856,221,434.211,221Z" fill="rgba(51,77,110,0.15)"/>
  <path id="Path_4184" data-name="Path 4184" d="M303.138,59H244.005C239.032,59,235,63.6,235,69.28v56.953c0,5.678,4.032,10.281,9.005,10.281h59.133c4.973,0,9.005-4.6,9.005-10.281V69.28C312.143,63.6,308.111,59,303.138,59Z" fill="#f7fafe"/>
  <path id="Path_4185" data-name="Path 4185" d="M303.14,59.172H244.007c-4.89,0-8.855,4.526-8.855,10.109v56.953c0,5.583,3.965,10.109,8.855,10.109H303.14c4.891,0,8.855-4.526,8.855-10.109V69.281C311.995,63.7,308.031,59.172,303.14,59.172Z" fill="none" stroke="#6bc1ff" stroke-width="0.25"/>
  <path id="Path_4186" data-name="Path 4186" d="M298.084,75H251.916A1.784,1.784,0,0,0,250,76.613v1.774A1.784,1.784,0,0,0,251.916,80h46.168A1.784,1.784,0,0,0,300,78.387V76.613A1.784,1.784,0,0,0,298.084,75Z" fill="rgba(51,77,110,0.15)"/>
  <path id="Path_4187" data-name="Path 4187" d="M297.084,95H250.916A1.784,1.784,0,0,0,249,96.613v1.774A1.784,1.784,0,0,0,250.916,100h46.168A1.784,1.784,0,0,0,299,98.387V96.613A1.784,1.784,0,0,0,297.084,95Z" fill="rgba(51,77,110,0.15)"/>
  <path id="Path_4188" data-name="Path 4188" d="M297.084,114H250.916A1.784,1.784,0,0,0,249,115.613v1.774A1.784,1.784,0,0,0,250.916,119h46.168A1.784,1.784,0,0,0,299,117.387v-1.774A1.784,1.784,0,0,0,297.084,114Z" fill="rgba(51,77,110,0.15)"/>
  <path id="Path_4189" data-name="Path 4189" d="M356.211,18H240.789c-2.645,0-4.789.722-4.789,1.613v1.774c0,.891,2.144,1.613,4.789,1.613H356.211c2.645,0,4.789-.722,4.789-1.613V19.613C361,18.722,358.856,18,356.211,18Z" fill="rgba(51,77,110,0.15)"/>
  <path id="Path_4190" data-name="Path 4190" d="M513.138,58H454.005C449.032,58,445,62.6,445,68.28v56.953c0,5.678,4.032,10.281,9.005,10.281h59.133c4.973,0,9.005-4.6,9.005-10.281V68.28C522.143,62.6,518.111,58,513.138,58Z" fill="#f7fafe"/>
  <path id="Path_4191" data-name="Path 4191" d="M513.14,58.172H454.007c-4.89,0-8.855,4.526-8.855,10.109v56.953c0,5.583,3.965,10.109,8.855,10.109H513.14c4.891,0,8.855-4.526,8.855-10.109V68.281C521.995,62.7,518.031,58.172,513.14,58.172Z" fill="none" stroke="#6bc1ff" stroke-width="0.25"/>
  <path id="Path_4192" data-name="Path 4192" d="M508.084,74H461.916A1.784,1.784,0,0,0,460,75.613v1.774A1.784,1.784,0,0,0,461.916,79h46.168A1.784,1.784,0,0,0,510,77.387V75.613A1.784,1.784,0,0,0,508.084,74Z" fill="rgba(51,77,110,0.15)"/>
  <path id="Path_4193" data-name="Path 4193" d="M507.084,94H460.916A1.784,1.784,0,0,0,459,95.613v1.774A1.784,1.784,0,0,0,460.916,99h46.168A1.784,1.784,0,0,0,509,97.387V95.613A1.784,1.784,0,0,0,507.084,94Z" fill="rgba(51,77,110,0.15)"/>
  <path id="Path_4194" data-name="Path 4194" d="M507.084,113H460.916A1.784,1.784,0,0,0,459,114.613v1.774A1.784,1.784,0,0,0,460.916,118h46.168A1.784,1.784,0,0,0,509,116.387v-1.774A1.784,1.784,0,0,0,507.084,113Z" fill="rgba(51,77,110,0.15)"/>
  <path id="Path_4195" data-name="Path 4195" d="M513.138,58H454.005C449.032,58,445,62.6,445,68.28v56.953c0,5.678,4.032,10.281,9.005,10.281h59.133c4.973,0,9.005-4.6,9.005-10.281V68.28C522.143,62.6,518.111,58,513.138,58Z" fill="#f7fafe"/>
  <path id="Path_4196" data-name="Path 4196" d="M513.14,58.172H454.007c-4.89,0-8.855,4.526-8.855,10.109v56.953c0,5.583,3.965,10.109,8.855,10.109H513.14c4.891,0,8.855-4.526,8.855-10.109V68.281C521.995,62.7,518.031,58.172,513.14,58.172Z" fill="none" stroke="#6bc1ff" stroke-width="0.25"/>
  <path id="Path_4197" data-name="Path 4197" d="M508.084,74H461.916A1.784,1.784,0,0,0,460,75.613v1.774A1.784,1.784,0,0,0,461.916,79h46.168A1.784,1.784,0,0,0,510,77.387V75.613A1.784,1.784,0,0,0,508.084,74Z" fill="rgba(51,77,110,0.15)"/>
  <path id="Path_4198" data-name="Path 4198" d="M507.084,94H460.916A1.784,1.784,0,0,0,459,95.613v1.774A1.784,1.784,0,0,0,460.916,99h46.168A1.784,1.784,0,0,0,509,97.387V95.613A1.784,1.784,0,0,0,507.084,94Z" fill="rgba(51,77,110,0.15)"/>
  <path id="Path_4199" data-name="Path 4199" d="M507.084,113H460.916A1.784,1.784,0,0,0,459,114.613v1.774A1.784,1.784,0,0,0,460.916,118h46.168A1.784,1.784,0,0,0,509,116.387v-1.774A1.784,1.784,0,0,0,507.084,113Z" fill="rgba(51,77,110,0.15)"/>
  <path id="Path_4200" data-name="Path 4200" d="M304.138,266H245.005c-4.973,0-9.005,4.6-9.005,10.28v56.953c0,5.678,4.032,10.281,9.005,10.281h59.133c4.973,0,9.005-4.6,9.005-10.281V276.28C313.143,270.6,309.111,266,304.138,266Z" fill="#f7fafe"/>
  <path id="Path_4201" data-name="Path 4201" d="M304.14,266.172H245.007c-4.89,0-8.855,4.526-8.855,10.109v56.953c0,5.583,3.965,10.109,8.855,10.109H304.14c4.891,0,8.855-4.526,8.855-10.109V276.281C312.995,270.7,309.031,266.172,304.14,266.172Z" fill="none" stroke="#6bc1ff" stroke-width="0.25"/>
  <path id="Path_4202" data-name="Path 4202" d="M299.084,282H252.916A1.784,1.784,0,0,0,251,283.613v1.774A1.784,1.784,0,0,0,252.916,287h46.168A1.784,1.784,0,0,0,301,285.387v-1.774A1.784,1.784,0,0,0,299.084,282Z" fill="rgba(51,77,110,0.15)"/>
  <path id="Path_4203" data-name="Path 4203" d="M298.084,302H251.916A1.784,1.784,0,0,0,250,303.613v1.774A1.784,1.784,0,0,0,251.916,307h46.168A1.784,1.784,0,0,0,300,305.387v-1.774A1.784,1.784,0,0,0,298.084,302Z" fill="rgba(51,77,110,0.15)"/>
  <path id="Path_4204" data-name="Path 4204" d="M298.084,321H251.916A1.784,1.784,0,0,0,250,322.613v1.774A1.784,1.784,0,0,0,251.916,326h46.168A1.784,1.784,0,0,0,300,324.387v-1.774A1.784,1.784,0,0,0,298.084,321Z" fill="rgba(51,77,110,0.15)"/>
  <path id="Path_4205" data-name="Path 4205" d="M513.138,263H454.005c-4.973,0-9.005,4.6-9.005,10.28v56.953c0,5.678,4.032,10.281,9.005,10.281h59.133c4.973,0,9.005-4.6,9.005-10.281V273.28C522.143,267.6,518.111,263,513.138,263Z" fill="#f7fafe"/>
  <path id="Path_4206" data-name="Path 4206" d="M513.14,263.172H454.007c-4.89,0-8.855,4.526-8.855,10.109v56.953c0,5.583,3.965,10.109,8.855,10.109H513.14c4.891,0,8.855-4.526,8.855-10.109V273.281C521.995,267.7,518.031,263.172,513.14,263.172Z" fill="none" stroke="#6bc1ff" stroke-width="0.25"/>
  <path id="Path_4207" data-name="Path 4207" d="M508.084,279H461.916A1.784,1.784,0,0,0,460,280.613v1.774A1.784,1.784,0,0,0,461.916,284h46.168A1.784,1.784,0,0,0,510,282.387v-1.774A1.784,1.784,0,0,0,508.084,279Z" fill="rgba(51,77,110,0.15)"/>
  <path id="Path_4208" data-name="Path 4208" d="M507.084,299H460.916A1.784,1.784,0,0,0,459,300.613v1.774A1.784,1.784,0,0,0,460.916,304h46.168A1.784,1.784,0,0,0,509,302.387v-1.774A1.784,1.784,0,0,0,507.084,299Z" fill="rgba(51,77,110,0.15)"/>
  <path id="Path_4209" data-name="Path 4209" d="M507.084,318H460.916A1.784,1.784,0,0,0,459,319.613v1.774A1.784,1.784,0,0,0,460.916,323h46.168A1.784,1.784,0,0,0,509,321.387v-1.774A1.784,1.784,0,0,0,507.084,318Z" fill="rgba(51,77,110,0.15)"/>
  <path id="Path_4211" data-name="Path 4211" d="M132.169,265H39.831C37.715,265,36,266.119,36,267.5v2.751c0,1.381,1.715,2.5,3.831,2.5h92.338c2.116,0,3.831-1.119,3.831-2.5V267.5C136,266.119,134.285,265,132.169,265Z" fill="rgba(51,77,110,0.15)"/>
  <path id="Path_4212" data-name="Path 4212" d="M155.169,289H62.831C60.715,289,59,290.119,59,291.5v2.751c0,1.381,1.715,2.5,3.831,2.5h92.338c2.116,0,3.831-1.119,3.831-2.5V291.5C159,290.119,157.285,289,155.169,289Z" fill="rgba(51,77,110,0.15)"/>
  <path id="Path_4213" data-name="Path 4213" d="M155.169,313H62.831C60.715,313,59,314.119,59,315.5v2.751c0,1.381,1.715,2.5,3.831,2.5h92.338c2.116,0,3.831-1.119,3.831-2.5V315.5C159,314.119,157.285,313,155.169,313Z" fill="rgba(51,77,110,0.15)"/>
  <path id="Path_4214" data-name="Path 4214" d="M155.169,338H62.831C60.715,338,59,339.119,59,340.5v2.751c0,1.381,1.715,2.5,3.831,2.5h92.338c2.116,0,3.831-1.119,3.831-2.5V340.5C159,339.119,157.285,338,155.169,338Z" fill="rgba(51,77,110,0.15)"/>
</svg>
