<svg xmlns="http://www.w3.org/2000/svg" xmlns:xlink="http://www.w3.org/1999/xlink" width="547" height="424" viewBox="0 0 547 424">
  <defs>
    <clipPath id="clip-path">
      <rect id="Rectangle_4089" data-name="Rectangle 4089" width="278.947" height="0.775" transform="translate(243.082 34.881)" fill="#fff"/>
    </clipPath>
  </defs>
  <g id="Group_7430" data-name="Group 7430" transform="translate(-6813 -2682)">
    <g id="Group_7428" data-name="Group 7428" transform="translate(6813 2682)">
      <rect id="Rectangle_4087" data-name="Rectangle 4087" width="547" height="424" rx="10" fill="#fff"/>
      <g id="Group_7425" data-name="Group 7425">
        <rect id="Rectangle_4088" data-name="Rectangle 4088" width="53.71" height="39.599" transform="translate(22.315 58.136)" fill="rgba(51,77,110,0.33)"/>
      </g>
      <path id="Path_4217" data-name="Path 4217" d="M30.887,127.844a.3.3,0,0,1-.3-.3v-4.46a.3.3,0,0,1,.3-.3H34.2a.3.3,0,0,1,.3.3v4.46a.3.3,0,0,1-.3.3Zm0,5.167a.3.3,0,0,1-.3-.3v-1.875a.3.3,0,0,1,.3-.3H34.2a.3.3,0,0,1,.3.3v1.875a.3.3,0,0,1-.3.3Zm6.642,0a.3.3,0,0,1-.3-.3v-4.459a.3.3,0,0,1,.3-.3h3.313a.3.3,0,0,1,.3.3v4.459a.3.3,0,0,1-.3.3Zm-.3-9.927a.3.3,0,0,1,.3-.3h3.313a.3.3,0,0,1,.3.3v1.876a.3.3,0,0,1-.3.3H37.528a.3.3,0,0,1-.3-.3Z" fill="none" stroke="#334d6e" stroke-width="1.4"/>
      <path id="Path_4218" data-name="Path 4218" d="M30.887,152.648a.3.3,0,0,1-.3-.3v-4.459a.3.3,0,0,1,.3-.3H34.2a.3.3,0,0,1,.3.3v4.459a.3.3,0,0,1-.3.3Zm0,5.168a.3.3,0,0,1-.3-.3V155.64a.3.3,0,0,1,.3-.3H34.2a.3.3,0,0,1,.3.3v1.876a.3.3,0,0,1-.3.3Zm6.642,0a.3.3,0,0,1-.3-.3v-4.46a.3.3,0,0,1,.3-.3h3.313a.3.3,0,0,1,.3.3v4.46a.3.3,0,0,1-.3.3Zm-.3-9.927a.3.3,0,0,1,.3-.3h3.313a.3.3,0,0,1,.3.3v1.875a.3.3,0,0,1-.3.3H37.528a.3.3,0,0,1-.3-.3Z" fill="none" stroke="#334d6e" stroke-width="1.4"/>
      <path id="Path_4219" data-name="Path 4219" d="M30.887,177.453a.3.3,0,0,1-.3-.3v-4.46a.3.3,0,0,1,.3-.3H34.2a.3.3,0,0,1,.3.3v4.46a.3.3,0,0,1-.3.3Zm0,5.167a.3.3,0,0,1-.3-.3v-1.876a.3.3,0,0,1,.3-.3H34.2a.3.3,0,0,1,.3.3v1.876a.3.3,0,0,1-.3.3Zm6.642,0a.3.3,0,0,1-.3-.3v-4.459a.3.3,0,0,1,.3-.3h3.313a.3.3,0,0,1,.3.3v4.459a.3.3,0,0,1-.3.3Zm-.3-9.927a.3.3,0,0,1,.3-.3h3.313a.3.3,0,0,1,.3.3v1.876a.3.3,0,0,1-.3.3H37.528a.3.3,0,0,1-.3-.3Z" fill="none" stroke="#334d6e" stroke-width="1.4"/>
      <path id="Path_4220" data-name="Path 4220" d="M30.887,202.257a.3.3,0,0,1-.3-.3V197.5a.3.3,0,0,1,.3-.3H34.2a.3.3,0,0,1,.3.3v4.46a.3.3,0,0,1-.3.3Zm0,5.167a.3.3,0,0,1-.3-.3v-1.875a.3.3,0,0,1,.3-.3H34.2a.3.3,0,0,1,.3.3v1.875a.3.3,0,0,1-.3.3Zm6.642,0a.3.3,0,0,1-.3-.3v-4.459a.3.3,0,0,1,.3-.3h3.313a.3.3,0,0,1,.3.3v4.459a.3.3,0,0,1-.3.3Zm-.3-9.927a.3.3,0,0,1,.3-.3h3.313a.3.3,0,0,1,.3.3v1.876a.3.3,0,0,1-.3.3H37.528a.3.3,0,0,1-.3-.3Z" fill="none" stroke="#334d6e" stroke-width="1.4"/>
      <path id="Path_4221" data-name="Path 4221" d="M30.887,227.061a.3.3,0,0,1-.3-.3V222.3a.3.3,0,0,1,.3-.3H34.2a.3.3,0,0,1,.3.3v4.459a.3.3,0,0,1-.3.3Zm0,5.168a.3.3,0,0,1-.3-.3v-1.876a.3.3,0,0,1,.3-.3H34.2a.3.3,0,0,1,.3.3v1.876a.3.3,0,0,1-.3.3Zm6.642,0a.3.3,0,0,1-.3-.3v-4.46a.3.3,0,0,1,.3-.3h3.313a.3.3,0,0,1,.3.3v4.46a.3.3,0,0,1-.3.3Zm-.3-9.927a.3.3,0,0,1,.3-.3h3.313a.3.3,0,0,1,.3.3v1.875a.3.3,0,0,1-.3.3H37.528a.3.3,0,0,1-.3-.3Z" fill="none" stroke="#334d6e" stroke-width="1.4"/>
      <path id="Path_4222" data-name="Path 4222" d="M197.093,173.631H68.307c-2.951,0-5.344,1.119-5.344,2.5v2.751c0,1.381,2.393,2.5,5.344,2.5H197.093c2.951,0,5.344-1.119,5.344-2.5v-2.751C202.437,174.75,200.044,173.631,197.093,173.631Z" fill="rgba(51,77,110,0.2)"/>
      <path id="Path_4223" data-name="Path 4223" d="M197.093,148.827H68.307c-2.951,0-5.344,1.053-5.344,2.353v2.589c0,1.3,2.393,2.353,5.344,2.353H197.093c2.951,0,5.344-1.054,5.344-2.353V151.18C202.437,149.88,200.044,148.827,197.093,148.827Z" fill="rgba(51,77,110,0.2)"/>
      <path id="Path_4224" data-name="Path 4224" d="M197.093,198.435H68.307c-2.951,0-5.344,1.12-5.344,2.5v2.75c0,1.381,2.393,2.5,5.344,2.5H197.093c2.951,0,5.344-1.12,5.344-2.5v-2.75C202.437,199.555,200.044,198.435,197.093,198.435Z" fill="rgba(51,77,110,0.2)"/>
      <path id="Path_4225" data-name="Path 4225" d="M197.093,223.24H68.307c-2.951,0-5.344,1.119-5.344,2.5v2.751c0,1.381,2.393,2.5,5.344,2.5H197.093c2.951,0,5.344-1.119,5.344-2.5V225.74C202.437,224.359,200.044,223.24,197.093,223.24Z" fill="rgba(51,77,110,0.2)"/>
      <g id="Group_7426" data-name="Group 7426" clip-path="url(#clip-path)">
        <path id="Path_4226" data-name="Path 4226" d="M511.342,34.881H253.77c-5.9,0-10.688.112-10.688.25v.275c0,.138,4.785.25,10.688.25H511.342c5.9,0,10.687-.112,10.687-.25v-.275C522.029,34.993,517.244,34.881,511.342,34.881Z" fill="rgba(51,77,110,0.2)"/>
      </g>
      <path id="Path_4227" data-name="Path 4227" d="M447.855,163H329.065c-9.991,0-18.09,4.6-18.09,10.28v56.953c0,5.678,8.1,10.281,18.09,10.281h118.79c9.991,0,18.09-4.6,18.09-10.281V173.28C465.945,167.6,457.846,163,447.855,163Z" fill="#f7fafe"/>
      <path id="Path_4228" data-name="Path 4228" d="M447.856,163.171H329.066c-9.824,0-17.789,4.526-17.789,10.109v56.953c0,5.583,7.965,10.109,17.789,10.109h118.79c9.825,0,17.789-4.526,17.789-10.109V173.28C465.645,167.7,457.681,163.171,447.856,163.171Z" fill="none" stroke="#6bc1ff" stroke-width="0.25"/>
      <path id="Path_4231" data-name="Path 4231" d="M0,10A10,10,0,0,1,10,0H209.97a10,10,0,0,1,10,10V413.225a10,10,0,0,1-10,10H10a10,10,0,0,1-10-10Z" fill="none"/>
      <path id="Path_4233" data-name="Path 4233" d="M303.138,59H244.005C239.032,59,235,63.6,235,69.28v56.953c0,5.678,4.032,10.281,9.005,10.281h59.133c4.973,0,9.005-4.6,9.005-10.281V69.28C312.143,63.6,308.111,59,303.138,59Z" fill="#f7fafe"/>
      <path id="Path_4234" data-name="Path 4234" d="M303.14,59.172H244.007c-4.89,0-8.855,4.526-8.855,10.109v56.953c0,5.583,3.965,10.109,8.855,10.109H303.14c4.891,0,8.855-4.526,8.855-10.109V69.281C311.995,63.7,308.031,59.172,303.14,59.172Z" fill="none" stroke="#6bc1ff" stroke-width="0.25"/>
      <path id="Path_4235" data-name="Path 4235" d="M298.084,75H251.916A1.784,1.784,0,0,0,250,76.613v1.774A1.784,1.784,0,0,0,251.916,80h46.168A1.784,1.784,0,0,0,300,78.387V76.613A1.784,1.784,0,0,0,298.084,75Z" fill="rgba(51,77,110,0.15)"/>
      <path id="Path_4236" data-name="Path 4236" d="M297.084,95H250.916A1.784,1.784,0,0,0,249,96.613v1.774A1.784,1.784,0,0,0,250.916,100h46.168A1.784,1.784,0,0,0,299,98.387V96.613A1.784,1.784,0,0,0,297.084,95Z" fill="rgba(51,77,110,0.15)"/>
      <path id="Path_4237" data-name="Path 4237" d="M297.084,114H250.916A1.784,1.784,0,0,0,249,115.613v1.774A1.784,1.784,0,0,0,250.916,119h46.168A1.784,1.784,0,0,0,299,117.387v-1.774A1.784,1.784,0,0,0,297.084,114Z" fill="rgba(51,77,110,0.15)"/>
      <path id="Path_4238" data-name="Path 4238" d="M513.138,58H454.005C449.032,58,445,62.6,445,68.28v56.953c0,5.678,4.032,10.281,9.005,10.281h59.133c4.973,0,9.005-4.6,9.005-10.281V68.28C522.143,62.6,518.111,58,513.138,58Z" fill="#f7fafe"/>
      <path id="Path_4239" data-name="Path 4239" d="M513.14,58.172H454.007c-4.89,0-8.855,4.526-8.855,10.109v56.953c0,5.583,3.965,10.109,8.855,10.109H513.14c4.891,0,8.855-4.526,8.855-10.109V68.281C521.995,62.7,518.031,58.172,513.14,58.172Z" fill="none" stroke="#6bc1ff" stroke-width="0.25"/>
      <path id="Path_4240" data-name="Path 4240" d="M508.084,74H461.916A1.784,1.784,0,0,0,460,75.613v1.774A1.784,1.784,0,0,0,461.916,79h46.168A1.784,1.784,0,0,0,510,77.387V75.613A1.784,1.784,0,0,0,508.084,74Z" fill="rgba(51,77,110,0.15)"/>
      <path id="Path_4241" data-name="Path 4241" d="M507.084,94H460.916A1.784,1.784,0,0,0,459,95.613v1.774A1.784,1.784,0,0,0,460.916,99h46.168A1.784,1.784,0,0,0,509,97.387V95.613A1.784,1.784,0,0,0,507.084,94Z" fill="rgba(51,77,110,0.15)"/>
      <path id="Path_4242" data-name="Path 4242" d="M507.084,113H460.916A1.784,1.784,0,0,0,459,114.613v1.774A1.784,1.784,0,0,0,460.916,118h46.168A1.784,1.784,0,0,0,509,116.387v-1.774A1.784,1.784,0,0,0,507.084,113Z" fill="rgba(51,77,110,0.15)"/>
      <path id="Path_4243" data-name="Path 4243" d="M513.138,58H454.005C449.032,58,445,62.6,445,68.28v56.953c0,5.678,4.032,10.281,9.005,10.281h59.133c4.973,0,9.005-4.6,9.005-10.281V68.28C522.143,62.6,518.111,58,513.138,58Z" fill="#f7fafe"/>
      <path id="Path_4244" data-name="Path 4244" d="M513.14,58.172H454.007c-4.89,0-8.855,4.526-8.855,10.109v56.953c0,5.583,3.965,10.109,8.855,10.109H513.14c4.891,0,8.855-4.526,8.855-10.109V68.281C521.995,62.7,518.031,58.172,513.14,58.172Z" fill="none" stroke="#6bc1ff" stroke-width="0.25"/>
      <path id="Path_4245" data-name="Path 4245" d="M508.084,74H461.916A1.784,1.784,0,0,0,460,75.613v1.774A1.784,1.784,0,0,0,461.916,79h46.168A1.784,1.784,0,0,0,510,77.387V75.613A1.784,1.784,0,0,0,508.084,74Z" fill="rgba(51,77,110,0.15)"/>
      <path id="Path_4246" data-name="Path 4246" d="M507.084,94H460.916A1.784,1.784,0,0,0,459,95.613v1.774A1.784,1.784,0,0,0,460.916,99h46.168A1.784,1.784,0,0,0,509,97.387V95.613A1.784,1.784,0,0,0,507.084,94Z" fill="rgba(51,77,110,0.15)"/>
      <path id="Path_4247" data-name="Path 4247" d="M507.084,113H460.916A1.784,1.784,0,0,0,459,114.613v1.774A1.784,1.784,0,0,0,460.916,118h46.168A1.784,1.784,0,0,0,509,116.387v-1.774A1.784,1.784,0,0,0,507.084,113Z" fill="rgba(51,77,110,0.15)"/>
      <path id="Path_4248" data-name="Path 4248" d="M514.138,264H455.005c-4.973,0-9.005,4.6-9.005,10.28v56.953c0,5.678,4.032,10.281,9.005,10.281h59.133c4.973,0,9.005-4.6,9.005-10.281V274.28C523.143,268.6,519.111,264,514.138,264Z" fill="#f7fafe"/>
      <path id="Path_4249" data-name="Path 4249" d="M514.14,264.172H455.007c-4.89,0-8.855,4.526-8.855,10.109v56.953c0,5.583,3.965,10.109,8.855,10.109H514.14c4.891,0,8.855-4.526,8.855-10.109V274.281C522.995,268.7,519.031,264.172,514.14,264.172Z" fill="none" stroke="#6bc1ff" stroke-width="0.25"/>
      <path id="Path_4250" data-name="Path 4250" d="M509.084,280H462.916A1.784,1.784,0,0,0,461,281.613v1.774A1.784,1.784,0,0,0,462.916,285h46.168A1.784,1.784,0,0,0,511,283.387v-1.774A1.784,1.784,0,0,0,509.084,280Z" fill="rgba(51,77,110,0.15)"/>
      <path id="Path_4251" data-name="Path 4251" d="M508.084,300H461.916A1.784,1.784,0,0,0,460,301.613v1.774A1.784,1.784,0,0,0,461.916,305h46.168A1.784,1.784,0,0,0,510,303.387v-1.774A1.784,1.784,0,0,0,508.084,300Z" fill="rgba(51,77,110,0.15)"/>
      <path id="Path_4252" data-name="Path 4252" d="M508.084,319H461.916A1.784,1.784,0,0,0,460,320.613v1.774A1.784,1.784,0,0,0,461.916,324h46.168A1.784,1.784,0,0,0,510,322.387v-1.774A1.784,1.784,0,0,0,508.084,319Z" fill="rgba(51,77,110,0.15)"/>
      <path id="Path_4253" data-name="Path 4253" d="M304.138,266H245.005c-4.973,0-9.005,4.6-9.005,10.28v56.953c0,5.678,4.032,10.281,9.005,10.281h59.133c4.973,0,9.005-4.6,9.005-10.281V276.28C313.143,270.6,309.111,266,304.138,266Z" fill="#f7fafe"/>
      <path id="Path_4254" data-name="Path 4254" d="M304.14,266.172H245.007c-4.89,0-8.855,4.526-8.855,10.109v56.953c0,5.583,3.965,10.109,8.855,10.109H304.14c4.891,0,8.855-4.526,8.855-10.109V276.281C312.995,270.7,309.031,266.172,304.14,266.172Z" fill="none" stroke="#6bc1ff" stroke-width="0.25"/>
      <path id="Path_4255" data-name="Path 4255" d="M299.084,282H252.916A1.784,1.784,0,0,0,251,283.613v1.774A1.784,1.784,0,0,0,252.916,287h46.168A1.784,1.784,0,0,0,301,285.387v-1.774A1.784,1.784,0,0,0,299.084,282Z" fill="rgba(51,77,110,0.15)"/>
      <path id="Path_4256" data-name="Path 4256" d="M298.084,302H251.916A1.784,1.784,0,0,0,250,303.613v1.774A1.784,1.784,0,0,0,251.916,307h46.168A1.784,1.784,0,0,0,300,305.387v-1.774A1.784,1.784,0,0,0,298.084,302Z" fill="rgba(51,77,110,0.15)"/>
      <path id="Path_4257" data-name="Path 4257" d="M298.084,321H251.916A1.784,1.784,0,0,0,250,322.613v1.774A1.784,1.784,0,0,0,251.916,326h46.168A1.784,1.784,0,0,0,300,324.387v-1.774A1.784,1.784,0,0,0,298.084,321Z" fill="rgba(51,77,110,0.15)"/>
      <path id="Path_4259" data-name="Path 4259" d="M155.169,292H62.831C60.715,292,59,293.119,59,294.5v2.751c0,1.381,1.715,2.5,3.831,2.5h92.338c2.116,0,3.831-1.119,3.831-2.5V294.5C159,293.119,157.285,292,155.169,292Z" fill="rgba(51,77,110,0.15)"/>
      <path id="Path_4260" data-name="Path 4260" d="M128.169,265H35.831C33.715,265,32,266.119,32,267.5v2.751c0,1.381,1.715,2.5,3.831,2.5h92.338c2.116,0,3.831-1.119,3.831-2.5V267.5C132,266.119,130.285,265,128.169,265Z" fill="rgba(51,77,110,0.15)"/>
      <path id="Path_4261" data-name="Path 4261" d="M155.169,316H62.831C60.715,316,59,317.119,59,318.5v2.751c0,1.381,1.715,2.5,3.831,2.5h92.338c2.116,0,3.831-1.119,3.831-2.5V318.5C159,317.119,157.285,316,155.169,316Z" fill="rgba(51,77,110,0.15)"/>
      <path id="Path_4262" data-name="Path 4262" d="M155.169,341H62.831C60.715,341,59,342.119,59,343.5v2.751c0,1.381,1.715,2.5,3.831,2.5h92.338c2.116,0,3.831-1.119,3.831-2.5V343.5C159,342.119,157.285,341,155.169,341Z" fill="rgba(51,77,110,0.15)"/>
    </g>
    <path id="Path_4263" data-name="Path 4263" d="M0,10A10,10,0,0,1,10,0H202.914a10,10,0,0,1,10,10V413.225a10,10,0,0,1-10,10H10a10,10,0,0,1-10-10Z" transform="translate(6813 2682)" fill="rgba(175,204,242,0.1)"/>
  </g>
</svg>
