<svg width="90" height="90" viewBox="0 0 90 90" fill="none" xmlns="http://www.w3.org/2000/svg">
<g clip-path="url(#clip0)">
<path d="M89.9897 32.5664V81.3608C89.9897 83.8636 88.9247 86.1172 87.2239 87.6951C85.681 89.1254 83.6169 89.9995 81.349 89.9995H8.63869C6.3707 89.9995 4.30664 89.1254 2.76581 87.6965C1.06499 86.1172 0 83.8636 0 81.3608V32.5664H89.9897Z" fill="#FEC970"/>
<path d="M89.9897 32.5654L55.3999 3.76407C49.3712 -1.25599 40.6185 -1.25599 34.5898 3.76407L0 32.5654H0.000686646L10.1953 41.0537L34.5898 61.3654C40.6192 66.3868 49.3719 66.3868 55.3992 61.3654L79.7958 41.0537L89.9904 32.5654" fill="#FBA028"/>
<path d="M79.7958 14.5918V41.0544L55.3992 61.3661C49.3719 66.3875 40.6192 66.3875 34.5898 61.3661L10.1953 41.0544V14.5918C10.1953 9.07457 14.6688 4.60107 20.1874 4.60107H69.8051C75.3236 4.60107 79.7958 9.07457 79.7958 14.5918Z" fill="#BFDADD"/>
<path d="M79.7958 14.5918V34.9934L55.3992 55.3057C49.3719 60.3265 40.6192 60.3265 34.5898 55.3057L10.1953 34.9934V14.5918C10.1953 9.07457 14.6688 4.60107 20.1874 4.60107H69.8051C75.3236 4.60107 79.7958 9.07457 79.7958 14.5918Z" fill="#E4F5F7"/>
<path d="M65.1963 39.5336H24.7934C24.0326 39.5336 23.416 38.917 23.416 38.1562C23.416 37.3961 24.0326 36.7788 24.7934 36.7788H65.1963C65.9571 36.7788 66.5737 37.3961 66.5737 38.1562C66.5737 38.917 65.9571 39.5336 65.1963 39.5336Z" fill="#4B5051"/>
<path d="M65.1963 47.5336H24.7934C24.0326 47.5336 23.416 46.917 23.416 46.1562C23.416 45.3954 24.0326 44.7788 24.7934 44.7788H65.1963C65.9571 44.7788 66.5737 45.3954 66.5737 46.1562C66.5737 46.917 65.9571 47.5336 65.1963 47.5336Z" fill="#4B5051"/>
<path d="M65.1963 23.5346H24.7934C24.0326 23.5346 23.416 22.918 23.416 22.1572C23.416 21.3964 24.0326 20.7798 24.7934 20.7798H65.1963C65.9571 20.7798 66.5737 21.3964 66.5737 22.1572C66.5737 22.918 65.9571 23.5346 65.1963 23.5346Z" fill="#4B5051"/>
<path d="M65.1963 31.5341H24.7934C24.0326 31.5341 23.416 30.9175 23.416 30.1567C23.416 29.3959 24.0326 28.7793 24.7934 28.7793H65.1963C65.9571 28.7793 66.5737 29.3959 66.5737 30.1567C66.5737 30.9175 65.9571 31.5341 65.1963 31.5341Z" fill="#4B5051"/>
<path d="M88.1537 19.2835C88.1537 29.8833 79.561 38.476 68.962 38.476C58.3622 38.476 49.7695 29.8833 49.7695 19.2835C49.7695 8.68448 58.3622 0.0917969 68.962 0.0917969C79.561 0.0917969 88.1537 8.68448 88.1537 19.2835Z" fill="#26BF64"/>
<path d="M88.1535 19.2837C88.1535 29.328 80.4404 37.5684 70.6152 38.4061C60.7879 37.5684 53.0762 29.328 53.0762 19.2837C53.0762 9.24152 60.7879 1.00108 70.6152 0.164062C80.4404 1.00108 88.1535 9.24152 88.1535 19.2837Z" fill="#49D685"/>
<path d="M68.8701 31.0913C68.467 31.0913 68.0797 30.9135 67.8161 30.5997L59.8283 21.0876C59.3394 20.5046 59.4149 19.636 59.9972 19.1471C60.5802 18.6575 61.4488 18.7338 61.9377 19.316L68.4862 27.1143L75.869 9.8877C76.1684 9.1887 76.9787 8.8646 77.6777 9.16466C78.3767 9.46404 78.7008 10.2736 78.4007 10.9733L70.1362 30.2564C69.9481 30.6965 69.545 31.0069 69.0719 31.0762C69.0046 31.0865 68.9373 31.0913 68.8701 31.0913Z" fill="white"/>
<path d="M81.6015 84.3927C81.2911 84.3927 80.9787 84.2883 80.7212 84.0741L58.7575 65.7874C58.1731 65.3005 58.0942 64.4319 58.5803 63.8476C59.0671 63.2633 59.9357 63.1836 60.5201 63.6704L82.4831 81.9565C83.0681 82.4433 83.1478 83.3112 82.661 83.8963C82.3884 84.2238 81.9963 84.3927 81.6015 84.3927Z" fill="#FBA028"/>
<path d="M31.1881 65.8241L13.1383 81.2413C10.6519 83.3658 11.7636 87.4259 14.986 87.9863C20.1695 88.8871 26.2264 89.8979 27.8551 90.0002H8.63937C6.3707 90.0002 4.30664 89.1261 2.76581 87.6972C1.06499 86.1179 0 83.8643 0 81.3615V32.5664H6.52176V65.8282C6.58424 72.5518 14.4662 76.1602 19.6346 71.859L29.4688 63.6701C30.0641 63.1764 30.9547 63.2663 31.436 63.8816C31.9009 64.4741 31.7663 65.3427 31.1881 65.8241Z" fill="#FBA028"/>
</g>
<defs>
<clipPath id="clip0">
<rect width="90" height="90" fill="white"/>
</clipPath>
</defs>
</svg>
