<svg width="90" height="90" viewBox="0 0 90 90" fill="none" xmlns="http://www.w3.org/2000/svg">
<g clip-path="url(#clip0)">
<path d="M79.449 60.1016C77.03 66.6577 73.3715 72.3583 68.5739 77.0432C63.113 82.3757 55.9623 86.613 47.3202 89.6356C47.0366 89.7345 46.7407 89.8155 46.4433 89.8753C46.0506 89.9529 45.6509 89.9948 45.2548 90.0003H45.1772C44.7549 90.0003 44.3305 89.9577 43.9096 89.8753C43.6123 89.8155 43.3205 89.7345 43.0383 89.6377C34.3858 86.6199 27.2262 82.3847 21.7598 77.0522C16.9601 72.3672 13.3024 66.6701 10.8867 60.114C6.49427 48.1938 6.74421 35.0624 6.94539 24.51L6.94883 24.348C6.98934 23.4766 7.01543 22.5613 7.02985 21.5506C7.10332 16.5882 11.0488 12.4827 16.0119 12.206C26.3596 11.6285 34.3645 8.25368 41.2042 1.58703L41.264 1.5321C42.3997 0.490461 43.8307 -0.0204034 45.2548 0.000882738C46.628 0.0187356 47.9958 0.528913 49.091 1.5321L49.1494 1.58703C55.9905 8.25368 63.9954 11.6285 74.3431 12.206C79.3062 12.4827 83.2517 16.5882 83.3252 21.5506C83.3396 22.5682 83.3657 23.4821 83.4062 24.348L83.4082 24.4166C83.6087 34.9889 83.8573 48.1464 79.449 60.1016Z" fill="#00DD80"/>
<path d="M79.4482 60.1015C77.0291 66.6576 73.3707 72.3581 68.5731 77.0431C63.1122 82.3756 55.9615 86.6129 47.3193 89.6355C47.0358 89.7344 46.7398 89.8154 46.4425 89.8752C46.0497 89.9527 45.6501 89.9946 45.2539 90.0001V0.000732422C46.6272 0.0185853 47.995 0.528763 49.0902 1.53195L49.1486 1.58688C55.9896 8.25353 63.9945 11.6284 74.3423 12.2059C79.3054 12.4826 83.2508 16.588 83.3243 21.5504C83.3387 22.568 83.3648 23.482 83.4053 24.3478L83.4074 24.4165C83.6079 34.9888 83.8565 48.1463 79.4482 60.1015Z" fill="#00AA63"/>
<path d="M67.6028 45.0001C67.6028 57.3411 57.5826 67.3868 45.2518 67.4307H45.1729C32.8057 67.4307 22.7422 57.3679 22.7422 45.0001C22.7422 32.6329 32.8057 22.5701 45.1729 22.5701H45.2518C57.5826 22.614 67.6028 32.6596 67.6028 45.0001Z" fill="white"/>
<path d="M67.6049 45.0001C67.6049 57.3411 57.5847 67.3868 45.2539 67.4307V22.5701C57.5847 22.614 67.6049 32.6596 67.6049 45.0001Z" fill="#E1EBF0"/>
<path d="M55.3586 41.77L45.2567 51.8733L43.0739 54.0561C42.5582 54.5718 41.8818 54.8293 41.2062 54.8293C40.5298 54.8293 39.8542 54.5718 39.3378 54.0561L34.6446 49.3608C33.6133 48.3295 33.6133 46.6589 34.6446 45.6269C35.6746 44.5955 37.3472 44.5955 38.3786 45.6269L41.2062 48.4545L51.6247 38.036C52.656 37.004 54.3287 37.004 55.3586 38.036C56.39 39.0673 56.39 40.74 55.3586 41.77Z" fill="#B4D2D7"/>
<path d="M55.3558 41.77L45.2539 51.8733V44.4033L51.6219 38.036C52.6532 37.004 54.3259 37.004 55.3558 38.036C56.3872 39.0673 56.3872 40.74 55.3558 41.77Z" fill="#6FA5AA"/>
</g>
<defs>
<clipPath id="clip0">
<rect width="90" height="90" fill="white"/>
</clipPath>
</defs>
</svg>
