<svg width="530" height="424" viewBox="0 0 530 424" fill="none" xmlns="http://www.w3.org/2000/svg">
<rect width="530" height="424" rx="10" fill="white"/>
<path d="M66.7679 132.072C66.5359 132.072 66.3479 132 66.2039 131.856C66.0679 131.712 65.9999 131.524 65.9999 131.292V124.248C65.9999 124.016 66.0679 123.832 66.2039 123.696C66.3479 123.552 66.5359 123.48 66.7679 123.48C67.0079 123.48 67.1959 123.552 67.3319 123.696C67.4759 123.832 67.5479 124.016 67.5479 124.248V131.292C67.5479 131.524 67.4759 131.712 67.3319 131.856C67.1959 132 67.0079 132.072 66.7679 132.072ZM72.6509 125.988C73.3549 125.988 73.8789 126.188 74.2229 126.588C74.5669 126.988 74.7389 127.592 74.7389 128.4V131.352C74.7389 131.576 74.6709 131.752 74.5349 131.88C74.4069 132.008 74.2269 132.072 73.9949 132.072C73.7629 132.072 73.5789 132.008 73.4429 131.88C73.3069 131.752 73.2389 131.576 73.2389 131.352V128.484C73.2389 128.028 73.1509 127.696 72.9749 127.488C72.8069 127.28 72.5389 127.176 72.1709 127.176C71.7389 127.176 71.3909 127.312 71.1269 127.584C70.8709 127.856 70.7429 128.22 70.7429 128.676V131.352C70.7429 131.576 70.6749 131.752 70.5389 131.88C70.4029 132.008 70.2189 132.072 69.9869 132.072C69.7549 132.072 69.5709 132.008 69.4349 131.88C69.3069 131.752 69.2429 131.576 69.2429 131.352V126.708C69.2429 126.5 69.3109 126.332 69.4469 126.204C69.5829 126.076 69.7669 126.012 69.9989 126.012C70.2069 126.012 70.3749 126.076 70.5029 126.204C70.6389 126.324 70.7069 126.484 70.7069 126.684V127.008C70.9069 126.68 71.1749 126.428 71.5109 126.252C71.8469 126.076 72.2269 125.988 72.6509 125.988ZM78.8664 132.096C78.2824 132.096 77.7664 131.972 77.3184 131.724C76.8784 131.476 76.5384 131.124 76.2984 130.668C76.0584 130.212 75.9384 129.68 75.9384 129.072C75.9384 128.464 76.0624 127.928 76.3104 127.464C76.5664 126.992 76.9224 126.628 77.3784 126.372C77.8344 126.116 78.3584 125.988 78.9504 125.988C79.2624 125.988 79.5744 126.032 79.8864 126.12C80.2064 126.208 80.4864 126.328 80.7264 126.48C80.9824 126.648 81.1104 126.86 81.1104 127.116C81.1104 127.292 81.0664 127.436 80.9784 127.548C80.8984 127.652 80.7904 127.704 80.6544 127.704C80.5664 127.704 80.4744 127.684 80.3784 127.644C80.2824 127.604 80.1864 127.556 80.0904 127.5C79.9144 127.396 79.7464 127.316 79.5864 127.26C79.4264 127.196 79.2424 127.164 79.0344 127.164C78.5384 127.164 78.1544 127.328 77.8824 127.656C77.6184 127.976 77.4864 128.44 77.4864 129.048C77.4864 129.648 77.6184 130.112 77.8824 130.44C78.1544 130.76 78.5384 130.92 79.0344 130.92C79.2344 130.92 79.4104 130.892 79.5624 130.836C79.7224 130.772 79.8984 130.688 80.0904 130.584C80.2104 130.512 80.3144 130.46 80.4024 130.428C80.4904 130.388 80.5784 130.368 80.6664 130.368C80.7944 130.368 80.9024 130.424 80.9904 130.536C81.0784 130.648 81.1224 130.788 81.1224 130.956C81.1224 131.092 81.0904 131.212 81.0264 131.316C80.9704 131.412 80.8744 131.5 80.7384 131.58C80.4904 131.74 80.2024 131.868 79.8744 131.964C79.5464 132.052 79.2104 132.096 78.8664 132.096ZM85.3978 126.012C85.6058 125.996 85.7698 126.04 85.8898 126.144C86.0098 126.248 86.0698 126.404 86.0698 126.612C86.0698 126.828 86.0178 126.988 85.9138 127.092C85.8098 127.196 85.6218 127.264 85.3498 127.296L84.9898 127.332C84.5178 127.38 84.1698 127.54 83.9458 127.812C83.7298 128.084 83.6218 128.424 83.6218 128.832V131.352C83.6218 131.584 83.5498 131.764 83.4058 131.892C83.2618 132.012 83.0818 132.072 82.8658 132.072C82.6498 132.072 82.4698 132.012 82.3258 131.892C82.1898 131.764 82.1218 131.584 82.1218 131.352V126.708C82.1218 126.484 82.1898 126.312 82.3258 126.192C82.4698 126.072 82.6458 126.012 82.8538 126.012C83.0618 126.012 83.2298 126.072 83.3578 126.192C83.4858 126.304 83.5498 126.468 83.5498 126.684V127.164C83.7018 126.812 83.9258 126.54 84.2218 126.348C84.5258 126.156 84.8618 126.048 85.2298 126.024L85.3978 126.012ZM91.2424 130.392C91.3784 130.392 91.4864 130.444 91.5664 130.548C91.6544 130.652 91.6984 130.792 91.6984 130.968C91.6984 131.216 91.5504 131.424 91.2544 131.592C90.9824 131.744 90.6744 131.868 90.3304 131.964C89.9864 132.052 89.6584 132.096 89.3464 132.096C88.4024 132.096 87.6544 131.824 87.1024 131.28C86.5504 130.736 86.2744 129.992 86.2744 129.048C86.2744 128.448 86.3944 127.916 86.6344 127.452C86.8744 126.988 87.2104 126.628 87.6424 126.372C88.0824 126.116 88.5784 125.988 89.1304 125.988C89.6584 125.988 90.1184 126.104 90.5104 126.336C90.9024 126.568 91.2064 126.896 91.4224 127.32C91.6384 127.744 91.7464 128.244 91.7464 128.82C91.7464 129.164 91.5944 129.336 91.2904 129.336H87.7504C87.7984 129.888 87.9544 130.296 88.2184 130.56C88.4824 130.816 88.8664 130.944 89.3704 130.944C89.6264 130.944 89.8504 130.912 90.0424 130.848C90.2424 130.784 90.4664 130.696 90.7144 130.584C90.9544 130.456 91.1304 130.392 91.2424 130.392ZM89.1664 127.044C88.7584 127.044 88.4304 127.172 88.1824 127.428C87.9424 127.684 87.7984 128.052 87.7504 128.532H90.4624C90.4464 128.044 90.3264 127.676 90.1024 127.428C89.8784 127.172 89.5664 127.044 89.1664 127.044ZM95.5174 125.988C96.3334 125.988 96.9374 126.192 97.3294 126.6C97.7294 127 97.9294 127.612 97.9294 128.436V131.364C97.9294 131.58 97.8654 131.752 97.7374 131.88C97.6094 132 97.4334 132.06 97.2094 132.06C97.0014 132.06 96.8294 131.996 96.6934 131.868C96.5654 131.74 96.5014 131.572 96.5014 131.364V131.1C96.3654 131.412 96.1494 131.656 95.8534 131.832C95.5654 132.008 95.2294 132.096 94.8454 132.096C94.4534 132.096 94.0974 132.016 93.7774 131.856C93.4574 131.696 93.2054 131.476 93.0214 131.196C92.8374 130.916 92.7454 130.604 92.7454 130.26C92.7454 129.828 92.8534 129.488 93.0694 129.24C93.2934 128.992 93.6534 128.812 94.1494 128.7C94.6454 128.588 95.3294 128.532 96.2014 128.532H96.5014V128.256C96.5014 127.864 96.4174 127.58 96.2494 127.404C96.0814 127.22 95.8094 127.128 95.4334 127.128C95.2014 127.128 94.9654 127.164 94.7254 127.236C94.4854 127.3 94.2014 127.396 93.8734 127.524C93.6654 127.628 93.5134 127.68 93.4174 127.68C93.2734 127.68 93.1534 127.628 93.0574 127.524C92.9694 127.42 92.9254 127.284 92.9254 127.116C92.9254 126.98 92.9574 126.864 93.0214 126.768C93.0934 126.664 93.2094 126.568 93.3694 126.48C93.6494 126.328 93.9814 126.208 94.3654 126.12C94.7574 126.032 95.1414 125.988 95.5174 125.988ZM95.1454 131.016C95.5454 131.016 95.8694 130.884 96.1174 130.62C96.3734 130.348 96.5014 130 96.5014 129.576V129.324H96.2854C95.7494 129.324 95.3334 129.348 95.0374 129.396C94.7414 129.444 94.5294 129.528 94.4014 129.648C94.2734 129.768 94.2094 129.932 94.2094 130.14C94.2094 130.396 94.2974 130.608 94.4734 130.776C94.6574 130.936 94.8814 131.016 95.1454 131.016ZM101.578 132.096C100.706 132.096 100.002 131.924 99.4658 131.58C99.2098 131.428 99.0818 131.212 99.0818 130.932C99.0818 130.772 99.1258 130.644 99.2138 130.548C99.3018 130.444 99.4098 130.392 99.5378 130.392C99.6738 130.392 99.8618 130.456 100.102 130.584C100.358 130.704 100.59 130.796 100.798 130.86C101.014 130.924 101.286 130.956 101.614 130.956C101.95 130.956 102.21 130.9 102.394 130.788C102.586 130.676 102.682 130.52 102.682 130.32C102.682 130.184 102.642 130.076 102.562 129.996C102.49 129.916 102.354 129.844 102.154 129.78C101.962 129.708 101.666 129.628 101.266 129.54C100.554 129.396 100.042 129.192 99.7298 128.928C99.4258 128.664 99.2738 128.3 99.2738 127.836C99.2738 127.484 99.3778 127.168 99.5858 126.888C99.7938 126.6 100.078 126.38 100.438 126.228C100.806 126.068 101.222 125.988 101.686 125.988C102.022 125.988 102.346 126.032 102.658 126.12C102.97 126.2 103.25 126.32 103.498 126.48C103.754 126.64 103.882 126.852 103.882 127.116C103.882 127.276 103.838 127.412 103.75 127.524C103.662 127.628 103.554 127.68 103.426 127.68C103.338 127.68 103.25 127.664 103.162 127.632C103.082 127.592 102.978 127.536 102.85 127.464C102.618 127.344 102.418 127.256 102.25 127.2C102.082 127.136 101.874 127.104 101.626 127.104C101.33 127.104 101.094 127.164 100.918 127.284C100.75 127.404 100.666 127.568 100.666 127.776C100.666 127.976 100.754 128.128 100.93 128.232C101.106 128.336 101.446 128.44 101.95 128.544C102.486 128.656 102.906 128.784 103.21 128.928C103.514 129.072 103.73 129.252 103.858 129.468C103.994 129.684 104.062 129.96 104.062 130.296C104.062 130.84 103.834 131.276 103.378 131.604C102.93 131.932 102.33 132.096 101.578 132.096ZM109.922 130.392C110.058 130.392 110.166 130.444 110.246 130.548C110.334 130.652 110.378 130.792 110.378 130.968C110.378 131.216 110.23 131.424 109.934 131.592C109.662 131.744 109.354 131.868 109.01 131.964C108.666 132.052 108.338 132.096 108.026 132.096C107.082 132.096 106.334 131.824 105.782 131.28C105.23 130.736 104.954 129.992 104.954 129.048C104.954 128.448 105.074 127.916 105.314 127.452C105.554 126.988 105.89 126.628 106.322 126.372C106.762 126.116 107.258 125.988 107.81 125.988C108.338 125.988 108.798 126.104 109.19 126.336C109.582 126.568 109.886 126.896 110.102 127.32C110.318 127.744 110.426 128.244 110.426 128.82C110.426 129.164 110.274 129.336 109.97 129.336H106.43C106.478 129.888 106.634 130.296 106.898 130.56C107.162 130.816 107.546 130.944 108.05 130.944C108.306 130.944 108.53 130.912 108.722 130.848C108.922 130.784 109.146 130.696 109.394 130.584C109.634 130.456 109.81 130.392 109.922 130.392ZM107.846 127.044C107.438 127.044 107.11 127.172 106.862 127.428C106.622 127.684 106.478 128.052 106.43 128.532H109.142C109.126 128.044 109.006 127.676 108.782 127.428C108.558 127.172 108.246 127.044 107.846 127.044ZM117.035 132.096C116.163 132.096 115.459 131.924 114.923 131.58C114.667 131.428 114.539 131.212 114.539 130.932C114.539 130.772 114.583 130.644 114.671 130.548C114.759 130.444 114.867 130.392 114.995 130.392C115.131 130.392 115.319 130.456 115.559 130.584C115.815 130.704 116.047 130.796 116.255 130.86C116.471 130.924 116.743 130.956 117.071 130.956C117.407 130.956 117.667 130.9 117.851 130.788C118.043 130.676 118.139 130.52 118.139 130.32C118.139 130.184 118.099 130.076 118.019 129.996C117.947 129.916 117.811 129.844 117.611 129.78C117.419 129.708 117.123 129.628 116.723 129.54C116.011 129.396 115.499 129.192 115.187 128.928C114.883 128.664 114.731 128.3 114.731 127.836C114.731 127.484 114.835 127.168 115.043 126.888C115.251 126.6 115.535 126.38 115.895 126.228C116.263 126.068 116.679 125.988 117.143 125.988C117.479 125.988 117.803 126.032 118.115 126.12C118.427 126.2 118.707 126.32 118.955 126.48C119.211 126.64 119.339 126.852 119.339 127.116C119.339 127.276 119.295 127.412 119.207 127.524C119.119 127.628 119.011 127.68 118.883 127.68C118.795 127.68 118.707 127.664 118.619 127.632C118.539 127.592 118.435 127.536 118.307 127.464C118.075 127.344 117.875 127.256 117.707 127.2C117.539 127.136 117.331 127.104 117.083 127.104C116.787 127.104 116.551 127.164 116.375 127.284C116.207 127.404 116.123 127.568 116.123 127.776C116.123 127.976 116.211 128.128 116.387 128.232C116.563 128.336 116.903 128.44 117.407 128.544C117.943 128.656 118.363 128.784 118.667 128.928C118.971 129.072 119.187 129.252 119.315 129.468C119.451 129.684 119.519 129.96 119.519 130.296C119.519 130.84 119.291 131.276 118.835 131.604C118.387 131.932 117.787 132.096 117.035 132.096ZM123.279 125.988C124.095 125.988 124.699 126.192 125.091 126.6C125.491 127 125.691 127.612 125.691 128.436V131.364C125.691 131.58 125.627 131.752 125.499 131.88C125.371 132 125.195 132.06 124.971 132.06C124.763 132.06 124.591 131.996 124.455 131.868C124.327 131.74 124.263 131.572 124.263 131.364V131.1C124.127 131.412 123.911 131.656 123.615 131.832C123.327 132.008 122.991 132.096 122.607 132.096C122.215 132.096 121.859 132.016 121.539 131.856C121.219 131.696 120.967 131.476 120.783 131.196C120.599 130.916 120.507 130.604 120.507 130.26C120.507 129.828 120.615 129.488 120.831 129.24C121.055 128.992 121.415 128.812 121.911 128.7C122.407 128.588 123.091 128.532 123.963 128.532H124.263V128.256C124.263 127.864 124.179 127.58 124.011 127.404C123.843 127.22 123.571 127.128 123.195 127.128C122.963 127.128 122.727 127.164 122.487 127.236C122.247 127.3 121.963 127.396 121.635 127.524C121.427 127.628 121.275 127.68 121.179 127.68C121.035 127.68 120.915 127.628 120.819 127.524C120.731 127.42 120.687 127.284 120.687 127.116C120.687 126.98 120.719 126.864 120.783 126.768C120.855 126.664 120.971 126.568 121.131 126.48C121.411 126.328 121.743 126.208 122.127 126.12C122.519 126.032 122.903 125.988 123.279 125.988ZM122.907 131.016C123.307 131.016 123.631 130.884 123.879 130.62C124.135 130.348 124.263 130 124.263 129.576V129.324H124.047C123.511 129.324 123.095 129.348 122.799 129.396C122.503 129.444 122.291 129.528 122.163 129.648C122.035 129.768 121.971 129.932 121.971 130.14C121.971 130.396 122.059 130.608 122.235 130.776C122.419 130.936 122.643 131.016 122.907 131.016ZM127.96 132.072C127.744 132.072 127.564 132.012 127.42 131.892C127.284 131.764 127.216 131.584 127.216 131.352V124.188C127.216 123.956 127.284 123.78 127.42 123.66C127.564 123.54 127.744 123.48 127.96 123.48C128.176 123.48 128.356 123.54 128.5 123.66C128.644 123.78 128.716 123.956 128.716 124.188V131.352C128.716 131.584 128.644 131.764 128.5 131.892C128.356 132.012 128.176 132.072 127.96 132.072ZM134.906 130.392C135.042 130.392 135.15 130.444 135.23 130.548C135.318 130.652 135.362 130.792 135.362 130.968C135.362 131.216 135.214 131.424 134.918 131.592C134.646 131.744 134.338 131.868 133.994 131.964C133.65 132.052 133.322 132.096 133.01 132.096C132.066 132.096 131.318 131.824 130.766 131.28C130.214 130.736 129.938 129.992 129.938 129.048C129.938 128.448 130.058 127.916 130.298 127.452C130.538 126.988 130.874 126.628 131.306 126.372C131.746 126.116 132.242 125.988 132.794 125.988C133.322 125.988 133.782 126.104 134.174 126.336C134.566 126.568 134.87 126.896 135.086 127.32C135.302 127.744 135.41 128.244 135.41 128.82C135.41 129.164 135.258 129.336 134.954 129.336H131.414C131.462 129.888 131.618 130.296 131.882 130.56C132.146 130.816 132.53 130.944 133.034 130.944C133.29 130.944 133.514 130.912 133.706 130.848C133.906 130.784 134.13 130.696 134.378 130.584C134.618 130.456 134.794 130.392 134.906 130.392ZM132.83 127.044C132.422 127.044 132.094 127.172 131.846 127.428C131.606 127.684 131.462 128.052 131.414 128.532H134.126C134.11 128.044 133.99 127.676 133.766 127.428C133.542 127.172 133.23 127.044 132.83 127.044ZM138.761 132.096C137.889 132.096 137.185 131.924 136.649 131.58C136.393 131.428 136.265 131.212 136.265 130.932C136.265 130.772 136.309 130.644 136.397 130.548C136.485 130.444 136.593 130.392 136.721 130.392C136.857 130.392 137.045 130.456 137.285 130.584C137.541 130.704 137.773 130.796 137.981 130.86C138.197 130.924 138.469 130.956 138.797 130.956C139.133 130.956 139.393 130.9 139.577 130.788C139.769 130.676 139.865 130.52 139.865 130.32C139.865 130.184 139.825 130.076 139.745 129.996C139.673 129.916 139.537 129.844 139.337 129.78C139.145 129.708 138.849 129.628 138.449 129.54C137.737 129.396 137.225 129.192 136.913 128.928C136.609 128.664 136.457 128.3 136.457 127.836C136.457 127.484 136.561 127.168 136.769 126.888C136.977 126.6 137.261 126.38 137.621 126.228C137.989 126.068 138.405 125.988 138.869 125.988C139.205 125.988 139.529 126.032 139.841 126.12C140.153 126.2 140.433 126.32 140.681 126.48C140.937 126.64 141.065 126.852 141.065 127.116C141.065 127.276 141.021 127.412 140.933 127.524C140.845 127.628 140.737 127.68 140.609 127.68C140.521 127.68 140.433 127.664 140.345 127.632C140.265 127.592 140.161 127.536 140.033 127.464C139.801 127.344 139.601 127.256 139.433 127.2C139.265 127.136 139.057 127.104 138.809 127.104C138.513 127.104 138.277 127.164 138.101 127.284C137.933 127.404 137.849 127.568 137.849 127.776C137.849 127.976 137.937 128.128 138.113 128.232C138.289 128.336 138.629 128.44 139.133 128.544C139.669 128.656 140.089 128.784 140.393 128.928C140.697 129.072 140.913 129.252 141.041 129.468C141.177 129.684 141.245 129.96 141.245 130.296C141.245 130.84 141.017 131.276 140.561 131.604C140.113 131.932 139.513 132.096 138.761 132.096ZM149.091 125.988C149.603 125.988 150.055 126.112 150.447 126.36C150.839 126.608 151.143 126.96 151.359 127.416C151.583 127.872 151.695 128.404 151.695 129.012C151.695 129.62 151.583 130.16 151.359 130.632C151.143 131.096 150.835 131.456 150.435 131.712C150.043 131.968 149.595 132.096 149.091 132.096C148.667 132.096 148.287 132.004 147.951 131.82C147.623 131.636 147.371 131.38 147.195 131.052V131.352C147.195 131.568 147.127 131.74 146.991 131.868C146.855 131.996 146.675 132.06 146.451 132.06C146.227 132.06 146.047 131.996 145.911 131.868C145.783 131.74 145.719 131.568 145.719 131.352V124.176C145.719 123.968 145.787 123.8 145.923 123.672C146.067 123.544 146.251 123.48 146.475 123.48C146.699 123.48 146.879 123.54 147.015 123.66C147.151 123.78 147.219 123.944 147.219 124.152V126.984C147.395 126.664 147.647 126.42 147.975 126.252C148.303 126.076 148.675 125.988 149.091 125.988ZM148.695 130.932C149.167 130.932 149.535 130.764 149.799 130.428C150.063 130.092 150.195 129.62 150.195 129.012C150.195 128.412 150.063 127.952 149.799 127.632C149.543 127.312 149.175 127.152 148.695 127.152C148.215 127.152 147.843 127.316 147.579 127.644C147.323 127.964 147.195 128.428 147.195 129.036C147.195 129.644 147.323 130.112 147.579 130.44C147.843 130.768 148.215 130.932 148.695 130.932ZM156.925 126.444C156.989 126.3 157.073 126.196 157.177 126.132C157.289 126.06 157.409 126.024 157.537 126.024C157.721 126.024 157.885 126.088 158.029 126.216C158.181 126.336 158.257 126.488 158.257 126.672C158.257 126.76 158.233 126.852 158.185 126.948L154.909 133.812C154.773 134.084 154.561 134.22 154.273 134.22C154.089 134.22 153.925 134.16 153.781 134.04C153.645 133.928 153.577 133.784 153.577 133.608C153.577 133.52 153.601 133.42 153.649 133.308L154.465 131.592L152.233 126.948C152.193 126.868 152.173 126.776 152.173 126.672C152.173 126.488 152.249 126.332 152.401 126.204C152.561 126.076 152.741 126.012 152.941 126.012C153.077 126.012 153.201 126.048 153.313 126.12C153.425 126.184 153.513 126.288 153.577 126.432L155.257 130.14L156.925 126.444ZM163.115 132.072C162.859 132.072 162.647 131.988 162.479 131.82C162.311 131.644 162.227 131.428 162.227 131.172C162.227 130.916 162.311 130.704 162.479 130.536C162.647 130.36 162.859 130.272 163.115 130.272C163.371 130.272 163.583 130.36 163.751 130.536C163.919 130.704 164.003 130.916 164.003 131.172C164.003 131.428 163.919 131.644 163.751 131.82C163.583 131.988 163.371 132.072 163.115 132.072ZM166.092 132.072C165.836 132.072 165.624 131.988 165.456 131.82C165.288 131.644 165.204 131.428 165.204 131.172C165.204 130.916 165.288 130.704 165.456 130.536C165.624 130.36 165.836 130.272 166.092 130.272C166.348 130.272 166.56 130.36 166.728 130.536C166.896 130.704 166.98 130.916 166.98 131.172C166.98 131.428 166.896 131.644 166.728 131.82C166.56 131.988 166.348 132.072 166.092 132.072ZM169.068 132.072C168.812 132.072 168.6 131.988 168.432 131.82C168.264 131.644 168.18 131.428 168.18 131.172C168.18 130.916 168.264 130.704 168.432 130.536C168.6 130.36 168.812 130.272 169.068 130.272C169.324 130.272 169.536 130.36 169.704 130.536C169.872 130.704 169.956 130.916 169.956 131.172C169.956 131.428 169.872 131.644 169.704 131.82C169.536 131.988 169.324 132.072 169.068 132.072ZM172.045 132.072C171.789 132.072 171.577 131.988 171.409 131.82C171.241 131.644 171.157 131.428 171.157 131.172C171.157 130.916 171.241 130.704 171.409 130.536C171.577 130.36 171.789 130.272 172.045 130.272C172.301 130.272 172.513 130.36 172.681 130.536C172.849 130.704 172.933 130.916 172.933 131.172C172.933 131.428 172.849 131.644 172.681 131.82C172.513 131.988 172.301 132.072 172.045 132.072Z" fill="#334D6E"/>
<mask id="mask0" mask-type="alpha" maskUnits="userSpaceOnUse" x="29" y="58" width="41" height="40">
<ellipse cx="49.4131" cy="78.2891" rx="19.9248" ry="19.3784" fill="#E5E5E5"/>
</mask>
<g mask="url(#mask0)">
<rect x="22.3145" y="58.1355" width="53.7104" height="39.5994" fill="#334D6E" fill-opacity="0.33"/>
</g>
<path d="M35.0576 30.7676C33.8506 30.7676 32.9014 31.1953 32.21 32.0508C31.5186 32.9062 31.1729 34.0869 31.1729 35.5928C31.1729 37.1689 31.5039 38.3613 32.166 39.1699C32.834 39.9785 33.7979 40.3828 35.0576 40.3828C35.6025 40.3828 36.1299 40.3301 36.6396 40.2246C37.1494 40.1133 37.6797 39.9727 38.2305 39.8027V41.6045C37.2227 41.9854 36.0801 42.1758 34.8027 42.1758C32.9219 42.1758 31.4775 41.6074 30.4697 40.4707C29.4619 39.3281 28.958 37.6963 28.958 35.5752C28.958 34.2393 29.2012 33.0703 29.6875 32.0684C30.1797 31.0664 30.8887 30.2988 31.8145 29.7656C32.7402 29.2324 33.8271 28.9658 35.0752 28.9658C36.3877 28.9658 37.6006 29.2412 38.7139 29.792L37.958 31.541C37.5244 31.3359 37.0645 31.1572 36.5781 31.0049C36.0977 30.8467 35.5908 30.7676 35.0576 30.7676ZM49.4014 37.1221C49.4014 38.71 48.9941 39.9492 48.1797 40.8398C47.3652 41.7305 46.2314 42.1758 44.7783 42.1758C43.8701 42.1758 43.0674 41.9707 42.3701 41.5605C41.6729 41.1504 41.1367 40.5615 40.7617 39.7939C40.3867 39.0264 40.1992 38.1357 40.1992 37.1221C40.1992 35.5459 40.6035 34.3154 41.4121 33.4307C42.2207 32.5459 43.3604 32.1035 44.8311 32.1035C46.2373 32.1035 47.3506 32.5576 48.1709 33.4658C48.9912 34.3682 49.4014 35.5869 49.4014 37.1221ZM42.3262 37.1221C42.3262 39.3662 43.1553 40.4883 44.8135 40.4883C46.4541 40.4883 47.2744 39.3662 47.2744 37.1221C47.2744 34.9014 46.4482 33.791 44.7959 33.791C43.9287 33.791 43.2988 34.0781 42.9062 34.6523C42.5195 35.2266 42.3262 36.0498 42.3262 37.1221ZM59.9746 42H57.9004V36.0059C57.9004 35.2617 57.7598 34.708 57.4785 34.3447C57.1973 33.9756 56.7578 33.791 56.1602 33.791C55.3633 33.791 54.7773 34.0518 54.4023 34.5732C54.0332 35.0889 53.8486 35.9502 53.8486 37.1572V42H51.7832V32.2793H53.4004L53.6904 33.5537H53.7959C54.0654 33.0908 54.4551 32.7334 54.9648 32.4814C55.4805 32.2295 56.0459 32.1035 56.6611 32.1035C58.1553 32.1035 59.1455 32.6133 59.6318 33.6328H59.7725C60.0596 33.1523 60.4639 32.7773 60.9854 32.5078C61.5068 32.2383 62.1045 32.1035 62.7783 32.1035C63.9385 32.1035 64.7822 32.3965 65.3096 32.9824C65.8428 33.5684 66.1094 34.4619 66.1094 35.6631V42H64.0439V36.0059C64.0439 35.2617 63.9004 34.708 63.6133 34.3447C63.332 33.9756 62.8926 33.791 62.2949 33.791C61.4922 33.791 60.9033 34.043 60.5283 34.5469C60.1592 35.0449 59.9746 35.8125 59.9746 36.8496V42ZM73.9229 42.1758C72.6924 42.1758 71.7373 41.7334 71.0576 40.8486H70.9346C71.0166 41.6689 71.0576 42.167 71.0576 42.3428V46.3242H68.9922V32.2793H70.6621C70.709 32.4609 70.8057 32.8945 70.9521 33.5801H71.0576C71.7021 32.5957 72.6689 32.1035 73.958 32.1035C75.1709 32.1035 76.1143 32.543 76.7881 33.4219C77.4678 34.3008 77.8076 35.5342 77.8076 37.1221C77.8076 38.71 77.4619 39.9492 76.7705 40.8398C76.085 41.7305 75.1357 42.1758 73.9229 42.1758ZM73.4219 33.791C72.6016 33.791 72.001 34.0312 71.6201 34.5117C71.2451 34.9922 71.0576 35.7598 71.0576 36.8145V37.1221C71.0576 38.3057 71.2451 39.1641 71.6201 39.6973C71.9951 40.2246 72.6074 40.4883 73.457 40.4883C74.1719 40.4883 74.7227 40.1953 75.1094 39.6094C75.4961 39.0234 75.6895 38.1885 75.6895 37.1045C75.6895 36.0146 75.4961 35.1914 75.1094 34.6348C74.7285 34.0723 74.166 33.791 73.4219 33.791ZM86.2891 42L85.876 40.6465H85.8057C85.3369 41.2383 84.8652 41.6426 84.3906 41.8594C83.916 42.0703 83.3066 42.1758 82.5625 42.1758C81.6074 42.1758 80.8604 41.918 80.3213 41.4023C79.7881 40.8867 79.5215 40.1572 79.5215 39.2139C79.5215 38.2119 79.8936 37.4561 80.6377 36.9463C81.3818 36.4365 82.5156 36.1582 84.0391 36.1113L85.7178 36.0586V35.54C85.7178 34.9189 85.5713 34.4561 85.2783 34.1514C84.9912 33.8408 84.543 33.6855 83.9336 33.6855C83.4355 33.6855 82.958 33.7588 82.501 33.9053C82.0439 34.0518 81.6045 34.2246 81.1826 34.4238L80.5146 32.9473C81.042 32.6719 81.6191 32.4639 82.2461 32.3232C82.873 32.1768 83.4648 32.1035 84.0215 32.1035C85.2578 32.1035 86.1895 32.373 86.8164 32.9121C87.4492 33.4512 87.7656 34.2979 87.7656 35.4521V42H86.2891ZM83.2129 40.5938C83.9629 40.5938 84.5635 40.3857 85.0146 39.9697C85.4717 39.5479 85.7002 38.959 85.7002 38.2031V37.3594L84.4521 37.4121C83.4795 37.4473 82.7705 37.6113 82.3252 37.9043C81.8857 38.1914 81.666 38.6338 81.666 39.2314C81.666 39.665 81.7949 40.002 82.0527 40.2422C82.3105 40.4766 82.6973 40.5938 83.2129 40.5938ZM99.2002 42H97.126V36.0234C97.126 35.2734 96.9736 34.7139 96.6689 34.3447C96.3701 33.9756 95.8926 33.791 95.2363 33.791C94.3633 33.791 93.7246 34.0488 93.3203 34.5645C92.916 35.0801 92.7139 35.9443 92.7139 37.1572V42H90.6484V32.2793H92.2656L92.5557 33.5537H92.6611C92.9541 33.0908 93.3701 32.7334 93.9092 32.4814C94.4482 32.2295 95.0459 32.1035 95.7021 32.1035C98.0342 32.1035 99.2002 33.29 99.2002 35.6631V42ZM100.598 32.2793H102.848L104.825 37.79C105.124 38.5752 105.323 39.3135 105.423 40.0049H105.493C105.546 39.6826 105.643 39.293 105.783 38.8359C105.924 38.373 106.668 36.1875 108.016 32.2793H110.248L106.091 43.292C105.335 45.3135 104.075 46.3242 102.312 46.3242C101.854 46.3242 101.409 46.2744 100.976 46.1748V44.54C101.286 44.6104 101.641 44.6455 102.039 44.6455C103.035 44.6455 103.735 44.0684 104.14 42.9141L104.5 42L100.598 32.2793ZM123.256 42L122.966 40.7256H122.86C122.573 41.1768 122.163 41.5312 121.63 41.7891C121.103 42.0469 120.499 42.1758 119.819 42.1758C118.642 42.1758 117.763 41.8828 117.183 41.2969C116.603 40.7109 116.312 39.8232 116.312 38.6338V32.2793H118.396V38.2734C118.396 39.0176 118.548 39.5771 118.853 39.9521C119.157 40.3213 119.635 40.5059 120.285 40.5059C121.152 40.5059 121.788 40.248 122.192 39.7324C122.603 39.2109 122.808 38.3408 122.808 37.1221V32.2793H124.882V42H123.256ZM134.356 39.2314C134.356 40.1807 134.011 40.9102 133.319 41.4199C132.628 41.9238 131.638 42.1758 130.349 42.1758C129.054 42.1758 128.014 41.9795 127.229 41.5869V39.8027C128.371 40.3301 129.435 40.5938 130.419 40.5938C131.69 40.5938 132.326 40.21 132.326 39.4424C132.326 39.1963 132.256 38.9912 132.115 38.8271C131.975 38.6631 131.743 38.4932 131.421 38.3174C131.099 38.1416 130.65 37.9424 130.076 37.7197C128.957 37.2861 128.198 36.8525 127.8 36.4189C127.407 35.9854 127.211 35.4229 127.211 34.7314C127.211 33.8994 127.545 33.2549 128.213 32.7979C128.887 32.335 129.801 32.1035 130.955 32.1035C132.098 32.1035 133.179 32.335 134.198 32.7979L133.53 34.3535C132.481 33.9199 131.6 33.7031 130.885 33.7031C129.795 33.7031 129.25 34.0137 129.25 34.6348C129.25 34.9395 129.391 35.1973 129.672 35.4082C129.959 35.6191 130.58 35.9092 131.535 36.2783C132.338 36.5889 132.921 36.873 133.284 37.1309C133.647 37.3887 133.917 37.6875 134.093 38.0273C134.269 38.3613 134.356 38.7627 134.356 39.2314ZM140.843 42.1758C139.331 42.1758 138.147 41.7363 137.292 40.8574C136.442 39.9727 136.018 38.7568 136.018 37.21C136.018 35.6221 136.413 34.374 137.204 33.4658C137.995 32.5576 139.082 32.1035 140.465 32.1035C141.748 32.1035 142.762 32.4932 143.506 33.2725C144.25 34.0518 144.622 35.124 144.622 36.4893V37.6055H138.145C138.174 38.5488 138.429 39.2754 138.909 39.7852C139.39 40.2891 140.066 40.541 140.939 40.541C141.514 40.541 142.047 40.4883 142.539 40.3828C143.037 40.2715 143.57 40.0898 144.139 39.8379V41.5166C143.635 41.7568 143.125 41.9268 142.609 42.0264C142.094 42.126 141.505 42.1758 140.843 42.1758ZM140.465 33.668C139.809 33.668 139.281 33.876 138.883 34.292C138.49 34.708 138.256 35.3145 138.18 36.1113H142.592C142.58 35.3086 142.387 34.7021 142.012 34.292C141.637 33.876 141.121 33.668 140.465 33.668ZM151.899 32.1035C152.315 32.1035 152.658 32.1328 152.928 32.1914L152.726 34.1162C152.433 34.0459 152.128 34.0107 151.812 34.0107C150.985 34.0107 150.314 34.2803 149.799 34.8193C149.289 35.3584 149.034 36.0586 149.034 36.9199V42H146.969V32.2793H148.586L148.858 33.9932H148.964C149.286 33.4131 149.705 32.9531 150.221 32.6133C150.742 32.2734 151.302 32.1035 151.899 32.1035Z" fill="#334D6E"/>
<path d="M30.8867 127.844C30.721 127.844 30.5867 127.709 30.5867 127.544V123.084C30.5867 122.919 30.721 122.784 30.8867 122.784H34.2C34.3657 122.784 34.5 122.919 34.5 123.084V127.544C34.5 127.709 34.3657 127.844 34.2 127.844H30.8867ZM30.8867 133.011C30.721 133.011 30.5867 132.877 30.5867 132.711V130.836C30.5867 130.67 30.721 130.536 30.8867 130.536H34.2C34.3657 130.536 34.5 130.67 34.5 130.836V132.711C34.5 132.877 34.3657 133.011 34.2 133.011H30.8867ZM37.5283 133.011C37.3626 133.011 37.2283 132.877 37.2283 132.711V128.252C37.2283 128.086 37.3626 127.952 37.5283 127.952H40.8416C41.0073 127.952 41.1416 128.086 41.1416 128.252V132.711C41.1416 132.877 41.0073 133.011 40.8416 133.011H37.5283ZM37.2283 123.084C37.2283 122.919 37.3626 122.784 37.5283 122.784H40.8416C41.0073 122.784 41.1416 122.919 41.1416 123.084V124.96C41.1416 125.126 41.0073 125.26 40.8416 125.26H37.5283C37.3626 125.26 37.2283 125.126 37.2283 124.96V123.084Z" stroke="#334D6E" stroke-width="1.4"/>
<path d="M30.8867 152.648C30.721 152.648 30.5867 152.514 30.5867 152.348V147.889C30.5867 147.723 30.721 147.589 30.8867 147.589H34.2C34.3657 147.589 34.5 147.723 34.5 147.889V152.348C34.5 152.514 34.3657 152.648 34.2 152.648H30.8867ZM30.8867 157.816C30.721 157.816 30.5867 157.681 30.5867 157.516V155.64C30.5867 155.474 30.721 155.34 30.8867 155.34H34.2C34.3657 155.34 34.5 155.474 34.5 155.64V157.516C34.5 157.681 34.3657 157.816 34.2 157.816H30.8867ZM37.5283 157.816C37.3626 157.816 37.2283 157.681 37.2283 157.516V153.056C37.2283 152.891 37.3626 152.756 37.5283 152.756H40.8416C41.0073 152.756 41.1416 152.891 41.1416 153.056V157.516C41.1416 157.681 41.0073 157.816 40.8416 157.816H37.5283ZM37.2283 147.889C37.2283 147.723 37.3626 147.589 37.5283 147.589H40.8416C41.0073 147.589 41.1416 147.723 41.1416 147.889V149.764C41.1416 149.93 41.0073 150.064 40.8416 150.064H37.5283C37.3626 150.064 37.2283 149.93 37.2283 149.764V147.889Z" stroke="#334D6E" stroke-width="1.4"/>
<path d="M30.8867 177.453C30.721 177.453 30.5867 177.318 30.5867 177.153V172.693C30.5867 172.527 30.721 172.393 30.8867 172.393H34.2C34.3657 172.393 34.5 172.527 34.5 172.693V177.153C34.5 177.318 34.3657 177.453 34.2 177.453H30.8867ZM30.8867 182.62C30.721 182.62 30.5867 182.486 30.5867 182.32V180.444C30.5867 180.279 30.721 180.144 30.8867 180.144H34.2C34.3657 180.144 34.5 180.279 34.5 180.444V182.32C34.5 182.486 34.3657 182.62 34.2 182.62H30.8867ZM37.5283 182.62C37.3626 182.62 37.2283 182.486 37.2283 182.32V177.861C37.2283 177.695 37.3626 177.561 37.5283 177.561H40.8416C41.0073 177.561 41.1416 177.695 41.1416 177.861V182.32C41.1416 182.486 41.0073 182.62 40.8416 182.62H37.5283ZM37.2283 172.693C37.2283 172.527 37.3626 172.393 37.5283 172.393H40.8416C41.0073 172.393 41.1416 172.527 41.1416 172.693V174.569C41.1416 174.734 41.0073 174.869 40.8416 174.869H37.5283C37.3626 174.869 37.2283 174.734 37.2283 174.569V172.693Z" stroke="#334D6E" stroke-width="1.4"/>
<path d="M30.8867 202.257C30.721 202.257 30.5867 202.122 30.5867 201.957V197.497C30.5867 197.332 30.721 197.197 30.8867 197.197H34.2C34.3657 197.197 34.5 197.332 34.5 197.497V201.957C34.5 202.122 34.3657 202.257 34.2 202.257H30.8867ZM30.8867 207.424C30.721 207.424 30.5867 207.29 30.5867 207.124V205.249C30.5867 205.083 30.721 204.949 30.8867 204.949H34.2C34.3657 204.949 34.5 205.083 34.5 205.249V207.124C34.5 207.29 34.3657 207.424 34.2 207.424H30.8867ZM37.5283 207.424C37.3626 207.424 37.2283 207.29 37.2283 207.124V202.665C37.2283 202.499 37.3626 202.365 37.5283 202.365H40.8416C41.0073 202.365 41.1416 202.499 41.1416 202.665V207.124C41.1416 207.29 41.0073 207.424 40.8416 207.424H37.5283ZM37.2283 197.497C37.2283 197.332 37.3626 197.197 37.5283 197.197H40.8416C41.0073 197.197 41.1416 197.332 41.1416 197.497V199.373C41.1416 199.539 41.0073 199.673 40.8416 199.673H37.5283C37.3626 199.673 37.2283 199.539 37.2283 199.373V197.497Z" stroke="#334D6E" stroke-width="1.4"/>
<path d="M30.8867 227.061C30.721 227.061 30.5867 226.927 30.5867 226.761V222.302C30.5867 222.136 30.721 222.002 30.8867 222.002H34.2C34.3657 222.002 34.5 222.136 34.5 222.302V226.761C34.5 226.927 34.3657 227.061 34.2 227.061H30.8867ZM30.8867 232.229C30.721 232.229 30.5867 232.095 30.5867 231.929V230.053C30.5867 229.887 30.721 229.753 30.8867 229.753H34.2C34.3657 229.753 34.5 229.887 34.5 230.053V231.929C34.5 232.094 34.3657 232.229 34.2 232.229H30.8867ZM37.5283 232.229C37.3626 232.229 37.2283 232.095 37.2283 231.929V227.469C37.2283 227.304 37.3626 227.169 37.5283 227.169H40.8416C41.0073 227.169 41.1416 227.304 41.1416 227.469V231.929C41.1416 232.094 41.0073 232.229 40.8416 232.229H37.5283ZM37.2283 222.302C37.2283 222.136 37.3626 222.002 37.5283 222.002H40.8416C41.0073 222.002 41.1416 222.136 41.1416 222.302V224.177C41.1416 224.343 41.0073 224.477 40.8416 224.477H37.5283C37.3626 224.477 37.2283 224.343 37.2283 224.177V222.302Z" stroke="#334D6E" stroke-width="1.4"/>
<path d="M197.093 173.631H68.3067C65.3554 173.631 62.9629 174.75 62.9629 176.131V178.882C62.9629 180.263 65.3554 181.382 68.3067 181.382H197.093C200.044 181.382 202.437 180.263 202.437 178.882V176.131C202.437 174.75 200.044 173.631 197.093 173.631Z" fill="#334D6E" fill-opacity="0.2"/>
<path d="M197.093 148.827H68.3067C65.3554 148.827 62.9629 149.88 62.9629 151.18V153.769C62.9629 155.068 65.3554 156.122 68.3067 156.122H197.093C200.044 156.122 202.437 155.068 202.437 153.769V151.18C202.437 149.88 200.044 148.827 197.093 148.827Z" fill="#334D6E" fill-opacity="0.2"/>
<path d="M197.093 198.435H68.3067C65.3554 198.435 62.9629 199.555 62.9629 200.936V203.686C62.9629 205.067 65.3554 206.187 68.3067 206.187H197.093C200.044 206.187 202.437 205.067 202.437 203.686V200.936C202.437 199.555 200.044 198.435 197.093 198.435Z" fill="#334D6E" fill-opacity="0.2"/>
<path d="M197.093 223.24H68.3067C65.3554 223.24 62.9629 224.359 62.9629 225.74V228.491C62.9629 229.872 65.3554 230.991 68.3067 230.991H197.093C200.044 230.991 202.437 229.872 202.437 228.491V225.74C202.437 224.359 200.044 223.24 197.093 223.24Z" fill="#334D6E" fill-opacity="0.2"/>
<g clip-path="url(#clip0)">
<path d="M511.342 34.8813H253.77C247.867 34.8813 243.082 34.9933 243.082 35.1314V35.4064C243.082 35.5445 247.867 35.6565 253.77 35.6565H511.342C517.244 35.6565 522.029 35.5445 522.029 35.4064V35.1314C522.029 34.9933 517.244 34.8813 511.342 34.8813Z" fill="#334D6E" fill-opacity="0.2"/>
</g>
<path d="M447.855 163H329.065C319.074 163 310.975 167.603 310.975 173.28V230.233C310.975 235.911 319.074 240.514 329.065 240.514H447.855C457.846 240.514 465.945 235.911 465.945 230.233V173.28C465.945 167.603 457.846 163 447.855 163Z" fill="#F7FAFE"/>
<path d="M447.856 163.171H329.066C319.242 163.171 311.277 167.697 311.277 173.28V230.233C311.277 235.816 319.242 240.342 329.066 240.342H447.856C457.681 240.342 465.645 235.816 465.645 230.233V173.28C465.645 167.697 457.681 163.171 447.856 163.171Z" stroke="#6BC1FF" stroke-width="0.25"/>
<path d="M342.982 190.072C342.75 190.072 342.562 190 342.418 189.856C342.282 189.712 342.214 189.524 342.214 189.292V182.248C342.214 182.016 342.282 181.832 342.418 181.696C342.562 181.552 342.75 181.48 342.982 181.48C343.222 181.48 343.41 181.552 343.546 181.696C343.69 181.832 343.762 182.016 343.762 182.248V189.292C343.762 189.524 343.69 189.712 343.546 189.856C343.41 190 343.222 190.072 342.982 190.072ZM348.865 183.988C349.569 183.988 350.093 184.188 350.437 184.588C350.781 184.988 350.953 185.592 350.953 186.4V189.352C350.953 189.576 350.885 189.752 350.749 189.88C350.621 190.008 350.441 190.072 350.209 190.072C349.977 190.072 349.793 190.008 349.657 189.88C349.521 189.752 349.453 189.576 349.453 189.352V186.484C349.453 186.028 349.365 185.696 349.189 185.488C349.021 185.28 348.753 185.176 348.385 185.176C347.953 185.176 347.605 185.312 347.341 185.584C347.085 185.856 346.957 186.22 346.957 186.676V189.352C346.957 189.576 346.889 189.752 346.753 189.88C346.617 190.008 346.433 190.072 346.201 190.072C345.969 190.072 345.785 190.008 345.649 189.88C345.521 189.752 345.457 189.576 345.457 189.352V184.708C345.457 184.5 345.525 184.332 345.661 184.204C345.797 184.076 345.981 184.012 346.213 184.012C346.421 184.012 346.589 184.076 346.717 184.204C346.853 184.324 346.921 184.484 346.921 184.684V185.008C347.121 184.68 347.389 184.428 347.725 184.252C348.061 184.076 348.441 183.988 348.865 183.988ZM355.081 190.096C354.497 190.096 353.981 189.972 353.533 189.724C353.093 189.476 352.753 189.124 352.513 188.668C352.273 188.212 352.153 187.68 352.153 187.072C352.153 186.464 352.277 185.928 352.525 185.464C352.781 184.992 353.137 184.628 353.593 184.372C354.049 184.116 354.573 183.988 355.165 183.988C355.477 183.988 355.789 184.032 356.101 184.12C356.421 184.208 356.701 184.328 356.941 184.48C357.197 184.648 357.325 184.86 357.325 185.116C357.325 185.292 357.281 185.436 357.193 185.548C357.113 185.652 357.005 185.704 356.869 185.704C356.781 185.704 356.689 185.684 356.593 185.644C356.497 185.604 356.401 185.556 356.305 185.5C356.129 185.396 355.961 185.316 355.801 185.26C355.641 185.196 355.457 185.164 355.249 185.164C354.753 185.164 354.369 185.328 354.097 185.656C353.833 185.976 353.701 186.44 353.701 187.048C353.701 187.648 353.833 188.112 354.097 188.44C354.369 188.76 354.753 188.92 355.249 188.92C355.449 188.92 355.625 188.892 355.777 188.836C355.937 188.772 356.113 188.688 356.305 188.584C356.425 188.512 356.529 188.46 356.617 188.428C356.705 188.388 356.793 188.368 356.881 188.368C357.009 188.368 357.117 188.424 357.205 188.536C357.293 188.648 357.337 188.788 357.337 188.956C357.337 189.092 357.305 189.212 357.241 189.316C357.185 189.412 357.089 189.5 356.953 189.58C356.705 189.74 356.417 189.868 356.089 189.964C355.761 190.052 355.425 190.096 355.081 190.096ZM361.612 184.012C361.82 183.996 361.984 184.04 362.104 184.144C362.224 184.248 362.284 184.404 362.284 184.612C362.284 184.828 362.232 184.988 362.128 185.092C362.024 185.196 361.836 185.264 361.564 185.296L361.204 185.332C360.732 185.38 360.384 185.54 360.16 185.812C359.944 186.084 359.836 186.424 359.836 186.832V189.352C359.836 189.584 359.764 189.764 359.62 189.892C359.476 190.012 359.296 190.072 359.08 190.072C358.864 190.072 358.684 190.012 358.54 189.892C358.404 189.764 358.336 189.584 358.336 189.352V184.708C358.336 184.484 358.404 184.312 358.54 184.192C358.684 184.072 358.86 184.012 359.068 184.012C359.276 184.012 359.444 184.072 359.572 184.192C359.7 184.304 359.764 184.468 359.764 184.684V185.164C359.916 184.812 360.14 184.54 360.436 184.348C360.74 184.156 361.076 184.048 361.444 184.024L361.612 184.012ZM367.457 188.392C367.593 188.392 367.701 188.444 367.781 188.548C367.869 188.652 367.913 188.792 367.913 188.968C367.913 189.216 367.765 189.424 367.469 189.592C367.197 189.744 366.889 189.868 366.545 189.964C366.201 190.052 365.873 190.096 365.561 190.096C364.617 190.096 363.869 189.824 363.317 189.28C362.765 188.736 362.489 187.992 362.489 187.048C362.489 186.448 362.609 185.916 362.849 185.452C363.089 184.988 363.425 184.628 363.857 184.372C364.297 184.116 364.793 183.988 365.345 183.988C365.873 183.988 366.333 184.104 366.725 184.336C367.117 184.568 367.421 184.896 367.637 185.32C367.853 185.744 367.961 186.244 367.961 186.82C367.961 187.164 367.809 187.336 367.505 187.336H363.965C364.013 187.888 364.169 188.296 364.433 188.56C364.697 188.816 365.081 188.944 365.585 188.944C365.841 188.944 366.065 188.912 366.257 188.848C366.457 188.784 366.681 188.696 366.929 188.584C367.169 188.456 367.345 188.392 367.457 188.392ZM365.381 185.044C364.973 185.044 364.645 185.172 364.397 185.428C364.157 185.684 364.013 186.052 363.965 186.532H366.677C366.661 186.044 366.541 185.676 366.317 185.428C366.093 185.172 365.781 185.044 365.381 185.044ZM371.732 183.988C372.548 183.988 373.152 184.192 373.544 184.6C373.944 185 374.144 185.612 374.144 186.436V189.364C374.144 189.58 374.08 189.752 373.952 189.88C373.824 190 373.648 190.06 373.424 190.06C373.216 190.06 373.044 189.996 372.908 189.868C372.78 189.74 372.716 189.572 372.716 189.364V189.1C372.58 189.412 372.364 189.656 372.068 189.832C371.78 190.008 371.444 190.096 371.06 190.096C370.668 190.096 370.312 190.016 369.992 189.856C369.672 189.696 369.42 189.476 369.236 189.196C369.052 188.916 368.96 188.604 368.96 188.26C368.96 187.828 369.068 187.488 369.284 187.24C369.508 186.992 369.868 186.812 370.364 186.7C370.86 186.588 371.544 186.532 372.416 186.532H372.716V186.256C372.716 185.864 372.632 185.58 372.464 185.404C372.296 185.22 372.024 185.128 371.648 185.128C371.416 185.128 371.18 185.164 370.94 185.236C370.7 185.3 370.416 185.396 370.088 185.524C369.88 185.628 369.728 185.68 369.632 185.68C369.488 185.68 369.368 185.628 369.272 185.524C369.184 185.42 369.14 185.284 369.14 185.116C369.14 184.98 369.172 184.864 369.236 184.768C369.308 184.664 369.424 184.568 369.584 184.48C369.864 184.328 370.196 184.208 370.58 184.12C370.972 184.032 371.356 183.988 371.732 183.988ZM371.36 189.016C371.76 189.016 372.084 188.884 372.332 188.62C372.588 188.348 372.716 188 372.716 187.576V187.324H372.5C371.964 187.324 371.548 187.348 371.252 187.396C370.956 187.444 370.744 187.528 370.616 187.648C370.488 187.768 370.424 187.932 370.424 188.14C370.424 188.396 370.512 188.608 370.688 188.776C370.872 188.936 371.096 189.016 371.36 189.016ZM377.792 190.096C376.92 190.096 376.216 189.924 375.68 189.58C375.424 189.428 375.296 189.212 375.296 188.932C375.296 188.772 375.34 188.644 375.428 188.548C375.516 188.444 375.624 188.392 375.752 188.392C375.888 188.392 376.076 188.456 376.316 188.584C376.572 188.704 376.804 188.796 377.012 188.86C377.228 188.924 377.5 188.956 377.828 188.956C378.164 188.956 378.424 188.9 378.608 188.788C378.8 188.676 378.896 188.52 378.896 188.32C378.896 188.184 378.856 188.076 378.776 187.996C378.704 187.916 378.568 187.844 378.368 187.78C378.176 187.708 377.88 187.628 377.48 187.54C376.768 187.396 376.256 187.192 375.944 186.928C375.64 186.664 375.488 186.3 375.488 185.836C375.488 185.484 375.592 185.168 375.8 184.888C376.008 184.6 376.292 184.38 376.652 184.228C377.02 184.068 377.436 183.988 377.9 183.988C378.236 183.988 378.56 184.032 378.872 184.12C379.184 184.2 379.464 184.32 379.712 184.48C379.968 184.64 380.096 184.852 380.096 185.116C380.096 185.276 380.052 185.412 379.964 185.524C379.876 185.628 379.768 185.68 379.64 185.68C379.552 185.68 379.464 185.664 379.376 185.632C379.296 185.592 379.192 185.536 379.064 185.464C378.832 185.344 378.632 185.256 378.464 185.2C378.296 185.136 378.088 185.104 377.84 185.104C377.544 185.104 377.308 185.164 377.132 185.284C376.964 185.404 376.88 185.568 376.88 185.776C376.88 185.976 376.968 186.128 377.144 186.232C377.32 186.336 377.66 186.44 378.164 186.544C378.7 186.656 379.12 186.784 379.424 186.928C379.728 187.072 379.944 187.252 380.072 187.468C380.208 187.684 380.276 187.96 380.276 188.296C380.276 188.84 380.048 189.276 379.592 189.604C379.144 189.932 378.544 190.096 377.792 190.096ZM386.137 188.392C386.273 188.392 386.381 188.444 386.461 188.548C386.549 188.652 386.593 188.792 386.593 188.968C386.593 189.216 386.445 189.424 386.149 189.592C385.877 189.744 385.569 189.868 385.225 189.964C384.881 190.052 384.553 190.096 384.241 190.096C383.297 190.096 382.549 189.824 381.997 189.28C381.445 188.736 381.169 187.992 381.169 187.048C381.169 186.448 381.289 185.916 381.529 185.452C381.769 184.988 382.105 184.628 382.537 184.372C382.977 184.116 383.473 183.988 384.025 183.988C384.553 183.988 385.013 184.104 385.405 184.336C385.797 184.568 386.101 184.896 386.317 185.32C386.533 185.744 386.641 186.244 386.641 186.82C386.641 187.164 386.489 187.336 386.185 187.336H382.645C382.693 187.888 382.849 188.296 383.113 188.56C383.377 188.816 383.761 188.944 384.265 188.944C384.521 188.944 384.745 188.912 384.937 188.848C385.137 188.784 385.361 188.696 385.609 188.584C385.849 188.456 386.025 188.392 386.137 188.392ZM384.061 185.044C383.653 185.044 383.325 185.172 383.077 185.428C382.837 185.684 382.693 186.052 382.645 186.532H385.357C385.341 186.044 385.221 185.676 384.997 185.428C384.773 185.172 384.461 185.044 384.061 185.044ZM393.249 190.096C392.377 190.096 391.673 189.924 391.137 189.58C390.881 189.428 390.753 189.212 390.753 188.932C390.753 188.772 390.797 188.644 390.885 188.548C390.973 188.444 391.081 188.392 391.209 188.392C391.345 188.392 391.533 188.456 391.773 188.584C392.029 188.704 392.261 188.796 392.469 188.86C392.685 188.924 392.957 188.956 393.285 188.956C393.621 188.956 393.881 188.9 394.065 188.788C394.257 188.676 394.353 188.52 394.353 188.32C394.353 188.184 394.313 188.076 394.233 187.996C394.161 187.916 394.025 187.844 393.825 187.78C393.633 187.708 393.337 187.628 392.937 187.54C392.225 187.396 391.713 187.192 391.401 186.928C391.097 186.664 390.945 186.3 390.945 185.836C390.945 185.484 391.049 185.168 391.257 184.888C391.465 184.6 391.749 184.38 392.109 184.228C392.477 184.068 392.893 183.988 393.357 183.988C393.693 183.988 394.017 184.032 394.329 184.12C394.641 184.2 394.921 184.32 395.169 184.48C395.425 184.64 395.553 184.852 395.553 185.116C395.553 185.276 395.509 185.412 395.421 185.524C395.333 185.628 395.225 185.68 395.097 185.68C395.009 185.68 394.921 185.664 394.833 185.632C394.753 185.592 394.649 185.536 394.521 185.464C394.289 185.344 394.089 185.256 393.921 185.2C393.753 185.136 393.545 185.104 393.297 185.104C393.001 185.104 392.765 185.164 392.589 185.284C392.421 185.404 392.337 185.568 392.337 185.776C392.337 185.976 392.425 186.128 392.601 186.232C392.777 186.336 393.117 186.44 393.621 186.544C394.157 186.656 394.577 186.784 394.881 186.928C395.185 187.072 395.401 187.252 395.529 187.468C395.665 187.684 395.733 187.96 395.733 188.296C395.733 188.84 395.505 189.276 395.049 189.604C394.601 189.932 394.001 190.096 393.249 190.096ZM399.494 183.988C400.31 183.988 400.914 184.192 401.306 184.6C401.706 185 401.906 185.612 401.906 186.436V189.364C401.906 189.58 401.842 189.752 401.714 189.88C401.586 190 401.41 190.06 401.186 190.06C400.978 190.06 400.806 189.996 400.67 189.868C400.542 189.74 400.478 189.572 400.478 189.364V189.1C400.342 189.412 400.126 189.656 399.83 189.832C399.542 190.008 399.206 190.096 398.822 190.096C398.43 190.096 398.074 190.016 397.754 189.856C397.434 189.696 397.182 189.476 396.998 189.196C396.814 188.916 396.722 188.604 396.722 188.26C396.722 187.828 396.83 187.488 397.046 187.24C397.27 186.992 397.63 186.812 398.126 186.7C398.622 186.588 399.306 186.532 400.178 186.532H400.478V186.256C400.478 185.864 400.394 185.58 400.226 185.404C400.058 185.22 399.786 185.128 399.41 185.128C399.178 185.128 398.942 185.164 398.702 185.236C398.462 185.3 398.178 185.396 397.85 185.524C397.642 185.628 397.49 185.68 397.394 185.68C397.25 185.68 397.13 185.628 397.034 185.524C396.946 185.42 396.902 185.284 396.902 185.116C396.902 184.98 396.934 184.864 396.998 184.768C397.07 184.664 397.186 184.568 397.346 184.48C397.626 184.328 397.958 184.208 398.342 184.12C398.734 184.032 399.118 183.988 399.494 183.988ZM399.122 189.016C399.522 189.016 399.846 188.884 400.094 188.62C400.35 188.348 400.478 188 400.478 187.576V187.324H400.262C399.726 187.324 399.31 187.348 399.014 187.396C398.718 187.444 398.506 187.528 398.378 187.648C398.25 187.768 398.186 187.932 398.186 188.14C398.186 188.396 398.274 188.608 398.45 188.776C398.634 188.936 398.858 189.016 399.122 189.016ZM404.174 190.072C403.958 190.072 403.778 190.012 403.634 189.892C403.498 189.764 403.43 189.584 403.43 189.352V182.188C403.43 181.956 403.498 181.78 403.634 181.66C403.778 181.54 403.958 181.48 404.174 181.48C404.39 181.48 404.57 181.54 404.714 181.66C404.858 181.78 404.93 181.956 404.93 182.188V189.352C404.93 189.584 404.858 189.764 404.714 189.892C404.57 190.012 404.39 190.072 404.174 190.072ZM411.121 188.392C411.257 188.392 411.365 188.444 411.445 188.548C411.533 188.652 411.577 188.792 411.577 188.968C411.577 189.216 411.429 189.424 411.133 189.592C410.861 189.744 410.553 189.868 410.209 189.964C409.865 190.052 409.537 190.096 409.225 190.096C408.281 190.096 407.533 189.824 406.981 189.28C406.429 188.736 406.153 187.992 406.153 187.048C406.153 186.448 406.273 185.916 406.513 185.452C406.753 184.988 407.089 184.628 407.521 184.372C407.961 184.116 408.457 183.988 409.009 183.988C409.537 183.988 409.997 184.104 410.389 184.336C410.781 184.568 411.085 184.896 411.301 185.32C411.517 185.744 411.625 186.244 411.625 186.82C411.625 187.164 411.473 187.336 411.169 187.336H407.629C407.677 187.888 407.833 188.296 408.097 188.56C408.361 188.816 408.745 188.944 409.249 188.944C409.505 188.944 409.729 188.912 409.921 188.848C410.121 188.784 410.345 188.696 410.593 188.584C410.833 188.456 411.009 188.392 411.121 188.392ZM409.045 185.044C408.637 185.044 408.309 185.172 408.061 185.428C407.821 185.684 407.677 186.052 407.629 186.532H410.341C410.325 186.044 410.205 185.676 409.981 185.428C409.757 185.172 409.445 185.044 409.045 185.044ZM414.976 190.096C414.104 190.096 413.4 189.924 412.864 189.58C412.608 189.428 412.48 189.212 412.48 188.932C412.48 188.772 412.524 188.644 412.612 188.548C412.7 188.444 412.808 188.392 412.936 188.392C413.072 188.392 413.26 188.456 413.5 188.584C413.756 188.704 413.988 188.796 414.196 188.86C414.412 188.924 414.684 188.956 415.012 188.956C415.348 188.956 415.608 188.9 415.792 188.788C415.984 188.676 416.08 188.52 416.08 188.32C416.08 188.184 416.04 188.076 415.96 187.996C415.888 187.916 415.752 187.844 415.552 187.78C415.36 187.708 415.064 187.628 414.664 187.54C413.952 187.396 413.44 187.192 413.128 186.928C412.824 186.664 412.672 186.3 412.672 185.836C412.672 185.484 412.776 185.168 412.984 184.888C413.192 184.6 413.476 184.38 413.836 184.228C414.204 184.068 414.62 183.988 415.084 183.988C415.42 183.988 415.744 184.032 416.056 184.12C416.368 184.2 416.648 184.32 416.896 184.48C417.152 184.64 417.28 184.852 417.28 185.116C417.28 185.276 417.236 185.412 417.148 185.524C417.06 185.628 416.952 185.68 416.824 185.68C416.736 185.68 416.648 185.664 416.56 185.632C416.48 185.592 416.376 185.536 416.248 185.464C416.016 185.344 415.816 185.256 415.648 185.2C415.48 185.136 415.272 185.104 415.024 185.104C414.728 185.104 414.492 185.164 414.316 185.284C414.148 185.404 414.064 185.568 414.064 185.776C414.064 185.976 414.152 186.128 414.328 186.232C414.504 186.336 414.844 186.44 415.348 186.544C415.884 186.656 416.304 186.784 416.608 186.928C416.912 187.072 417.128 187.252 417.256 187.468C417.392 187.684 417.46 187.96 417.46 188.296C417.46 188.84 417.232 189.276 416.776 189.604C416.328 189.932 415.728 190.096 414.976 190.096ZM425.306 183.988C425.818 183.988 426.27 184.112 426.662 184.36C427.054 184.608 427.358 184.96 427.574 185.416C427.798 185.872 427.91 186.404 427.91 187.012C427.91 187.62 427.798 188.16 427.574 188.632C427.358 189.096 427.05 189.456 426.65 189.712C426.258 189.968 425.81 190.096 425.306 190.096C424.882 190.096 424.502 190.004 424.166 189.82C423.838 189.636 423.586 189.38 423.41 189.052V189.352C423.41 189.568 423.342 189.74 423.206 189.868C423.07 189.996 422.89 190.06 422.666 190.06C422.442 190.06 422.262 189.996 422.126 189.868C421.998 189.74 421.934 189.568 421.934 189.352V182.176C421.934 181.968 422.002 181.8 422.138 181.672C422.282 181.544 422.466 181.48 422.69 181.48C422.914 181.48 423.094 181.54 423.23 181.66C423.366 181.78 423.434 181.944 423.434 182.152V184.984C423.61 184.664 423.862 184.42 424.19 184.252C424.518 184.076 424.89 183.988 425.306 183.988ZM424.91 188.932C425.382 188.932 425.75 188.764 426.014 188.428C426.278 188.092 426.41 187.62 426.41 187.012C426.41 186.412 426.278 185.952 426.014 185.632C425.758 185.312 425.39 185.152 424.91 185.152C424.43 185.152 424.058 185.316 423.794 185.644C423.538 185.964 423.41 186.428 423.41 187.036C423.41 187.644 423.538 188.112 423.794 188.44C424.058 188.768 424.43 188.932 424.91 188.932ZM433.139 184.444C433.203 184.3 433.287 184.196 433.391 184.132C433.503 184.06 433.623 184.024 433.751 184.024C433.935 184.024 434.099 184.088 434.243 184.216C434.395 184.336 434.471 184.488 434.471 184.672C434.471 184.76 434.447 184.852 434.399 184.948L431.123 191.812C430.987 192.084 430.775 192.22 430.487 192.22C430.303 192.22 430.139 192.16 429.995 192.04C429.859 191.928 429.791 191.784 429.791 191.608C429.791 191.52 429.815 191.42 429.863 191.308L430.679 189.592L428.447 184.948C428.407 184.868 428.387 184.776 428.387 184.672C428.387 184.488 428.463 184.332 428.615 184.204C428.775 184.076 428.955 184.012 429.155 184.012C429.291 184.012 429.415 184.048 429.527 184.12C429.639 184.184 429.727 184.288 429.791 184.432L431.471 188.14L433.139 184.444ZM364.218 215.752C364.698 215.752 364.938 215.956 364.938 216.364C364.938 216.788 364.698 217 364.218 217H359.658C359.45 217 359.286 216.94 359.166 216.82C359.046 216.692 358.986 216.536 358.986 216.352C358.986 216.112 359.078 215.896 359.262 215.704L361.998 212.764C362.334 212.396 362.578 212.06 362.73 211.756C362.89 211.444 362.97 211.136 362.97 210.832C362.97 210.456 362.862 210.168 362.646 209.968C362.43 209.768 362.122 209.668 361.722 209.668C361.394 209.668 361.074 209.732 360.762 209.86C360.458 209.98 360.15 210.148 359.838 210.364C359.758 210.42 359.678 210.468 359.598 210.508C359.518 210.54 359.438 210.556 359.358 210.556C359.222 210.556 359.102 210.492 358.998 210.364C358.902 210.236 358.854 210.084 358.854 209.908C358.854 209.788 358.874 209.684 358.914 209.596C358.962 209.508 359.034 209.424 359.13 209.344C359.482 209.064 359.894 208.844 360.366 208.684C360.838 208.516 361.31 208.432 361.782 208.432C362.606 208.432 363.262 208.64 363.75 209.056C364.246 209.472 364.494 210.032 364.494 210.736C364.494 211.224 364.39 211.684 364.182 212.116C363.974 212.54 363.622 213.016 363.126 213.544L361.05 215.752H364.218ZM369.493 211.588C370.021 211.588 370.485 211.704 370.885 211.936C371.293 212.16 371.609 212.476 371.833 212.884C372.057 213.292 372.169 213.76 372.169 214.288C372.169 214.84 372.041 215.328 371.785 215.752C371.537 216.176 371.181 216.508 370.717 216.748C370.261 216.98 369.733 217.096 369.133 217.096C368.637 217.096 368.149 217.016 367.669 216.856C367.197 216.688 366.793 216.464 366.457 216.184C366.273 216.024 366.181 215.836 366.181 215.62C366.181 215.444 366.229 215.296 366.325 215.176C366.429 215.048 366.549 214.984 366.685 214.984C366.765 214.984 366.841 215 366.913 215.032C366.985 215.056 367.069 215.1 367.165 215.164C367.485 215.388 367.797 215.56 368.101 215.68C368.405 215.8 368.729 215.86 369.073 215.86C369.601 215.86 370.005 215.728 370.285 215.464C370.565 215.2 370.705 214.824 370.705 214.336C370.705 213.864 370.561 213.492 370.273 213.22C369.993 212.94 369.605 212.8 369.109 212.8C368.797 212.8 368.517 212.844 368.269 212.932C368.029 213.02 367.781 213.168 367.525 213.376C367.373 213.48 367.217 213.532 367.057 213.532C366.897 213.532 366.761 213.484 366.649 213.388C366.537 213.292 366.481 213.164 366.481 213.004V209.26C366.481 209.036 366.545 208.86 366.673 208.732C366.801 208.604 366.981 208.54 367.213 208.54H371.209C371.689 208.54 371.929 208.74 371.929 209.14C371.929 209.54 371.689 209.74 371.209 209.74H367.993V212.02C368.401 211.732 368.901 211.588 369.493 211.588ZM380.054 210.988C380.558 210.988 381.006 211.116 381.398 211.372C381.798 211.628 382.106 211.992 382.322 212.464C382.546 212.928 382.658 213.464 382.658 214.072C382.658 214.68 382.546 215.212 382.322 215.668C382.106 216.124 381.802 216.476 381.41 216.724C381.018 216.972 380.566 217.096 380.054 217.096C379.638 217.096 379.266 217.008 378.938 216.832C378.61 216.656 378.358 216.412 378.182 216.1V218.548C378.182 218.756 378.114 218.92 377.978 219.04C377.842 219.16 377.662 219.22 377.438 219.22C377.214 219.22 377.03 219.156 376.886 219.028C376.75 218.9 376.682 218.732 376.682 218.524V211.72C376.682 211.504 376.746 211.332 376.874 211.204C377.01 211.076 377.19 211.012 377.414 211.012C377.638 211.012 377.818 211.076 377.954 211.204C378.09 211.332 378.158 211.504 378.158 211.72V212.02C378.334 211.692 378.586 211.44 378.914 211.264C379.25 211.08 379.63 210.988 380.054 210.988ZM379.658 215.932C380.13 215.932 380.498 215.772 380.762 215.452C381.026 215.124 381.158 214.664 381.158 214.072C381.158 213.464 381.026 212.992 380.762 212.656C380.498 212.32 380.13 212.152 379.658 212.152C379.178 212.152 378.806 212.316 378.542 212.644C378.286 212.972 378.158 213.44 378.158 214.048C378.158 214.648 378.286 215.112 378.542 215.44C378.806 215.768 379.178 215.932 379.658 215.932ZM388.533 215.392C388.669 215.392 388.777 215.444 388.857 215.548C388.945 215.652 388.989 215.792 388.989 215.968C388.989 216.216 388.841 216.424 388.545 216.592C388.273 216.744 387.965 216.868 387.621 216.964C387.277 217.052 386.949 217.096 386.637 217.096C385.693 217.096 384.945 216.824 384.393 216.28C383.841 215.736 383.565 214.992 383.565 214.048C383.565 213.448 383.685 212.916 383.925 212.452C384.165 211.988 384.501 211.628 384.933 211.372C385.373 211.116 385.869 210.988 386.421 210.988C386.949 210.988 387.409 211.104 387.801 211.336C388.193 211.568 388.497 211.896 388.713 212.32C388.929 212.744 389.037 213.244 389.037 213.82C389.037 214.164 388.885 214.336 388.581 214.336H385.041C385.089 214.888 385.245 215.296 385.509 215.56C385.773 215.816 386.157 215.944 386.661 215.944C386.917 215.944 387.141 215.912 387.333 215.848C387.533 215.784 387.757 215.696 388.005 215.584C388.245 215.456 388.421 215.392 388.533 215.392ZM386.457 212.044C386.049 212.044 385.721 212.172 385.473 212.428C385.233 212.684 385.089 213.052 385.041 213.532H387.753C387.737 213.044 387.617 212.676 387.393 212.428C387.169 212.172 386.857 212.044 386.457 212.044ZM393.54 211.012C393.748 210.996 393.912 211.04 394.032 211.144C394.152 211.248 394.212 211.404 394.212 211.612C394.212 211.828 394.16 211.988 394.056 212.092C393.952 212.196 393.764 212.264 393.492 212.296L393.132 212.332C392.66 212.38 392.312 212.54 392.088 212.812C391.872 213.084 391.764 213.424 391.764 213.832V216.352C391.764 216.584 391.692 216.764 391.548 216.892C391.404 217.012 391.224 217.072 391.008 217.072C390.792 217.072 390.612 217.012 390.468 216.892C390.332 216.764 390.264 216.584 390.264 216.352V211.708C390.264 211.484 390.332 211.312 390.468 211.192C390.612 211.072 390.788 211.012 390.996 211.012C391.204 211.012 391.372 211.072 391.5 211.192C391.628 211.304 391.692 211.468 391.692 211.684V212.164C391.844 211.812 392.068 211.54 392.364 211.348C392.668 211.156 393.004 211.048 393.372 211.024L393.54 211.012ZM397.345 217.096C396.761 217.096 396.245 216.972 395.797 216.724C395.357 216.476 395.017 216.124 394.777 215.668C394.537 215.212 394.417 214.68 394.417 214.072C394.417 213.464 394.541 212.928 394.789 212.464C395.045 211.992 395.401 211.628 395.857 211.372C396.313 211.116 396.837 210.988 397.429 210.988C397.741 210.988 398.053 211.032 398.365 211.12C398.685 211.208 398.965 211.328 399.205 211.48C399.461 211.648 399.589 211.86 399.589 212.116C399.589 212.292 399.545 212.436 399.457 212.548C399.377 212.652 399.269 212.704 399.133 212.704C399.045 212.704 398.953 212.684 398.857 212.644C398.761 212.604 398.665 212.556 398.569 212.5C398.393 212.396 398.225 212.316 398.065 212.26C397.905 212.196 397.721 212.164 397.513 212.164C397.017 212.164 396.633 212.328 396.361 212.656C396.097 212.976 395.965 213.44 395.965 214.048C395.965 214.648 396.097 215.112 396.361 215.44C396.633 215.76 397.017 215.92 397.513 215.92C397.713 215.92 397.889 215.892 398.041 215.836C398.201 215.772 398.377 215.688 398.569 215.584C398.689 215.512 398.793 215.46 398.881 215.428C398.969 215.388 399.057 215.368 399.145 215.368C399.273 215.368 399.381 215.424 399.469 215.536C399.557 215.648 399.601 215.788 399.601 215.956C399.601 216.092 399.569 216.212 399.505 216.316C399.449 216.412 399.353 216.5 399.217 216.58C398.969 216.74 398.681 216.868 398.353 216.964C398.025 217.052 397.689 217.096 397.345 217.096ZM405.244 215.392C405.38 215.392 405.488 215.444 405.568 215.548C405.656 215.652 405.7 215.792 405.7 215.968C405.7 216.216 405.552 216.424 405.256 216.592C404.984 216.744 404.676 216.868 404.332 216.964C403.988 217.052 403.66 217.096 403.348 217.096C402.404 217.096 401.656 216.824 401.104 216.28C400.552 215.736 400.276 214.992 400.276 214.048C400.276 213.448 400.396 212.916 400.636 212.452C400.876 211.988 401.212 211.628 401.644 211.372C402.084 211.116 402.58 210.988 403.132 210.988C403.66 210.988 404.12 211.104 404.512 211.336C404.904 211.568 405.208 211.896 405.424 212.32C405.64 212.744 405.748 213.244 405.748 213.82C405.748 214.164 405.596 214.336 405.292 214.336H401.752C401.8 214.888 401.956 215.296 402.22 215.56C402.484 215.816 402.868 215.944 403.372 215.944C403.628 215.944 403.852 215.912 404.044 215.848C404.244 215.784 404.468 215.696 404.716 215.584C404.956 215.456 405.132 215.392 405.244 215.392ZM403.168 212.044C402.76 212.044 402.432 212.172 402.184 212.428C401.944 212.684 401.8 213.052 401.752 213.532H404.464C404.448 213.044 404.328 212.676 404.104 212.428C403.88 212.172 403.568 212.044 403.168 212.044ZM410.383 210.988C411.087 210.988 411.611 211.188 411.955 211.588C412.299 211.988 412.471 212.592 412.471 213.4V216.352C412.471 216.576 412.403 216.752 412.267 216.88C412.139 217.008 411.959 217.072 411.727 217.072C411.495 217.072 411.311 217.008 411.175 216.88C411.039 216.752 410.971 216.576 410.971 216.352V213.484C410.971 213.028 410.883 212.696 410.707 212.488C410.539 212.28 410.271 212.176 409.903 212.176C409.471 212.176 409.123 212.312 408.859 212.584C408.603 212.856 408.475 213.22 408.475 213.676V216.352C408.475 216.576 408.407 216.752 408.271 216.88C408.135 217.008 407.951 217.072 407.719 217.072C407.487 217.072 407.303 217.008 407.167 216.88C407.039 216.752 406.975 216.576 406.975 216.352V211.708C406.975 211.5 407.043 211.332 407.179 211.204C407.315 211.076 407.499 211.012 407.731 211.012C407.939 211.012 408.107 211.076 408.235 211.204C408.371 211.324 408.439 211.484 408.439 211.684V212.008C408.639 211.68 408.907 211.428 409.243 211.252C409.579 211.076 409.959 210.988 410.383 210.988ZM417.043 215.956C417.443 215.98 417.643 216.16 417.643 216.496C417.643 216.688 417.563 216.836 417.403 216.94C417.251 217.036 417.031 217.076 416.743 217.06L416.419 217.036C415.075 216.94 414.403 216.22 414.403 214.876V212.26H413.803C413.587 212.26 413.419 212.212 413.299 212.116C413.187 212.02 413.131 211.88 413.131 211.696C413.131 211.512 413.187 211.372 413.299 211.276C413.419 211.18 413.587 211.132 413.803 211.132H414.403V210.028C414.403 209.812 414.471 209.64 414.607 209.512C414.743 209.384 414.927 209.32 415.159 209.32C415.383 209.32 415.563 209.384 415.699 209.512C415.835 209.64 415.903 209.812 415.903 210.028V211.132H416.923C417.139 211.132 417.303 211.18 417.415 211.276C417.535 211.372 417.595 211.512 417.595 211.696C417.595 211.88 417.535 212.02 417.415 212.116C417.303 212.212 417.139 212.26 416.923 212.26H415.903V214.984C415.903 215.576 416.175 215.892 416.719 215.932L417.043 215.956Z" fill="#334D6E"/>
<path d="M0 10C0 4.47716 4.47715 0 10 0H209.97C215.493 0 219.97 4.47715 219.97 10V413.225C219.97 418.748 215.493 423.225 209.97 423.225H10C4.47717 423.225 0 418.748 0 413.225V10Z" fill="#AFCCF2" fill-opacity="0.1"/>
<path d="M0 10C0 4.47716 4.47715 0 10 0H209.97C215.493 0 219.97 4.47715 219.97 10V413.225C219.97 418.748 215.493 423.225 209.97 423.225H10C4.47717 423.225 0 418.748 0 413.225V10Z" stroke="black"/>
<g clip-path="url(#clip1)">
<path d="M198.537 76H103.14C100.954 76 99.1816 77.1195 99.1816 78.5004V81.2509C99.1816 82.6319 100.954 83.7514 103.14 83.7514H198.537C200.723 83.7514 202.495 82.6319 202.495 81.2509V78.5004C202.495 77.1195 200.723 76 198.537 76Z" fill="#334D6E" fill-opacity="0.15"/>
</g>
<path d="M303.138 59H244.005C239.032 59 235 63.6026 235 69.2803V126.233C235 131.911 239.032 136.514 244.005 136.514H303.138C308.111 136.514 312.143 131.911 312.143 126.233V69.2803C312.143 63.6026 308.111 59 303.138 59Z" fill="#F7FAFE"/>
<path d="M303.14 59.1716H244.007C239.117 59.1716 235.152 63.6976 235.152 69.2806V126.234C235.152 131.817 239.117 136.343 244.007 136.343H303.14C308.031 136.343 311.995 131.817 311.995 126.234V69.2806C311.995 63.6976 308.031 59.1716 303.14 59.1716Z" stroke="#6BC1FF" stroke-width="0.25"/>
<path d="M298.084 75H251.916C250.858 75 250 75.7221 250 76.6129V78.3871C250 79.2779 250.858 80 251.916 80H298.084C299.142 80 300 79.2779 300 78.3871V76.6129C300 75.7221 299.142 75 298.084 75Z" fill="#334D6E" fill-opacity="0.15"/>
<path d="M297.084 95H250.916C249.858 95 249 95.7221 249 96.6129V98.3871C249 99.2779 249.858 100 250.916 100H297.084C298.142 100 299 99.2779 299 98.3871V96.6129C299 95.7221 298.142 95 297.084 95Z" fill="#334D6E" fill-opacity="0.15"/>
<path d="M297.084 114H250.916C249.858 114 249 114.722 249 115.613V117.387C249 118.278 249.858 119 250.916 119H297.084C298.142 119 299 118.278 299 117.387V115.613C299 114.722 298.142 114 297.084 114Z" fill="#334D6E" fill-opacity="0.15"/>
<path d="M513.138 58H454.005C449.032 58 445 62.6026 445 68.2803V125.233C445 130.911 449.032 135.514 454.005 135.514H513.138C518.111 135.514 522.143 130.911 522.143 125.233V68.2803C522.143 62.6026 518.111 58 513.138 58Z" fill="#F7FAFE"/>
<path d="M513.14 58.1716H454.007C449.117 58.1716 445.152 62.6976 445.152 68.2806V125.234C445.152 130.817 449.117 135.343 454.007 135.343H513.14C518.031 135.343 521.995 130.817 521.995 125.234V68.2806C521.995 62.6976 518.031 58.1716 513.14 58.1716Z" stroke="#6BC1FF" stroke-width="0.25"/>
<path d="M508.084 74H461.916C460.858 74 460 74.7221 460 75.6129V77.3871C460 78.2779 460.858 79 461.916 79H508.084C509.142 79 510 78.2779 510 77.3871V75.6129C510 74.7221 509.142 74 508.084 74Z" fill="#334D6E" fill-opacity="0.15"/>
<path d="M507.084 94H460.916C459.858 94 459 94.7221 459 95.6129V97.3871C459 98.2779 459.858 99 460.916 99H507.084C508.142 99 509 98.2779 509 97.3871V95.6129C509 94.7221 508.142 94 507.084 94Z" fill="#334D6E" fill-opacity="0.15"/>
<path d="M507.084 113H460.916C459.858 113 459 113.722 459 114.613V116.387C459 117.278 459.858 118 460.916 118H507.084C508.142 118 509 117.278 509 116.387V114.613C509 113.722 508.142 113 507.084 113Z" fill="#334D6E" fill-opacity="0.15"/>
<path d="M513.138 58H454.005C449.032 58 445 62.6026 445 68.2803V125.233C445 130.911 449.032 135.514 454.005 135.514H513.138C518.111 135.514 522.143 130.911 522.143 125.233V68.2803C522.143 62.6026 518.111 58 513.138 58Z" fill="#F7FAFE"/>
<path d="M513.14 58.1716H454.007C449.117 58.1716 445.152 62.6976 445.152 68.2806V125.234C445.152 130.817 449.117 135.343 454.007 135.343H513.14C518.031 135.343 521.995 130.817 521.995 125.234V68.2806C521.995 62.6976 518.031 58.1716 513.14 58.1716Z" stroke="#6BC1FF" stroke-width="0.25"/>
<path d="M508.084 74H461.916C460.858 74 460 74.7221 460 75.6129V77.3871C460 78.2779 460.858 79 461.916 79H508.084C509.142 79 510 78.2779 510 77.3871V75.6129C510 74.7221 509.142 74 508.084 74Z" fill="#334D6E" fill-opacity="0.15"/>
<path d="M507.084 94H460.916C459.858 94 459 94.7221 459 95.6129V97.3871C459 98.2779 459.858 99 460.916 99H507.084C508.142 99 509 98.2779 509 97.3871V95.6129C509 94.7221 508.142 94 507.084 94Z" fill="#334D6E" fill-opacity="0.15"/>
<path d="M507.084 113H460.916C459.858 113 459 113.722 459 114.613V116.387C459 117.278 459.858 118 460.916 118H507.084C508.142 118 509 117.278 509 116.387V114.613C509 113.722 508.142 113 507.084 113Z" fill="#334D6E" fill-opacity="0.15"/>
<path d="M514.138 264H455.005C450.032 264 446 268.603 446 274.28V331.233C446 336.911 450.032 341.514 455.005 341.514H514.138C519.111 341.514 523.143 336.911 523.143 331.233V274.28C523.143 268.603 519.111 264 514.138 264Z" fill="#F7FAFE"/>
<path d="M514.14 264.172H455.007C450.117 264.172 446.152 268.698 446.152 274.281V331.234C446.152 336.817 450.117 341.343 455.007 341.343H514.14C519.031 341.343 522.995 336.817 522.995 331.234V274.281C522.995 268.698 519.031 264.172 514.14 264.172Z" stroke="#6BC1FF" stroke-width="0.25"/>
<path d="M509.084 280H462.916C461.858 280 461 280.722 461 281.613V283.387C461 284.278 461.858 285 462.916 285H509.084C510.142 285 511 284.278 511 283.387V281.613C511 280.722 510.142 280 509.084 280Z" fill="#334D6E" fill-opacity="0.15"/>
<path d="M508.084 300H461.916C460.858 300 460 300.722 460 301.613V303.387C460 304.278 460.858 305 461.916 305H508.084C509.142 305 510 304.278 510 303.387V301.613C510 300.722 509.142 300 508.084 300Z" fill="#334D6E" fill-opacity="0.15"/>
<path d="M508.084 319H461.916C460.858 319 460 319.722 460 320.613V322.387C460 323.278 460.858 324 461.916 324H508.084C509.142 324 510 323.278 510 322.387V320.613C510 319.722 509.142 319 508.084 319Z" fill="#334D6E" fill-opacity="0.15"/>
<path d="M304.138 266H245.005C240.032 266 236 270.603 236 276.28V333.233C236 338.911 240.032 343.514 245.005 343.514H304.138C309.111 343.514 313.143 338.911 313.143 333.233V276.28C313.143 270.603 309.111 266 304.138 266Z" fill="#F7FAFE"/>
<path d="M304.14 266.172H245.007C240.117 266.172 236.152 270.698 236.152 276.281V333.234C236.152 338.817 240.117 343.343 245.007 343.343H304.14C309.031 343.343 312.995 338.817 312.995 333.234V276.281C312.995 270.698 309.031 266.172 304.14 266.172Z" stroke="#6BC1FF" stroke-width="0.25"/>
<path d="M299.084 282H252.916C251.858 282 251 282.722 251 283.613V285.387C251 286.278 251.858 287 252.916 287H299.084C300.142 287 301 286.278 301 285.387V283.613C301 282.722 300.142 282 299.084 282Z" fill="#334D6E" fill-opacity="0.15"/>
<path d="M298.084 302H251.916C250.858 302 250 302.722 250 303.613V305.387C250 306.278 250.858 307 251.916 307H298.084C299.142 307 300 306.278 300 305.387V303.613C300 302.722 299.142 302 298.084 302Z" fill="#334D6E" fill-opacity="0.15"/>
<path d="M298.084 321H251.916C250.858 321 250 321.722 250 322.613V324.387C250 325.278 250.858 326 251.916 326H298.084C299.142 326 300 325.278 300 324.387V322.613C300 321.722 299.142 321 298.084 321Z" fill="#334D6E" fill-opacity="0.15"/>
<path d="M260.424 16.593C260.503 16.3663 260.628 16.1963 260.798 16.083C260.979 15.9697 261.177 15.913 261.393 15.913C261.665 15.913 261.897 15.998 262.09 16.168C262.294 16.338 262.396 16.5647 262.396 16.848C262.396 16.95 262.367 17.0973 262.311 17.29L258.656 27.405C258.565 27.6317 258.412 27.8073 258.197 27.932C257.993 28.0567 257.766 28.119 257.517 28.119C257.267 28.119 257.035 28.0567 256.82 27.932C256.604 27.8073 256.457 27.6317 256.378 27.405L253.556 19.398L250.683 27.405C250.592 27.6317 250.439 27.8073 250.224 27.932C250.02 28.0567 249.793 28.119 249.544 28.119C249.294 28.119 249.062 28.0567 248.847 27.932C248.643 27.8073 248.501 27.6317 248.422 27.405L244.767 17.29C244.71 17.12 244.682 16.9727 244.682 16.848C244.682 16.5647 244.784 16.338 244.988 16.168C245.203 15.998 245.452 15.913 245.736 15.913C245.962 15.913 246.166 15.9697 246.348 16.083C246.529 16.1963 246.659 16.3663 246.739 16.593L249.629 24.906L252.604 16.644C252.683 16.4173 252.813 16.2417 252.995 16.117C253.176 15.981 253.374 15.913 253.59 15.913C253.805 15.913 254.003 15.981 254.185 16.117C254.377 16.2417 254.513 16.423 254.593 16.661L257.483 25.008L260.424 16.593ZM268.946 19.483C270.896 19.483 271.87 20.622 271.87 22.9V27.082C271.87 27.3993 271.774 27.6487 271.581 27.83C271.4 28.0113 271.145 28.102 270.816 28.102C270.488 28.102 270.227 28.0113 270.034 27.83C269.842 27.6487 269.745 27.3993 269.745 27.082V22.9C269.745 22.2993 269.621 21.863 269.371 21.591C269.133 21.3077 268.754 21.166 268.232 21.166C267.62 21.166 267.127 21.3587 266.753 21.744C266.391 22.1293 266.209 22.645 266.209 23.291V27.082C266.209 27.3993 266.113 27.6487 265.92 27.83C265.728 28.0113 265.467 28.102 265.138 28.102C264.81 28.102 264.549 28.0113 264.356 27.83C264.175 27.6487 264.084 27.3993 264.084 27.082V16.916C264.084 16.6213 264.181 16.3833 264.373 16.202C264.577 16.0207 264.838 15.93 265.155 15.93C265.473 15.93 265.728 16.015 265.92 16.185C266.113 16.355 266.209 16.5873 266.209 16.882V20.843C266.493 20.401 266.867 20.0667 267.331 19.84C267.807 19.602 268.346 19.483 268.946 19.483ZM277.633 19.483C278.789 19.483 279.644 19.772 280.2 20.35C280.766 20.9167 281.05 21.7837 281.05 22.951V27.099C281.05 27.405 280.959 27.6487 280.778 27.83C280.596 28 280.347 28.085 280.03 28.085C279.735 28.085 279.491 27.9943 279.299 27.813C279.117 27.6317 279.027 27.3937 279.027 27.099V26.725C278.834 27.167 278.528 27.5127 278.109 27.762C277.701 28.0113 277.225 28.136 276.681 28.136C276.125 28.136 275.621 28.0227 275.168 27.796C274.714 27.5693 274.357 27.2577 274.097 26.861C273.836 26.4643 273.706 26.0223 273.706 25.535C273.706 24.923 273.859 24.4413 274.165 24.09C274.482 23.7387 274.992 23.4837 275.695 23.325C276.397 23.1663 277.366 23.087 278.602 23.087H279.027V22.696C279.027 22.1407 278.908 21.7383 278.67 21.489C278.432 21.2283 278.046 21.098 277.514 21.098C277.185 21.098 276.851 21.149 276.511 21.251C276.171 21.3417 275.768 21.4777 275.304 21.659C275.009 21.8063 274.794 21.88 274.658 21.88C274.454 21.88 274.284 21.8063 274.148 21.659C274.023 21.5117 273.961 21.319 273.961 21.081C273.961 20.8883 274.006 20.724 274.097 20.588C274.199 20.4407 274.363 20.3047 274.59 20.18C274.986 19.9647 275.457 19.7947 276.001 19.67C276.556 19.5453 277.1 19.483 277.633 19.483ZM277.106 26.606C277.672 26.606 278.131 26.419 278.483 26.045C278.845 25.6597 279.027 25.1667 279.027 24.566V24.209H278.721C277.961 24.209 277.372 24.243 276.953 24.311C276.533 24.379 276.233 24.498 276.052 24.668C275.87 24.838 275.78 25.0703 275.78 25.365C275.78 25.7277 275.904 26.028 276.154 26.266C276.414 26.4927 276.732 26.606 277.106 26.606ZM287.527 26.521C288.094 26.555 288.377 26.81 288.377 27.286C288.377 27.558 288.264 27.7677 288.037 27.915C287.822 28.051 287.51 28.1077 287.102 28.085L286.643 28.051C284.739 27.915 283.787 26.895 283.787 24.991V21.285H282.937C282.631 21.285 282.393 21.217 282.223 21.081C282.065 20.945 281.985 20.7467 281.985 20.486C281.985 20.2253 282.065 20.027 282.223 19.891C282.393 19.755 282.631 19.687 282.937 19.687H283.787V18.123C283.787 17.817 283.884 17.5733 284.076 17.392C284.269 17.2107 284.53 17.12 284.858 17.12C285.176 17.12 285.431 17.2107 285.623 17.392C285.816 17.5733 285.912 17.817 285.912 18.123V19.687H287.357C287.663 19.687 287.896 19.755 288.054 19.891C288.224 20.027 288.309 20.2253 288.309 20.486C288.309 20.7467 288.224 20.945 288.054 21.081C287.896 21.217 287.663 21.285 287.357 21.285H285.912V25.144C285.912 25.9827 286.298 26.4303 287.068 26.487L287.527 26.521ZM300.662 19.517C300.991 19.517 301.251 19.6077 301.444 19.789C301.637 19.9703 301.733 20.214 301.733 20.52V27.116C301.733 27.4107 301.631 27.6487 301.427 27.83C301.234 28.0113 300.979 28.102 300.662 28.102C300.356 28.102 300.112 28.017 299.931 27.847C299.75 27.677 299.659 27.4447 299.659 27.15V26.725C299.398 27.1783 299.047 27.5297 298.605 27.779C298.163 28.017 297.664 28.136 297.109 28.136C295.069 28.136 294.049 26.9913 294.049 24.702V20.52C294.049 20.214 294.145 19.9703 294.338 19.789C294.531 19.6077 294.786 19.517 295.103 19.517C295.432 19.517 295.692 19.6077 295.885 19.789C296.078 19.9703 296.174 20.214 296.174 20.52V24.719C296.174 25.3083 296.293 25.7447 296.531 26.028C296.769 26.3113 297.143 26.453 297.653 26.453C298.242 26.453 298.713 26.2603 299.064 25.875C299.427 25.4783 299.608 24.957 299.608 24.311V20.52C299.608 20.214 299.704 19.9703 299.897 19.789C300.09 19.6077 300.345 19.517 300.662 19.517ZM306.954 28.136C305.719 28.136 304.721 27.8923 303.962 27.405C303.599 27.1897 303.418 26.8837 303.418 26.487C303.418 26.2603 303.48 26.079 303.605 25.943C303.73 25.7957 303.883 25.722 304.064 25.722C304.257 25.722 304.523 25.8127 304.863 25.994C305.226 26.164 305.554 26.2943 305.849 26.385C306.155 26.4757 306.54 26.521 307.005 26.521C307.481 26.521 307.849 26.4417 308.11 26.283C308.382 26.1243 308.518 25.9033 308.518 25.62C308.518 25.4273 308.461 25.2743 308.348 25.161C308.246 25.0477 308.053 24.9457 307.77 24.855C307.498 24.753 307.079 24.6397 306.512 24.515C305.503 24.311 304.778 24.022 304.336 23.648C303.905 23.274 303.69 22.7583 303.69 22.101C303.69 21.6023 303.837 21.1547 304.132 20.758C304.427 20.35 304.829 20.0383 305.339 19.823C305.86 19.5963 306.45 19.483 307.107 19.483C307.583 19.483 308.042 19.5453 308.484 19.67C308.926 19.7833 309.323 19.9533 309.674 20.18C310.037 20.4067 310.218 20.707 310.218 21.081C310.218 21.3077 310.156 21.5003 310.031 21.659C309.906 21.8063 309.753 21.88 309.572 21.88C309.447 21.88 309.323 21.8573 309.198 21.812C309.085 21.7553 308.937 21.676 308.756 21.574C308.427 21.404 308.144 21.2793 307.906 21.2C307.668 21.1093 307.373 21.064 307.022 21.064C306.603 21.064 306.268 21.149 306.019 21.319C305.781 21.489 305.662 21.7213 305.662 22.016C305.662 22.2993 305.787 22.5147 306.036 22.662C306.285 22.8093 306.767 22.9567 307.481 23.104C308.24 23.2627 308.835 23.444 309.266 23.648C309.697 23.852 310.003 24.107 310.184 24.413C310.377 24.719 310.473 25.11 310.473 25.586C310.473 26.3567 310.15 26.9743 309.504 27.439C308.869 27.9037 308.019 28.136 306.954 28.136ZM318.775 25.722C318.967 25.722 319.12 25.7957 319.234 25.943C319.358 26.0903 319.421 26.2887 319.421 26.538C319.421 26.8893 319.211 27.184 318.792 27.422C318.406 27.6373 317.97 27.813 317.483 27.949C316.995 28.0737 316.531 28.136 316.089 28.136C314.751 28.136 313.692 27.7507 312.91 26.98C312.128 26.2093 311.737 25.1553 311.737 23.818C311.737 22.968 311.907 22.2143 312.247 21.557C312.587 20.8997 313.063 20.3897 313.675 20.027C314.298 19.6643 315.001 19.483 315.783 19.483C316.531 19.483 317.182 19.6473 317.738 19.976C318.293 20.3047 318.724 20.7693 319.03 21.37C319.336 21.9707 319.489 22.679 319.489 23.495C319.489 23.9823 319.273 24.226 318.843 24.226H313.828C313.896 25.008 314.117 25.586 314.491 25.96C314.865 26.3227 315.409 26.504 316.123 26.504C316.485 26.504 316.803 26.4587 317.075 26.368C317.358 26.2773 317.675 26.1527 318.027 25.994C318.367 25.8127 318.616 25.722 318.775 25.722ZM315.834 20.979C315.256 20.979 314.791 21.1603 314.44 21.523C314.1 21.8857 313.896 22.407 313.828 23.087H317.67C317.647 22.3957 317.477 21.8743 317.16 21.523C316.842 21.1603 316.4 20.979 315.834 20.979ZM325.868 19.517C326.163 19.4943 326.395 19.5567 326.565 19.704C326.735 19.8513 326.82 20.0723 326.82 20.367C326.82 20.673 326.746 20.8997 326.599 21.047C326.452 21.1943 326.185 21.2907 325.8 21.336L325.29 21.387C324.621 21.455 324.128 21.6817 323.811 22.067C323.505 22.4523 323.352 22.934 323.352 23.512V27.082C323.352 27.4107 323.25 27.6657 323.046 27.847C322.842 28.017 322.587 28.102 322.281 28.102C321.975 28.102 321.72 28.017 321.516 27.847C321.323 27.6657 321.227 27.4107 321.227 27.082V20.503C321.227 20.1857 321.323 19.942 321.516 19.772C321.72 19.602 321.969 19.517 322.264 19.517C322.559 19.517 322.797 19.602 322.978 19.772C323.159 19.9307 323.25 20.163 323.25 20.469V21.149C323.465 20.6503 323.783 20.265 324.202 19.993C324.633 19.721 325.109 19.568 325.63 19.534L325.868 19.517ZM336.668 26.521C337.235 26.555 337.518 26.81 337.518 27.286C337.518 27.558 337.405 27.7677 337.178 27.915C336.963 28.051 336.651 28.1077 336.243 28.085L335.784 28.051C333.88 27.915 332.928 26.895 332.928 24.991V21.285H332.078C331.772 21.285 331.534 21.217 331.364 21.081C331.205 20.945 331.126 20.7467 331.126 20.486C331.126 20.2253 331.205 20.027 331.364 19.891C331.534 19.755 331.772 19.687 332.078 19.687H332.928V18.123C332.928 17.817 333.024 17.5733 333.217 17.392C333.41 17.2107 333.67 17.12 333.999 17.12C334.316 17.12 334.571 17.2107 334.764 17.392C334.957 17.5733 335.053 17.817 335.053 18.123V19.687H336.498C336.804 19.687 337.036 19.755 337.195 19.891C337.365 20.027 337.45 20.2253 337.45 20.486C337.45 20.7467 337.365 20.945 337.195 21.081C337.036 21.217 336.804 21.285 336.498 21.285H335.053V25.144C335.053 25.9827 335.438 26.4303 336.209 26.487L336.668 26.521ZM344.555 20.129C344.646 19.925 344.765 19.7777 344.912 19.687C345.071 19.585 345.241 19.534 345.422 19.534C345.683 19.534 345.915 19.6247 346.119 19.806C346.335 19.976 346.442 20.1913 346.442 20.452C346.442 20.5767 346.408 20.707 346.34 20.843L341.699 30.567C341.507 30.9523 341.206 31.145 340.798 31.145C340.538 31.145 340.305 31.06 340.101 30.89C339.909 30.7313 339.812 30.5273 339.812 30.278C339.812 30.1533 339.846 30.0117 339.914 29.853L341.07 27.422L337.908 20.843C337.852 20.7297 337.823 20.5993 337.823 20.452C337.823 20.1913 337.931 19.9703 338.146 19.789C338.373 19.6077 338.628 19.517 338.911 19.517C339.104 19.517 339.28 19.568 339.438 19.67C339.597 19.7607 339.722 19.908 339.812 20.112L342.192 25.365L344.555 20.129ZM352.484 19.483C353.198 19.483 353.832 19.6643 354.388 20.027C354.954 20.3897 355.391 20.9053 355.697 21.574C356.014 22.2313 356.173 22.9907 356.173 23.852C356.173 24.7133 356.014 25.467 355.697 26.113C355.391 26.759 354.96 27.2577 354.405 27.609C353.849 27.9603 353.209 28.136 352.484 28.136C351.894 28.136 351.367 28.0113 350.903 27.762C350.438 27.5127 350.081 27.167 349.832 26.725V30.193C349.832 30.4877 349.735 30.72 349.543 30.89C349.35 31.06 349.095 31.145 348.778 31.145C348.46 31.145 348.2 31.0543 347.996 30.873C347.803 30.6917 347.707 30.4537 347.707 30.159V20.52C347.707 20.214 347.797 19.9703 347.979 19.789C348.171 19.6077 348.426 19.517 348.744 19.517C349.061 19.517 349.316 19.6077 349.509 19.789C349.701 19.9703 349.798 20.214 349.798 20.52V20.945C350.047 20.4803 350.404 20.1233 350.869 19.874C351.345 19.6133 351.883 19.483 352.484 19.483ZM351.923 26.487C352.591 26.487 353.113 26.2603 353.487 25.807C353.861 25.3423 354.048 24.6907 354.048 23.852C354.048 22.9907 353.861 22.322 353.487 21.846C353.113 21.37 352.591 21.132 351.923 21.132C351.243 21.132 350.716 21.3643 350.342 21.829C349.979 22.2937 349.798 22.9567 349.798 23.818C349.798 24.668 349.979 25.3253 350.342 25.79C350.716 26.2547 351.243 26.487 351.923 26.487ZM364.496 25.722C364.688 25.722 364.841 25.7957 364.955 25.943C365.079 26.0903 365.142 26.2887 365.142 26.538C365.142 26.8893 364.932 27.184 364.513 27.422C364.127 27.6373 363.691 27.813 363.204 27.949C362.716 28.0737 362.252 28.136 361.81 28.136C360.472 28.136 359.413 27.7507 358.631 26.98C357.849 26.2093 357.458 25.1553 357.458 23.818C357.458 22.968 357.628 22.2143 357.968 21.557C358.308 20.8997 358.784 20.3897 359.396 20.027C360.019 19.6643 360.722 19.483 361.504 19.483C362.252 19.483 362.903 19.6473 363.459 19.976C364.014 20.3047 364.445 20.7693 364.751 21.37C365.057 21.9707 365.21 22.679 365.21 23.495C365.21 23.9823 364.994 24.226 364.564 24.226H359.549C359.617 25.008 359.838 25.586 360.212 25.96C360.586 26.3227 361.13 26.504 361.844 26.504C362.206 26.504 362.524 26.4587 362.796 26.368C363.079 26.2773 363.396 26.1527 363.748 25.994C364.088 25.8127 364.337 25.722 364.496 25.722ZM361.555 20.979C360.977 20.979 360.512 21.1603 360.161 21.523C359.821 21.8857 359.617 22.407 359.549 23.087H363.391C363.368 22.3957 363.198 21.8743 362.881 21.523C362.563 21.1603 362.121 20.979 361.555 20.979ZM373.884 15.93C374.201 15.93 374.462 16.0207 374.666 16.202C374.87 16.3833 374.972 16.6213 374.972 16.916V27.082C374.972 27.388 374.875 27.6317 374.683 27.813C374.49 27.9943 374.235 28.085 373.918 28.085C373.6 28.085 373.345 27.9943 373.153 27.813C372.96 27.6317 372.864 27.388 372.864 27.082V26.657C372.614 27.1217 372.252 27.4843 371.776 27.745C371.311 28.0057 370.778 28.136 370.178 28.136C369.464 28.136 368.823 27.9547 368.257 27.592C367.701 27.2293 367.265 26.7193 366.948 26.062C366.642 25.3933 366.489 24.6283 366.489 23.767C366.489 22.9057 366.642 22.152 366.948 21.506C367.265 20.86 367.701 20.3613 368.257 20.01C368.812 19.6587 369.452 19.483 370.178 19.483C370.778 19.483 371.311 19.6077 371.776 19.857C372.24 20.1063 372.597 20.4577 372.847 20.911V16.882C372.847 16.5987 372.937 16.372 373.119 16.202C373.311 16.0207 373.566 15.93 373.884 15.93ZM370.739 26.487C371.419 26.487 371.94 26.2547 372.303 25.79C372.677 25.3253 372.864 24.6623 372.864 23.801C372.864 22.9397 372.677 22.2823 372.303 21.829C371.94 21.3643 371.424 21.132 370.756 21.132C370.076 21.132 369.549 21.3587 369.175 21.812C368.801 22.2653 368.614 22.917 368.614 23.767C368.614 24.6283 368.801 25.297 369.175 25.773C369.549 26.249 370.07 26.487 370.739 26.487ZM382.827 28.102C382.521 28.102 382.266 28.017 382.062 27.847C381.869 27.6657 381.773 27.4107 381.773 27.082V20.52C381.773 20.1913 381.869 19.942 382.062 19.772C382.266 19.602 382.521 19.517 382.827 19.517C383.133 19.517 383.388 19.602 383.592 19.772C383.796 19.942 383.898 20.1913 383.898 20.52V27.082C383.898 27.4107 383.796 27.6657 383.592 27.847C383.388 28.017 383.133 28.102 382.827 28.102ZM382.827 18.004C382.442 18.004 382.136 17.902 381.909 17.698C381.682 17.4827 381.569 17.205 381.569 16.865C381.569 16.525 381.682 16.253 381.909 16.049C382.136 15.845 382.442 15.743 382.827 15.743C383.201 15.743 383.501 15.845 383.728 16.049C383.966 16.253 384.085 16.525 384.085 16.865C384.085 17.205 383.972 17.4827 383.745 17.698C383.518 17.902 383.212 18.004 382.827 18.004ZM390.917 19.483C391.915 19.483 392.657 19.7663 393.144 20.333C393.632 20.8997 393.875 21.7553 393.875 22.9V27.082C393.875 27.3993 393.779 27.6487 393.586 27.83C393.405 28.0113 393.15 28.102 392.821 28.102C392.493 28.102 392.232 28.0113 392.039 27.83C391.847 27.6487 391.75 27.3993 391.75 27.082V23.019C391.75 22.373 391.626 21.9027 391.376 21.608C391.138 21.3133 390.759 21.166 390.237 21.166C389.625 21.166 389.132 21.3587 388.758 21.744C388.396 22.1293 388.214 22.645 388.214 23.291V27.082C388.214 27.3993 388.118 27.6487 387.925 27.83C387.733 28.0113 387.472 28.102 387.143 28.102C386.815 28.102 386.554 28.0113 386.361 27.83C386.18 27.6487 386.089 27.3993 386.089 27.082V20.503C386.089 20.2083 386.186 19.9703 386.378 19.789C386.571 19.6077 386.832 19.517 387.16 19.517C387.455 19.517 387.693 19.6077 387.874 19.789C388.067 19.959 388.163 20.1857 388.163 20.469V20.928C388.447 20.4633 388.826 20.1063 389.302 19.857C389.778 19.6077 390.317 19.483 390.917 19.483ZM405.426 19.483C406.151 19.483 406.792 19.6587 407.347 20.01C407.902 20.3613 408.333 20.86 408.639 21.506C408.956 22.152 409.115 22.9057 409.115 23.767C409.115 24.6283 408.956 25.3933 408.639 26.062C408.333 26.7193 407.897 27.2293 407.33 27.592C406.775 27.9547 406.14 28.136 405.426 28.136C404.825 28.136 404.287 28.0057 403.811 27.745C403.346 27.4843 402.989 27.1217 402.74 26.657V27.082C402.74 27.388 402.644 27.6317 402.451 27.813C402.258 27.9943 402.003 28.085 401.686 28.085C401.369 28.085 401.114 27.9943 400.921 27.813C400.74 27.6317 400.649 27.388 400.649 27.082V16.916C400.649 16.6213 400.745 16.3833 400.938 16.202C401.142 16.0207 401.403 15.93 401.72 15.93C402.037 15.93 402.292 16.015 402.485 16.185C402.678 16.355 402.774 16.5873 402.774 16.882V20.894C403.023 20.4407 403.38 20.095 403.845 19.857C404.31 19.6077 404.837 19.483 405.426 19.483ZM404.865 26.487C405.534 26.487 406.055 26.249 406.429 25.773C406.803 25.297 406.99 24.6283 406.99 23.767C406.99 22.917 406.803 22.2653 406.429 21.812C406.066 21.3587 405.545 21.132 404.865 21.132C404.185 21.132 403.658 21.3643 403.284 21.829C402.921 22.2823 402.74 22.9397 402.74 23.801C402.74 24.6623 402.921 25.3253 403.284 25.79C403.658 26.2547 404.185 26.487 404.865 26.487ZM417.438 25.722C417.631 25.722 417.784 25.7957 417.897 25.943C418.022 26.0903 418.084 26.2887 418.084 26.538C418.084 26.8893 417.874 27.184 417.455 27.422C417.07 27.6373 416.633 27.813 416.146 27.949C415.659 28.0737 415.194 28.136 414.752 28.136C413.415 28.136 412.355 27.7507 411.573 26.98C410.791 26.2093 410.4 25.1553 410.4 23.818C410.4 22.968 410.57 22.2143 410.91 21.557C411.25 20.8997 411.726 20.3897 412.338 20.027C412.961 19.6643 413.664 19.483 414.446 19.483C415.194 19.483 415.846 19.6473 416.401 19.976C416.956 20.3047 417.387 20.7693 417.693 21.37C417.999 21.9707 418.152 22.679 418.152 23.495C418.152 23.9823 417.937 24.226 417.506 24.226H412.491C412.559 25.008 412.78 25.586 413.154 25.96C413.528 26.3227 414.072 26.504 414.786 26.504C415.149 26.504 415.466 26.4587 415.738 26.368C416.021 26.2773 416.339 26.1527 416.69 25.994C417.03 25.8127 417.279 25.722 417.438 25.722ZM414.497 20.979C413.919 20.979 413.454 21.1603 413.103 21.523C412.763 21.8857 412.559 22.407 412.491 23.087H416.333C416.31 22.3957 416.14 21.8743 415.823 21.523C415.506 21.1603 415.064 20.979 414.497 20.979ZM424.039 17.596C423.518 17.63 423.138 17.7887 422.9 18.072C422.662 18.3553 422.543 18.7633 422.543 19.296V19.687H423.988C424.623 19.687 424.94 19.9533 424.94 20.486C424.94 21.0187 424.623 21.285 423.988 21.285H422.543V27.082C422.543 27.4107 422.441 27.66 422.237 27.83C422.045 28 421.795 28.085 421.489 28.085C421.183 28.085 420.928 28 420.724 27.83C420.52 27.66 420.418 27.4107 420.418 27.082V21.285H419.568C418.934 21.285 418.616 21.0187 418.616 20.486C418.616 19.9533 418.934 19.687 419.568 19.687H420.418V19.568C420.418 18.5027 420.696 17.6697 421.251 17.069C421.818 16.457 422.611 16.1113 423.631 16.032L424.073 15.998C424.527 15.964 424.844 16.015 425.025 16.151C425.218 16.2757 425.314 16.474 425.314 16.746C425.314 17.2333 425.037 17.5053 424.481 17.562L424.039 17.596ZM429.641 28.136C428.791 28.136 428.043 27.9603 427.397 27.609C426.762 27.2577 426.269 26.7533 425.918 26.096C425.567 25.4387 425.391 24.6737 425.391 23.801C425.391 22.9283 425.567 22.169 425.918 21.523C426.269 20.8657 426.762 20.3613 427.397 20.01C428.043 19.6587 428.791 19.483 429.641 19.483C430.491 19.483 431.233 19.6587 431.868 20.01C432.514 20.3613 433.007 20.8657 433.347 21.523C433.698 22.169 433.874 22.9283 433.874 23.801C433.874 24.6737 433.698 25.4387 433.347 26.096C433.007 26.7533 432.514 27.2577 431.868 27.609C431.233 27.9603 430.491 28.136 429.641 28.136ZM429.624 26.487C430.315 26.487 430.842 26.2603 431.205 25.807C431.568 25.3537 431.749 24.685 431.749 23.801C431.749 22.9283 431.568 22.2653 431.205 21.812C430.842 21.3473 430.321 21.115 429.641 21.115C428.961 21.115 428.434 21.3473 428.06 21.812C427.697 22.2653 427.516 22.9283 427.516 23.801C427.516 24.685 427.697 25.3537 428.06 25.807C428.423 26.2603 428.944 26.487 429.624 26.487ZM440.269 19.517C440.564 19.4943 440.796 19.5567 440.966 19.704C441.136 19.8513 441.221 20.0723 441.221 20.367C441.221 20.673 441.148 20.8997 441 21.047C440.853 21.1943 440.587 21.2907 440.201 21.336L439.691 21.387C439.023 21.455 438.53 21.6817 438.212 22.067C437.906 22.4523 437.753 22.934 437.753 23.512V27.082C437.753 27.4107 437.651 27.6657 437.447 27.847C437.243 28.017 436.988 28.102 436.682 28.102C436.376 28.102 436.121 28.017 435.917 27.847C435.725 27.6657 435.628 27.4107 435.628 27.082V20.503C435.628 20.1857 435.725 19.942 435.917 19.772C436.121 19.602 436.371 19.517 436.665 19.517C436.96 19.517 437.198 19.602 437.379 19.772C437.561 19.9307 437.651 20.163 437.651 20.469V21.149C437.867 20.6503 438.184 20.265 438.603 19.993C439.034 19.721 439.51 19.568 440.031 19.534L440.269 19.517ZM448.549 25.722C448.742 25.722 448.895 25.7957 449.008 25.943C449.133 26.0903 449.195 26.2887 449.195 26.538C449.195 26.8893 448.986 27.184 448.566 27.422C448.181 27.6373 447.745 27.813 447.257 27.949C446.77 28.0737 446.305 28.136 445.863 28.136C444.526 28.136 443.466 27.7507 442.684 26.98C441.902 26.2093 441.511 25.1553 441.511 23.818C441.511 22.968 441.681 22.2143 442.021 21.557C442.361 20.8997 442.837 20.3897 443.449 20.027C444.073 19.6643 444.775 19.483 445.557 19.483C446.305 19.483 446.957 19.6473 447.512 19.976C448.068 20.3047 448.498 20.7693 448.804 21.37C449.11 21.9707 449.263 22.679 449.263 23.495C449.263 23.9823 449.048 24.226 448.617 24.226H443.602C443.67 25.008 443.891 25.586 444.265 25.96C444.639 26.3227 445.183 26.504 445.897 26.504C446.26 26.504 446.577 26.4587 446.849 26.368C447.133 26.2773 447.45 26.1527 447.801 25.994C448.141 25.8127 448.391 25.722 448.549 25.722ZM445.608 20.979C445.03 20.979 444.566 21.1603 444.214 21.523C443.874 21.8857 443.67 22.407 443.602 23.087H447.444C447.422 22.3957 447.252 21.8743 446.934 21.523C446.617 21.1603 446.175 20.979 445.608 20.979Z" fill="#334D6E"/>
<defs>
<clipPath id="clip0">
<rect width="278.947" height="0.775137" fill="white" transform="translate(243.082 34.8813)"/>
</clipPath>
<clipPath id="clip1">
<rect width="103.314" height="7.75137" fill="white" transform="translate(99.1816 76)"/>
</clipPath>
</defs>
</svg>
