<svg width="50" height="50" viewBox="0 0 50 50" fill="none" xmlns="http://www.w3.org/2000/svg">
<path d="M50 25.0005C50 11.1922 38.8071 0.000244141 25.0004 0.000244141C11.193 0.000244141 0 11.1922 0 25.0005C0 38.8067 11.193 49.9996 25.0004 49.9996C38.8071 49.9996 50 38.8067 50 25.0005Z" fill="#6BC1FF"/>
<path d="M31.7687 36.2339C31.6289 36.0292 31.3607 35.9563 31.1368 36.0624C28.6596 37.2351 25.848 38.475 25.2961 38.5833C25.2822 38.5709 25.2602 38.5482 25.2312 38.509C25.1565 38.4077 25.1201 38.2754 25.1201 38.1044C25.1201 36.7031 26.1777 32.4404 28.2634 25.4352C30.0221 19.5493 30.2254 18.3307 30.2254 17.9261C30.2254 17.3015 29.9863 16.7737 29.5336 16.3997C29.1036 16.0451 28.5028 15.8654 27.748 15.8654C26.4924 15.8654 25.0373 16.3421 23.2992 17.3227C21.615 18.2733 19.7366 19.8834 17.7167 22.1082C17.5586 22.2824 17.5421 22.5429 17.6769 22.7358C17.8119 22.9288 18.0624 23.0023 18.2801 22.9136C18.9893 22.6242 22.5532 21.1642 23.0727 20.8379C23.498 20.5713 23.8663 20.4359 24.1672 20.4359C24.178 20.4359 24.1872 20.4363 24.195 20.4369C24.1986 20.4569 24.202 20.4873 24.202 20.531C24.202 20.838 24.1389 21.2015 24.015 21.6096C20.9781 31.4493 19.5018 37.4813 19.5018 40.0507C19.5018 40.9574 19.7539 41.6874 20.2508 42.2201C20.7572 42.7636 21.4402 43.0391 22.281 43.0391C23.177 43.0391 24.2674 42.6648 25.6146 41.8949C26.9182 41.15 28.9079 39.5113 31.6976 36.8847C31.8783 36.7147 31.9084 36.4387 31.7687 36.2339Z" fill="white"/>
<path d="M31.6729 7.72658C31.1766 7.21858 30.5415 6.961 29.7855 6.961C28.8442 6.961 28.0244 7.33296 27.3492 8.06659C26.6846 8.78814 26.3477 9.67354 26.3477 10.6981C26.3477 11.5076 26.5959 12.1785 27.0853 12.6919C27.5813 13.2131 28.2078 13.4774 28.9472 13.4774C29.85 13.4774 30.6653 13.0846 31.3706 12.3098C32.0635 11.5487 32.4149 10.6538 32.4149 9.65006C32.415 8.87874 32.1654 8.23166 31.6729 7.72658Z" fill="white"/>
</svg>
