<svg xmlns="http://www.w3.org/2000/svg" width="15" height="15" viewBox="0 0 15 15">
  <path id="Path_4165" data-name="Path 4165" d="M3.5,10.133a.3.3,0,0,1-.3-.3V3.5a.3.3,0,0,1,.3-.3H8.167a.3.3,0,0,1,.3.3V9.833a.3.3,0,0,1-.3.3Zm0,6.667a.3.3,0,0,1-.3-.3v-3a.3.3,0,0,1,.3-.3H8.167a.3.3,0,0,1,.3.3v3a.3.3,0,0,1-.3.3Zm8.333,0a.3.3,0,0,1-.3-.3V10.167a.3.3,0,0,1,.3-.3H16.5a.3.3,0,0,1,.3.3V16.5a.3.3,0,0,1-.3.3Zm-.3-13.3a.3.3,0,0,1,.3-.3H16.5a.3.3,0,0,1,.3.3v3a.3.3,0,0,1-.3.3H11.833a.3.3,0,0,1-.3-.3Z" transform="translate(-2.5 -2.5)" fill="none" stroke="#334d6e" stroke-width="1.4"/>
</svg>
