<svg width="25" height="15" viewBox="0 0 25 15" fill="none" xmlns="http://www.w3.org/2000/svg">
<path d="M12.5 0C6.81818 0 1.93182 3.1 0 7.5C1.93182 11.9 6.81818 15 12.5 15C18.1818 15 23.0682 11.9 25 7.5C23.0682 3.1 18.1818 0 12.5 0ZM12.5 12.5C9.31818 12.5 6.81818 10.3 6.81818 7.5C6.81818 4.7 9.31818 2.5 12.5 2.5C15.6818 2.5 18.1818 4.7 18.1818 7.5C18.1818 10.3 15.6818 12.5 12.5 12.5ZM12.5 4.5C10.5682 4.5 9.09091 5.8 9.09091 7.5C9.09091 9.2 10.5682 10.5 12.5 10.5C14.4318 10.5 15.9091 9.2 15.9091 7.5C15.9091 5.8 14.4318 4.5 12.5 4.5Z" fill="#334D6E" fill-opacity="0.5"/>
</svg>
