<svg width="30" height="20" viewBox="0 0 30 20" fill="none" xmlns="http://www.w3.org/2000/svg">
<path d="M15.0685 3.33338C18.9041 3.33338 21.9178 6.2667 21.9178 10C21.9178 10.8 21.7808 11.7334 21.3699 12.4L25.3425 16.2666C27.3973 14.5333 29.0411 12.4 30 9.99997C27.6712 4.13332 21.7808 -1.59569e-06 14.9315 -1.59569e-06C13.0137 -1.59569e-06 11.2329 0.399997 9.45205 0.933329L12.4658 3.86665C13.2877 3.46671 14.2466 3.33338 15.0685 3.33338ZM5.06849 3.33338C2.73973 5.0667 0.958904 7.33336 0 10C2.32877 15.8667 8.21918 20 15.0685 20C17.1233 20 19.1781 19.6 21.0959 18.9333L21.8076 18.6797L22.0762 18.5621L23.422 17.8431L6.55385 2.36606L5.06849 3.33338ZM8.90411 7.0667L10.9589 9.06669C10.9589 9.46669 10.9589 9.73336 10.9589 10C10.9589 12.2667 12.7397 14 15.0685 14C15.3425 14 15.6164 14 16.0274 13.8667L18.0822 15.8667C17.1233 16.4 16.1644 16.6667 15.0685 16.6667C11.2329 16.6667 8.21918 13.7333 8.21918 10C8.21918 8.93336 8.49315 8.00003 8.90411 7.0667ZM14.7945 6.00003L19.0411 10.1334C19.0411 10 19.0411 10 19.0411 9.86669C19.0411 7.60003 17.2603 5.8667 14.9315 5.8667C14.9315 6.00004 14.9315 6.00003 14.7945 6.00003Z" fill="#334D6E" fill-opacity="0.5"/>
</svg>
