<svg width="90" height="90" viewBox="0 0 90 90" fill="none" xmlns="http://www.w3.org/2000/svg">
<path d="M22.1831 70.7052C21.8171 70.7077 21.4637 70.5718 21.1937 70.3248C18.1035 67.5282 15.6305 64.118 13.9325 60.3119C12.2344 56.5057 11.3488 52.3873 11.332 48.2197C11.3377 41.3995 13.7012 34.791 18.0221 29.5141C22.4117 24.1572 28.3316 20.2674 34.9907 18.3643C35.3367 18.2568 35.7107 18.2855 36.0363 18.4444C36.3619 18.6032 36.6146 18.8804 36.7428 19.2193C36.7944 19.3866 36.8113 19.5626 36.7925 19.7366C36.7737 19.9107 36.7195 20.079 36.6332 20.2313C36.547 20.3837 36.4305 20.5168 36.291 20.6224C36.1514 20.7281 35.9917 20.8042 35.8218 20.8459C29.7158 22.5913 24.2879 26.1583 20.2631 31.0705C16.3013 35.9092 14.1347 41.969 14.1304 48.2227C14.1458 52.0438 14.9577 55.8198 16.5145 59.3095C18.0713 62.7992 20.3387 65.9259 23.1719 68.49C23.3009 68.6058 23.4041 68.7475 23.4747 68.9058C23.5454 69.0641 23.5819 69.2355 23.5819 69.4089C23.5819 69.5823 23.5454 69.7537 23.4747 69.912C23.4041 70.0703 23.3009 70.212 23.1719 70.3278C22.9015 70.5736 22.5484 70.7083 22.1831 70.7052Z" fill="#344968"/>
<path d="M45.0018 79.4809C40.3061 79.4943 35.6541 78.5794 31.3133 76.7887C31.1499 76.7281 31.0007 76.6344 30.8752 76.5135C30.7497 76.3926 30.6506 76.247 30.5841 76.0859C30.5175 75.9248 30.485 75.7517 30.4885 75.5774C30.4921 75.4032 30.5317 75.2315 30.6047 75.0733C30.773 74.7507 31.0568 74.5036 31.3994 74.3812C31.742 74.2588 32.1182 74.2703 32.4527 74.4133C36.6736 76.1404 41.2056 76.9771 45.7649 76.8709C50.3242 76.7646 54.8124 75.7178 58.9482 73.7959C63.0636 71.867 66.7001 69.0496 69.5959 65.5465C69.8449 65.2417 70.0897 64.9303 70.3225 64.6207C70.5494 64.3347 70.8747 64.1433 71.2349 64.084C71.5952 64.0247 71.9646 64.1016 72.2713 64.2997C72.4197 64.3899 72.5475 64.5102 72.6465 64.6528C72.7455 64.7954 72.8135 64.9572 72.846 65.1278C72.8786 65.2983 72.875 65.4738 72.8356 65.6429C72.7961 65.8119 72.7216 65.9708 72.6169 66.1093C72.3631 66.4471 72.0961 66.7867 71.8243 67.1185C68.6672 70.9404 64.7015 74.0142 60.213 76.1185C55.455 78.3541 50.2589 79.5027 45.0018 79.4809Z" fill="#344968"/>
<path d="M77.1736 47.1457C76.8333 47.156 76.5015 47.0386 76.2436 46.8165C75.9856 46.5944 75.8201 46.2837 75.7798 45.9457C75.2709 40.1215 72.9095 34.6135 69.0418 30.2293C65.0997 25.7326 59.9402 22.4733 54.1863 20.8448L54.0501 20.8046C53.8805 20.7616 53.7215 20.6844 53.5828 20.5777C53.4442 20.471 53.3288 20.3371 53.2438 20.1842C53.1588 20.0313 53.1059 19.8626 53.0884 19.6886C53.071 19.5145 53.0893 19.3387 53.1423 19.172C53.2731 18.834 53.5278 18.5587 53.8546 18.4021C54.1813 18.2455 54.5555 18.2193 54.9009 18.329L55.0209 18.365C61.2954 20.1408 66.9219 23.6948 71.221 28.5979C75.4404 33.3811 78.0165 39.3901 78.5716 45.7441C78.5801 45.9205 78.5534 46.0968 78.4931 46.2629C78.4329 46.4289 78.3403 46.5813 78.2207 46.7112C78.101 46.8412 77.9568 46.9461 77.7963 47.0198C77.6359 47.0936 77.4623 47.1347 77.2858 47.1409C77.2468 47.1445 77.2102 47.1457 77.1736 47.1457Z" fill="#344968"/>
<path d="M88.5027 52.315C88.4709 52.315 88.4385 52.315 88.4055 52.312C88.2288 52.3075 88.0548 52.268 87.8935 52.1958C87.7322 52.1236 87.5869 52.0201 87.4659 51.8913C87.3449 51.7625 87.2507 51.6109 87.1886 51.4455C87.1266 51.28 87.0981 51.1038 87.1047 50.9272C87.1707 50.0308 87.2037 49.1194 87.2037 48.2188C87.1947 40.0697 84.4989 32.1509 79.5338 25.6889C74.5229 19.1422 67.6898 14.2215 59.8921 11.5445C59.7252 11.4933 59.5706 11.4082 59.4379 11.2947C59.3052 11.1812 59.1973 11.0416 59.1208 10.8846C59.0444 10.7276 59.001 10.5566 58.9934 10.3822C58.9858 10.2077 59.0142 10.0336 59.0767 9.87052C59.2256 9.5395 59.4944 9.27725 59.8291 9.13672C60.1637 8.99618 60.5392 8.98782 60.8797 9.11332C69.1927 11.9675 76.4774 17.2133 81.8198 24.1925C87.1151 31.0835 89.9904 39.5283 90.0003 48.2188C90.0003 49.1788 89.9649 50.1496 89.8947 51.1042C89.8573 51.4441 89.6933 51.7573 89.4353 51.9817C89.1774 52.2061 88.8444 52.3251 88.5027 52.315Z" fill="#8BA7BC"/>
<path d="M44.9975 89.9996C36.5492 90.026 28.2472 87.7958 20.9494 83.5394C20.7969 83.4562 20.6635 83.3419 20.5578 83.204C20.4521 83.0661 20.3764 82.9076 20.3356 82.7387C20.2948 82.5698 20.2898 82.3942 20.3209 82.2233C20.352 82.0523 20.4185 81.8898 20.5162 81.746C20.7301 81.4504 21.0467 81.2452 21.404 81.1709C21.7613 81.0965 22.1335 81.1583 22.4476 81.344C30.0577 85.7589 38.7979 87.8386 47.5808 87.3245C56.3637 86.8104 64.8016 83.7252 71.8447 78.4527C79.1562 72.9436 84.2905 65.0324 86.3443 56.1111C86.4359 55.762 86.6588 55.4617 86.9664 55.273C87.2741 55.0843 87.6428 55.0217 87.9955 55.0983C88.1693 55.1241 88.3361 55.1847 88.4859 55.2765C88.6357 55.3683 88.7654 55.4895 88.8673 55.6326C88.9691 55.7758 89.0411 55.938 89.0787 56.1096C89.1163 56.2812 89.1189 56.4587 89.0863 56.6313C86.8971 66.1446 81.4228 74.581 73.6267 80.4561C65.3835 86.6814 55.3273 90.0337 44.9975 89.9996Z" fill="#8BA7BC"/>
<path d="M4.72564 65.0528C4.45606 65.0575 4.19083 64.9845 3.96157 64.8426C3.73232 64.7006 3.54871 64.4958 3.43264 64.2524C1.16461 59.2125 -0.00548117 53.7478 1.93031e-05 48.2211C0.0523916 38.5737 3.5848 29.2694 9.94807 22.0179C16.4761 14.6168 25.2217 9.52428 34.8806 7.49977C35.2324 7.41476 35.6034 7.46875 35.9163 7.65049C36.2293 7.83223 36.4601 8.12771 36.5606 8.47537C36.5983 8.6471 36.6008 8.82471 36.5679 8.99743C36.535 9.17016 36.4674 9.33442 36.3692 9.48026C36.271 9.6261 36.1442 9.75049 35.9965 9.84591C35.8488 9.94132 35.6833 10.0058 35.51 10.0354C26.452 11.9327 18.25 16.7073 12.1273 23.6469C6.15955 30.4474 2.84715 39.1735 2.79903 48.2211C2.79344 53.4044 3.89052 58.5296 6.01745 63.2564C6.08614 63.4168 6.12099 63.5897 6.11981 63.7641C6.11863 63.9386 6.08145 64.111 6.0106 64.2704C5.93975 64.4298 5.83675 64.5729 5.70805 64.6907C5.57935 64.8085 5.42772 64.8985 5.26265 64.955C5.09119 65.0204 4.90914 65.0536 4.72564 65.0528Z" fill="#8BA7BC"/>
<path d="M27.7188 38.5243V52.953H62.2855V37.2613C62.2855 34.0867 59.5135 31.5133 56.0941 31.5133H53.5807L53.3905 31.1497C52.8497 30.1659 52.0512 29.3481 51.0807 28.7839C50.1101 28.2198 49.0043 27.9306 47.8818 27.9475H39.1116C32.8194 27.9469 27.7188 32.6827 27.7188 38.5243Z" fill="#F9DC6A"/>
<path d="M56.0886 31.5123H53.5752L53.385 31.1487C52.8442 30.165 52.0457 29.3471 51.0752 28.783C50.1047 28.2188 48.9988 27.9296 47.8764 27.9465H44.2266C45.349 27.9296 46.4549 28.2188 47.4254 28.783C48.3959 29.3471 49.1944 30.165 49.7352 31.1487L49.9254 31.5123H52.4394C55.8594 31.5123 58.6308 34.0863 58.6308 37.2603V52.952H62.2806V37.2609C62.2806 34.0863 59.5086 31.5123 56.0886 31.5123Z" fill="#E5AC51"/>
<path d="M64.6044 52.4092V53.7844C64.5736 54.5848 64.2267 55.3404 63.6397 55.8854C63.0527 56.4305 62.2735 56.7205 61.473 56.692H58.3884C58.2882 58.2919 57.8701 59.8557 57.1587 61.2922C56.4472 62.7287 55.4566 64.009 54.2448 65.0584C51.6843 67.2924 48.3955 68.5134 44.9975 68.4915C37.8269 68.4915 31.9715 63.2674 31.6067 56.6926H28.522C27.7215 56.7211 26.9423 56.4311 26.3553 55.886C25.7683 55.341 25.4214 54.5854 25.3906 53.785V52.4098C25.4214 51.6094 25.7683 50.8538 26.3553 50.3087C26.9423 49.7637 27.7215 49.4737 28.522 49.5022H31.5875V44.3038H42.8423C48.1979 44.3038 52.6482 40.7092 53.5452 35.9752C53.5687 35.8791 53.6164 35.7907 53.6839 35.7183C53.7514 35.646 53.8363 35.5922 53.9306 35.5621C54.0248 35.532 54.1252 35.5266 54.2221 35.5464C54.3191 35.5662 54.4093 35.6106 54.4842 35.6752C55.6999 36.6701 56.6815 37.9207 57.3591 39.338C58.0367 40.7553 58.3937 42.3045 58.4046 43.8754V49.5028H61.47C62.2709 49.4733 63.0507 49.7627 63.6384 50.3076C64.2261 50.8525 64.5735 51.6084 64.6044 52.4092Z" fill="#FFCCAA"/>
<path d="M61.468 49.5022H58.4026V43.8748C58.3915 42.304 58.0345 40.7549 57.3569 39.3378C56.6793 37.9206 55.6978 36.6701 54.4822 35.6752C54.4073 35.6106 54.3171 35.5662 54.2202 35.5464C54.1232 35.5266 54.0228 35.532 53.9286 35.5621C53.8343 35.5922 53.7494 35.646 53.6819 35.7183C53.6144 35.7907 53.5667 35.8791 53.5432 35.9752C53.3959 36.7443 53.1541 37.4922 52.8231 38.2018C53.7972 39.9333 54.3064 41.8875 54.301 43.8742V49.5016L54.2842 56.6926C54.1472 59.8333 52.8549 62.8128 50.6553 65.059C48.7983 66.9589 46.3371 68.1521 43.6953 68.4333C44.1225 68.4733 44.5551 68.4933 44.9931 68.4933C48.391 68.5153 51.6798 67.2945 54.2404 65.0608C55.4524 64.0116 56.4431 62.7313 57.1546 61.2948C57.8661 59.8583 58.284 58.2943 58.384 56.6944H61.4686C62.2691 56.7229 63.0483 56.4329 63.6353 55.8878C64.2223 55.3428 64.5692 54.5872 64.6 53.7868V52.4116C64.5695 51.6108 64.2227 50.8548 63.6355 50.3093C63.0484 49.7639 62.2689 49.4737 61.468 49.5022Z" fill="#F2A077"/>
<path d="M44.9971 61.5008C43.2104 61.5147 41.4847 60.8517 40.1671 59.645C39.5268 59.0566 39.016 58.3415 38.667 57.545C38.6002 57.3837 38.5674 57.2104 38.5705 57.0359C38.5737 56.8614 38.6128 56.6894 38.6854 56.5306C38.7581 56.3719 38.8627 56.2298 38.9927 56.1134C39.1227 55.9969 39.2753 55.9084 39.441 55.8536C39.7795 55.7217 40.1553 55.7227 40.4931 55.8562C40.8309 55.9897 41.1058 56.246 41.2627 56.5736C41.468 57.042 41.7686 57.4625 42.1453 57.8084C42.9233 58.5209 43.9421 58.9125 44.9971 58.9046C45.7791 58.9207 46.5489 58.7085 47.2123 58.2941C47.8758 57.8797 48.4041 57.281 48.7327 56.5712C48.8903 56.244 49.1657 55.9885 49.5037 55.8557C49.8417 55.723 50.2174 55.7229 50.5555 55.8554C50.7211 55.9105 50.8736 55.9992 51.0034 56.1159C51.1331 56.2326 51.2375 56.3749 51.3098 56.5337C51.3822 56.6925 51.421 56.8646 51.4239 57.0391C51.4267 57.2136 51.3936 57.3869 51.3265 57.548C50.7695 58.7505 49.8743 59.7647 48.7502 60.4666C47.6262 61.1686 46.322 61.528 44.9971 61.5008Z" fill="#475D6D"/>
<path d="M38.2781 51.6081C37.9204 51.6208 37.5722 51.4911 37.3099 51.2475C37.0477 51.0039 36.8927 50.6662 36.8789 50.3085V49.7085C36.9053 49.3554 37.0642 49.0253 37.3237 48.7844C37.5833 48.5435 37.9243 48.4097 38.2784 48.4097C38.6325 48.4097 38.9735 48.5435 39.2331 48.7844C39.4926 49.0253 39.6515 49.3554 39.6779 49.7085V50.3085C39.6642 50.6663 39.5091 51.004 39.2467 51.2477C38.9843 51.4913 38.636 51.6209 38.2781 51.6081Z" fill="#475D6D"/>
<path d="M51.7078 51.6081C51.3501 51.6208 51.0019 51.4911 50.7396 51.2475C50.4773 51.0039 50.3223 50.6662 50.3086 50.3085V49.7085C50.335 49.3554 50.4939 49.0253 50.7534 48.7844C51.013 48.5435 51.354 48.4097 51.7081 48.4097C52.0622 48.4097 52.4032 48.5435 52.6628 48.7844C52.9223 49.0253 53.0812 49.3554 53.1076 49.7085V50.3085C53.0938 50.6663 52.9388 51.004 52.6763 51.2477C52.4139 51.4913 52.0656 51.6209 51.7078 51.6081Z" fill="#475D6D"/>
<path d="M15.5493 64.8037C9.51622 64.8037 4.625 69.3445 4.625 74.9437C4.625 83.0575 15.5493 88.4436 15.5493 88.4436C15.5493 88.4436 26.4735 83.0605 26.4735 74.9437C26.4729 69.3445 21.5823 64.8037 15.5493 64.8037ZM15.5493 79.3153C14.6993 79.2519 13.8862 78.9418 13.2099 78.4232C12.5335 77.9046 12.0231 77.1998 11.7413 76.3954C11.4595 75.591 11.4186 74.7219 11.6235 73.8945C11.8284 73.0672 12.2702 72.3176 12.8948 71.7376C13.5195 71.1577 14.2997 70.7726 15.14 70.6295C15.9802 70.4865 16.844 70.5917 17.6253 70.9323C18.4067 71.2729 19.0716 71.8341 19.5388 72.5471C20.0059 73.26 20.2548 74.0937 20.2551 74.9461C20.2088 76.1489 19.6875 77.2844 18.8053 78.1034C17.9232 78.9225 16.7522 79.3583 15.5493 79.3153Z" fill="#2BB4F3"/>
<path d="M75.7532 45.7188C71.6828 45.7188 68.3828 48.7823 68.3828 52.5617C68.3828 58.0361 75.7532 61.6679 75.7532 61.6679C75.7532 61.6679 83.1237 58.0361 83.1237 52.5617C83.1213 48.7823 79.8213 45.7188 75.7532 45.7188ZM75.7532 55.5095C75.1796 55.4669 74.6309 55.2578 74.1743 54.9079C73.7178 54.558 73.3733 54.0825 73.183 53.5396C72.9927 52.9968 72.965 52.4102 73.1032 51.8519C73.2415 51.2935 73.5396 50.7876 73.9611 50.3962C74.3826 50.0048 74.9092 49.7449 75.4763 49.6484C76.0433 49.5519 76.6262 49.6229 77.1535 49.8528C77.6808 50.0827 78.1295 50.4615 78.4447 50.9426C78.7599 51.4238 78.9278 51.9865 78.9279 52.5617C78.8966 53.3732 78.5449 54.1392 77.9498 54.6918C77.3547 55.2443 76.5648 55.5384 75.7532 55.5095Z" fill="#75DC5E"/>
<path d="M45.0037 0C39.6253 0 35.2656 4.04819 35.2656 9.04138C35.2656 16.2744 45.0037 21.0732 45.0037 21.0732C45.0037 21.0732 54.7417 16.2732 54.7417 9.04138C54.7423 4.04819 50.3821 0 45.0037 0ZM45.0037 12.936C43.9314 12.9742 42.8877 12.5858 42.1013 11.8557C41.315 11.1256 40.8503 10.1136 40.8091 9.04138C40.8872 7.98233 41.363 6.99203 42.1411 6.26929C42.9191 5.54654 43.9417 5.14485 45.0037 5.14485C46.0656 5.14485 47.0882 5.54654 47.8663 6.26929C48.6443 6.99203 49.1202 7.98233 49.1983 9.04138C49.157 10.1136 48.6923 11.1256 47.906 11.8557C47.1197 12.5858 46.076 12.9742 45.0037 12.936Z" fill="#FF5A59"/>
</svg>
